<svg width="50" height="50" viewBox="0 0 50 50" fill="none" xmlns="http://www.w3.org/2000/svg">
<g clip-path="url(#clip0_83_919)">
<path d="M14.8438 22.6562L14.8742 22.9281L15.2344 22.7867L14.8438 22.6562Z" fill="#FFD201"/>
<path d="M28.9062 7.8125C28.9062 4.53437 25.993 1.89766 22.6391 2.40547C21.6141 1.36797 20.2219 0.78125 18.75 0.78125C17.6273 0.78125 16.5398 1.12813 15.625 1.76797C14.7102 1.12813 13.6227 0.78125 12.5 0.78125C9.73281 0.78125 7.43906 2.84766 7.07969 5.51797C4.41016 5.87656 2.34375 8.17031 2.34375 10.9375C2.34375 12.6289 3.12656 14.2086 4.43359 15.2359C4.08984 15.8258 3.90625 16.4961 3.90625 17.1875C3.90625 19.0969 5.28359 20.6906 7.09687 21.0281C7.43437 22.8414 9.02812 24.2188 10.9375 24.2188C11.4781 24.2188 12.0094 24.1016 12.5 23.8867V17.1875L10.443 16.1586C9.78828 15.832 9.375 15.1633 9.375 14.4312C9.375 13.3648 10.2398 12.5 11.3062 12.5H12.5V10.9375C12.5 9.21172 13.8992 7.8125 15.625 7.8125H21.875C22.7383 7.8125 23.4375 8.51172 23.4375 9.375V11.0711V11.0813C24.3461 11.4039 25 12.2625 25 13.2812C25 14.3 24.3461 15.1586 23.4375 15.4812V15.4914V18.0602C23.4375 18.6203 23.3516 19.1602 23.193 19.668L23.5437 19.5305C26.5102 19.4734 28.9062 17.0422 28.9062 14.0625C28.9062 12.9398 28.5602 11.8516 27.9195 10.9375C28.5602 10.0234 28.9062 8.93516 28.9062 7.8125Z" fill="#FFD201"/>
<path d="M48.382 42.964C47.6438 42.9507 47.2937 42.6968 46.8227 42.3445C46.2656 41.9265 45.5719 41.407 44.2695 41.407C42.9672 41.407 42.2742 41.9273 41.7172 42.3445C41.2328 42.707 40.8836 42.9695 40.1023 42.9695C39.3219 42.9695 38.9727 42.7078 38.4891 42.3445C38.0203 41.9929 37.4422 41.5656 36.4859 41.4445C36.3562 41.6937 36.2406 41.9507 36.157 42.2195L38.7117 45.6257C38.9398 45.9296 39.0633 46.3 39.0633 46.6804C39.0633 47.1632 38.868 47.6 38.5531 47.9171V47.9179C39.2047 48.25 39.9438 48.4375 40.7258 48.4375H43.6492C46.2937 48.4375 48.4375 46.2937 48.4375 43.6492C48.4375 43.4179 48.4148 43.1898 48.382 42.964Z" fill="#FFD201"/>
<path d="M38.7109 45.625L37.3898 43.8633C36.8414 43.4539 36.1539 42.9688 34.8945 42.9688C33.5922 42.9688 32.8992 43.4891 32.3422 43.9063C31.8578 44.2688 31.5086 44.5312 30.7273 44.5312C29.9461 44.5312 29.5968 44.2695 29.114 43.9063C29.0453 43.8547 28.9758 43.8031 28.9062 43.7523V42.9688L28.125 44.0102V46.875C28.125 47.4234 27.8414 47.9039 27.414 48.1828L27.4133 48.1859C27.6781 48.3453 27.9883 48.4375 28.3203 48.4375H37.3047C38.2758 48.4375 39.0625 47.6508 39.0625 46.6797C39.0625 46.2992 38.939 45.9289 38.7109 45.625Z" fill="#FFD201"/>
<path d="M17.9687 21.0937C19.2304 21.0937 20.3648 20.3929 20.9289 19.264L21.0109 19.0991L19.6133 18.3999L19.5312 18.5655C19.2336 19.1608 18.6351 19.5312 17.9687 19.5312C17.3023 19.5312 16.7039 19.1608 16.4062 18.5655L16.3242 18.4007L14.9265 19.0999L15.0086 19.264C15.5726 20.3929 16.707 21.0937 17.9687 21.0937Z" fill="currentColor"/>
<path d="M47.2156 39.3703L44.5312 37.1344V30.4688C44.5312 29.607 43.8305 28.9062 42.9688 28.9062H41.4062C40.5445 28.9062 39.8438 29.607 39.8438 30.4688V37.1344L37.1594 39.3703C36.6992 39.7539 36.3156 40.2109 36.0039 40.7133L35.1562 39.5836V31.8328C39.1305 28.5531 41.4062 23.7484 41.4062 18.582V17.0445C42.3133 16.7211 42.9688 15.8617 42.9688 14.8445V11.7195C42.9688 10.4273 41.9172 9.37578 40.625 9.37578C40.35 9.37578 40.0891 9.43203 39.8438 9.51953V6.25C39.8438 4.95781 38.7922 3.90625 37.5 3.90625C36.2078 3.90625 35.1562 4.95781 35.1562 6.25V9.51875C34.9109 9.43125 34.65 9.375 34.375 9.375C33.0828 9.375 32.0312 10.4266 32.0312 11.7188C32.0312 13.0109 33.0828 14.0625 34.375 14.0625C34.65 14.0625 34.9109 14.0063 35.1562 13.9187V14.0625C35.1562 20.5242 29.8992 25.7812 23.4375 25.7812H19.3969L19.0836 24.1266C21.993 23.6367 24.2188 21.107 24.2188 18.0602V15.9711C25.1484 15.4289 25.7812 14.432 25.7812 13.2805C25.7812 12.1289 25.1484 11.132 24.2188 10.5898V9.375C24.2188 8.08281 23.1672 7.03125 21.875 7.03125H18.75C18.3188 7.03125 17.9688 6.68047 17.9688 6.25C17.9688 5.81953 18.3188 5.46875 18.75 5.46875H19.5312V3.90625H18.75C17.4578 3.90625 16.4062 4.95781 16.4062 6.25C16.4062 6.525 16.4625 6.78594 16.55 7.03125H15.625C13.4711 7.03125 11.7188 8.78359 11.7188 10.9375V11.7188H11.3062C9.81094 11.7188 8.59375 12.9359 8.59375 14.4312C8.59375 15.4656 9.16797 16.3953 10.093 16.857L11.7188 17.6703V25.8703C5.53125 26.6789 0.78125 31.9984 0.78125 38.3094V40.625C0.78125 45.3633 4.63672 49.2188 9.375 49.2188H19.5312C19.982 49.2188 20.4086 49.1188 20.7961 48.9461C21.1273 49.1188 21.4945 49.2188 21.875 49.2188H26.5625C26.8672 49.2188 27.1562 49.1562 27.4234 49.05C27.7094 49.1578 28.0117 49.2188 28.3203 49.2188H37.3047C37.8055 49.2188 38.2703 49.068 38.6641 48.8164C39.3172 49.0766 40.0195 49.2188 40.7258 49.2188H43.6492C46.7203 49.2188 49.2188 46.7203 49.2188 43.6492C49.2188 41.9914 48.4883 40.4313 47.2156 39.3703ZM42.9688 30.4688V33.5938H41.4062V30.4688H42.9688ZM33.5938 36.7188H32.0312V35.1562H33.5938V36.7188ZM27.3438 38.2812H25.7812V35.7969L27.5891 35.4352C28.5742 35.2383 29.5375 34.9516 30.4688 34.5891V39.5836L28.9062 41.6672V39.8438C28.9062 38.982 28.2055 38.2812 27.3438 38.2812ZM33.5938 33.5938H32.0312V30.4688H33.5938V33.5938ZM40.625 10.9375C41.0563 10.9375 41.4062 11.2883 41.4062 11.7188V14.8438C41.4062 15.2742 41.0563 15.625 40.625 15.625C40.1937 15.625 39.8438 15.2742 39.8438 14.8438V11.7188C39.8438 11.2883 40.1937 10.9375 40.625 10.9375ZM37.5 5.46875C37.9313 5.46875 38.2812 5.81953 38.2812 6.25V9.375H36.7188V6.25C36.7188 5.81953 37.0687 5.46875 37.5 5.46875ZM34.375 12.5C33.9437 12.5 33.5938 12.1492 33.5938 11.7188C33.5938 11.2883 33.9437 10.9375 34.375 10.9375C34.8063 10.9375 35.1562 11.2883 35.1562 11.7188C35.1562 12.1492 34.8063 12.5 34.375 12.5ZM36.7188 10.9375H38.2812V16.4062C38.2812 16.8367 37.9313 17.1875 37.5 17.1875C37.0687 17.1875 36.7188 16.8367 36.7188 16.4062V10.9375ZM36.0406 18.2258C36.4422 18.5484 36.9453 18.75 37.5 18.75C38.5805 18.75 39.4836 18.0117 39.7531 17.0156C39.782 17.0273 39.8141 17.0328 39.8438 17.0437V18.582C39.8438 22.8883 38.1039 26.918 35.0305 29.857C34.7922 29.2984 34.2383 28.9062 33.5938 28.9062H32.0312C31.1695 28.9062 30.4688 29.607 30.4688 30.4688V32.8953C29.4484 33.3406 28.3813 33.6828 27.2828 33.9031L25.7812 34.2031V32.0312H24.2188V38.2812H21.0938V27.3438H23.4375C29.3062 27.3438 34.2891 23.5141 36.0406 18.2258ZM19.5312 42.9688H19.4289C19.268 42.4547 18.9211 42.0266 18.4719 41.7469L17.2219 32.9969L18.0406 31.7688L19.5312 32.5141V42.9688ZM15.307 42.6391L15.1422 42.9688H14.182L15.5211 33.5938H15.7281L16.8531 41.4688C16.1914 41.6039 15.6188 42.0164 15.307 42.6391ZM12.2156 27.3828L14.3063 29.4734L11.7188 30.7672V27.443C11.8828 27.418 12.0492 27.4 12.2156 27.3828ZM19.0734 27.3438H19.5312V30.7672L16.9438 29.4734L19.0734 27.3438ZM15.9883 32.0312H15.2617L14.6172 31.0648L15.625 30.5609L16.6328 31.0648L15.9883 32.0312ZM11.7188 32.5141L13.2094 31.7688L14.0281 32.9969L12.6031 42.9688H11.7188V32.5141ZM22.6562 14.8438C21.7945 14.8438 21.0938 14.143 21.0938 13.2812C21.0938 12.4195 21.7945 11.7188 22.6562 11.7188C23.518 11.7188 24.2188 12.4195 24.2188 13.2812C24.2188 14.143 23.518 14.8438 22.6562 14.8438ZM15.625 8.59375H21.875C22.3062 8.59375 22.6562 8.94453 22.6562 9.375V10.1562C21.5047 10.1562 20.5078 10.7891 19.9656 11.7188H17.5336C16.9914 10.7891 15.9945 10.1562 14.843 10.1562C14.2859 10.1562 13.7703 10.3148 13.3172 10.5711C13.4961 9.45312 14.4578 8.59375 15.625 8.59375ZM14.8438 11.7188C15.7055 11.7188 16.4062 12.4195 16.4062 13.2812C16.4062 14.143 15.7055 14.8438 14.8438 14.8438C13.982 14.8438 13.2812 14.143 13.2812 13.2812C13.2812 12.4195 13.982 11.7188 14.8438 11.7188ZM10.7914 15.4602C10.4 15.2641 10.1562 14.8695 10.1562 14.4312C10.1562 13.7977 10.6719 13.2812 11.3062 13.2812H11.7188C11.7188 15.0047 13.1203 16.4062 14.8438 16.4062C16.5672 16.4062 17.9688 15.0047 17.9688 13.2812H19.5312C19.5312 15.0047 20.9328 16.4062 22.6562 16.4062V18.0602C22.6562 20.5945 20.5945 22.6562 18.0602 22.6562C17.5648 22.6562 17.0758 22.5766 16.607 22.4203L15.0914 21.9148L14.5969 23.3969L16.1125 23.9023C16.5641 24.0523 17.0312 24.1305 17.5023 24.1734L17.9055 26.3016L15.625 28.5828L13.2812 26.2391V16.7047L10.7914 15.4602ZM2.34375 40.625V38.3094C2.34375 33.4016 5.62656 29.1781 10.1562 27.7977V42.9688H9.375C8.08281 42.9688 7.03125 41.9172 7.03125 40.625V35.1562H5.46875V40.625C5.46875 42.7789 7.22109 44.5312 9.375 44.5312H14.8438V47.6562H9.375C5.49766 47.6562 2.34375 44.5016 2.34375 40.625ZM16.4062 47.6562V43.9344L16.7047 43.3375C16.818 43.1102 17.0469 42.9688 17.3016 42.9688C17.6688 42.9688 17.9688 43.268 17.9688 43.6359V44.5312H19.5312C20.393 44.5312 21.0938 45.232 21.0938 46.0938C21.0938 46.9555 20.393 47.6562 19.5312 47.6562H16.4062ZM22.2219 47.6562C22.4906 47.1945 22.6562 46.6656 22.6562 46.0938C22.6562 44.9422 22.0234 43.9453 21.0938 43.4031V39.8438H27.3438V41.4062H24.2188V42.9688H27.3438V44.5312H25.7812V46.0938H27.3438V46.875C27.3438 47.3055 26.9937 47.6562 26.5625 47.6562H22.2219ZM37.3047 47.6562H28.7625C28.85 47.4109 28.9062 47.15 28.9062 46.875V44.2711L32.0312 40.1047V38.2812H33.5938V40.1039L38.0859 46.0938C38.2117 46.2625 38.2812 46.4703 38.2812 46.6797C38.2812 47.218 37.843 47.6562 37.3047 47.6562ZM43.6492 47.6562H40.7258C40.3703 47.6562 40.0258 47.6063 39.6906 47.5172C39.7836 47.2539 39.8438 46.975 39.8438 46.6797C39.8438 46.1344 39.6641 45.593 39.3359 45.1562L37.0414 42.0969C37.2891 41.5078 37.6656 40.9828 38.1609 40.5703L41.4062 37.8656V35.1562H42.9688V37.8656L46.2141 40.5703C47.1305 41.3344 47.6562 42.4562 47.6562 43.6492C47.6562 45.8586 45.8586 47.6562 43.6492 47.6562Z" fill="currentColor"/>
</g>
<defs>
<clipPath id="clip0_83_919">
<rect width="50" height="50" fill="white"/>
</clipPath>
</defs>
</svg>
