<svg width="50" height="50" viewBox="0 0 50 50" fill="none" xmlns="http://www.w3.org/2000/svg">
<g clip-path="url(#clip0_83_892)">
<path d="M38.2812 25.7812H30.4688V18.75H38.2812V25.7812Z" fill="#FFD201"/>
<path d="M21.875 49.2188C17.9984 49.2188 14.8438 46.0641 14.8438 42.1875C14.8438 38.3109 17.9984 35.1562 21.875 35.1562C25.7516 35.1562 28.9062 38.3109 28.9062 42.1875C28.9062 46.0641 25.7516 49.2188 21.875 49.2188ZM21.875 39.0625C20.1516 39.0625 18.75 40.4641 18.75 42.1875C18.75 43.9109 20.1516 45.3125 21.875 45.3125C23.5984 45.3125 25 43.9109 25 42.1875C25 40.4641 23.5984 39.0625 21.875 39.0625Z" fill="#FFD201"/>
<path d="M25.7812 31.25H33.5938V35.1562H25.7812V31.25Z" fill="#FFD201"/>
<path d="M13.8961 16.6195C13.6352 15.5742 12.7 14.8438 11.6227 14.8438H8.59375V13.2812H11.6227C13.4187 13.2812 14.9766 14.4984 15.4125 16.2406L20.1945 35.368C20.6961 35.2445 21.2172 35.1719 21.7539 35.1625L16.9281 15.8617C16.3187 13.4227 14.1375 11.7188 11.6227 11.7188H3.125C1.83281 11.7188 0.78125 12.7703 0.78125 14.0625C0.78125 15.3547 1.83281 16.4062 3.125 16.4062H11.6227C11.9812 16.4062 12.293 16.65 12.3805 16.9984L17.3375 36.8258C17.7586 36.4688 18.2227 36.1641 18.7203 35.9133L13.8961 16.6195ZM2.34375 14.0625C2.34375 13.632 2.69453 13.2812 3.125 13.2812H7.03125V14.8438H3.125C2.69453 14.8438 2.34375 14.493 2.34375 14.0625Z" fill="currentColor"/>
<path d="M49.1398 36.8961C48.8141 35.6773 47.5281 34.907 46.2711 35.2359L46.0938 35.282V20.3125C46.0938 19.0203 45.0422 17.9688 43.75 17.9688H25C23.7078 17.9688 22.6562 19.0203 22.6562 20.3125V35.2023C23.1984 35.2625 23.7203 35.3898 24.2188 35.5664V20.3125C24.2188 19.882 24.5695 19.5313 25 19.5313H43.75C44.1805 19.5313 44.5313 19.882 44.5313 20.3125V35.6992L28.5398 39.9633C28.7031 40.4523 28.8188 40.9625 28.8711 41.4922L46.6711 36.7453C47.0945 36.632 47.5211 36.8914 47.6305 37.2977C47.7414 37.7141 47.493 38.1438 47.0773 38.2547L28.8375 43.1188C28.7562 43.7266 28.6023 44.3102 28.3758 44.8594L47.4797 39.7648C48.7273 39.4312 49.4719 38.1445 49.1398 36.8961Z" fill="currentColor"/>
<path d="M21.875 38.2812C19.7211 38.2812 17.9688 40.0336 17.9688 42.1875C17.9688 44.3414 19.7211 46.0938 21.875 46.0938C24.0289 46.0938 25.7812 44.3414 25.7812 42.1875C25.7812 40.0336 24.0289 38.2812 21.875 38.2812ZM21.875 44.5312C20.5828 44.5312 19.5312 43.4797 19.5312 42.1875C19.5312 40.8953 20.5828 39.8438 21.875 39.8438C23.1672 39.8438 24.2188 40.8953 24.2188 42.1875C24.2188 43.4797 23.1672 44.5312 21.875 44.5312Z" fill="currentColor"/>
<path d="M21.875 42.9688C22.3065 42.9688 22.6562 42.619 22.6562 42.1875C22.6562 41.756 22.3065 41.4062 21.875 41.4062C21.4435 41.4062 21.0938 41.756 21.0938 42.1875C21.0938 42.619 21.4435 42.9688 21.875 42.9688Z" fill="currentColor"/>
<path d="M33.5938 21.0938H35.1562V25.7812H33.5938V21.0938Z" fill="currentColor"/>
<path d="M28.9062 33.5938H30.4688V35.1562H28.9062V33.5938Z" fill="currentColor"/>
<path d="M25.7812 33.5938H27.3438V35.1562H25.7812V33.5938Z" fill="currentColor"/>
<path d="M32.0312 33.5938H33.5938V35.1562H32.0312V33.5938Z" fill="currentColor"/>
<path d="M25.7812 30.4688H33.5938V32.0312H25.7812V30.4688Z" fill="currentColor"/>
<path d="M34.375 16.4062C38.6828 16.4062 42.1875 12.9016 42.1875 8.59375C42.1875 4.28594 38.6828 0.78125 34.375 0.78125C30.0672 0.78125 26.5625 4.28594 26.5625 8.59375C26.5625 12.9016 30.0672 16.4062 34.375 16.4062ZM34.375 2.34375C37.8211 2.34375 40.625 5.14766 40.625 8.59375C40.625 12.0398 37.8211 14.8438 34.375 14.8438C30.9289 14.8438 28.125 12.0398 28.125 8.59375C28.125 5.14766 30.9289 2.34375 34.375 2.34375Z" fill="currentColor"/>
<path d="M36.4898 9.60391L35.1563 8.27031V3.90625H33.5938V8.91719L35.3852 10.7086L36.4898 9.60391Z" fill="currentColor"/>
<path d="M6.25 33.5938H10.9375C12.2297 33.5938 13.2812 32.5422 13.2812 31.25C13.2812 29.9578 12.2297 28.9062 10.9375 28.9062H4.6875C4.25703 28.9062 3.90625 28.5555 3.90625 28.125C3.90625 27.6945 4.25703 27.3438 4.6875 27.3438H12.5V25.7812H4.6875C3.39531 25.7812 2.34375 26.8328 2.34375 28.125C2.34375 29.4172 3.39531 30.4688 4.6875 30.4688H10.9375C11.368 30.4688 11.7188 30.8195 11.7188 31.25C11.7188 31.6805 11.368 32.0312 10.9375 32.0312H6.25C4.95781 32.0312 3.90625 33.0828 3.90625 34.375C3.90625 35.6672 4.95781 36.7188 6.25 36.7188H9.375C9.80547 36.7188 10.1562 37.0695 10.1562 37.5C10.1562 37.9305 9.80547 38.2812 9.375 38.2812H3.125C1.83281 38.2812 0.78125 39.3328 0.78125 40.625C0.78125 41.9172 1.83281 42.9688 3.125 42.9688H13.2812V41.4062H3.125C2.69453 41.4062 2.34375 41.0555 2.34375 40.625C2.34375 40.1945 2.69453 39.8438 3.125 39.8438H9.375C10.6672 39.8438 11.7188 38.7922 11.7188 37.5C11.7188 36.2078 10.6672 35.1562 9.375 35.1562H6.25C5.81953 35.1562 5.46875 34.8055 5.46875 34.375C5.46875 33.9445 5.81953 33.5938 6.25 33.5938Z" fill="currentColor"/>
</g>
<defs>
<clipPath id="clip0_83_892">
<rect width="50" height="50" fill="white"/>
</clipPath>
</defs>
</svg>
