<svg width="50" height="50" viewBox="0 0 50 50" fill="none" xmlns="http://www.w3.org/2000/svg">
<g clip-path="url(#clip0_89_815)">
<path d="M5.64516 40.3228H12.0968V49.1937H5.64516V40.3228Z" fill="#FFD201"/>
<path d="M31.4516 40.3228H37.9032V49.1937H31.4516V40.3228Z" fill="#FFD201"/>
<path d="M16.9355 40.3228H26.6129V49.1937H16.9355V40.3228Z" fill="#FFD201"/>
<path d="M41.3507 26.8652L39.9079 27.587L41.437 30.645H2.11142L3.72433 27.4192H29.0283V25.8063H13.5864L11.9735 16.1289H5.76841L4.15551 25.8063H2.72729L0 31.2613V49.9999H43.5484V31.2613L41.3507 26.8652ZM10.6071 17.7418L10.8757 19.3547H6.86626L7.13481 17.7418H10.6071ZM6.59692 20.9676H11.1442L11.9507 25.8063H5.79046L6.59692 20.9676ZM1.6129 48.387V32.2579H41.9355V48.387H1.6129Z" fill="currentColor"/>
<path d="M3.2258 38.7098H14.5161V33.8711H3.2258V38.7098ZM8.06451 37.0969V35.484H9.67741V37.0969H8.06451ZM12.9032 37.0969H11.2903V35.484H12.9032V37.0969ZM4.8387 35.484H6.45161V37.0969H4.8387V35.484Z" fill="currentColor"/>
<path d="M35.4839 29.0323C27.48 29.0323 20.9677 22.52 20.9677 14.5161C20.9677 6.51225 27.48 0 35.4839 0C43.4877 0 50 6.51225 50 14.5161C50 22.52 43.4877 29.0323 35.4839 29.0323Z" fill="#FFD201"/>
<path d="M35.6792 7.33702C37.7056 7.33702 39.5693 8.29587 40.7742 9.85404L38.4604 9.57564L38.2679 11.1763L42.966 11.7426L44.3273 6.66012L42.7695 6.24272L42.0603 8.88771C40.5557 6.92947 38.2194 5.72412 35.6784 5.72412C34.0619 5.72412 32.5026 6.20059 31.1685 7.10155L32.0718 8.43763C33.1378 7.71741 34.3856 7.33702 35.6792 7.33702Z" fill="currentColor"/>
<path d="M29.2276 13.789C29.2276 12.9372 29.4095 12.117 29.7257 11.3484L30.6397 13.4866L32.1226 12.8526L30.2636 8.50098L25.1815 9.86305L25.5993 11.4212L28.2203 10.7187C27.8226 11.6831 27.6147 12.7203 27.6147 13.789C27.6147 16.8679 29.3276 19.6358 32.0848 21.0096L32.805 19.5665C30.5975 18.4662 29.2276 16.2524 29.2276 13.789V13.789Z" fill="currentColor"/>
<path d="M36.5321 20.1774L37.9363 18.3058L36.6459 17.3379L33.8064 21.1232L37.5268 24.8436L38.6668 23.7032L36.7396 21.7757C40.6849 21.2532 43.7421 17.8758 43.7421 13.7896H42.1292C42.1308 17.0555 39.687 19.7572 36.5321 20.1774Z" fill="currentColor"/>
<path d="M40.3226 38.7098H29.0323V33.8711H40.3226V38.7098ZM30.6452 37.0969H38.7097V35.484H30.6452V37.0969Z" fill="currentColor"/>
<path d="M32.2581 34.6772H33.871V37.9031H32.2581V34.6772Z" fill="currentColor"/>
<path d="M35.4839 34.6772H37.0968V37.9031H35.4839V34.6772Z" fill="currentColor"/>
<path d="M27.4194 38.7098H16.129V33.8711H27.4194V38.7098ZM17.7419 37.0969H25.8064V35.484H17.7419V37.0969Z" fill="currentColor"/>
<path d="M19.3548 34.6772H20.9677V37.9031H19.3548V34.6772Z" fill="currentColor"/>
<path d="M22.5806 34.6772H24.1935V37.9031H22.5806V34.6772Z" fill="currentColor"/>
<path d="M12.0968 14.5161H10.4839C10.4839 12.8079 12.0728 12.0145 13.3494 11.3766C14.5776 10.7631 15.3226 10.3429 15.3226 9.67978C15.3226 9.01627 14.5768 8.59532 13.3494 7.98143C12.0728 7.34273 10.4839 6.54848 10.4839 4.8395C10.4839 3.13051 12.0728 2.33627 13.3494 1.69756C14.5776 1.08485 15.3226 0.663905 15.3226 0H16.9355C16.9355 1.7082 15.3466 2.50323 14.07 3.14114C12.8426 3.75465 12.0968 4.17599 12.0968 4.8395C12.0968 5.5034 12.8418 5.92435 14.07 6.53785C15.3466 7.17655 16.9355 7.9708 16.9355 9.67978C16.9355 11.388 15.3466 12.1814 14.07 12.8194C12.8418 13.4332 12.0968 13.8534 12.0968 14.5161Z" fill="currentColor"/>
<path d="M6.45162 14.5161H4.83871C4.83871 12.8079 6.4276 12.0145 7.70422 11.3766C8.9324 10.7631 9.67742 10.3429 9.67742 9.67978C9.67742 9.01627 8.93161 8.59532 7.70422 7.98143C6.4276 7.34273 4.83871 6.54848 4.83871 4.8395C4.83871 3.13051 6.4276 2.33627 7.70422 1.69756C8.9324 1.08485 9.67742 0.663905 9.67742 0H11.2903C11.2903 1.7082 9.70144 2.50323 8.42483 3.14114C7.19743 3.75465 6.45162 4.17599 6.45162 4.8395C6.45162 5.5034 7.19664 5.92435 8.42483 6.53785C9.70144 7.17655 11.2903 7.9708 11.2903 9.67978C11.2903 11.388 9.70144 12.1814 8.42483 12.8194C7.19664 13.4332 6.45162 13.8534 6.45162 14.5161Z" fill="currentColor"/>
</g>
<defs>
<clipPath id="clip0_89_815">
<rect width="50" height="50" fill="white"/>
</clipPath>
</defs>
</svg>
