<svg width="50" height="50" viewBox="0 0 50 50" fill="none" xmlns="http://www.w3.org/2000/svg">
<g clip-path="url(#clip0_89_850)">
<path d="M33.816 16.0834V12.8667H16.1243V20.1042H20.1451V23.3209H40.2493V16.0834H33.816Z" fill="#FFD201"/>
<path d="M0.0409546 0V31.3626H0.845123C0.845123 29.9192 1.80204 28.7121 3.11235 28.3042C2.47349 27.09 2.65058 25.5598 3.6711 24.5385C3.794 24.416 3.92515 24.3069 4.0618 24.2079V8.04169C6.28308 8.04169 8.08264 6.24134 8.08264 4.02084H41.8577C41.8577 6.24134 43.6577 8.04169 45.8786 8.04169V28.9501C43.6577 28.9501 41.8577 30.7504 41.8577 32.9709H19.7007C19.2978 33.6545 18.6527 34.1795 17.8783 34.421C18.291 35.2048 18.3578 36.1201 18.0817 36.945L18.2321 36.9918H49.8994V0L0.0409546 0Z" fill="#FFD201"/>
<path d="M40.2493 11.2586H9.69092V6.43359H40.2493V11.2586Z" fill="#FFD201"/>
<path d="M45.8786 7.23764C44.1045 7.23764 42.6619 5.79501 42.6619 4.02097V3.2168H7.27847V4.02097C7.27847 5.79501 5.83584 7.23764 4.0618 7.23764H3.25763V23.8358C3.20698 23.8813 3.1524 23.9218 3.10331 23.9709C2.06355 25.0106 1.69445 26.5008 2.08122 27.8775C0.834129 28.5787 0.0409546 29.8918 0.0409546 31.3627C0.0409546 32.8336 0.834129 34.1467 2.08122 34.848C1.69445 36.2254 2.06355 37.7148 3.10331 38.7545C3.25684 38.9081 3.42255 39.0416 3.59375 39.1664L0.359402 47.7936L4.5114 46.7554L6.67456 49.9999L9.78365 41.7462C10.0161 41.7878 10.2525 41.8169 10.4951 41.8169C10.7382 41.8169 10.9746 41.7878 11.207 41.7462L14.3157 49.9999L16.4789 46.7554L20.6317 47.7936L17.3966 39.1664C17.5678 39.0424 17.7335 38.9081 17.887 38.7545C18.9271 37.7148 19.2962 36.2246 18.9091 34.848C19.3948 34.5755 19.8091 34.2071 20.1365 33.7752H42.6619V32.971C42.6619 31.197 44.1045 29.7544 45.8786 29.7544H46.6827V7.23764H45.8786ZM17.009 28.2297C16.2975 26.7556 15.103 25.5615 13.629 24.8496L13.9274 24.693C14.8698 24.1967 16.0038 24.3631 16.7502 25.1088C17.4955 25.8533 17.662 26.9881 17.1665 27.9312L17.009 28.2297ZM16.1243 31.3627C16.1243 34.4667 13.5983 36.9919 10.4951 36.9919C7.39195 36.9919 4.86597 34.4667 4.86597 31.3627C4.86597 28.2587 7.39195 25.7335 10.4951 25.7335C13.5983 25.7335 16.1243 28.2587 16.1243 31.3627ZM10.4951 24.1252C9.65721 24.1252 8.85461 24.2756 8.1062 24.5394L8.20594 24.2194C8.52085 23.2013 9.44086 22.5168 10.4951 22.5168C11.5494 22.5168 12.4694 23.2013 12.7855 24.2186L12.8853 24.5387C12.1357 24.2756 11.3331 24.1252 10.4951 24.1252ZM3.9813 28.2297L3.82385 27.9305C3.32831 26.9873 3.4948 25.8525 4.24046 25.108C4.98573 24.3631 6.1213 24.1967 7.0629 24.6922L7.36133 24.8489C5.88728 25.5615 4.6932 26.7556 3.9813 28.2297ZM1.64929 31.3627C1.64929 30.3092 2.3337 29.3884 3.35108 29.0723L3.6711 28.9726C3.40802 29.7222 3.25763 30.5248 3.25763 31.3627C3.25763 32.2006 3.40802 33.0032 3.67189 33.7528L3.35187 33.6531C2.3337 33.337 1.64929 32.4162 1.64929 31.3627ZM3.82385 34.795L3.9813 34.4957C4.6932 35.9698 5.88728 37.1639 7.36133 37.8766L7.0629 38.0332C6.11973 38.5295 4.98573 38.3631 4.24046 37.6174C3.4948 36.8721 3.32831 35.7381 3.82385 34.795ZM6.27405 46.5006L5.22054 44.9201L2.93918 45.4902L5.06387 39.8257C5.69841 39.9659 6.36515 39.9569 7.00989 39.7766C7.3252 40.3381 7.7693 40.8003 8.29115 41.1462L6.27405 46.5006ZM8.20515 38.5068L8.10542 38.1868C8.85461 38.4498 9.65721 38.6002 10.4951 38.6002C11.3331 38.6002 12.1357 38.4498 12.8845 38.186L12.7848 38.506C12.4694 39.5242 11.5494 40.2086 10.4951 40.2086C9.44086 40.2086 8.52085 39.5242 8.20515 38.5068ZM18.0503 45.4902L15.7698 44.9201L14.7163 46.5006L12.6995 41.147C13.2214 40.8003 13.6651 40.3381 13.9804 39.7774C14.6248 39.9577 15.2911 39.9675 15.9256 39.8273L18.0503 45.4902ZM16.7502 37.6174C16.0038 38.3623 14.8682 38.5288 13.9274 38.0332L13.629 37.8766C15.103 37.1639 16.2975 35.9698 17.009 34.4965L17.1665 34.7957C17.662 35.7381 17.4955 36.8729 16.7502 37.6174ZM17.6396 33.6531L17.3196 33.7528C17.5823 33.0032 17.7327 32.2006 17.7327 31.3627C17.7327 30.5248 17.5823 29.7222 17.3188 28.9726L17.6388 29.0723C18.6566 29.3884 19.341 30.3092 19.341 31.3627C19.341 32.4162 18.6566 33.337 17.6396 33.6531V33.6531ZM45.0744 28.2128C43.0569 28.552 41.4608 30.1494 41.1203 32.1669H20.8594C20.9132 31.9054 20.9493 31.6384 20.9493 31.3627C20.9493 29.8918 20.1566 28.5787 18.9091 27.8775C19.2962 26.5 18.9271 25.0106 17.887 23.9709C16.8472 22.9319 15.359 22.5636 13.9804 22.9488C13.2799 21.7013 11.9661 20.9085 10.4951 20.9085C9.02424 20.9085 7.7104 21.7013 7.00989 22.9488C6.29839 22.7501 5.55941 22.7556 4.86597 22.9464V8.77923C6.88385 8.43918 8.48002 6.84262 8.82006 4.82513H41.1203C41.4608 6.84262 43.0569 8.43918 45.0744 8.77923V28.2128Z" fill="currentColor"/>
<path d="M10.4951 27.3418C8.27819 27.3418 6.4743 29.1457 6.4743 31.3626C6.4743 33.5796 8.27819 35.3835 10.4951 35.3835C12.7125 35.3835 14.516 33.5796 14.516 31.3626C14.516 29.1457 12.7125 27.3418 10.4951 27.3418ZM10.4951 33.7751C9.1652 33.7751 8.08264 32.6926 8.08264 31.3626C8.08264 30.0327 9.1652 28.9501 10.4951 28.9501C11.8255 28.9501 12.9076 30.0327 12.9076 31.3626C12.9076 32.6926 11.8255 33.7751 10.4951 33.7751Z" fill="currentColor"/>
<path d="M32.2077 28.9502H40.2494V30.5585H32.2077V28.9502Z" fill="currentColor"/>
<path d="M22.5576 28.9502H30.5992V30.5585H22.5576V28.9502Z" fill="currentColor"/>
<path d="M16.1242 12.8667H33.8159V14.475H16.1242V12.8667Z" fill="currentColor"/>
<path d="M9.69086 16.0835H11.2992V17.6918H9.69086V16.0835Z" fill="currentColor"/>
<path d="M12.9077 16.0835H14.516V17.6918H12.9077V16.0835Z" fill="currentColor"/>
<path d="M16.1242 16.0835H40.2493V17.6918H16.1242V16.0835Z" fill="currentColor"/>
<path d="M16.1242 19.3003H40.2493V20.9086H16.1242V19.3003Z" fill="currentColor"/>
<path d="M20.1452 22.5166H40.2494V24.1249H20.1452V22.5166Z" fill="currentColor"/>
</g>
<defs>
<clipPath id="clip0_89_850">
<rect width="50" height="50" fill="white"/>
</clipPath>
</defs>
</svg>
