<svg width="50" height="50" viewBox="0 0 50 50" fill="none" xmlns="http://www.w3.org/2000/svg">
<g clip-path="url(#clip0_83_881)">
<path d="M34.3582 6.30396C43.15 8.56933 49.6764 16.3903 50 25.8293C40.7767 25.9372 29.1262 26.4766 29.1262 26.4766L32.9558 11.5898L34.3582 6.30396Z" fill="#FFD201"/>
<path d="M42.6645 25.9373C34.8975 26.0451 25.2967 26.4227 22.5458 26.5845L17.5297 7.11309C17.4218 6.62765 16.8824 6.30403 16.343 6.4119C6.74218 8.89302 0 17.577 0 27.5554C0 39.5834 9.76268 49.3461 21.7907 49.3461C33.8188 49.3461 43.5814 39.5834 43.5814 27.5554C43.5814 27.3396 43.5814 27.0699 43.5814 26.8542C43.5814 26.3687 43.1499 25.9912 42.6645 25.9373ZM21.7907 47.5122C10.7875 47.5122 1.88781 38.5586 1.88781 27.6093C1.88781 18.8714 7.60518 11.1584 15.9115 8.5694L20.8738 27.8251C20.9817 28.2566 21.4132 28.5262 21.8447 28.5262C21.9525 28.5262 32.74 27.9869 41.6936 27.879C41.5318 38.7204 32.6861 47.5122 21.7907 47.5122Z" fill="currentColor"/>
<path d="M32.5782 2.58228C32.0388 2.4744 31.5534 2.74409 31.3916 3.28347L26.1597 23.51C26.1057 23.7797 26.1597 24.1033 26.3215 24.373C26.4833 24.5888 26.753 24.7506 27.0766 24.7506H27.1305C27.2384 24.7506 38.835 24.2112 47.9504 24.1033C48.2201 24.1033 48.4358 23.9954 48.6516 23.8336C48.8134 23.6718 48.9213 23.4021 48.9213 23.1324C48.6516 13.4237 41.9094 5.00946 32.5782 2.58228ZM28.3711 22.7009L33.0637 4.68584C40.7767 7.05909 46.3323 14.017 46.9795 22.1076C39.8058 22.2155 31.4995 22.5931 28.3711 22.7009Z" fill="currentColor"/>
<path d="M22.9773 22.701C23.0852 23.1325 23.4628 23.4022 23.8943 23.4022C24.3258 23.4022 24.7033 23.1325 24.8112 22.701L30.0432 2.47444C30.0971 2.20475 30.0432 1.989 29.9353 1.77325C29.8274 1.5575 29.6117 1.39569 29.342 1.34176C25.7821 0.424819 21.9525 0.424819 18.3927 1.34176C18.123 1.39569 17.9612 1.5575 17.7994 1.77325C17.6915 1.989 17.6375 2.25869 17.6915 2.47444L22.9773 22.701ZM27.9396 2.95988L23.8943 18.6557L19.849 2.95988C22.4919 2.4205 25.2967 2.4205 27.9396 2.95988Z" fill="currentColor"/>
<path d="M9.6548 32.14C9.49299 32.086 9.33118 31.9782 9.16936 31.9242L8.95361 31.8163L9.00755 31.5467L9.16936 30.1982L9.2233 29.7128L9.6548 29.9285C9.70874 29.9825 9.76267 29.9825 9.87055 30.0364C9.92449 30.0903 9.97842 30.0903 10.0863 30.1443C10.2481 30.1982 10.4099 30.2522 10.5717 30.3061C10.7335 30.36 10.8954 30.414 11.0572 30.414C11.219 30.414 11.3269 30.4679 11.4887 30.4679C11.6505 30.4679 11.7584 30.5218 11.9202 30.5218C12.028 30.5218 12.1359 30.5218 12.1899 30.5218C12.2977 30.5218 12.3517 30.5218 12.4595 30.5218C12.5674 30.5218 12.7292 30.4679 12.8371 30.4679C12.945 30.414 13.0529 30.414 13.1607 30.36C13.2686 30.3061 13.3765 30.2522 13.4304 30.1443C13.4844 30.0903 13.5922 29.9825 13.6462 29.8746C13.7001 29.7667 13.754 29.6588 13.754 29.551C13.754 29.4431 13.808 29.3352 13.754 29.2273C13.754 29.1195 13.7001 29.0116 13.7001 28.9037C13.6462 28.7958 13.5922 28.688 13.5383 28.634C13.4844 28.5262 13.4304 28.4722 13.3225 28.4183C13.2686 28.3643 13.1607 28.3104 13.0529 28.2565C12.945 28.2025 12.8371 28.1486 12.7292 28.0947C12.6214 28.0407 12.5135 27.9868 12.4056 27.9868C12.1899 27.9328 11.9741 27.825 11.7584 27.7171C11.5426 27.6092 11.3269 27.5013 11.1111 27.3935C10.8954 27.2856 10.7335 27.1777 10.5178 27.0698C10.356 26.962 10.1942 26.8541 10.0324 26.6923C9.87055 26.5844 9.76267 26.4226 9.60086 26.2608C9.49299 26.099 9.38511 25.9372 9.27724 25.7754C9.16936 25.5596 9.11542 25.3978 9.06149 25.182C9.00755 24.9663 9.00755 24.7505 9.00755 24.5887C9.00755 24.319 9.00755 24.0494 9.06149 23.8336C9.11542 23.6179 9.16936 23.3482 9.27724 23.1324C9.38511 22.9167 9.49299 22.7009 9.60086 22.5391C9.76267 22.3234 9.87055 22.1615 10.0863 21.9997C10.2481 21.8379 10.4639 21.73 10.6796 21.5682C10.8954 21.4604 11.1111 21.3525 11.3269 21.2985L11.4347 21.2446V20.058V19.6804H11.8123H12.891H13.2686V20.058V21.1367H13.3765C13.4844 21.1367 13.5922 21.1907 13.754 21.1907C13.8619 21.2446 14.0237 21.2446 14.1316 21.2985C14.2395 21.2985 14.3474 21.3525 14.4013 21.3525C14.4552 21.3525 14.5631 21.4064 14.671 21.4604L14.9407 21.5682L14.8867 21.8379L14.7249 23.0785V23.456L14.2934 23.3482C14.2395 23.3482 14.1316 23.2942 14.0237 23.2403C13.9698 23.2403 13.8619 23.1864 13.754 23.1864C13.6462 23.1324 13.4844 23.1324 13.3225 23.1324C13.2147 23.1324 13.0529 23.0785 12.945 23.0785C12.8371 23.0785 12.7832 23.0785 12.6753 23.0785C12.6214 23.0785 12.5135 23.0785 12.4056 23.0785C12.2438 23.0785 12.1359 23.1324 12.028 23.1324C11.9202 23.1864 11.8123 23.2403 11.7044 23.2942C11.5965 23.3482 11.5426 23.456 11.4347 23.51C11.3808 23.6179 11.3269 23.6718 11.2729 23.7797C11.219 23.8875 11.219 23.9954 11.165 24.1033C11.165 24.2112 11.165 24.319 11.165 24.4809C11.165 24.5887 11.219 24.6966 11.2729 24.8045C11.3269 24.9124 11.3808 25.0202 11.4347 25.0742C11.4887 25.1281 11.5965 25.236 11.6505 25.2899C11.7584 25.3439 11.8123 25.3978 11.9202 25.4517C12.028 25.5057 12.1359 25.5596 12.2438 25.6135C12.3517 25.6675 12.4595 25.7214 12.5674 25.7214C12.7832 25.7754 12.9989 25.8832 13.2147 25.9911C13.4304 26.099 13.6462 26.2069 13.808 26.3147C13.9698 26.4226 14.1855 26.5305 14.3474 26.6384C14.5092 26.7462 14.671 26.908 14.8328 27.0159C14.9946 27.1238 15.1025 27.2856 15.2104 27.4474C15.3182 27.6092 15.4261 27.771 15.534 27.9328C15.6419 28.0947 15.6958 28.3104 15.7497 28.5262C15.8037 28.7419 15.8037 28.9037 15.8037 29.1195C15.8037 29.3892 15.8037 29.6049 15.7497 29.8746C15.6958 30.0903 15.6419 30.36 15.534 30.5758C15.4261 30.7915 15.3182 31.0073 15.1564 31.1691C14.9946 31.3309 14.8328 31.5467 14.671 31.7085C14.5092 31.8703 14.2934 31.9782 14.0777 32.14C13.8619 32.2478 13.5922 32.3557 13.3765 32.4097L13.2686 32.4636V33.6502V34.0278H12.891H11.8123H11.4887V33.6502V32.5715H11.3808C11.165 32.5715 11.0032 32.5175 10.7875 32.4636C10.5717 32.4097 10.4099 32.3557 10.1942 32.3018C10.0324 32.3018 9.87055 32.2478 9.6548 32.14Z" fill="currentColor"/>
</g>
<defs>
<clipPath id="clip0_83_881">
<rect width="50" height="50" fill="white"/>
</clipPath>
</defs>
</svg>
