<svg width="50" height="50" viewBox="0 0 50 50" fill="none" xmlns="http://www.w3.org/2000/svg">
<g clip-path="url(#clip0_83_858)">
<path d="M37.9032 20.9678C42.8025 20.9678 46.7742 16.9961 46.7742 12.0968C46.7742 7.1975 42.8025 3.22583 37.9032 3.22583C33.0039 3.22583 29.0323 7.1975 29.0323 12.0968C29.0323 16.9961 33.0039 20.9678 37.9032 20.9678Z" fill="#FFD201"/>
<path d="M11.2903 22.5806H30.6452V26.6128H11.2903V22.5806Z" fill="#FFD201"/>
<path d="M50 12.0968C50 5.42661 44.5734 0 37.9032 0C32.6484 0 28.1782 3.37419 26.5121 8.06452H3.22581C2.33629 8.06452 1.6129 8.7879 1.6129 9.67742V29.0323C0.723387 29.0323 0 29.7556 0 30.6452V48.3871C0 49.2766 0.723387 50 1.6129 50H22.5806C23.4702 50 24.1935 49.2766 24.1935 48.3871V45.1613H46.7742C47.6637 45.1613 48.3871 44.4379 48.3871 43.5484V18.1056C49.4073 16.3331 50 14.2847 50 12.0968ZM43.5484 34.3435L37.5694 40.3226H24.1935V30.6452C24.1935 29.7556 23.4702 29.0323 22.5806 29.0323H6.45161V18.8823L12.4306 12.9032H25.8476C25.8839 13.45 25.9436 13.9911 26.0508 14.5161H12.9032C12.0137 14.5161 11.2903 15.2395 11.2903 16.129V19.3548C11.2903 20.2444 12.0137 20.9677 12.9032 20.9677H29.7073C31.8653 22.9629 34.7395 24.1935 37.9032 24.1935C39.9419 24.1935 41.8613 23.6815 43.5484 22.7871V34.3435ZM43.5484 36.6242V40.3226H39.85L43.5484 36.6242ZM9.67742 30.6452H14.5161V35.7919L12.0968 34.5823L9.67742 35.7919V30.6452ZM6.45161 16.6016V12.9032H10.15L6.45161 16.6016ZM33.871 12.0968C33.871 10.7282 34.0895 9.36774 34.4911 8.06452H41.3145C41.7169 9.36774 41.9355 10.7282 41.9355 12.0968C41.9355 13.4653 41.7169 14.8258 41.3153 16.129H34.4919C34.0895 14.8258 33.871 13.4653 33.871 12.0968ZM37.9032 2.15081L39.1935 3.87097C39.7944 4.67177 40.2952 5.54113 40.7056 6.45161H35.1016C35.5121 5.54194 36.0129 4.67177 36.6137 3.87097L37.9032 2.15081ZM40.7056 17.7419C40.2952 18.6516 39.7944 19.5218 39.1935 20.3226L37.9032 22.0427L36.6129 20.3226C36.0121 19.5218 35.5113 18.6524 35.1008 17.7419H40.7056ZM35.3226 21.2903L36.1742 22.4258C33.2008 21.929 30.6516 20.1839 29.0831 17.7419H33.3524C33.8516 19.0024 34.5065 20.2024 35.3226 21.2903ZM28.2492 19.3548H12.9032V16.129H26.5121C26.9274 17.2976 27.5153 18.3823 28.2492 19.3548ZM39.6323 22.4258L40.4839 21.2903C41.3 20.2024 41.9548 19.0032 42.454 17.7419H46.7234C45.1548 20.1839 42.6048 21.929 39.6323 22.4258ZM47.5782 16.129H42.9919C43.3508 14.8177 43.5484 13.4613 43.5484 12.0968C43.5484 10.7323 43.3516 9.37581 42.9919 8.06452H47.5782C48.0976 9.30645 48.3871 10.6685 48.3871 12.0968C48.3871 13.525 48.0976 14.8871 47.5782 16.129ZM46.7234 6.45161H42.454C41.9548 5.19113 41.3 3.99113 40.4839 2.90323L39.6323 1.76774C42.6048 2.26452 45.1548 4.00968 46.7234 6.45161ZM36.1742 1.76774L35.3226 2.90323C34.5065 3.99113 33.8516 5.19032 33.3524 6.45161H29.0831C30.6516 4.00968 33.2016 2.26452 36.1742 1.76774ZM28.2282 8.06452H32.8145C32.4548 9.37581 32.2581 10.7323 32.2581 12.0968C32.2581 13.4613 32.4548 14.8177 32.8145 16.129H28.2282C27.7089 14.8871 27.4194 13.525 27.4194 12.0968C27.4194 10.6685 27.7089 9.30645 28.2282 8.06452ZM3.22581 9.67742H26.05C25.9427 10.2024 25.8831 10.7435 25.8468 11.2903H4.83871V29.0323H3.22581V9.67742ZM1.6129 48.3871V30.6452H8.06452V38.4016L12.0968 36.3855L16.129 38.4016V30.6452H22.5806L22.5815 48.3871H1.6129ZM46.7742 43.5484H24.1935V41.9355H45.1613V21.7508C45.7419 21.3129 46.2815 20.8258 46.7742 20.2927V43.5484Z" fill="currentColor"/>
<path d="M3.22581 45.1611H4.83872V46.7741H3.22581V45.1611Z" fill="currentColor"/>
<path d="M6.45161 45.1611H8.06452V46.7741H6.45161V45.1611Z" fill="currentColor"/>
<path d="M9.67743 45.1611H11.2903V46.7741H9.67743V45.1611Z" fill="currentColor"/>
<path d="M11.2903 22.5806H24.1935V24.1935H11.2903V22.5806Z" fill="currentColor"/>
<path d="M25.8065 22.5806H30.6452V24.1935H25.8065V22.5806Z" fill="currentColor"/>
<path d="M32.2581 27.4193V29.0322C32.2581 29.9217 32.9814 30.6451 33.871 30.6451H40.3226C41.2121 30.6451 41.9355 29.9217 41.9355 29.0322V27.4193C41.9355 26.5298 41.2121 25.8064 40.3226 25.8064H33.871C32.9814 25.8064 32.2581 26.5298 32.2581 27.4193ZM40.3234 29.0322H33.871V27.4193H40.3226L40.3234 29.0322Z" fill="currentColor"/>
<path d="M11.2903 25.8064H30.6452V27.4193H11.2903V25.8064Z" fill="currentColor"/>
<path d="M25.8065 32.2581H32.2581V33.871H25.8065V32.2581Z" fill="currentColor"/>
<path d="M33.871 32.2581H35.4839V33.871H33.871V32.2581Z" fill="currentColor"/>
<path d="M37.0968 32.2581H38.7097V33.871H37.0968V32.2581Z" fill="currentColor"/>
<path d="M40.3226 32.2581H41.9355V33.871H40.3226V32.2581Z" fill="currentColor"/>
</g>
<defs>
<clipPath id="clip0_83_858">
<rect width="50" height="50" fill="white"/>
</clipPath>
</defs>
</svg>
