<svg width="50" height="50" viewBox="0 0 50 50" fill="none" xmlns="http://www.w3.org/2000/svg">
<g clip-path="url(#clip0_89_800)">
<path d="M40.3225 3.24758C40.3225 3.24113 40.3225 3.23306 40.3225 3.22581C40.3225 1.44677 38.8757 0 37.0966 0C35.541 0 34.0289 0.407258 32.6918 1.18226C31.9418 0.432258 30.92 0 29.8386 0H29.0321C26.3636 0 24.1934 2.17016 24.1934 4.83871C24.1934 7.50726 26.3636 9.67742 29.0321 9.67742H30.062C30.341 9.19758 30.8555 8.87097 31.4515 8.87097H37.9031C39.6845 8.87097 41.1289 10.3153 41.1289 12.0968H41.9354C43.2716 12.0968 44.3547 13.1798 44.3547 14.5161C44.3547 15.8524 43.2716 16.9355 41.9354 16.9355H41.1289C41.1289 19.3427 42.5773 21.5105 44.795 22.4339L45.4015 22.9653L47.7297 20.0565C49.1934 18.2258 49.9999 15.9274 49.9999 13.5847C49.9999 8.10161 45.7176 3.6 40.3225 3.24758V3.24758Z" fill="#FFD201"/>
<path d="M44.3548 38.7096H44.3339C44.846 38.0338 45.1613 37.2015 45.1613 36.2903V30.6451C45.1613 29.4564 44.5081 28.4274 43.5484 27.8677V27.2628C43.5484 25.9862 43.9879 24.733 44.7855 23.7362L46.0944 22.1007L45.1048 21.6886C43.4315 20.9919 42.2726 19.4919 41.9976 17.7411C43.7484 17.708 45.1613 16.2741 45.1613 14.5161C45.1613 12.737 43.7145 11.2903 41.9355 11.2903H41.854C41.479 9.45236 39.8508 8.06445 37.9032 8.06445H31.4516C30.1177 8.06445 29.0323 9.14994 29.0323 10.4838V14.654C29.0323 15.9096 28.5435 17.0903 27.6556 17.9782L27.0855 18.5483L29.0323 20.4951V21.7741C29.0323 23.9975 30.8411 25.8064 33.0645 25.8064H35.4839V28.2919C33.5589 29.4096 32.2581 31.4886 32.2581 33.8709H30.6452V30.6451C30.6452 29.7556 29.9218 29.0322 29.0323 29.0322H20.9677C20.0782 29.0322 19.3548 29.7556 19.3548 30.6451V38.7096H17.7419V30.6451C17.7419 29.7556 17.0185 29.0322 16.129 29.0322H8.06452C7.175 29.0322 6.45161 29.7556 6.45161 30.6451V38.7096H5.64516C2.53226 38.7096 0 41.2419 0 44.3548C0 47.4677 2.53226 49.9999 5.64516 49.9999H44.3548C47.4677 49.9999 50 47.4677 50 44.3548C50 41.2419 47.4677 38.7096 44.3548 38.7096ZM39.1823 35.4838L40.5589 36.8604L41.6992 35.7201L40.3226 34.3435V30.6451C40.3226 29.7556 41.046 29.0322 41.9355 29.0322C42.825 29.0322 43.5484 29.7556 43.5484 30.6451V36.2903C43.5484 37.6241 42.4629 38.7096 41.129 38.7096H33.871V35.4838H39.1823ZM30.6452 14.654V12.9032H39.6226L37.4718 16.129H30.4734C30.5871 15.6515 30.6452 15.1572 30.6452 14.654V14.654ZM31.4516 9.67736H37.9032C38.9532 9.67736 39.8411 10.3532 40.175 11.2903H30.6452V10.4838C30.6452 10.0395 31.0073 9.67736 31.4516 9.67736ZM37.0968 25.8064H39.5161V24.1935H33.0645C32.0145 24.1935 31.1274 23.5169 30.7935 22.5806H32.2581C34.0371 22.5806 35.4839 21.1338 35.4839 19.3548H33.871C33.871 20.2443 33.1476 20.9677 32.2581 20.9677H30.6452V19.8274L29.3306 18.5128C29.521 18.2677 29.6919 18.0096 29.8419 17.7419H38.3347L41.5605 12.9032H41.9355C42.825 12.9032 43.5484 13.6265 43.5484 14.5161C43.5484 15.4056 42.825 16.129 41.9355 16.129H40.3226V16.9354C40.3226 19.3201 41.5605 21.4854 43.5484 22.6999L43.5258 22.729C42.5 24.0104 41.9355 25.6209 41.9355 27.2628V27.4193H38.7097C38.1516 27.4193 37.6137 27.4975 37.0968 27.6314V25.8064ZM38.7097 29.0322H39.1581C38.8806 29.5088 38.7097 30.0548 38.7097 30.6451V33.8709H33.871C33.871 31.2024 36.0411 29.0322 38.7097 29.0322ZM32.2581 35.4838V38.7096H30.6452C29.7556 38.7096 29.0323 37.9862 29.0323 37.0967C29.0323 36.2072 29.7556 35.4838 30.6452 35.4838H32.2581ZM24.1935 30.6451H25.8065V32.258H24.1935V30.6451ZM20.9677 30.6451H22.5806V33.8709H27.4194V30.6451H29.0323V34.3193C28.0726 34.879 27.4194 35.908 27.4194 37.0967C27.4194 37.687 27.5903 38.233 27.8677 38.7096H20.9677V30.6451ZM11.2903 30.6451H12.9032V32.258H11.2903V30.6451ZM8.06452 30.6451H9.67742V33.8709H14.5161V30.6451H16.129V38.7096H8.06452V30.6451ZM44.3548 48.387H5.64516C3.42177 48.387 1.6129 46.5782 1.6129 44.3548C1.6129 42.1314 3.42177 40.3225 5.64516 40.3225H44.3548C46.5782 40.3225 48.3871 42.1314 48.3871 44.3548C48.3871 46.5782 46.5782 48.387 44.3548 48.387Z" fill="currentColor"/>
<path d="M44.3547 41.9355H5.64506C4.31119 41.9355 3.22571 43.021 3.22571 44.3549C3.22571 45.6888 4.31119 46.7742 5.64506 46.7742H44.3547C45.6886 46.7742 46.7741 45.6888 46.7741 44.3549C46.7741 43.021 45.6886 41.9355 44.3547 41.9355ZM11.2902 44.3549C11.2902 43.9105 11.6523 43.5484 12.0967 43.5484C12.541 43.5484 12.9031 43.9105 12.9031 44.3549C12.9031 44.7992 12.541 45.1613 12.0967 45.1613C11.6523 45.1613 11.2902 44.7992 11.2902 44.3549ZM9.82571 45.1613H7.91603C8.00635 44.9081 8.06442 44.6388 8.06442 44.3549C8.06442 44.071 8.00635 43.8017 7.91603 43.5484H9.82652C9.73539 43.8017 9.67732 44.071 9.67732 44.3549C9.67732 44.6388 9.73539 44.9081 9.82571 45.1613V45.1613ZM14.3676 43.5484H16.2781C16.187 43.8017 16.1289 44.071 16.1289 44.3549C16.1289 44.6388 16.187 44.9081 16.2773 45.1613H14.3668C14.458 44.9081 14.516 44.6388 14.516 44.3549C14.516 44.071 14.458 43.8017 14.3676 43.5484ZM17.7418 44.3549C17.7418 43.9105 18.1039 43.5484 18.5483 43.5484C18.9926 43.5484 19.3547 43.9105 19.3547 44.3549C19.3547 44.7992 18.9926 45.1613 18.5483 45.1613C18.1039 45.1613 17.7418 44.7992 17.7418 44.3549ZM20.8193 43.5484H22.7297C22.6386 43.8017 22.5805 44.071 22.5805 44.3549C22.5805 44.6388 22.6386 44.9081 22.7289 45.1613H20.8185C20.9096 44.9081 20.9676 44.6388 20.9676 44.3549C20.9676 44.071 20.9096 43.8017 20.8193 43.5484ZM24.1935 44.3549C24.1935 43.9105 24.5555 43.5484 24.9999 43.5484C25.4443 43.5484 25.8064 43.9105 25.8064 44.3549C25.8064 44.7992 25.4443 45.1613 24.9999 45.1613C24.5555 45.1613 24.1935 44.7992 24.1935 44.3549ZM27.2709 43.5484H29.1814C29.0902 43.8017 29.0322 44.071 29.0322 44.3549C29.0322 44.6388 29.0902 44.9081 29.1805 45.1613H27.2701C27.3612 44.9081 27.4193 44.6388 27.4193 44.3549C27.4193 44.071 27.3612 43.8017 27.2709 43.5484ZM30.6451 44.3549C30.6451 43.9105 31.0072 43.5484 31.4515 43.5484C31.8959 43.5484 32.258 43.9105 32.258 44.3549C32.258 44.7992 31.8959 45.1613 31.4515 45.1613C31.0072 45.1613 30.6451 44.7992 30.6451 44.3549ZM33.7225 43.5484H35.633C35.5418 43.8017 35.4838 44.071 35.4838 44.3549C35.4838 44.6388 35.5418 44.9081 35.6322 45.1613H33.7217C33.8128 44.9081 33.8709 44.6388 33.8709 44.3549C33.8709 44.071 33.8128 43.8017 33.7225 43.5484ZM37.0967 44.3549C37.0967 43.9105 37.4588 43.5484 37.9031 43.5484C38.3475 43.5484 38.7096 43.9105 38.7096 44.3549C38.7096 44.7992 38.3475 45.1613 37.9031 45.1613C37.4588 45.1613 37.0967 44.7992 37.0967 44.3549ZM40.1741 43.5484H42.0846C41.9935 43.8017 41.9354 44.071 41.9354 44.3549C41.9354 44.6388 41.9935 44.9081 42.0838 45.1613H40.1733C40.2644 44.9081 40.3225 44.6388 40.3225 44.3549C40.3225 44.071 40.2644 43.8017 40.1741 43.5484ZM4.83861 44.3549C4.83861 43.9105 5.20071 43.5484 5.64506 43.5484C6.08942 43.5484 6.45151 43.9105 6.45151 44.3549C6.45151 44.7992 6.08942 45.1613 5.64506 45.1613C5.20071 45.1613 4.83861 44.7992 4.83861 44.3549ZM44.3547 45.1613C43.9104 45.1613 43.5483 44.7992 43.5483 44.3549C43.5483 43.9105 43.9104 43.5484 44.3547 43.5484C44.7991 43.5484 45.1612 43.9105 45.1612 44.3549C45.1612 44.7992 44.7991 45.1613 44.3547 45.1613Z" fill="currentColor"/>
<path d="M1.6129 27.4194H22.5806C23.4702 27.4194 24.1935 26.696 24.1935 25.8064V24.1935C24.1935 23.304 23.4702 22.5806 22.5806 22.5806H22.3331L17.7419 10.3379V1.6129H19.3548V0H4.83871V1.6129H6.45161V10.3379L1.86048 22.5806H1.6129C0.723387 22.5806 0 23.304 0 24.1935V25.8064C0 26.696 0.723387 27.4194 1.6129 27.4194V27.4194ZM16.129 9.67742H8.06452V8.06452H16.129V9.67742ZM16.129 6.45161H8.06452V4.83871H16.129V6.45161ZM16.129 1.6129V3.22581H8.06452V1.6129H16.129ZM7.81693 11.2903H16.3766L18.1911 16.129H6.00242L7.81693 11.2903ZM5.39758 17.7419H18.796L20.6105 22.5806H3.58306L5.39758 17.7419ZM1.6129 24.1935H22.5806L22.5814 25.8064H1.6129V24.1935Z" fill="currentColor"/>
<path d="M11.2906 12.9033H12.9035V14.5162H11.2906V12.9033Z" fill="currentColor"/>
<path d="M14.516 12.9033H16.1289V14.5162H14.516V12.9033Z" fill="currentColor"/>
<path d="M8.06458 12.9033H9.67748V14.5162H8.06458V12.9033Z" fill="currentColor"/>
</g>
<defs>
<clipPath id="clip0_89_800">
<rect width="50" height="50" fill="white"/>
</clipPath>
</defs>
</svg>
