<svg width="50" height="50" viewBox="0 0 50 50" fill="none" xmlns="http://www.w3.org/2000/svg">
<g clip-path="url(#clip0_89_838)">
<path d="M35.4384 41.4062H37.5001V36.7188H35.4384C35.0689 36.7188 34.7282 36.4742 34.5571 36.0609C34.3954 35.675 34.461 35.2555 34.7259 34.9922L36.1845 33.5398L32.8657 30.2219L31.4142 31.6812C31.1462 31.9492 30.7384 32.0148 30.3126 31.8352C29.9267 31.6758 29.6876 31.343 29.6876 30.9687V28.9062H25.0001V30.9687C25.0001 31.343 24.7603 31.6758 24.3415 31.8492C23.9501 32.0133 23.5407 31.9484 23.2735 31.6812L21.822 30.2219L18.5032 33.5398L19.9618 34.993C20.2259 35.2555 20.2915 35.675 20.1157 36.0938C19.9587 36.4734 19.6181 36.7188 19.2485 36.7188H18.5243L18.4649 37.5H21.0899L22.2095 36.3805C22.4939 36.0969 22.879 35.9375 23.2806 35.9375C23.454 35.9375 23.6196 35.9758 23.7782 36.0312V36.0219C24.6384 35.0141 25.9173 34.375 27.3439 34.375C29.9298 34.375 32.0314 36.4766 32.0314 39.0625C32.0314 41.6484 29.9298 43.75 27.3439 43.75C25.9579 43.75 24.711 43.1461 23.8524 42.1875H21.0939L21.0907 42.9688C21.0907 43.4 20.7407 43.75 20.3095 43.75H17.9899L17.9673 44.0484L21.8228 47.9039L23.2743 46.4445C23.5423 46.1766 23.9501 46.1109 24.3759 46.2906C24.7618 46.45 25.0009 46.7828 25.0009 47.157V49.2188H29.6884V47.1563C29.6884 46.782 29.9282 46.4492 30.347 46.2758C30.7376 46.1109 31.1478 46.1766 31.415 46.4438L32.8665 47.9031L36.1853 44.5852L34.7267 43.1328C34.4587 42.8648 34.3939 42.4562 34.572 42.0312C34.7282 41.6508 35.0689 41.4062 35.4384 41.4062V41.4062Z" fill="#FFD201"/>
<path d="M27.3438 33.5938C25.9008 33.5938 24.5297 34.1664 23.5102 35.1719C23.4344 35.1641 23.3586 35.1562 23.2812 35.1562C22.6687 35.1562 22.0922 35.3953 21.6578 35.8281L20.7672 36.7188L17.0844 36.7195L16.9273 35.6219C16.5609 33.0578 15.4906 30.65 13.8328 28.6602C13.1383 27.8258 12.7117 26.8102 12.568 25.743C13.3352 25.6531 14.0664 25.3211 14.6164 24.7719C15.2664 24.1203 15.625 23.2539 15.625 22.3328V20.8766L17.9688 20.0953V19.532C17.9688 16.8914 16.9844 14.6148 16.25 13.2812H17.9688C18.8305 13.2812 19.5312 12.5805 19.5312 11.7188V10.1562C19.5312 9.29453 18.8305 8.59375 17.9688 8.59375H17.8281L17.6289 7.59922C16.8391 3.64844 13.3414 0.78125 9.3125 0.78125C4.93672 0.78125 1.30859 4.06484 0.872656 8.41875L0.78125 9.375V11.7188C0.78125 12.0867 0.914844 12.4211 1.12813 12.6883C0.901563 13.3367 0.78125 14.025 0.78125 14.7094V15.0344C0.78125 17.6125 2.03359 20.0461 4.13203 21.5453L6.25 23.0578V26.8914C5.51172 27.2109 4.88203 27.75 4.45078 28.4641C4.10313 29.0383 3.92344 29.732 3.91563 30.4688H3.90625V49.2188H17.1875V44.532L20.3094 44.5312C21.1711 44.5312 21.8719 43.8305 21.8719 42.9688H23.5297C24.5477 43.9625 25.9156 44.5312 27.3445 44.5312C30.3602 44.5312 32.8133 42.0773 32.8133 39.0625C32.8133 36.0477 30.3594 33.5938 27.3438 33.5938V33.5938ZM15.3805 35.843L15.4977 36.6641C13.8609 36.4039 12.5445 35.1391 12.2633 33.4578L11.7461 30.3727C12.243 30.425 12.7422 30.4563 13.2414 30.4617C14.3656 32.0586 15.1023 33.8992 15.3805 35.843V35.843ZM16.3891 18.9742L14.0625 19.75V21.0938H12.6844C11.9047 21.0938 11.2039 20.6602 10.8555 19.9633L9.45781 20.6625C10.0734 21.8922 11.3094 22.657 12.6844 22.657H14.0312C13.9656 23.0375 13.7891 23.3891 13.5102 23.668C13.1586 24.0188 12.6727 24.2203 12.1766 24.2203L9.375 24.2188V25.7812L10.9875 25.782C11.1078 26.8672 11.4711 27.9117 12.0469 28.8383C11.7969 28.8148 11.5484 28.7766 11.3008 28.7406C10.6578 27.4422 9.33047 26.5633 7.8125 26.5625V19.8547C7.8125 19.4437 7.64609 19.0406 7.35469 18.75L6.57344 17.9688C6.36484 17.7594 6.25 17.4828 6.25 17.1875C6.25 16.7563 6.60078 16.4062 7.03125 16.4062H7.8125V14.8438C7.8125 13.982 8.51328 13.2812 9.375 13.2812H14.4313C14.9445 14.0727 16.2266 16.293 16.3891 18.9742V18.9742ZM17.9688 10.1562V11.7188H2.34375L2.34141 10.1562H17.9688ZM3.90625 8.59375H2.42578L2.42734 8.575C2.48125 8.03672 2.60156 7.52266 2.76797 7.03125H3.90625V8.59375ZM10.1562 8.59375H8.59375V5.46875H10.1562V8.59375ZM16.0969 7.90547L16.2344 8.59375H14.8438V7.03125H15.8547C15.9516 7.31484 16.0367 7.60469 16.0969 7.90547V7.90547ZM9.3125 2.34375C11.6898 2.34375 13.8359 3.57188 15.0875 5.46875H14.8438C13.982 5.46875 13.2812 6.16953 13.2812 7.03125V8.59375H11.7188V5.46875C11.7188 4.60703 11.018 3.90625 10.1562 3.90625H8.59375C7.73203 3.90625 7.03125 4.60703 7.03125 5.46875V8.59375H5.46875V7.03125C5.46875 6.16953 4.76797 5.46875 3.90625 5.46875H3.52344C4.76172 3.57344 6.89609 2.34375 9.3125 2.34375ZM5.04063 20.2742C3.35156 19.068 2.34375 17.1086 2.34375 15.0344V14.7094C2.34375 14.2266 2.425 13.7414 2.57656 13.2812H6.68516C6.41563 13.743 6.25 14.2719 6.25 14.8438V14.9773C5.34062 15.3 4.6875 16.1687 4.6875 17.1875C4.6875 17.8992 4.96484 18.5695 5.46875 19.0734L6.25 19.8547V21.1383L5.04063 20.2742ZM15.625 47.6562H5.46875V38.6063C7.09766 42.1203 10.6727 44.532 14.6945 44.532H15.625V47.6562ZM20.3094 42.9688L14.6945 42.9695C10.4578 42.9695 6.80078 39.8102 6.18672 35.6203L5.49062 30.8664C5.42031 30.2719 5.52578 29.7063 5.78828 29.2727C6.17031 28.6391 6.80625 28.2281 7.54297 28.1414C7.61719 28.1312 7.71484 28.125 7.81094 28.125C8.99688 28.125 9.99453 29.0156 10.1391 30.2344L10.7219 33.7156C11.1648 36.3617 13.4344 38.282 16.118 38.282L20.3094 38.2812V42.9688ZM21.8719 37.8234L22.7625 36.9336C23.0984 36.5992 23.7266 36.7008 23.9375 37.1234L24.5156 38.2812H27.343C27.7742 38.2812 28.125 38.6313 28.125 39.0625C28.125 40.3547 27.0727 41.4062 25.7805 41.4062H21.8719V37.8234ZM27.3438 42.9688C27.0813 42.9688 26.8219 42.9398 26.5687 42.8883C28.3469 42.5227 29.6875 40.9461 29.6875 39.0625C29.6875 37.7703 28.6359 36.7188 27.343 36.7188H25.4813L25.3344 36.425C25.2445 36.2453 25.1313 36.0836 25.0039 35.9375C25.6742 35.4352 26.4922 35.1562 27.3438 35.1562C29.4977 35.1562 31.25 36.9086 31.25 39.0625C31.25 41.2164 29.4977 42.9688 27.3438 42.9688V42.9688Z" fill="currentColor"/>
<path d="M49.2188 27.3438V16.4062H44.5312V13.2812H47.6562V0.78125H33.5938V7.03125H27.2C26.8766 6.12422 26.0172 5.46875 25 5.46875C23.7078 5.46875 22.6562 6.52031 22.6562 7.8125C22.6562 8.82969 23.3117 9.68906 24.2188 10.0125V14.8438H21.0938V24.2188H26.5625V28.9062H28.125V24.2188H30.4688V16.2148L32.6156 13.8L31.4477 12.7625L29.5969 14.8438H25.7812V10.0125C26.443 9.77656 26.9641 9.25547 27.2 8.59375H33.5938V13.2812H42.9688V16.4062H38.2812V27.3438H44.5312V36.8625C43.8695 37.0984 43.3484 37.6195 43.1125 38.2812H37.5V39.8438H43.1125C43.4359 40.7508 44.2953 41.4062 45.3125 41.4062C46.6047 41.4062 47.6562 40.3547 47.6562 39.0625C47.6562 38.0453 47.0008 37.1859 46.0938 36.8625V27.3438H49.2188ZM25.8148 21.4508L28.9062 17.9727V22.6562H22.6562V16.4062H28.2078L25.7477 19.1742L24.7711 18.1977L23.6664 19.3023L25.8148 21.4508ZM25 8.59375C24.5695 8.59375 24.2188 8.24375 24.2188 7.8125C24.2188 7.38125 24.5695 7.03125 25 7.03125C25.4305 7.03125 25.7812 7.38125 25.7812 7.8125C25.7812 8.24375 25.4305 8.59375 25 8.59375ZM35.1562 2.34375H46.0938V11.7188H35.1562V2.34375ZM45.3125 39.8438C44.882 39.8438 44.5312 39.4937 44.5312 39.0625C44.5312 38.6313 44.882 38.2812 45.3125 38.2812C45.743 38.2812 46.0938 38.6313 46.0938 39.0625C46.0938 39.4937 45.743 39.8438 45.3125 39.8438ZM39.8438 17.9688H47.4086L43.7055 22.2883L42.7398 21.3227L41.6352 22.4273L43.7945 24.5867L47.6562 20.0805V25.7812H39.8438V17.9688Z" fill="currentColor"/>
<path d="M39.018 8.22578L38.0524 7.26016L36.9477 8.36484L39.107 10.5242L44.343 4.41406L43.157 3.39844L39.018 8.22578Z" fill="currentColor"/>
</g>
<defs>
<clipPath id="clip0_89_838">
<rect width="50" height="50" fill="white"/>
</clipPath>
</defs>
</svg>
