<svg xmlns="http://www.w3.org/2000/svg" viewBox="0 0 25 25" fill="none">
  <path d="M12.5 5.5L12.5 3.5" stroke-linecap="round"/>
  <path d="M10.5 16.5L10 13.5" stroke-linecap="round"/>
  <path d="M14.5 16.5L15 13.5" stroke-linecap="round"/>
  <path d="M2.5 9.5H22.5V9.5C21.2333 9.5 20.6 9.5 20.1161 9.79969C19.956 9.89881 19.8108 10.02 19.6846 10.1598C19.3032 10.5822 19.1899 11.2054 18.9633 12.4516L18.0972 17.2155C17.8117 18.7859 17.6689 19.571 17.1123 20.0355C16.5558 20.5 15.7577 20.5 14.1617 20.5H10.8383C9.24225 20.5 8.44422 20.5 7.88766 20.0355C7.33109 19.571 7.18834 18.7859 6.90283 17.2155L6.03666 12.4516C5.81007 11.2054 5.69677 10.5822 5.31536 10.1598C5.1892 10.02 5.04395 9.89881 4.88391 9.79969C4.40002 9.5 3.76668 9.5 2.5 9.5V9.5Z" stroke-linecap="round"/>
</svg>