<svg xmlns="http://www.w3.org/2000/svg" viewBox="0 0 24 25" fill="none">
  <path d="M21 12.5C21 10.6195 20.411 8.78625 19.3156 7.2577C18.2203 5.72915 16.6736 4.58209 14.893 3.97763C13.1123 3.37316 11.187 3.34166 9.38744 3.88754C7.58792 4.43341 6.00459 5.52925 4.85982 7.02115C3.71505 8.51304 3.06635 10.326 3.00482 12.2055C2.94329 14.085 3.47203 15.9366 4.51677 17.5001C5.56152 19.0637 7.06979 20.2608 8.82975 20.9232C10.5897 21.5856 12.513 21.68 14.3294 21.1933" stroke="currentColor" stroke-width="2" stroke-linecap="round"/>
  <circle cx="12" cy="12.5" r="4" stroke="currentColor" stroke-width="2"/>
  <path d="M16 9.5V14C16 15.3807 17.1193 16.5 18.5 16.5V16.5C19.8807 16.5 21 15.3807 21 14V12.5" stroke="currentColor" stroke-width="2" stroke-linecap="round"/>
</svg>