<svg xmlns="http://www.w3.org/2000/svg" viewBox="0 0 72 70" fill="none">
  <g clip-path="url(#clip0_236_25304)">
    <path d="M44.252 4.39966H20.7841C20.0064 4.39966 19.2604 4.70862 18.7105 5.25858C18.1605 5.80854 17.8516 6.55445 17.8516 7.33221V19.7997L44.252 35.1997L57.4522 40.7699L70.6524 35.1997V19.7997L44.252 4.39966Z" fill="#21A366"/>
    <path d="M17.8516 19.801H44.252V35.201H17.8516V19.801Z" fill="#107C41"/>
    <path d="M67.7218 4.39966H44.2539V19.7997H70.6543V7.33221C70.6543 6.55445 70.3454 5.80854 69.7954 5.25858C69.2454 4.70862 68.4995 4.39966 67.7218 4.39966Z" fill="#33C481"/>
    <path d="M44.252 35.2012H17.8516V63.0701C17.8516 63.4552 17.9274 63.8366 18.0748 64.1923C18.2222 64.5481 18.4382 64.8714 18.7105 65.1437C18.9828 65.416 19.3061 65.6321 19.6619 65.7794C20.0177 65.9268 20.399 66.0027 20.7841 66.0027H67.7213C68.1065 66.0027 68.4878 65.9268 68.8436 65.7794C69.1994 65.6321 69.5227 65.416 69.795 65.1437C70.0673 64.8714 70.2833 64.5481 70.4307 64.1923C70.5781 63.8366 70.6539 63.4552 70.6539 63.0701V50.6012L44.252 35.2012Z" fill="#185C37"/>
    <path d="M44.2539 35.2012H70.6543V50.6012H44.2539V35.2012Z" fill="#107C41"/>
    <path opacity="0.1" d="M36.9154 15.4001H17.8516V57.2021H36.9154C37.6927 57.2009 38.4379 56.8921 38.9883 56.3432C39.5386 55.7942 39.8493 55.0498 39.8524 54.2725V18.3327C39.8501 17.5549 39.5397 16.8097 38.9893 16.2601C38.4389 15.7105 37.6932 15.4013 36.9154 15.4001Z" fill="black"/>
    <path opacity="0.2" d="M34.7201 17.6016H17.8516V59.4035H34.7201C35.4966 59.4011 36.2407 59.0918 36.7901 58.543C37.3394 57.9942 37.6495 57.2504 37.6526 56.4739V20.5341C37.6503 19.7571 37.3405 19.0125 36.7911 18.4631C36.2416 17.9136 35.4971 17.6039 34.7201 17.6016Z" fill="black"/>
    <path opacity="0.2" d="M34.7201 17.6016H17.8516V55.0024H34.7201C35.4971 55.0001 36.2416 54.6903 36.7911 54.1409C37.3405 53.5914 37.6503 52.8469 37.6526 52.0699V20.5341C37.6503 19.7571 37.3405 19.0125 36.7911 18.4631C36.2416 17.9136 35.4971 17.6039 34.7201 17.6016Z" fill="black"/>
    <path opacity="0.2" d="M32.5203 17.6016H17.8516V55.0024H32.5203C33.2973 55.0001 34.0419 54.6903 34.5913 54.1409C35.1408 53.5914 35.4505 52.8469 35.4528 52.0699V20.5341C35.4505 19.7571 35.1408 19.0125 34.5913 18.4631C34.0419 17.9136 33.2973 17.6039 32.5203 17.6016Z" fill="black"/>
    <path d="M3.18646 17.6013H32.5269C33.3047 17.6013 34.0506 17.9103 34.6005 18.4602C35.1505 19.0102 35.4594 19.7561 35.4594 20.5339V49.8743C35.4594 50.6521 35.1505 51.398 34.6005 51.9479C34.0506 52.4979 33.3047 52.8069 32.5269 52.8069H3.18646C2.80098 52.8069 2.41928 52.7309 2.06319 52.5832C1.70711 52.4355 1.38362 52.2191 1.11125 51.9464C0.838882 51.6736 0.622965 51.3498 0.475853 50.9934C0.328742 50.6371 0.253322 50.2553 0.25391 49.8698V20.5339C0.25391 19.7561 0.562874 19.0102 1.11283 18.4602C1.6628 17.9103 2.4087 17.6013 3.18646 17.6013Z" fill="#107C41"/>
    <path d="M8.02734 46.2015L15.1465 35.1698L8.62607 24.2007H13.8731L17.4327 31.2126C17.7593 31.8769 17.9847 32.3733 18.1088 32.702H18.155C18.3893 32.1708 18.6351 31.6544 18.8922 31.153L22.6961 24.2007H27.5127L20.8239 35.1088L27.675 46.2015H22.5546L18.4425 38.4986C18.249 38.1707 18.085 37.8263 17.9525 37.4694H17.8914C17.7714 37.8185 17.612 38.1528 17.4163 38.4658L13.191 46.2015H8.02734Z" fill="white"/>
  </g>
  <defs>
    <clipPath id="clip0_236_25304">
      <rect width="71.4894" height="70" fill="white" transform="translate(0.253906)"/>
    </clipPath>
  </defs>
</svg>