<svg width="20" height="20" viewBox="0 0 20 20" fill="none" xmlns="http://www.w3.org/2000/svg">
<path d="M4.16663 10.633C4.16663 9.50154 4.16663 8.93581 4.39534 8.43853C4.62406 7.94125 5.0536 7.57307 5.91267 6.83673L6.746 6.12244C8.29877 4.7915 9.07515 4.12603 9.99996 4.12603C10.9248 4.12603 11.7012 4.7915 13.2539 6.12244L14.0872 6.83673C14.9463 7.57307 15.3759 7.94125 15.6046 8.43853C15.8333 8.93581 15.8333 9.50154 15.8333 10.633V14.1667C15.8333 15.738 15.8333 16.5237 15.3451 17.0118C14.857 17.5 14.0713 17.5 12.5 17.5H7.49996C5.92861 17.5 5.14294 17.5 4.65478 17.0118C4.16663 16.5237 4.16663 15.738 4.16663 14.1667V10.633Z" stroke="#464A5A" stroke-width="2"/>
<path d="M12.0833 17.5V13.5C12.0833 12.9477 11.6356 12.5 11.0833 12.5H8.91663C8.36434 12.5 7.91663 12.9477 7.91663 13.5V17.5" stroke="#464A5A" stroke-width="2" stroke-linecap="round" stroke-linejoin="round"/>
</svg>
