<svg width="25" height="24" viewBox="0 0 25 24" fill="none" xmlns="http://www.w3.org/2000/svg">
<path d="M16.7777 10.6615L17.6204 10.1231C17.9999 10.717 17.915 11.3454 17.7732 11.8271C17.6409 12.2762 17.3925 12.8128 17.1218 13.3971C17.1121 13.4181 17.1023 13.4392 17.0925 13.4604L14.3612 19.3601L14.3389 19.4083C14.1713 19.7705 14.0118 20.115 13.8656 20.3586C13.7917 20.4816 13.6735 20.6625 13.5018 20.8121C13.3116 20.9779 12.9495 21.1888 12.4811 21.0857C12.0127 20.9825 11.7728 20.639 11.6698 20.4086C11.5769 20.2007 11.5456 19.9869 11.5303 19.8442C11.4999 19.5617 11.4999 19.1821 11.5 18.783L11.5 18.7299V14.8H10.6299C10.6066 14.8 10.5833 14.8 10.5602 14.8C9.9162 14.8001 9.32491 14.8002 8.86179 14.7315C8.3651 14.6578 7.75914 14.4708 7.37963 13.8769M16.7777 10.6615L7.37963 13.8769M16.7777 10.6615L17.6204 10.1231C17.2409 9.52918 16.6349 9.34218 16.1382 9.26851C15.6751 9.19982 15.0838 9.1999 14.4398 9.19999C14.4167 9.2 14.3934 9.2 14.3701 9.2H13.5V5.27013C13.5 5.2524 13.5 5.2347 13.5 5.21704C13.5001 4.8179 13.5001 4.43831 13.4697 4.1558C13.4544 4.01307 13.4231 3.7993 13.3302 3.59138C13.2272 3.36098 12.9873 3.01749 12.5189 2.91432C12.0505 2.81116 11.6884 3.02206 11.4982 3.18788C11.3265 3.33752 11.2083 3.51837 11.1344 3.64144C10.9882 3.88504 10.8287 4.22953 10.6611 4.59175C10.6537 4.60778 10.6462 4.62385 10.6388 4.63994L7.90746 10.5396C7.89768 10.5608 7.88791 10.5819 7.87818 10.6029C7.60755 11.1872 7.35906 11.7238 7.22683 12.1729C7.08501 12.6546 7.00012 13.283 7.37963 13.8769M16.7777 10.6615L7.37963 13.8769M12.8753 4.63029C12.8753 4.63032 12.8747 4.63115 12.8735 4.63269C12.8747 4.63103 12.8753 4.63026 12.8753 4.63029ZM11.4751 4.32469C11.4747 4.32279 11.4745 4.32178 11.4745 4.32175C11.4745 4.32173 11.4747 4.32268 11.4751 4.32469ZM12.1247 19.3697C12.1247 19.3697 12.1253 19.3688 12.1266 19.3671C12.1253 19.3689 12.1247 19.3697 12.1247 19.3697ZM13.5255 19.6782C13.5255 19.6783 13.5253 19.6773 13.5249 19.6753C13.5253 19.6772 13.5255 19.6782 13.5255 19.6782Z" stroke="#FFD201" stroke-width="2"/>
</svg>
