<svg width="50" height="50" viewBox="0 0 50 50" fill="none" xmlns="http://www.w3.org/2000/svg">
<circle cx="25" cy="25" r="24.5" fill="white" stroke="#DBE7F3"/>
<g clip-path="url(#clip0_1014_55378)">
<path d="M25.0001 30.2382C26.0477 30.2382 26.9049 29.3811 26.9049 28.3335C26.9049 27.2859 26.0477 26.4287 25.0001 26.4287C23.9525 26.4287 23.0954 27.2859 23.0954 28.3335C23.0954 29.3811 23.9525 30.2382 25.0001 30.2382Z" fill="#DBE7F3"/>
<path d="M30.7143 21.6667H29.762V19.7619C29.762 17.1333 27.6286 15 25 15C22.3715 15 20.2381 17.1333 20.2381 19.7619V21.6667H19.2857C18.2381 21.6667 17.381 22.5238 17.381 23.5714V33.0953C17.381 34.1429 18.2381 35 19.2857 35H30.7143C31.7619 35 32.6191 34.1429 32.6191 33.0953V23.5714C32.6191 22.5238 31.762 21.6667 30.7143 21.6667ZM22.0477 19.7619C22.0477 18.1334 23.3715 16.8095 25 16.8095C26.6286 16.8095 27.9524 18.1334 27.9524 19.7619V21.6667H22.0477V19.7619ZM30.7143 33.0952H19.2857V23.5714H30.7143V33.0952H30.7143Z" fill="#DBE7F3"/>
</g>
<defs>
<clipPath id="clip0_1014_55378">
<rect width="20" height="20" fill="white" transform="translate(15 15)"/>
</clipPath>
</defs>
</svg>
