<svg xmlns="http://www.w3.org/2000/svg" viewBox="0 0 14 17">
  <path d="M6.85687 12.9527C7.79972 12.9527 8.57116 12.2241 8.57116 11.3337C8.57116 10.4432 7.79972 9.7146 6.85687 9.7146C5.91401 9.7146 5.14258 10.4432 5.14258 11.3337C5.14258 12.2241 5.91401 12.9527 6.85687 12.9527Z" />
  <path d="M12 5.66668H11.1429V4.04763C11.1429 1.81332 9.22286 0 6.85716 0C4.49146 0 2.57143 1.81332 2.57143 4.04763V5.66668H1.71429C0.771434 5.66668 0 6.39525 0 7.28573V15.381C0 16.2715 0.771434 17 1.71429 17H12C12.9428 17 13.7143 16.2715 13.7143 15.381V7.28573C13.7143 6.39525 12.9429 5.66668 12 5.66668ZM4.20001 4.04763C4.20001 2.66336 5.39146 1.5381 6.85716 1.5381C8.32286 1.5381 9.5143 2.66336 9.5143 4.04763V5.66668H4.20001V4.04763ZM12 15.3809H1.71429V7.2857H12V15.3809H12Z" />
</svg>