<svg width="50" height="51" viewBox="0 0 50 51" fill="none" xmlns="http://www.w3.org/2000/svg">
<path d="M0.413793 12C0.185261 12 0 12.191 0 12.4265V29.5728C0 29.9072 0.356363 30.1115 0.632012 29.9352L5.80443 26.6261C5.92603 26.5483 6 26.4113 6 26.2638V12.4265C6 12.191 5.81474 12 5.58621 12H0.413793Z" fill="currentColor"/>
<path d="M40.5479 12C40.7976 12 41 12.2032 41 12.4538V25.4755C41 25.8323 40.6087 26.0496 40.3077 25.8599L24.0562 15.6226C23.8591 15.4985 23.6005 15.5447 23.4582 15.7295L20.0022 20.2198C19.9166 20.331 19.7845 20.3961 19.6445 20.3961H17.4958C17.2052 20.3961 16.9901 20.1249 17.0552 19.8406L18.7687 12.3522C18.8159 12.1461 18.9986 12 19.2093 12H40.5479Z" fill="currentColor"/>
<path d="M16.9079 12.5594C16.9758 12.2741 16.7604 12 16.4682 12H8.45205C8.20239 12 8 12.2032 8 12.4538V27.1831C8 27.3374 8.0781 27.4812 8.20734 27.5647L24.2397 37.9278C24.3966 38.0292 24.5994 38.0234 24.7503 37.9132L26.4484 36.6733C26.7065 36.4849 26.6941 36.0946 26.4246 35.923L18.2649 30.7281C17.9998 30.5593 17.9825 30.1773 18.2314 29.9851L18.9375 29.4398C19.0881 29.3235 19.2951 29.3141 19.4555 29.4164L28.5349 35.2074C28.6916 35.3073 28.8931 35.3009 29.0432 35.1913L30.7494 33.9456C31.0057 33.7584 30.9956 33.3714 30.7299 33.198L22.7535 27.9929C22.4983 27.8264 22.4767 27.4593 22.7105 27.2637L23.347 26.7312C23.4958 26.6067 23.7071 26.5913 23.8723 26.6927L32.9557 32.2716C33.1059 32.3639 33.2958 32.3602 33.4424 32.2621L35.0077 31.2144C35.277 31.0342 35.2759 30.6365 35.0055 30.4578L26.8585 25.0714C26.5934 24.8962 26.5861 24.5083 26.8444 24.3231L27.6439 23.7498C27.793 23.6428 27.9918 23.6369 28.147 23.7348L37.3676 29.5473C37.5154 29.6405 37.7034 29.6399 37.8507 29.5459L39.4975 28.4937C39.7764 28.3155 39.7767 27.9069 39.498 27.7283L24.5087 18.1228C24.3117 17.9966 24.0514 18.0419 23.9082 18.2274L20.7933 22.2626C20.7076 22.3735 20.5757 22.4384 20.436 22.4384H15.1277C14.8355 22.4384 14.6201 22.1643 14.688 21.879L16.9079 12.5594Z" fill="currentColor"/>
<path d="M3 0.45C3 0.201472 3.20054 0 3.44792 0H45.5521C45.7995 0 46 0.201472 46 0.45V8.55C46 8.79853 45.7995 9 45.5521 9H3.44792C3.20054 9 3 8.79853 3 8.55V0.45Z" fill="#DBE7F3"/>
<path d="M3.19998 32.5005C3.07504 32.5845 3 32.726 3 32.8775V36.1244C3 36.2797 3.07877 36.4242 3.20875 36.5073L24.2042 49.9296C24.3506 50.0232 24.5373 50.0235 24.6839 49.9302L45.7904 36.5072C45.9208 36.4242 46 36.2794 46 36.1238V32.8812C46 32.7277 45.923 32.5846 45.7953 32.501L42.086 30.073C41.9396 29.9771 41.7514 29.9756 41.6034 30.069L24.6821 40.7553C24.5364 40.8473 24.3514 40.8473 24.2056 40.7553L7.28772 30.0712C7.13802 29.9766 6.94731 29.9794 6.80037 30.0782L3.19998 32.5005Z" fill="#DBE7F3"/>
<path d="M49.5172 12C49.7839 12 50 12.191 50 12.4265V29.5728C50 29.9072 49.5842 30.1115 49.2627 29.9352L43.2282 26.6261C43.0863 26.5483 43 26.4113 43 26.2638V12.4265C43 12.191 43.2161 12 43.4828 12H49.5172Z" fill="currentColor"/>
</svg>
