<svg width="25" height="24" viewBox="0 0 25 24" fill="none" xmlns="http://www.w3.org/2000/svg">
<path d="M12.598 19.804L13.0585 20.6917L13.0585 20.6917L12.598 19.804ZM11.802 19.804L11.3415 20.6917L11.3415 20.6917L11.802 19.804ZM18.2 11C18.2 13.1458 17.1079 14.9159 15.745 16.2906C14.383 17.6644 12.8342 18.555 12.1376 18.9163L13.0585 20.6917C13.8448 20.2838 15.597 19.2805 17.1653 17.6987C18.7326 16.1178 20.2 13.8706 20.2 11H18.2ZM12.2 5C15.5137 5 18.2 7.68629 18.2 11H20.2C20.2 6.58172 16.6183 3 12.2 3V5ZM6.20001 11C6.20001 7.68629 8.8863 5 12.2 5V3C7.78173 3 4.20001 6.58172 4.20001 11H6.20001ZM12.2624 18.9163C11.5658 18.555 10.017 17.6644 8.65504 16.2906C7.29212 14.9159 6.20001 13.1458 6.20001 11H4.20001C4.20001 13.8706 5.66742 16.1178 7.23475 17.6987C8.803 19.2805 10.5552 20.2838 11.3415 20.6917L12.2624 18.9163ZM12.1376 18.9163C12.1514 18.9091 12.1733 18.9023 12.2 18.9023C12.2268 18.9023 12.2486 18.9091 12.2624 18.9163L11.3415 20.6917C11.8831 20.9726 12.5169 20.9726 13.0585 20.6917L12.1376 18.9163ZM14.2 11C14.2 12.1046 13.3046 13 12.2 13V15C14.4092 15 16.2 13.2091 16.2 11H14.2ZM12.2 9C13.3046 9 14.2 9.89543 14.2 11H16.2C16.2 8.79086 14.4092 7 12.2 7V9ZM10.2 11C10.2 9.89543 11.0954 9 12.2 9V7C9.99087 7 8.20001 8.79086 8.20001 11H10.2ZM12.2 13C11.0954 13 10.2 12.1046 10.2 11H8.20001C8.20001 13.2091 9.99087 15 12.2 15V13Z" fill="currentColor"/>
</svg>
