<svg width="16" height="16" viewBox="0 0 16 16"  xmlns="http://www.w3.org/2000/svg">
<path fill-rule="evenodd" clip-rule="evenodd" d="M13.2978 2.68313C12.9189 2.75054 12.3817 2.92684 11.5215 3.21357L5.03054 5.37723C4.20315 5.65303 3.61939 5.84794 3.19948 6.01177C2.99181 6.0928 2.84718 6.15753 2.74661 6.21059C2.66142 6.25552 2.6308 6.28028 2.62898 6.28155C2.22312 6.67445 2.22312 7.3255 2.62898 7.7184C2.6308 7.71967 2.66142 7.74442 2.74661 7.78936C2.84718 7.84242 2.99181 7.90715 3.19948 7.98818C3.61939 8.15201 4.20315 8.34692 5.03054 8.62272C5.04954 8.62905 5.06837 8.63532 5.08705 8.64153C5.36043 8.73246 5.60045 8.81229 5.82141 8.92914C6.35388 9.21075 6.78926 9.64612 7.07086 10.1786C7.18772 10.3996 7.26755 10.6396 7.35848 10.913C7.36469 10.9316 7.37095 10.9505 7.37728 10.9695C7.65308 11.7969 7.84799 12.3806 8.01183 12.8005C8.09285 13.0082 8.15758 13.1528 8.21064 13.2534C8.25558 13.3386 8.28034 13.3692 8.2816 13.371C8.6745 13.7769 9.32556 13.7769 9.71846 13.371C9.71972 13.3692 9.74448 13.3386 9.78942 13.2534C9.84247 13.1528 9.9072 13.0082 9.98823 12.8005C10.1521 12.3806 10.347 11.7969 10.6228 10.9695L12.7864 4.47848C13.0732 3.6183 13.2495 3.08108 13.3169 2.70217C13.3183 2.69429 13.3196 2.68661 13.3209 2.67915C13.3134 2.6804 13.3057 2.68173 13.2978 2.68313ZM13.5568 2.66002C13.5566 2.6602 13.5533 2.65993 13.5475 2.65867C13.5541 2.6592 13.557 2.65984 13.5568 2.66002ZM13.3413 2.45244C13.3401 2.44669 13.3398 2.44341 13.34 2.44321C13.3402 2.443 13.3408 2.44586 13.3413 2.45244ZM12.9475 0.714048C13.4985 0.616031 14.253 0.586843 14.8331 1.1669C15.4132 1.74696 15.384 2.50146 15.286 3.05246C15.1896 3.59389 14.9632 4.27301 14.7077 5.03929L14.6838 5.11094L12.5201 11.6019L12.5107 11.6301C12.2465 12.423 12.0358 13.0549 11.8514 13.5275C11.6781 13.9717 11.4726 14.432 11.1632 14.7541C9.98269 15.9825 8.01737 15.9825 6.8369 14.7541C6.52742 14.432 6.32193 13.9717 6.14863 13.5275C5.96425 13.0549 5.75362 12.423 5.48936 11.6302L5.47992 11.6019C5.35952 11.2407 5.3324 11.1694 5.30288 11.1136C5.20901 10.9361 5.06389 10.791 4.8864 10.6971C4.83058 10.6676 4.75929 10.6405 4.39809 10.5201L4.36976 10.5106C3.57697 10.2464 2.94506 10.0358 2.47252 9.85138C2.02833 9.67807 1.56797 9.47258 1.24592 9.16311C0.0174748 7.98263 0.0174748 6.01732 1.24592 4.83684C1.56797 4.52737 2.02833 4.32188 2.47252 4.14857C2.94508 3.96419 3.57702 3.75355 4.36984 3.48928L4.39809 3.47986L10.8891 1.3162C10.913 1.30822 10.9369 1.30026 10.9607 1.29232C11.727 1.03681 12.4061 0.810364 12.9475 0.714048Z" fill="#EAEAEA"/>
</svg>
