<svg width="12" height="12" viewBox="0 0 12 12" fill="none" xmlns="http://www.w3.org/2000/svg">
<path d="M2.20817 7.75001C2.739 7.75001 3.21909 7.54117 3.58309 7.20751L7.23475 9.29409C7.1945 9.4545 7.1665 9.61901 7.1665 9.79167C7.1665 10.9175 8.08234 11.8333 9.20817 11.8333C10.334 11.8333 11.2498 10.9175 11.2498 9.79167C11.2498 8.66584 10.334 7.75001 9.20817 7.75001C8.67734 7.75001 8.19725 7.95884 7.83325 8.29251L4.18159 6.20592C4.21834 6.06184 4.24167 5.91309 4.24459 5.75792L7.83267 3.70751C8.19725 4.04117 8.67734 4.25001 9.20817 4.25001C10.334 4.25001 11.2498 3.33417 11.2498 2.20834C11.2498 1.08251 10.334 0.166672 9.20817 0.166672C8.08234 0.166672 7.1665 1.08251 7.1665 2.20834C7.1665 2.38101 7.1945 2.54551 7.23475 2.70592L3.91909 4.60117C3.5545 4.04001 2.92509 3.66667 2.20817 3.66667C1.08234 3.66667 0.166504 4.58251 0.166504 5.70834C0.166504 6.83417 1.08234 7.75001 2.20817 7.75001ZM9.20817 8.91667C9.69059 8.91667 10.0832 9.30926 10.0832 9.79167C10.0832 10.2741 9.69059 10.6667 9.20817 10.6667C8.72575 10.6667 8.33317 10.2741 8.33317 9.79167C8.33317 9.30926 8.72575 8.91667 9.20817 8.91667ZM9.20817 1.33334C9.69059 1.33334 10.0832 1.72592 10.0832 2.20834C10.0832 2.69076 9.69059 3.08334 9.20817 3.08334C8.72575 3.08334 8.33317 2.69076 8.33317 2.20834C8.33317 1.72592 8.72575 1.33334 9.20817 1.33334ZM2.20817 4.83334C2.69059 4.83334 3.08317 5.22592 3.08317 5.70834C3.08317 6.19076 2.69059 6.58334 2.20817 6.58334C1.72575 6.58334 1.33317 6.19076 1.33317 5.70834C1.33317 5.22592 1.72575 4.83334 2.20817 4.83334Z" fill="#F94B0C"/>
</svg>
