<svg width="50" height="50" viewBox="0 0 50 50"  xmlns="http://www.w3.org/2000/svg">
<path fill="currentColor" d="M5.91726 48.5714H9.67493H21.5464H44.0827C44.4775 48.5714 44.797 48.252 44.797 47.8572V24.0506C45.9632 23.849 46.9924 23.1658 47.6493 22.1331C48.3977 20.9577 48.5707 19.4734 48.1131 18.162L42.4379 1.9071C42.3375 1.62041 42.0668 1.42859 41.7634 1.42859H8.2345C7.93107 1.42859 7.66042 1.62041 7.55998 1.9078L1.88684 18.1627C1.42926 19.4741 1.60225 20.9584 2.35001 22.1331C3.00784 23.1663 4.03772 23.8496 5.20297 24.0508V47.8572C5.20297 48.252 5.52245 48.5714 5.91726 48.5714ZM10.3892 47.1429V32.7679C10.3892 32.627 10.5043 32.5119 10.6452 32.5119H20.5769C20.7178 32.5119 20.8322 32.627 20.8322 32.7679V47.1429H10.3892ZM22.2607 47.1429V32.7679C22.2607 31.8387 21.5053 31.0833 20.5769 31.0833H10.6452C9.71609 31.0833 8.96065 31.8387 8.96065 32.7679V47.1429H6.63154V24.063C7.94515 23.8638 9.07343 23.1009 9.76151 22.0259C10.5662 23.2827 11.9716 24.1197 13.5714 24.1197C15.1712 24.1197 16.5762 23.2828 17.3807 22.0261C18.1852 23.2828 19.5902 24.1197 21.19 24.1197C22.789 24.1197 24.1938 23.2835 24.9987 22.0279C25.8028 23.2842 27.2074 24.1211 28.8065 24.1211C30.4081 24.1211 31.8147 23.2844 32.62 22.0281C33.4249 23.2837 34.8297 24.1197 36.4286 24.1197C38.0283 24.1197 39.4334 23.2828 40.2379 22.0261C40.9261 23.1011 42.0546 23.8641 43.3684 24.0631V47.1429H22.2607ZM5.90488 10.9856H44.0941L45.1539 14.0214H4.84548L5.90488 10.9856ZM8.74162 2.85716H41.2563L43.5953 9.55708H6.40345L8.74162 2.85716ZM3.55537 21.3665C3.04058 20.5574 2.92061 19.5355 3.2359 18.6335L4.34691 15.4499H45.6526L46.7641 18.6335C47.0794 19.5348 46.9594 20.5567 46.4446 21.3665C45.9626 22.1233 45.2239 22.5879 44.3638 22.6751C44.2592 22.6863 44.1539 22.6911 44.0471 22.6911C42.3402 22.6911 40.9521 21.303 40.9521 19.5961C40.9521 19.2013 40.6327 18.8819 40.2379 18.8819C39.843 18.8819 39.5236 19.2013 39.5236 19.5961C39.5236 21.303 38.1354 22.6911 36.4286 22.6911C34.7268 22.6911 33.3427 21.311 33.3344 19.6111C33.3344 19.6072 33.3349 19.6035 33.3349 19.5996C33.3349 19.4997 33.3139 19.4048 33.2769 19.3185C33.1687 19.0618 32.9149 18.8819 32.6186 18.8819C32.2238 18.8819 31.9043 19.2013 31.9043 19.5961C31.9043 19.6015 31.9051 19.6068 31.9051 19.6122C31.898 21.3118 30.5112 22.6925 28.8065 22.6925C27.1022 22.6925 25.7158 21.307 25.7139 19.6031C25.7139 19.6007 25.7143 19.5985 25.7143 19.5961C25.7143 19.2013 25.3948 18.8819 25 18.8819C24.6052 18.8819 24.2857 19.2013 24.2857 19.5961C24.2857 19.5974 24.285 19.5984 24.285 19.5996C24.285 19.6004 24.2851 19.6011 24.2851 19.6019C24.2819 21.3062 22.8949 22.6911 21.19 22.6911C19.4831 22.6911 18.095 21.303 18.095 19.5961C18.095 19.2013 17.7755 18.8819 17.3807 18.8819C16.9859 18.8819 16.6664 19.2013 16.6664 19.5961C16.6664 21.303 15.2783 22.6911 13.5714 22.6911C11.8645 22.6911 10.4757 21.303 10.4757 19.5961C10.4757 19.2013 10.1562 18.8819 9.76143 18.8819C9.36662 18.8819 9.04714 19.2013 9.04714 19.5961C9.04714 21.303 7.65903 22.6911 5.95214 22.6911C5.84611 22.6911 5.74008 22.6863 5.63475 22.6751C4.77607 22.5879 4.03737 22.1233 3.55537 21.3665Z"/>
<path fill="currentColor" d="M19.1643 38.3705C19.5591 38.3705 19.8786 38.051 19.8786 37.6562C19.8786 37.2614 19.5591 36.9419 19.1643 36.9419H18.2603C17.8655 36.9419 17.546 37.2614 17.546 37.6562V41.4955C17.546 41.8903 17.8655 42.2098 18.2603 42.2098H19.1643C19.5591 42.2098 19.8786 41.8903 19.8786 41.4955C19.8786 41.1007 19.5591 40.7812 19.1643 40.7812H18.9746V38.3705H19.1643ZM40.2379 29.4642H25.9954C25.6006 29.4642 25.2811 29.7837 25.2811 30.1785V39.8939C25.2811 40.2887 25.6006 40.6082 25.9954 40.6082H40.2379C40.6327 40.6082 40.9521 40.2887 40.9521 39.8939V30.1785C40.9521 29.7837 40.6327 29.4642 40.2379 29.4642ZM39.5236 39.1796H26.7097V30.8928H39.5236V39.1796Z"/>
<path fill="currentColor" d="M28.3022 37.7762C28.4417 37.9157 28.6244 37.9854 28.8072 37.9854C28.9899 37.9854 29.1727 37.9157 29.3122 37.7762L33.1494 33.939C33.4284 33.66 33.4284 33.208 33.1494 32.9289C32.8704 32.6499 32.4184 32.6499 32.1394 32.9289L28.3022 36.7661C28.0231 37.0451 28.0231 37.4972 28.3022 37.7762ZM28.1738 35.7226C28.3566 35.7226 28.5393 35.6528 28.6788 35.5133L30.8866 33.3056C31.1656 33.0266 31.1656 32.5746 30.8866 32.2956C30.6076 32.0165 30.1555 32.0165 29.8765 32.2956L27.6688 34.5033C27.3898 34.7823 27.3898 35.2343 27.6688 35.5133C27.8083 35.6528 27.9911 35.7226 28.1738 35.7226Z"/>
</svg>
