<svg width="64" height="64" viewBox="0 0 64 64"  xmlns="http://www.w3.org/2000/svg">
<g clip-path="url(#clip0_65_771)">
<path d="M60.318 38.167L57.476 37.214V18.424C57.476 17.872 57.029 17.424 56.476 17.424H52.927C52.374 17.424 51.927 17.872 51.927 18.424V35.354L50.663 34.93V18.423C50.663 17.871 50.216 17.423 49.663 17.423H46.123C45.57 17.423 45.123 17.871 45.123 18.423V33.071L43.852 32.645V18.423C43.852 17.871 43.405 17.423 42.852 17.423H39.312C38.759 17.423 38.312 17.871 38.312 18.423V30.787L36.78 30.273V24.99C36.78 24.668 36.625 24.366 36.364 24.178C36.102 23.99 35.768 23.939 35.462 24.042L24.064 27.868C23.848 27.472 23.592 27.111 23.29 26.802C23.321 26.407 23.337 26.011 23.337 25.619C23.337 22.581 22.469 19.516 20.53 19.516C18.591 19.516 17.723 22.581 17.723 25.619C17.723 26.015 17.739 26.411 17.769 26.803C17.641 26.934 17.52 27.074 17.408 27.222C17.413 27.104 17.416 26.985 17.416 26.866C17.416 24.998 16.719 23.255 15.528 22.09C15.574 21.549 15.596 20.996 15.596 20.437C15.596 16.757 14.548 12.796 12.248 12.796C9.945 12.796 8.896 16.757 8.896 20.437C8.896 21.004 8.919 21.559 8.966 22.092C7.775 23.259 7.076 25.001 7.076 26.866C7.076 27.273 7.11 27.679 7.179 28.078C6.009 28.998 5.286 30.563 5.286 32.274C5.286 32.899 5.391 33.503 5.574 34.071L3.68 34.707C3.274 34.845 3 35.227 3 35.656V50.203C3 50.755 3.447 51.203 4 51.203H60C60.553 51.203 61 50.755 61 50.203V39.115C61 38.685 60.726 38.303 60.318 38.167ZM47.124 23.49H48.664V34.257L47.124 33.74V23.49ZM48.664 19.423V21.49H47.124V19.423H48.664ZM40.313 23.49H41.853V31.973L40.313 31.454V23.49ZM41.853 19.423V21.49H40.313V19.423H41.853ZM8.759 29.43C9.184 29.214 9.397 28.729 9.269 28.27C9.142 27.814 9.078 27.342 9.078 26.866C9.078 25.394 9.66 24.055 10.636 23.284C10.909 23.068 11.05 22.725 11.009 22.38C10.935 21.768 10.898 21.114 10.898 20.437C10.898 16.852 11.893 14.945 12.211 14.79C12.606 14.945 13.598 16.852 13.598 20.437C13.598 21.103 13.562 21.759 13.491 22.388C13.453 22.731 13.594 23.071 13.865 23.285C14.838 24.054 15.418 25.392 15.418 26.867C15.418 27.357 15.355 27.831 15.231 28.275C15.103 28.733 15.315 29.217 15.739 29.434C16.046 29.591 16.329 29.841 16.561 30.16C16.572 30.178 16.583 30.196 16.596 30.213C16.626 30.256 16.656 30.3 16.684 30.346L7.461 33.438C7.348 33.075 7.289 32.683 7.289 32.276C7.287 31.021 7.879 29.878 8.759 29.43ZM18.611 29.697C18.57 29.616 18.528 29.537 18.484 29.46C18.668 28.854 19.003 28.331 19.432 27.991C19.703 27.777 19.843 27.438 19.805 27.095C19.749 26.611 19.722 26.115 19.722 25.62C19.722 23.471 20.214 22.099 20.531 21.638C20.845 22.097 21.336 23.468 21.336 25.62C21.336 26.109 21.308 26.605 21.252 27.095C21.214 27.439 21.356 27.779 21.628 27.993C21.811 28.137 21.978 28.315 22.123 28.519L19.95 29.248L18.611 29.697ZM34.78 49.204H5V36.375L34.78 26.381V49.204ZM55.477 19.423V21.49H53.928V19.423H55.477ZM53.928 23.49H55.477V36.543L53.928 36.023V23.49ZM59 49.204H36.78V32.383L59 39.834V49.204Z" fill="currentColor"/>
<path d="M41.391 40.479H38.397V43.273H41.391V40.479Z" fill="currentColor"/>
<path d="M45.396 40.479H42.394V43.273H45.396V40.479Z" fill="currentColor"/>
<path d="M49.392 40.479H46.389V43.273H49.392V40.479Z" fill="currentColor"/>
<path d="M53.387 40.479H50.394V43.273H53.387V40.479Z" fill="currentColor"/>
<path d="M57.392 40.479H54.389V43.273H57.392V40.479Z" fill="currentColor"/>
<path d="M41.391 44.479H38.397V47.273H41.391V44.479Z" fill="currentColor"/>
<path d="M45.396 44.479H42.394V47.273H45.396V44.479Z" fill="currentColor"/>
<path d="M49.392 44.479H46.389V47.273H49.392V44.479Z" fill="currentColor"/>
<path d="M53.387 44.479H50.394V47.273H53.387V44.479Z" fill="currentColor"/>
<path d="M57.392 44.479H54.389V47.273H57.392V44.479Z" fill="currentColor"/>
<path d="M15.389 40.479H12.396V43.273H15.389V40.479Z" fill="currentColor"/>
<path d="M11.394 40.479H8.39203V43.273H11.394V40.479Z" fill="currentColor"/>
<path d="M19.394 40.479H16.392V43.273H19.394V40.479Z" fill="currentColor"/>
<path d="M23.389 40.479H20.396V43.273H23.389V40.479Z" fill="currentColor"/>
<path d="M27.389 40.479H24.392V43.273H27.389V40.479Z" fill="currentColor"/>
<path d="M31.389 40.479H28.392V43.273H31.389V40.479Z" fill="currentColor"/>
<path d="M15.389 44.479H12.396V47.273H15.389V44.479Z" fill="currentColor"/>
<path d="M11.394 44.479H8.39203V47.273H11.394V44.479Z" fill="currentColor"/>
<path d="M19.394 44.479H16.392V47.273H19.394V44.479Z" fill="currentColor"/>
<path d="M23.389 44.479H20.396V47.273H23.389V44.479Z" fill="currentColor"/>
<path d="M27.389 44.479H24.392V47.273H27.389V44.479Z" fill="currentColor"/>
<path d="M31.389 44.479H28.392V47.273H31.389V44.479Z" fill="currentColor"/>
</g>
<defs>
<clipPath id="clip0_65_771">
<rect width="64" height="64" fill="white"/>
</clipPath>
</defs>
</svg>
