<svg width="50" height="50" viewBox="0 0 50 50"  xmlns="http://www.w3.org/2000/svg">
<g clip-path="url(#clip0_65_855)">
<path fill="currentColor" d="M47.5 45H46.0642V26.2708C46.0642 26.0498 45.9764 25.8378 45.8201 25.6815C45.6638 25.5253 45.4518 25.4375 45.2308 25.4375H42.0958V19.7091H45.0742C45.2262 19.7093 45.3754 19.6678 45.5056 19.5893C45.6357 19.5107 45.7419 19.398 45.8127 19.2635C45.8834 19.1289 45.9159 18.9775 45.9068 18.8257C45.8977 18.674 45.8472 18.5276 45.7608 18.4025L39.0692 8.69413C38.9885 8.58873 38.8846 8.50332 38.7656 8.44454C38.6466 8.38575 38.5157 8.35518 38.3829 8.35518C38.2502 8.35518 38.1192 8.38575 38.0002 8.44454C37.8812 8.50332 37.7773 8.58873 37.6967 8.69413L31.0058 18.4025C30.9195 18.5275 30.869 18.6738 30.8599 18.8255C30.8507 18.9772 30.8832 19.1285 30.9538 19.2631C31.0244 19.3976 31.1305 19.5103 31.2606 19.589C31.3906 19.6676 31.5397 19.7091 31.6917 19.7091H34.6667V25.4375H28.7133V11.3758H31.6917C31.8436 11.3758 31.9927 11.3342 32.1228 11.2556C32.2528 11.177 32.3589 11.0643 32.4295 10.9298C32.5001 10.7952 32.5326 10.6439 32.5235 10.4922C32.5143 10.3405 32.4638 10.1942 32.3775 10.0691L25.6858 0.360801C25.6052 0.255403 25.5015 0.169997 25.3825 0.111213C25.2636 0.0524294 25.1327 0.0218506 25 0.0218506C24.8673 0.0218506 24.7364 0.0524294 24.6175 0.111213C24.4985 0.169997 24.3948 0.255403 24.3142 0.360801L17.6225 10.0691C17.5362 10.1942 17.4857 10.3405 17.4765 10.4922C17.4674 10.6439 17.4999 10.7952 17.5705 10.9298C17.6411 11.0643 17.7472 11.177 17.8772 11.2556C18.0073 11.3342 18.1564 11.3758 18.3083 11.3758H21.2867V25.4375H15.3333V19.7091H18.3083C18.4603 19.7091 18.6094 19.6676 18.7394 19.589C18.8695 19.5103 18.9756 19.3976 19.0462 19.2631C19.1168 19.1285 19.1493 18.9772 19.1401 18.8255C19.131 18.6738 19.0805 18.5275 18.9942 18.4025L12.3033 8.69413C12.2227 8.58873 12.1188 8.50332 11.9998 8.44454C11.8808 8.38575 11.7498 8.35518 11.6171 8.35518C11.4843 8.35518 11.3534 8.38575 11.2344 8.44454C11.1154 8.50332 11.0115 8.58873 10.9308 8.69413L4.23917 18.4025C4.15281 18.5276 4.10233 18.674 4.0932 18.8257C4.08406 18.9775 4.11662 19.1289 4.18735 19.2635C4.25807 19.398 4.36427 19.5107 4.49444 19.5893C4.62461 19.6678 4.77379 19.7093 4.92583 19.7091H7.90417V25.4375H4.76917C4.54815 25.4375 4.33619 25.5253 4.17991 25.6815C4.02363 25.8378 3.93583 26.0498 3.93583 26.2708V45H2.5C1.83696 45 1.20107 45.2634 0.732233 45.7322C0.263392 46.201 0 46.8369 0 47.5C0 48.163 0.263392 48.7989 0.732233 49.2677C1.20107 49.7366 1.83696 50 2.5 50H47.5C48.163 50 48.7989 49.7366 49.2678 49.2677C49.7366 48.7989 50 48.163 50 47.5C50 46.8369 49.7366 46.201 49.2678 45.7322C48.7989 45.2634 48.163 45 47.5 45ZM44.3975 45H25.8333V27.1041H32.0583V32.3841C32.0583 32.6051 32.1461 32.8171 32.3024 32.9734C32.4587 33.1297 32.6707 33.2175 32.8917 33.2175H37.3392C37.5602 33.2175 37.7721 33.1297 37.9284 32.9734C38.0847 32.8171 38.1725 32.6051 38.1725 32.3841V27.1041H44.3975V45ZM35.5 18.0425H33.275L38.38 10.635L43.485 18.0425H41.2625C41.0415 18.0425 40.8295 18.1303 40.6732 18.2865C40.517 18.4428 40.4292 18.6548 40.4292 18.8758V25.4375H36.3333V18.8758C36.3333 18.6548 36.2455 18.4428 36.0893 18.2865C35.933 18.1303 35.721 18.0425 35.5 18.0425ZM36.5 27.1041V31.5508H33.725V27.1041H36.5ZM22.12 9.70913H19.895L25 2.30163L30.105 9.70913H27.88C27.659 9.70913 27.447 9.79693 27.2907 9.95321C27.1345 10.1095 27.0467 10.3215 27.0467 10.5425V25.4375H22.9533V10.5425C22.9533 10.3215 22.8655 10.1095 22.7093 9.95321C22.553 9.79693 22.341 9.70913 22.12 9.70913ZM13.4942 27.1041H16.275V31.5508H13.4942V27.1041ZM8.7375 18.0425H6.51167L11.6167 10.635L16.7217 18.0425H14.5C14.279 18.0425 14.067 18.1303 13.9107 18.2865C13.7545 18.4428 13.6667 18.6548 13.6667 18.8758V25.4375H9.57083V18.8758C9.57083 18.6548 9.48304 18.4428 9.32676 18.2865C9.17048 18.1303 8.95851 18.0425 8.7375 18.0425ZM5.6025 27.1041H11.8275V32.3841C11.8275 32.6051 11.9153 32.8171 12.0716 32.9734C12.2279 33.1297 12.4398 33.2175 12.6608 33.2175H17.1083C17.3293 33.2175 17.5413 33.1297 17.6976 32.9734C17.8539 32.8171 17.9417 32.6051 17.9417 32.3841V27.1041H24.1667V45H5.6025V27.1041ZM47.5 48.3333H2.5C2.27899 48.3333 2.06702 48.2455 1.91074 48.0892C1.75446 47.9329 1.66667 47.721 1.66667 47.5C1.66667 47.279 1.75446 47.067 1.91074 46.9107C2.06702 46.7544 2.27899 46.6666 2.5 46.6666H47.5C47.721 46.6666 47.933 46.7544 48.0893 46.9107C48.2455 47.067 48.3333 47.279 48.3333 47.5C48.3333 47.721 48.2455 47.9329 48.0893 48.0892C47.933 48.2455 47.721 48.3333 47.5 48.3333Z" />
<path fill="currentColor" d="M12.6608 39.72H8.55166C8.33064 39.72 8.11868 39.8078 7.9624 39.964C7.80612 40.1203 7.71832 40.3323 7.71832 40.5533C7.71832 40.7743 7.80612 40.9863 7.9624 41.1426C8.11868 41.2988 8.33064 41.3866 8.55166 41.3866H12.6608C12.8818 41.3866 13.0938 41.2988 13.2501 41.1426C13.4064 40.9863 13.4942 40.7743 13.4942 40.5533C13.4942 40.3323 13.4064 40.1203 13.2501 39.964C13.0938 39.8078 12.8818 39.72 12.6608 39.72ZM32.8917 39.72H28.7833C28.5623 39.72 28.3503 39.8078 28.1941 39.964C28.0378 40.1203 27.95 40.3323 27.95 40.5533C27.95 40.7743 28.0378 40.9863 28.1941 41.1426C28.3503 41.2988 28.5623 41.3866 28.7833 41.3866H32.8917C33.1127 41.3866 33.3246 41.2988 33.4809 41.1426C33.6372 40.9863 33.725 40.7743 33.725 40.5533C33.725 40.3323 33.6372 40.1203 33.4809 39.964C33.3246 39.8078 33.1127 39.72 32.8917 39.72Z" />
</g>
<defs>
<clipPath id="clip0_65_855">
<rect width="50" height="50" fill="white"/>
</clipPath>
</defs>
</svg>
