<svg width="50" height="50" viewBox="0 0 50 50"  xmlns="http://www.w3.org/2000/svg">
<path fill="currentColor" d="M33.5938 35.9375H2.34375C2.13655 35.9375 1.93784 35.8552 1.79132 35.7087C1.64481 35.5622 1.5625 35.3635 1.5625 35.1562V13.2812C1.5625 13.074 1.64481 12.8753 1.79132 12.7288C1.93784 12.5823 2.13655 12.5 2.34375 12.5H28.9062C29.1135 12.5 29.3122 12.5823 29.4587 12.7288C29.6052 12.8753 29.6875 13.074 29.6875 13.2812C29.6875 13.4885 29.6052 13.6872 29.4587 13.8337C29.3122 13.9802 29.1135 14.0625 28.9062 14.0625H3.125V34.375H33.5938C33.8009 34.375 33.9997 34.4573 34.1462 34.6038C34.2927 34.7503 34.375 34.949 34.375 35.1562C34.375 35.3635 34.2927 35.5622 34.1462 35.7087C33.9997 35.8552 33.8009 35.9375 33.5938 35.9375Z" />
<path fill="currentColor" d="M30.4687 26.5625C30.4687 24.7891 29.2641 23.4969 26.8891 22.7219L26.7125 22.6641C25.8219 22.3734 25 21.9828 25 21.0938C25 20.1734 25.6422 19.5312 26.5625 19.5312C27.6625 19.5312 28.3969 20.1219 28.4031 20.1281C28.4808 20.1991 28.572 20.2536 28.6713 20.2884C28.7706 20.3232 28.8758 20.3376 28.9808 20.3308C29.0858 20.3239 29.1883 20.2959 29.2822 20.2485C29.3761 20.2011 29.4594 20.1351 29.5272 20.0547C29.595 19.9743 29.6459 19.881 29.6768 19.7804C29.7076 19.6798 29.7179 19.5741 29.7069 19.4694C29.6959 19.3648 29.6638 19.2635 29.6127 19.1716C29.5616 19.0796 29.4924 18.9989 29.4094 18.9344C28.7989 18.4722 28.0851 18.1655 27.3297 18.0406C27.3312 18.0156 27.3437 17.9953 27.3437 17.9688V17.1875C27.3437 16.9803 27.2614 16.7816 27.1149 16.6351C26.9684 16.4886 26.7697 16.4062 26.5625 16.4062C26.3553 16.4062 26.1566 16.4886 26.0101 16.6351C25.8636 16.7816 25.7812 16.9803 25.7812 17.1875V17.9688C25.7812 18.0016 25.7969 18.0313 25.8016 18.0656C24.4141 18.3891 23.4375 19.5781 23.4375 21.0938C23.4375 23.2406 25.5375 23.9266 26.2266 24.1484L26.4031 24.2062C28.0891 24.7562 28.9062 25.5281 28.9062 26.5625C28.9062 27.8984 27.8984 28.9062 26.5625 28.9062C25.1125 28.9062 24.2828 27.95 24.0625 27.6563C24.001 27.5741 23.924 27.5048 23.8358 27.4524C23.7476 27.4 23.6499 27.3655 23.5483 27.3508C23.3432 27.3212 23.1347 27.3743 22.9687 27.4984C22.8028 27.6226 22.6929 27.8075 22.6633 28.0126C22.6337 28.2177 22.6868 28.4262 22.8109 28.5922C23.1 28.9781 24.0906 30.125 25.7922 30.4047C25.7906 30.4266 25.7797 30.4453 25.7797 30.4672V31.25C25.7797 31.4572 25.862 31.6559 26.0085 31.8024C26.155 31.9489 26.3537 32.0312 26.5609 32.0312C26.7681 32.0312 26.9668 31.9489 27.1134 31.8024C27.2599 31.6559 27.3422 31.4572 27.3422 31.25V30.4688C27.3422 30.4422 27.3297 30.4203 27.3266 30.3937C28.2169 30.226 29.0199 29.7501 29.5944 29.0496C30.169 28.349 30.4785 27.4685 30.4687 26.5625ZM33.5937 35.9375C33.3865 35.9375 33.1878 35.8552 33.0413 35.7087C32.8948 35.5622 32.8125 35.3635 32.8125 35.1562C32.8125 34.949 32.8948 34.7503 33.0413 34.6038C33.1878 34.4573 33.3865 34.375 33.5937 34.375C35.7484 34.375 37.5 32.6234 37.5 30.4688V25.7812C37.5 25.574 37.5823 25.3753 37.7288 25.2288C37.8753 25.0823 38.074 25 38.2812 25C38.4884 25 38.6872 25.0823 38.8337 25.2288C38.9802 25.3753 39.0625 25.574 39.0625 25.7812V30.4688C39.0625 33.4844 36.6094 35.9375 33.5937 35.9375Z" />
<path fill="currentColor" d="M38.2812 31.25C38.0741 31.25 37.8753 31.1677 37.7288 31.0212C37.5823 30.8747 37.5 30.676 37.5 30.4688C37.5 28.3141 35.7484 26.5625 33.5938 26.5625H32.0312C31.824 26.5625 31.6253 26.4802 31.4788 26.3337C31.3323 26.1872 31.25 25.9885 31.25 25.7812V3.90625C31.25 3.69905 31.3323 3.50034 31.4788 3.35382C31.6253 3.20731 31.824 3.125 32.0312 3.125H33.5938C36.6094 3.125 39.0625 5.57812 39.0625 8.59375V30.4688C39.0625 30.676 38.9802 30.8747 38.8337 31.0212C38.6872 31.1677 38.4884 31.25 38.2812 31.25ZM32.8125 25H33.5938C35.1234 25 36.5062 25.6297 37.5 26.6453V8.59375C37.5 6.43906 35.7484 4.6875 33.5938 4.6875H32.8125V25ZM47.6562 48.4375H2.34375C2.13655 48.4375 1.93784 48.3552 1.79132 48.2087C1.64481 48.0622 1.5625 47.8634 1.5625 47.6562C1.5625 47.4491 1.64481 47.2503 1.79132 47.1038C1.93784 46.9573 2.13655 46.875 2.34375 46.875H47.6562C47.8634 46.875 48.0622 46.9573 48.2087 47.1038C48.3552 47.2503 48.4375 47.4491 48.4375 47.6562C48.4375 47.8634 48.3552 48.0622 48.2087 48.2087C48.0622 48.3552 47.8634 48.4375 47.6562 48.4375ZM47.6562 45.3125H2.34375C2.13655 45.3125 1.93784 45.2302 1.79132 45.0837C1.64481 44.9372 1.5625 44.7384 1.5625 44.5312C1.5625 44.3241 1.64481 44.1253 1.79132 43.9788C1.93784 43.8323 2.13655 43.75 2.34375 43.75H47.6562C47.8634 43.75 48.0622 43.8323 48.2087 43.9788C48.3552 44.1253 48.4375 44.3241 48.4375 44.5312C48.4375 44.7384 48.3552 44.9372 48.2087 45.0837C48.0622 45.2302 47.8634 45.3125 47.6562 45.3125ZM47.6562 42.1875H2.34375C2.13655 42.1875 1.93784 42.1052 1.79132 41.9587C1.64481 41.8122 1.5625 41.6134 1.5625 41.4062C1.5625 41.1991 1.64481 41.0003 1.79132 40.8538C1.93784 40.7073 2.13655 40.625 2.34375 40.625H47.6562C47.8634 40.625 48.0622 40.7073 48.2087 40.8538C48.3552 41.0003 48.4375 41.1991 48.4375 41.4062C48.4375 41.6134 48.3552 41.8122 48.2087 41.9587C48.0622 42.1052 47.8634 42.1875 47.6562 42.1875Z" />
<path fill="currentColor" d="M47.6562 39.0625H2.34375C2.13655 39.0625 1.93784 38.9802 1.79132 38.8337C1.64481 38.6872 1.5625 38.4885 1.5625 38.2812C1.5625 38.074 1.64481 37.8753 1.79132 37.7288C1.93784 37.5823 2.13655 37.5 2.34375 37.5H46.875V17.1875H41.4062C41.1991 17.1875 41.0003 17.1052 40.8538 16.9587C40.7073 16.8122 40.625 16.6135 40.625 16.4062C40.625 16.199 40.7073 16.0003 40.8538 15.8538C41.0003 15.7073 41.1991 15.625 41.4062 15.625H47.6562C47.8634 15.625 48.0622 15.7073 48.2087 15.8538C48.3552 16.0003 48.4375 16.199 48.4375 16.4062V38.2812C48.4375 38.4885 48.3552 38.6872 48.2087 38.8337C48.0622 38.9802 47.8634 39.0625 47.6562 39.0625Z" />
</svg>
