<svg width="60" height="60" viewBox="0 0 60 60"  xmlns="http://www.w3.org/2000/svg">
<path fill="currentColor" d="M48.9286 17.8572C49.1405 17.8572 49.3476 17.7944 49.5238 17.6766C49.7 17.5589 49.8373 17.3916 49.9184 17.1958C49.9995 17 50.0207 16.7846 49.9794 16.5767C49.9381 16.3689 49.836 16.178 49.6862 16.0282C49.5363 15.8783 49.3454 15.7763 49.1376 15.7349C48.9298 15.6936 48.7143 15.7148 48.5185 15.7959C48.3228 15.877 48.1554 16.0143 48.0377 16.1905C47.92 16.3667 47.8571 16.5739 47.8571 16.7858C47.8574 17.0698 47.9704 17.3422 48.1713 17.5431C48.3721 17.7439 48.6445 17.8569 48.9286 17.8572ZM48.9286 16.2501C49.0345 16.2501 49.1381 16.2815 49.2262 16.3403C49.3143 16.3992 49.383 16.4829 49.4235 16.5808C49.464 16.6786 49.4747 16.7864 49.454 16.8903C49.4333 16.9942 49.3823 17.0897 49.3074 17.1646C49.2324 17.2395 49.137 17.2905 49.0331 17.3112C48.9292 17.3319 48.8214 17.3212 48.7236 17.2807C48.6257 17.2402 48.542 17.1715 48.4831 17.0834C48.4243 16.9953 48.3928 16.8917 48.3928 16.7858C48.3929 16.6437 48.4494 16.5075 48.5499 16.4071C48.6503 16.3066 48.7865 16.2501 48.9286 16.2501V16.2501ZM14.6428 16.4286C14.8548 16.4286 15.0619 16.3658 15.2381 16.2481C15.4143 16.1303 15.5516 15.963 15.6327 15.7672C15.7138 15.5714 15.735 15.356 15.6937 15.1482C15.6523 14.9403 15.5503 14.7494 15.4005 14.5996C15.2506 14.4497 15.0597 14.3477 14.8519 14.3064C14.644 14.265 14.4286 14.2862 14.2328 14.3673C14.0371 14.4484 13.8697 14.5857 13.752 14.7619C13.6343 14.9381 13.5714 15.1453 13.5714 15.3572C13.5717 15.6413 13.6847 15.9136 13.8855 16.1145C14.0864 16.3154 14.3588 16.4283 14.6428 16.4286V16.4286ZM14.6428 14.8215C14.7488 14.8215 14.8524 14.8529 14.9405 14.9118C15.0286 14.9706 15.0972 15.0543 15.1378 15.1522C15.1783 15.2501 15.1889 15.3578 15.1683 15.4617C15.1476 15.5656 15.0966 15.6611 15.0217 15.736C14.9467 15.8109 14.8513 15.8619 14.7474 15.8826C14.6434 15.9033 14.5357 15.8927 14.4378 15.8521C14.34 15.8116 14.2563 15.7429 14.1974 15.6548C14.1386 15.5667 14.1071 15.4631 14.1071 15.3572C14.1072 15.2151 14.1637 15.0789 14.2641 14.9785C14.3646 14.878 14.5008 14.8216 14.6428 14.8215V14.8215ZM56.4286 32.5001C56.4286 32.3588 56.3867 32.2207 56.3082 32.1032C56.2297 31.9858 56.1181 31.8942 55.9876 31.8401C55.8571 31.7861 55.7135 31.7719 55.5749 31.7995C55.4364 31.8271 55.3091 31.8951 55.2092 31.995C55.1093 32.0949 55.0413 32.2221 55.0137 32.3607C54.9862 32.4993 55.0003 32.6429 55.0544 32.7734C55.1084 32.9039 55.2 33.0155 55.3174 33.094C55.4349 33.1724 55.573 33.2143 55.7143 33.2143C55.9037 33.2141 56.0852 33.1388 56.2191 33.0049C56.3531 32.871 56.4284 32.6894 56.4286 32.5001ZM55.3571 32.5001C55.3571 32.4294 55.3781 32.3604 55.4173 32.3016C55.4566 32.2429 55.5123 32.1971 55.5776 32.1701C55.6429 32.1431 55.7147 32.136 55.784 32.1498C55.8532 32.1636 55.9169 32.1976 55.9668 32.2475C56.0168 32.2975 56.0508 32.3611 56.0646 32.4304C56.0783 32.4997 56.0713 32.5715 56.0442 32.6367C56.0172 32.702 55.9714 32.7578 55.9127 32.797C55.854 32.8362 55.7849 32.8572 55.7143 32.8572C55.6196 32.8571 55.5288 32.8194 55.4618 32.7525C55.3949 32.6855 55.3572 32.5947 55.3571 32.5001ZM40.7143 24.2858C40.7143 24.427 40.7562 24.5651 40.8347 24.6826C40.9131 24.8001 41.0247 24.8916 41.1552 24.9457C41.2857 24.9997 41.4294 25.0139 41.5679 24.9863C41.7065 24.9588 41.8337 24.8907 41.9336 24.7908C42.0335 24.6909 42.1016 24.5637 42.1291 24.4251C42.1567 24.2866 42.1425 24.1429 42.0885 24.0124C42.0344 23.8819 41.9429 23.7703 41.8254 23.6919C41.7079 23.6134 41.5698 23.5715 41.4286 23.5715C41.2392 23.5717 41.0576 23.647 40.9237 23.7809C40.7898 23.9148 40.7145 24.0964 40.7143 24.2858V24.2858ZM41.4286 23.9286C41.4992 23.9286 41.5683 23.9496 41.627 23.9888C41.6857 24.0281 41.7315 24.0838 41.7585 24.1491C41.7856 24.2144 41.7926 24.2862 41.7788 24.3554C41.7651 24.4247 41.731 24.4884 41.6811 24.5383C41.6312 24.5883 41.5675 24.6223 41.4982 24.636C41.429 24.6498 41.3572 24.6428 41.2919 24.6157C41.2266 24.5887 41.1709 24.5429 41.1316 24.4842C41.0924 24.4255 41.0714 24.3564 41.0714 24.2858C41.0715 24.1911 41.1092 24.1003 41.1761 24.0333C41.2431 23.9664 41.3339 23.9287 41.4286 23.9286ZM5.71428 26.0715C5.71428 25.9302 5.67239 25.7921 5.5939 25.6746C5.51541 25.5572 5.40386 25.4656 5.27334 25.4116C5.14282 25.3575 4.9992 25.3434 4.86064 25.3709C4.72208 25.3985 4.59481 25.4665 4.49492 25.5664C4.39502 25.6663 4.32699 25.7936 4.29943 25.9321C4.27187 26.0707 4.28602 26.2143 4.34008 26.3448C4.39414 26.4753 4.48569 26.5869 4.60316 26.6654C4.72062 26.7439 4.85872 26.7858 4.99999 26.7858C5.18937 26.7856 5.37095 26.7103 5.50486 26.5763C5.63877 26.4424 5.71409 26.2609 5.71428 26.0715V26.0715ZM4.99999 26.4286C4.92936 26.4286 4.86031 26.4077 4.80157 26.3684C4.74284 26.3292 4.69707 26.2734 4.67003 26.2082C4.643 26.1429 4.63593 26.0711 4.64971 26.0018C4.66349 25.9325 4.69751 25.8689 4.74745 25.8189C4.7974 25.769 4.86104 25.735 4.93032 25.7212C4.9996 25.7074 5.07141 25.7145 5.13666 25.7415C5.20192 25.7686 5.2577 25.8143 5.29695 25.8731C5.33619 25.9318 5.35713 26.0008 5.35713 26.0715C5.35704 26.1662 5.31938 26.257 5.25243 26.3239C5.18547 26.3909 5.09468 26.4285 4.99999 26.4286V26.4286Z"/>
<path fill="currentColor" d="M0.714286 52.857C1.10877 52.857 1.42857 52.5372 1.42857 52.1428C1.42857 51.7483 1.10877 51.4285 0.714286 51.4285C0.319797 51.4285 0 51.7483 0 52.1428C0 52.5372 0.319797 52.857 0.714286 52.857Z"/>
<path fill="currentColor" d="M3.9286 51.4285H2.85717C2.66773 51.4285 2.48605 51.5037 2.35209 51.6377C2.21814 51.7716 2.14288 51.9533 2.14288 52.1428C2.14288 52.3322 2.21814 52.5139 2.35209 52.6478C2.48605 52.7818 2.66773 52.857 2.85717 52.857H3.9286C4.11804 52.857 4.29972 52.7818 4.43367 52.6478C4.56763 52.5139 4.64288 52.3322 4.64288 52.1428C4.64288 51.9533 4.56763 51.7716 4.43367 51.6377C4.29972 51.5037 4.11804 51.4285 3.9286 51.4285ZM57.1429 51.4285H56.0715C55.882 51.4285 55.7003 51.5037 55.5664 51.6377C55.4324 51.7716 55.3572 51.9533 55.3572 52.1428C55.3572 52.3322 55.4324 52.5139 55.5664 52.6478C55.7003 52.7818 55.882 52.857 56.0715 52.857H57.1429C57.3323 52.857 57.514 52.7818 57.648 52.6478C57.7819 52.5139 57.8572 52.3322 57.8572 52.1428C57.8572 51.9533 57.7819 51.7716 57.648 51.6377C57.514 51.5037 57.3323 51.4285 57.1429 51.4285Z"/>
<path fill="currentColor" d="M59.2857 52.857C59.6802 52.857 60 52.5372 60 52.1428C60 51.7483 59.6802 51.4285 59.2857 51.4285C58.8912 51.4285 58.5714 51.7483 58.5714 52.1428C58.5714 52.5372 58.8912 52.857 59.2857 52.857Z"/>
<path fill="currentColor" d="M53.8289 51.4285H49.676C49.9662 51.0085 50.1447 50.5216 50.1946 50.0135C50.4156 47.1575 50.4031 44.2882 50.1571 41.4343C49.6768 33.9418 39.8307 32.3678 39.8307 32.3678C37.3178 31.9189 36.291 29.7607 35.8843 28.3621C37.7924 26.1358 39.1718 23.5064 39.9189 20.671C40.2069 19.6276 40.3542 18.5503 40.3571 17.4678C40.3554 16.8644 40.3008 16.2624 40.1939 15.6685C41.446 13.566 41.0768 11.2225 40.7793 10.096C40.7243 9.93548 40.6172 9.79792 40.475 9.70525C40.3328 9.61258 40.1637 9.57011 39.9946 9.58461C39.9572 9.58461 39.9197 9.58652 39.8825 9.59032C39.7416 9.60436 39.6001 9.61115 39.4585 9.61068C37.211 9.61068 33.4943 8.11782 33.4943 8.11782C32.1187 7.49681 30.6302 7.16496 29.121 7.14282V8.57139C30.4359 8.59597 31.7319 8.88822 32.93 9.43032L32.9621 9.44354C33.3693 9.60711 37.006 11.0393 39.4589 11.0393H39.5285C39.8828 12.9421 39.6764 15.8164 35.9132 17.3232C34.6618 17.762 33.3464 17.9904 32.0203 17.9993C29.8993 17.9993 28.1507 17.3539 26.8143 16.0725C26.5259 15.8037 26.1456 15.6557 25.7514 15.6589C25.33 15.6589 24.8018 15.7539 22.9925 16.8996L22.9696 16.9139C22.3031 17.327 21.722 17.864 21.2578 18.496C20.8868 15.8443 20.9228 12.5314 22.6353 11.9582C22.9266 11.8587 23.1788 11.6693 23.3557 11.4175C24.0369 10.536 24.9102 9.82153 25.9092 9.32835C26.9081 8.83518 28.0063 8.57629 29.1203 8.57139L29.1207 7.14282H29.1203C27.7763 7.15196 26.4523 7.46859 25.2495 8.06844C24.0468 8.6683 22.9973 9.53547 22.1814 10.6035C19.9164 11.3618 19.5328 14.2785 19.6671 16.8328C19.6539 17.0432 19.6428 17.2543 19.6428 17.4678C19.7246 21.5507 21.197 25.4834 23.8168 28.616C23.8918 28.701 23.9689 28.7828 24.0464 28.8643C23.5507 30.2285 22.4907 31.97 20.2635 32.3678C20.2635 32.3678 10.4175 33.9418 9.93712 41.4343C9.57616 44.283 9.54417 47.1639 9.84176 50.02C9.8996 50.5277 10.0855 51.0124 10.3821 51.4285H6.17105C6.06943 51.4153 5.96615 51.4238 5.86811 51.4536C5.77006 51.4835 5.67951 51.5339 5.60249 51.6015C5.52547 51.6691 5.46377 51.7523 5.4215 51.8457C5.37923 51.939 5.35736 52.0403 5.35736 52.1428C5.35736 52.2453 5.37923 52.3466 5.4215 52.44C5.46377 52.5333 5.52547 52.6166 5.60249 52.6842C5.67951 52.7518 5.77006 52.8022 5.86811 52.832C5.96615 52.8618 6.06943 52.8704 6.17105 52.8571H53.8285C53.9302 52.8704 54.0334 52.8618 54.1315 52.832C54.2295 52.8022 54.3201 52.7518 54.3971 52.6842C54.4741 52.6166 54.5358 52.5333 54.5781 52.44C54.6204 52.3466 54.6422 52.2453 54.6422 52.1428C54.6422 52.0403 54.6204 51.939 54.5781 51.8457C54.5358 51.7523 54.4741 51.6691 54.3971 51.6015C54.3201 51.5339 54.2295 51.4835 54.1315 51.4536C54.0334 51.4238 53.9302 51.4153 53.8285 51.4285H53.8289ZM37.6157 33.065L33.9571 38.296L32.4946 35.8943L32.435 35.796L32.361 35.7082C32.3046 35.624 32.272 35.5262 32.2667 35.425C32.2614 35.3238 32.2837 35.2231 32.331 35.1335L36.1953 31.9093C36.6051 32.3667 37.0844 32.7568 37.6157 33.065V33.065ZM38.415 33.446C38.3571 33.4235 38.2993 33.4014 38.2432 33.3775C38.2993 33.401 38.3571 33.4235 38.4146 33.446H38.415ZM37.9882 33.261C37.9565 33.2458 37.9252 33.2303 37.8943 33.2146L37.9882 33.261ZM30.9464 38.0035H29.1257L28.5785 37.0364L28.7953 36.681C28.9345 36.5122 29.0429 36.3202 29.1157 36.1139H30.8835C30.9562 36.3202 31.0645 36.5122 31.2035 36.681L31.45 37.085L30.9464 38.0035ZM30.3018 39.515L32.1396 46.9078C32.1441 46.9693 32.1354 47.0309 32.1143 47.0888C32.0932 47.1467 32.0601 47.1994 32.0171 47.2435L30.31 48.5432C30.2723 48.5618 30.2308 48.5715 30.1887 48.5715C30.1467 48.5715 30.1052 48.5618 30.0675 48.5432L28.3603 47.2439C28.3115 47.1946 28.2736 47.1356 28.2492 47.0706C28.2248 47.0057 28.2143 46.9364 28.2185 46.8671L29.741 39.515H30.3018ZM31.2396 34.0764C31.104 34.2327 30.9953 34.4105 30.9182 34.6025H29.0803C29.0034 34.4104 28.895 34.2325 28.7596 34.076L24.7518 30.7318C24.9131 30.4523 25.058 30.1637 25.1857 29.8675C26.5397 30.8686 28.1761 31.4151 29.86 31.4285C31.5119 31.4347 33.1137 30.8613 34.3864 29.8082C34.5118 29.7053 34.6328 29.5968 34.7546 29.4889C34.9097 29.8987 35.0959 30.2961 35.3118 30.6775L31.2396 34.0764ZM35.4968 30.986L35.5046 30.9982L35.4968 30.986ZM35.7103 31.3039L35.7121 31.3068L35.7103 31.3039ZM21.6271 21.3475C21.697 20.9067 21.8231 20.4768 22.0025 20.0682C22.3634 19.2559 22.9678 18.5759 23.7321 18.1221C23.9468 17.9864 25.3525 17.0878 25.751 17.0878C25.7809 17.0854 25.8107 17.0943 25.8343 17.1128C27.7253 18.9257 30.0375 19.4282 32.02 19.4282C33.527 19.4224 35.022 19.1595 36.4407 18.651C37.3419 18.305 38.1785 17.8101 38.9157 17.1868C38.9189 17.2807 38.9285 17.3739 38.9285 17.4682C38.9261 18.423 38.7958 19.3733 38.541 20.2935C37.5846 23.781 35.74 26.8468 33.4793 28.705C32.4619 29.5475 31.1809 30.0059 29.86 30C28.914 29.9884 27.9814 29.775 27.1246 29.374C26.2678 28.9731 25.5064 28.3938 24.8914 27.675C23.3506 25.8318 22.236 23.671 21.6271 21.3471V21.3475ZM24.6128 29.4075L24.5832 29.3818L24.6128 29.4075ZM24.5632 31.041L24.5593 31.0471L24.5632 31.041ZM24.3582 31.3418L24.3464 31.3589L24.3582 31.3418ZM24.1321 31.6389L24.1132 31.6632L24.1321 31.6389ZM23.8607 31.9557L23.86 31.9564L27.6678 35.1339C27.7153 35.2234 27.7376 35.3241 27.7323 35.4253C27.7271 35.5265 27.6946 35.6244 27.6382 35.7085L27.5643 35.7964L27.5043 35.8946L26.0418 38.2964L22.4103 33.1035V33.1039C22.9517 32.8008 23.4412 32.4132 23.8603 31.9557H23.8607ZM22.0982 33.2657L22.0535 33.2871L22.0982 33.2657ZM21.7557 33.4175C21.7218 33.4314 21.6868 33.4439 21.6521 33.4568C21.6868 33.4439 21.7218 33.4314 21.7557 33.4175ZM21.3796 33.556C21.3232 33.5746 21.2639 33.5903 21.2064 33.6075C21.2643 33.5903 21.3232 33.5746 21.3796 33.556ZM13.0557 51.4285C12.6222 51.4172 12.2061 51.2554 11.8788 50.9708C11.5516 50.6862 11.3335 50.2967 11.2621 49.8689C10.9806 47.1341 11.01 44.3763 11.3496 41.6482L11.3589 41.5871L11.3628 41.5253C11.7635 35.275 20.4043 33.7928 20.4893 33.7785L20.5021 33.7764L20.515 33.7743C20.67 33.7464 20.82 33.7132 20.9664 33.676L25.07 39.5443C25.1396 39.7449 25.2665 39.9206 25.4351 40.0498C25.6036 40.1789 25.8064 40.2557 26.0182 40.2707C26.1919 40.2604 26.3611 40.2119 26.5139 40.1287C26.6667 40.0455 26.7993 39.9296 26.9021 39.7893L27.6785 38.5143L28.2443 39.5146H28.2821L26.8214 46.57C26.7592 46.9044 26.789 47.2495 26.9075 47.5683C27.0261 47.8871 27.229 48.1678 27.4946 48.3803L29.2025 49.68C29.4891 49.8883 29.8344 50.0005 30.1887 50.0005C30.5431 50.0005 30.8883 49.8883 31.175 49.68L32.8821 48.38C33.1479 48.1654 33.3487 47.881 33.462 47.5588C33.5754 47.2365 33.5968 46.8891 33.5239 46.5553L31.7739 39.5146H31.8418L32.3571 38.5746L33.0968 39.7893C33.1996 39.9296 33.3322 40.0455 33.485 40.1287C33.6377 40.2119 33.807 40.2604 33.9807 40.2707C34.1924 40.2556 34.3951 40.1788 34.5636 40.0497C34.7321 39.9205 34.859 39.7448 34.9285 39.5443L39.0471 33.6553C39.2185 33.701 39.3957 33.741 39.5796 33.7743L39.5925 33.7764L39.6053 33.7785C39.6925 33.7925 48.3289 35.245 48.7318 41.5257L48.7332 41.5485L48.7353 41.571C48.9712 44.336 48.9835 47.1155 48.7721 49.8825C48.7114 50.3029 48.5042 50.6885 48.1872 50.9713C47.8702 51.2541 47.4636 51.416 47.0389 51.4285H13.0557Z"/>
<path fill="currentColor" d="M6.99394 5.71817L7.52501 5.01995L7.18966 4.82995L6.84894 5.61209H6.83751L6.49109 4.83531L6.15001 5.03102L6.67537 5.71281V5.72388L5.85394 5.61781V5.99781L6.68109 5.89174V5.90281L6.15001 6.58424L6.46859 6.78567L6.83216 5.99781H6.84287L7.17823 6.77995L7.53037 6.57888L6.99394 5.90817V5.89709L7.83751 5.99781V5.61781L6.99394 5.72924V5.71817V5.71817ZM23.4918 1.45245L23.1857 1.84495L23.3693 1.96067L23.5786 1.50709H23.585L23.7779 1.95745L23.9807 1.84174L23.6718 1.45531V1.44888L24.1575 1.50709V1.28817L23.6718 1.35245V1.34602L23.9775 0.94388L23.7847 0.834595L23.5882 1.28495H23.5818L23.3825 0.837452L23.1857 0.950309L23.4886 1.34281V1.34924L23.0154 1.28817V1.50709L23.4918 1.44602V1.45245V1.45245ZM53.5714 4.54031V4.16781L52.7439 4.27745V4.26638L53.265 3.58138L52.9361 3.39495L52.6018 4.16209H52.5904L52.2507 3.40031L51.9161 3.59245L52.4314 4.26102V4.27209L51.6257 4.16781V4.54031L52.4368 4.43638V4.44745L51.9161 5.11602L52.2286 5.31352L52.585 4.54031H52.5957L52.9247 5.30781L53.27 5.11067L52.7439 4.45281V4.44174L53.5714 4.54031V4.54031ZM41.3222 7.15102L40.8729 7.72781L41.1422 7.89817L41.45 7.23138H41.4589L41.7429 7.89317L42.0407 7.72317L41.5868 7.15567V7.14602L42.3007 7.23138V6.90995L41.5868 7.00424V6.99495L42.0361 6.40388L41.7525 6.24317L41.4639 6.90495H41.4547L41.1614 6.24781L40.8729 6.41352L41.3175 6.99031V6.99959L40.6222 6.90995V7.23138L41.3222 7.14138V7.15102ZM42.1979 54.6428H39.2307C39.0508 54.6567 38.8828 54.7381 38.7603 54.8705C38.6377 55.0029 38.5697 55.1767 38.5697 55.3571C38.5697 55.5375 38.6377 55.7113 38.7603 55.8437C38.8828 55.9761 39.0508 56.0574 39.2307 56.0714H42.1979C42.3778 56.0574 42.5458 55.9761 42.6683 55.8437C42.7909 55.7113 42.8589 55.5375 42.8589 55.3571C42.8589 55.1767 42.7909 55.0029 42.6683 54.8705C42.5458 54.7381 42.3778 54.6567 42.1979 54.6428V54.6428ZM20.7693 54.6428H17.8022C17.6223 54.6567 17.4543 54.7381 17.3317 54.8705C17.2092 55.0029 17.1411 55.1767 17.1411 55.3571C17.1411 55.5375 17.2092 55.7113 17.3317 55.8437C17.4543 55.9761 17.6223 56.0574 17.8022 56.0714H20.7693C20.9492 56.0574 21.1172 55.9761 21.2397 55.8437C21.3623 55.7113 21.4304 55.5375 21.4304 55.3571C21.4304 55.1767 21.3623 55.0029 21.2397 54.8705C21.1172 54.7381 20.9492 54.6567 20.7693 54.6428ZM37.1429 54.6428H22.8572C22.6677 54.6428 22.486 54.7181 22.3521 54.852C22.2181 54.986 22.1429 55.1676 22.1429 55.3571C22.1429 55.5465 22.2181 55.7282 22.3521 55.8622C22.486 55.9961 22.6677 56.0714 22.8572 56.0714H28.55V56.7857H25.7143C25.5249 56.7857 25.3432 56.8609 25.2092 56.9949C25.0753 57.1288 25 57.3105 25 57.4999C25 57.6894 25.0753 57.8711 25.2092 58.005C25.3432 58.139 25.5249 58.2142 25.7143 58.2142H34.6429C34.8323 58.2142 35.014 58.139 35.1479 58.005C35.2819 57.8711 35.3572 57.6894 35.3572 57.4999C35.3572 57.3105 35.2819 57.1288 35.1479 56.9949C35.014 56.8609 34.8323 56.7857 34.6429 56.7857H31.45V56.0714H37.1429C37.3323 56.0714 37.514 55.9961 37.6479 55.8622C37.7819 55.7282 37.8572 55.5465 37.8572 55.3571C37.8572 55.1676 37.7819 54.986 37.6479 54.852C37.514 54.7181 37.3323 54.6428 37.1429 54.6428Z"/>
</svg>
