<svg width="56" height="45" viewBox="0 0 56 45"  xmlns="http://www.w3.org/2000/svg">
<g clip-path="url(#clip0_65_873)">
<path fill="currentColor" d="M54.4375 0.108154H1.56249C1.4514 0.108359 1.34149 0.131016 1.23938 0.174762C1.13726 0.218509 1.04504 0.282443 0.968255 0.362725C0.891469 0.443007 0.8317 0.537981 0.79254 0.641942C0.75338 0.745903 0.735636 0.856707 0.740374 0.967697V44.0323C0.735636 44.1433 0.75338 44.2541 0.79254 44.358C0.8317 44.462 0.891469 44.557 0.968255 44.6372C1.04504 44.7175 1.13726 44.7815 1.23938 44.8252C1.34149 44.8689 1.4514 44.8916 1.56249 44.8918H54.4375C54.5486 44.8916 54.6585 44.8689 54.7606 44.8252C54.8627 44.7815 54.9549 44.7175 55.0317 44.6372C55.1085 44.557 55.1683 44.462 55.2074 44.358C55.2466 44.2541 55.2643 44.1433 55.2596 44.0323V0.967697C55.2643 0.856707 55.2466 0.745903 55.2074 0.641942C55.1683 0.537981 55.1085 0.443007 55.0317 0.362725C54.9549 0.282443 54.8627 0.218509 54.7606 0.174762C54.6585 0.131016 54.5486 0.108359 54.4375 0.108154ZM2.47114 1.83892H53.5288V13.0889H2.47114V1.83892ZM45.1788 31.6947H40.3317V21.1391C40.3293 20.9029 40.2363 20.6767 40.0718 20.5072C39.9074 20.3377 39.6841 20.2379 39.4482 20.2283H28.0131C28.0086 20.2283 28.0044 20.2283 28 20.229C27.9956 20.2296 27.9913 20.2283 27.9869 20.2283H16.5518C16.3159 20.2379 16.0926 20.3377 15.9281 20.5072C15.7637 20.6767 15.6707 20.9029 15.6683 21.1391V31.6947H10.8211C10.5857 31.7023 10.3623 31.8003 10.1973 31.9683C10.0323 32.1364 9.93836 32.3616 9.93509 32.5971V43.161H7.01441V14.8197H48.9856V43.161H46.0649V32.5971C46.0616 32.3616 45.9677 32.1364 45.8027 31.9683C45.6377 31.8003 45.4142 31.7023 45.1788 31.6947ZM38.4928 33.4255H40.4399V34.2116L39.7719 33.9856C39.5757 33.9206 39.3638 33.9206 39.1676 33.9856L38.4928 34.2114V33.4255ZM27.0264 33.4255H28.9735V34.2116L28.3082 33.9856C28.1115 33.9205 27.8991 33.9205 27.7024 33.9856L27.0264 34.2116V33.4255ZM15.5601 33.4255H17.5072V34.2114L16.8445 33.9856C16.6474 33.9206 16.4347 33.9206 16.2376 33.9856L15.5601 34.2116V33.4255ZM21.2933 21.9591H23.2404V22.7535L22.5762 22.5276C22.3795 22.4626 22.1671 22.4626 21.9704 22.5276L21.2933 22.7535V21.9591ZM19.9503 24.6802C20.0652 24.7603 20.1975 24.812 20.3362 24.8313C20.475 24.8505 20.6163 24.8367 20.7487 24.7909L22.2631 24.2608L23.7752 24.7909C23.8677 24.8232 23.965 24.8396 24.063 24.8397C24.249 24.8398 24.4307 24.7843 24.5847 24.6802C24.7003 24.6014 24.7955 24.4963 24.8627 24.3736C24.9299 24.2509 24.967 24.1141 24.9711 23.9743V21.9591H27.1346V31.6947H17.399V21.9591H19.5625V23.9743C19.5669 24.1142 19.6044 24.2511 19.6717 24.3737C19.7391 24.4964 19.8346 24.6014 19.9503 24.6802ZM32.7596 21.9591H34.7067V22.7535L34.04 22.5276C33.8437 22.4626 33.6316 22.4626 33.4353 22.5276L32.7596 22.7535V21.9591ZM31.4141 24.6802C31.5288 24.7603 31.6609 24.812 31.7994 24.8313C31.938 24.8505 32.0791 24.8367 32.2113 24.7909L33.7257 24.2608L35.2374 24.7909C35.3299 24.8231 35.4271 24.8396 35.525 24.8397C35.7118 24.8398 35.8943 24.7843 36.0493 24.6802C36.165 24.6014 36.2605 24.4964 36.328 24.3738C36.3954 24.2511 36.433 24.1142 36.4375 23.9743V21.9591H38.6009V31.6947H28.8654V21.9591H31.0288V23.9743C31.0328 24.114 31.0697 24.2508 31.1367 24.3735C31.2037 24.4962 31.2987 24.6013 31.4141 24.6802ZM2.47114 14.8197H5.28364V43.161H2.47114V14.8197ZM11.6659 43.161V33.4255H13.8293V35.4323C13.834 35.5723 13.8717 35.7093 13.9394 35.8319C14.0071 35.9546 14.1028 36.0596 14.2187 36.1382C14.335 36.2183 14.4683 36.27 14.6081 36.2893C14.748 36.3085 14.8904 36.2947 15.0239 36.2489L16.536 35.7188L18.0464 36.2489C18.1803 36.2946 18.3229 36.3085 18.4631 36.2893C18.6032 36.27 18.7369 36.2183 18.8534 36.1382C18.9687 36.0593 19.0637 35.9542 19.1305 35.8315C19.1973 35.7088 19.2342 35.572 19.238 35.4323V33.4255H21.4014V43.161H11.6659ZM23.1322 43.161V33.4255H25.2957V35.4323C25.3006 35.572 25.3381 35.7087 25.4053 35.8313C25.4724 35.9539 25.5674 36.0591 25.6825 36.1385C25.7976 36.2178 25.9297 36.2692 26.0682 36.2883C26.2066 36.3075 26.3477 36.294 26.48 36.2489L27.9945 35.7188L29.5063 36.2489C29.5988 36.2812 29.6961 36.2977 29.794 36.2977C29.9804 36.2978 30.1625 36.2423 30.3171 36.1382C30.4327 36.0594 30.5281 35.9544 30.5954 35.8317C30.6627 35.709 30.7 35.5722 30.7043 35.4323V33.4255H32.8678V43.161H23.1322ZM34.5985 43.161V33.4255H36.762V35.4323C36.7664 35.5718 36.8034 35.7084 36.8702 35.8311C36.937 35.9537 37.0316 36.059 37.1464 36.1384C37.2612 36.2178 37.3931 36.2692 37.5314 36.2884C37.6697 36.3076 37.8106 36.294 37.9427 36.2489L39.4565 35.7188L40.968 36.2489C41.0605 36.2812 41.1577 36.2977 41.2556 36.2977C41.4427 36.2978 41.6256 36.2423 41.781 36.1382C41.8969 36.0595 41.9926 35.9546 42.0603 35.8319C42.1279 35.7092 42.1657 35.5723 42.1704 35.4323V33.4255H44.3339V43.161H34.5985ZM50.7163 43.161V14.8197H53.5288V43.161H50.7163Z" />
<path fill="currentColor" d="M52.1226 4.21878C52.1226 3.98926 52.0314 3.76915 51.8691 3.60686C51.7068 3.44457 51.4867 3.35339 51.2572 3.35339H4.85095C4.62144 3.35339 4.40132 3.44457 4.23903 3.60686C4.07674 3.76915 3.98557 3.98926 3.98557 4.21878V10.7092C3.98557 10.9387 4.07674 11.1588 4.23903 11.3211C4.40132 11.4834 4.62144 11.5745 4.85095 11.5745H51.2572C51.4867 11.5745 51.7068 11.4834 51.8691 11.3211C52.0314 11.1588 52.1226 10.9387 52.1226 10.7092V4.21878ZM50.2836 9.84378H5.71633V5.08416H50.2836V9.84378ZM25.2593 39.0505H28.8507C29.0802 39.0505 29.3003 38.9593 29.4626 38.797C29.6249 38.6348 29.716 38.4146 29.716 38.1851C29.716 37.9556 29.6249 37.7355 29.4626 37.5732C29.3003 37.4109 29.0802 37.3197 28.8507 37.3197H25.2593C25.0298 37.3197 24.8097 37.4109 24.6474 37.5732C24.4851 37.7355 24.3939 37.9556 24.3939 38.1851C24.3939 38.4146 24.4851 38.6348 24.6474 38.797C24.8097 38.9593 25.0298 39.0505 25.2593 39.0505ZM30.7407 39.6995H25.2593C25.0298 39.6995 24.8097 39.7907 24.6474 39.953C24.4851 40.1153 24.3939 40.3354 24.3939 40.5649C24.3939 40.7944 24.4851 41.0146 24.6474 41.1769C24.8097 41.3391 25.0298 41.4303 25.2593 41.4303H30.7407C30.9702 41.4303 31.1903 41.3391 31.3526 41.1769C31.5149 41.0146 31.606 40.7944 31.606 40.5649C31.606 40.3354 31.5149 40.1153 31.3526 39.953C31.1903 39.7907 30.9702 39.6995 30.7407 39.6995ZM36.7206 39.0505H40.3119C40.5414 39.0505 40.7616 38.9593 40.9238 38.797C41.0861 38.6348 41.1773 38.4146 41.1773 38.1851C41.1773 37.9556 41.0861 37.7355 40.9238 37.5732C40.7616 37.4109 40.5414 37.3197 40.3119 37.3197H36.7206C36.4911 37.3197 36.271 37.4109 36.1087 37.5732C35.9464 37.7355 35.8552 37.9556 35.8552 38.1851C35.8552 38.4146 35.9464 38.6348 36.1087 38.797C36.271 38.9593 36.4911 39.0505 36.7206 39.0505ZM42.202 39.6995H36.7206C36.4911 39.6995 36.271 39.7907 36.1087 39.953C35.9464 40.1153 35.8552 40.3354 35.8552 40.5649C35.8552 40.7944 35.9464 41.0146 36.1087 41.1769C36.271 41.3391 36.4911 41.4303 36.7206 41.4303H42.202C42.4315 41.4303 42.6517 41.3391 42.814 41.1769C42.9762 41.0146 43.0674 40.7944 43.0674 40.5649C43.0674 40.3354 42.9762 40.1153 42.814 39.953C42.6517 39.7907 42.4315 39.6995 42.202 39.6995ZM13.7979 39.0505H17.3893C17.6188 39.0505 17.8389 38.9593 18.0012 38.797C18.1635 38.6348 18.2547 38.4146 18.2547 38.1851C18.2547 37.9556 18.1635 37.7355 18.0012 37.5732C17.8389 37.4109 17.6188 37.3197 17.3893 37.3197H13.7979C13.5684 37.3197 13.3483 37.4109 13.186 37.5732C13.0237 37.7355 12.9326 37.9556 12.9326 38.1851C12.9326 38.4146 13.0237 38.6348 13.186 38.797C13.3483 38.9593 13.5684 39.0505 13.7979 39.0505ZM19.2794 39.6995H13.7979C13.5684 39.6995 13.3483 39.7907 13.186 39.953C13.0237 40.1153 12.9326 40.3354 12.9326 40.5649C12.9326 40.7944 13.0237 41.0146 13.186 41.1769C13.3483 41.3391 13.5684 41.4303 13.7979 41.4303H19.2794C19.5089 41.4303 19.729 41.3391 19.8913 41.1769C20.0536 41.0146 20.1448 40.7944 20.1448 40.5649C20.1448 40.3354 20.0536 40.1153 19.8913 39.953C19.729 39.7907 19.5089 39.6995 19.2794 39.6995ZM18.6634 26.7188C18.6634 26.9483 18.7545 27.1684 18.9168 27.3307C19.0791 27.493 19.2992 27.5842 19.5287 27.5842H23.1201C23.3496 27.5842 23.5697 27.493 23.732 27.3307C23.8943 27.1684 23.9855 26.9483 23.9855 26.7188C23.9855 26.4893 23.8943 26.2691 23.732 26.1069C23.5697 25.9446 23.3496 25.8534 23.1201 25.8534H19.5287C19.2992 25.8534 19.0791 25.9446 18.9168 26.1069C18.7545 26.2691 18.6634 26.4893 18.6634 26.7188ZM18.6634 29.0986C18.6634 29.3281 18.7545 29.5482 18.9168 29.7105C19.0791 29.8728 19.2992 29.964 19.5287 29.964H25.01C25.2395 29.964 25.4596 29.8728 25.6219 29.7105C25.7842 29.5482 25.8754 29.3281 25.8754 29.0986C25.8754 28.8691 25.7842 28.649 25.6219 28.4867C25.4596 28.3244 25.2395 28.2332 25.01 28.2332H19.5287C19.2992 28.2332 19.0791 28.3244 18.9168 28.4867C18.7545 28.649 18.6634 28.8691 18.6634 29.0986ZM30.1246 26.7188C30.1246 26.9483 30.2158 27.1684 30.3781 27.3307C30.5404 27.493 30.7605 27.5842 30.99 27.5842H34.5813C34.8109 27.5842 35.031 27.493 35.1933 27.3307C35.3556 27.1684 35.4467 26.9483 35.4467 26.7188C35.4467 26.4893 35.3556 26.2691 35.1933 26.1069C35.031 25.9446 34.8109 25.8534 34.5813 25.8534H30.99C30.7605 25.8534 30.5404 25.9446 30.3781 26.1069C30.2158 26.2691 30.1246 26.4893 30.1246 26.7188ZM30.1246 29.0986C30.1246 29.3281 30.2158 29.5482 30.3781 29.7105C30.5404 29.8728 30.7605 29.964 30.99 29.964H36.4712C36.7008 29.964 36.9209 29.8728 37.0832 29.7105C37.2454 29.5482 37.3366 29.3281 37.3366 29.0986C37.3366 28.8691 37.2454 28.649 37.0832 28.4867C36.9209 28.3244 36.7008 28.2332 36.4712 28.2332H30.99C30.7605 28.2332 30.5404 28.3244 30.3781 28.4867C30.2158 28.649 30.1246 28.8691 30.1246 29.0986Z" />
</g>
<defs>
<clipPath id="clip0_65_873">
<rect width="55.3846" height="45" fill="white" transform="translate(0.307678)"/>
</clipPath>
</defs>
</svg>
