<svg width="12" height="12" viewBox="0 0 12 12" fill="none" xmlns="http://www.w3.org/2000/svg">
<path d="M11.1 4.02667L7.87338 3.74667L6.61338 0.78C6.38672 0.24 5.61338 0.24 5.38672 0.78L4.12671 3.75333L0.906715 4.02667C0.320048 4.07333 0.0800484 4.80667 0.526715 5.19333L2.97338 7.31333L2.24005 10.46C2.10672 11.0333 2.72672 11.4867 3.23338 11.18L6.00005 9.51333L8.76671 11.1867C9.27338 11.4933 9.89338 11.04 9.76005 10.4667L9.02672 7.31333L11.4734 5.19333C11.92 4.80667 11.6867 4.07333 11.1 4.02667V4.02667ZM6.00005 8.26667L3.49338 9.78L4.16005 6.92667L1.94672 5.00667L4.86672 4.75333L6.00005 2.06667L7.14005 4.76L10.06 5.01333L7.84672 6.93333L8.51338 9.78667L6.00005 8.26667Z" fill="#FFD201"/>
</svg>
