<svg width="15" height="16" viewBox="0 0 15 16" fill="none" xmlns="http://www.w3.org/2000/svg">
<g clip-path="url(#clip0_49_223)">
<path d="M14.006 4.34528L14.0019 4.32903C13.6733 3.00058 12.1918 1.57508 10.8313 1.27852L10.816 1.27536C8.61545 0.855561 6.38421 0.855561 4.18412 1.27536L4.16832 1.27852C2.80827 1.57508 1.32679 3.00058 0.997725 4.32903L0.994114 4.34528C0.587859 6.20051 0.587859 8.08192 0.994114 9.93715L0.997725 9.9534C1.31275 11.2252 2.68391 12.5852 3.99363 12.9592V14.4421C3.99363 14.9788 4.6477 15.2424 5.01965 14.8551L6.52211 13.2934C6.84797 13.3116 7.17402 13.3217 7.50006 13.3217C8.60778 13.3217 9.71595 13.217 10.816 13.0071L10.8313 13.004C12.1918 12.7074 13.6733 11.2819 14.0019 9.95344L14.006 9.93719C14.4123 8.08192 14.4123 6.20051 14.006 4.34528ZM12.817 9.66812C12.5977 10.5348 11.4728 11.6123 10.579 11.8113C9.40896 12.0338 8.22964 12.1289 7.05151 12.0963C7.02808 12.0957 7.00555 12.1047 6.98921 12.1215C6.82202 12.2932 5.89219 13.2477 5.89219 13.2477L4.72534 14.4452C4.64002 14.5341 4.49016 14.4737 4.49016 14.3509V11.8943C4.49016 11.8537 4.46118 11.8192 4.42132 11.8114C4.4211 11.8114 4.42087 11.8113 4.42065 11.8113C3.52689 11.6122 2.40246 10.5347 2.18263 9.66807C1.81701 7.99115 1.81701 6.2912 2.18263 4.61427C2.40246 3.74759 3.52689 2.67012 4.42065 2.47105C6.46411 2.0824 8.53601 2.0824 10.579 2.47105C11.4732 2.67012 12.5977 3.74759 12.817 4.61427C13.1831 6.29124 13.1831 7.99119 12.817 9.66812Z" fill="#DBE7F3"/>
<path d="M9.44427 10.8021C9.30686 10.7604 9.17591 10.7323 9.0543 10.6819C7.79419 10.1591 6.63447 9.48461 5.71583 8.45069C5.19343 7.86275 4.78456 7.19897 4.43893 6.49651C4.27502 6.16338 4.1369 5.81721 3.99611 5.47329C3.86773 5.15966 4.05682 4.83565 4.25593 4.59935C4.44276 4.37758 4.68318 4.20785 4.94354 4.08277C5.14676 3.98513 5.34722 4.04142 5.49564 4.21368C5.81649 4.58608 6.11121 4.97752 6.34986 5.40919C6.49661 5.6747 6.45635 5.99926 6.19038 6.17995C6.12574 6.22387 6.06684 6.27542 6.00662 6.32503C5.95381 6.3685 5.90411 6.41242 5.86791 6.47128C5.80173 6.57898 5.79857 6.706 5.84118 6.82309C6.16917 7.72444 6.72199 8.42532 7.62921 8.80282C7.77437 8.86322 7.92017 8.93354 8.08742 8.91404C8.36751 8.88132 8.45819 8.5741 8.65446 8.41358C8.8463 8.25672 9.09145 8.25465 9.2981 8.38542C9.5048 8.51623 9.70517 8.65666 9.90433 8.79858C10.0998 8.93788 10.2945 9.07415 10.4748 9.23295C10.6482 9.38566 10.7079 9.58599 10.6103 9.79322C10.4315 10.1728 10.1714 10.4885 9.79622 10.6901C9.69028 10.7469 9.56375 10.7653 9.44427 10.8021C9.56375 10.7653 9.30686 10.7603 9.44427 10.8021Z" fill="#DBE7F3"/>
<path d="M7.50346 3.64879C9.15174 3.69497 10.5055 4.78883 10.7956 6.41837C10.8451 6.69602 10.8627 6.9799 10.8846 7.26171C10.8939 7.38025 10.8268 7.49287 10.6989 7.4944C10.5667 7.49598 10.5073 7.38544 10.4987 7.26695C10.4817 7.0324 10.4699 6.79682 10.4376 6.56421C10.267 5.33637 9.28792 4.32055 8.06577 4.10258C7.88187 4.06976 7.69364 4.06114 7.50734 4.04159C7.38958 4.02922 7.23533 4.02209 7.20924 3.8757C7.18735 3.75297 7.29095 3.65524 7.40781 3.64897C7.43959 3.64721 7.47155 3.64865 7.50346 3.64879C9.15174 3.69497 7.47155 3.64865 7.50346 3.64879Z" fill="#DBE7F3"/>
<path d="M10.0083 6.89594C10.0056 6.91652 10.0041 6.96491 9.99208 7.01051C9.94834 7.17599 9.69745 7.19671 9.63967 7.02969C9.62257 6.98013 9.61999 6.92375 9.6199 6.87039C9.61932 6.52128 9.54344 6.17253 9.36739 5.86879C9.18643 5.5566 8.90996 5.29416 8.58568 5.13536C8.38959 5.03935 8.17753 4.97968 7.96262 4.94411C7.86869 4.92858 7.77376 4.91914 7.67937 4.90601C7.56499 4.89012 7.50392 4.81722 7.50933 4.70451C7.51439 4.59888 7.59158 4.52291 7.70668 4.52941C8.08495 4.5509 8.4503 4.63264 8.78659 4.81072C9.47045 5.17287 9.86108 5.74452 9.9751 6.50783C9.98025 6.54241 9.98855 6.57667 9.99117 6.61138C9.99763 6.6971 10.0017 6.78291 10.0083 6.89594C10.0056 6.91652 10.0017 6.78291 10.0083 6.89594Z" fill="#DBE7F3"/>
<path d="M8.9832 6.85603C8.8453 6.85851 8.7715 6.78218 8.75728 6.65575C8.74739 6.56759 8.73958 6.47826 8.71855 6.3925C8.67711 6.22359 8.58733 6.06704 8.44523 5.96354C8.37815 5.91465 8.30213 5.87904 8.22251 5.85606C8.12135 5.82686 8.01631 5.83489 7.91537 5.81016C7.80577 5.7833 7.74515 5.69456 7.7624 5.59173C7.77806 5.49816 7.86911 5.42512 7.97135 5.43252C8.61039 5.47866 9.06712 5.80903 9.1323 6.56132C9.1369 6.6144 9.14232 6.67051 9.13054 6.72129C9.11036 6.80823 9.04599 6.85179 8.9832 6.85603C9.04599 6.85179 8.8453 6.85851 8.9832 6.85603Z" fill="#DBE7F3"/>
</g>
<defs>
<clipPath id="clip0_49_223">
<rect width="14.4" height="14.4" fill="white" transform="translate(0.299988 0.799988)"/>
</clipPath>
</defs>
</svg>
