<svg xmlns="http://www.w3.org/2000/svg" viewBox="0 0 18 18">
  <path d="M18 10.6875C18 10.2368 17.8207 9.81674 17.5117 9.50698C17.862 9.12374 18.0405 8.60996 17.9917 8.07524C17.904 7.12198 17.0452 6.37498 16.0357 6.37498H11.403C11.6325 5.67821 12 4.40099 12 3.37499C12 1.74824 10.6178 0.375 9.74999 0.375C8.97149 0.375 8.41423 0.81375 8.39099 0.83175C8.30173 0.903012 8.24998 1.01101 8.24998 1.12499V3.66823L6.08924 8.34749L5.99998 8.39323V8.24996C5.99998 8.04296 5.83196 7.87495 5.62496 7.87495H1.87499C0.840762 7.87499 0 8.71575 0 9.74998V15.75C0 16.7843 0.840762 17.625 1.87499 17.625H4.12499C4.93573 17.625 5.62873 17.1075 5.88973 16.3852C6.51375 16.7062 7.35374 16.875 7.875 16.875H14.7593C15.576 16.875 16.2908 16.3245 16.4587 15.5655C16.545 15.174 16.4948 14.7802 16.3237 14.4382C16.8773 14.16 17.25 13.5877 17.25 12.9375C17.25 12.672 17.1893 12.4177 17.0745 12.1882C17.628 11.9092 18 11.3377 18 10.6875ZM16.4182 11.613C16.2735 11.6302 16.1512 11.7285 16.1048 11.8672C16.059 12.006 16.0973 12.1582 16.2038 12.2587C16.3943 12.438 16.5 12.6795 16.5 12.9375C16.5 13.4107 16.1423 13.8082 15.669 13.863C15.5243 13.8802 15.402 13.9785 15.3555 14.1172C15.3098 14.256 15.3481 14.4082 15.4545 14.5087C15.7013 14.7412 15.8003 15.0675 15.7261 15.4035C15.6338 15.822 15.2273 16.125 14.7593 16.125H7.875C7.26599 16.125 6.24449 15.8393 5.8905 15.4845C5.78324 15.378 5.62124 15.3465 5.48174 15.4035C5.3415 15.4613 5.24999 15.5985 5.24999 15.75C5.24999 16.3703 4.74525 16.875 4.12499 16.875H1.87499C1.25473 16.875 0.749988 16.3703 0.749988 15.75V9.74998C0.749988 9.12971 1.25473 8.62498 1.87499 8.62498H5.24999V8.99999C5.24999 9.12975 5.31749 9.25048 5.42848 9.31949C5.53799 9.38548 5.67598 9.39223 5.79298 9.33524L6.54296 8.96023C6.61873 8.92271 6.67948 8.85971 6.71548 8.78248L8.96548 3.90746C8.98798 3.85796 8.99996 3.80396 8.99996 3.74996V1.32823C9.15599 1.24199 9.42676 1.12499 9.74999 1.12499C10.161 1.12499 11.25 2.14649 11.25 3.37499C11.25 4.695 10.5315 6.59773 10.5248 6.6165C10.4813 6.73125 10.4963 6.86101 10.566 6.963C10.6365 7.06425 10.752 7.125 10.875 7.125H16.0357C16.6612 7.125 17.1922 7.57275 17.2447 8.14425C17.2845 8.57175 17.079 8.97826 16.7108 9.20551C16.596 9.276 16.5278 9.40351 16.533 9.53925C16.5382 9.67499 16.6163 9.79649 16.7362 9.85875C17.0535 10.02 17.25 10.338 17.25 10.6875C17.25 11.1607 16.8923 11.5582 16.4182 11.613Z" />
  <path d="M5.62501 8.625C5.41801 8.625 5.25 8.79301 5.25 9.00001V15.75C5.25 15.957 5.41801 16.125 5.62501 16.125C5.83201 16.125 6.00002 15.957 6.00002 15.75V9.00001C6.00002 8.79301 5.83201 8.625 5.62501 8.625Z" />
</svg>