<svg xmlns="http://www.w3.org/2000/svg" viewBox="0 0 18 18">
  <path d="M-7.99655e-07 7.31251C-7.64704e-07 7.76325 0.179261 8.18326 0.48825 8.49303C0.137988 8.87626 -0.0405013 9.39004 0.00826013 9.92476C0.0960116 10.878 0.954772 11.625 1.96425 11.625L6.597 11.625C6.3675 12.3218 6.00001 13.599 6.00001 14.625C6.00001 16.2518 7.38225 17.625 8.25001 17.625C9.02851 17.625 9.58577 17.1863 9.60901 17.1683C9.69827 17.097 9.75002 16.989 9.75002 16.875L9.75002 14.3318L11.9108 9.65251L12 9.60677L12 9.75004C12 9.95704 12.168 10.125 12.375 10.125L16.125 10.125C17.1592 10.125 18 9.28425 18 8.25002L18 2.25001C18 1.21575 17.1592 0.375023 16.125 0.375023L13.875 0.375023C13.0643 0.375023 12.3713 0.892523 12.1103 1.61477C11.4862 1.29376 10.6463 1.12501 10.125 1.12501L3.24074 1.12501C2.42399 1.12501 1.70923 1.67552 1.54125 2.43451C1.45501 2.82601 1.50525 3.21976 1.67625 3.56176C1.12275 3.84003 0.749988 4.41226 0.749988 5.06251C0.749988 5.32801 0.810739 5.58226 0.925489 5.81176C0.371987 6.09076 -8.50077e-07 6.66226 -7.99655e-07 7.31251ZM1.58175 6.38702C1.72649 6.36976 1.84876 6.27154 1.89524 6.13277C1.94098 5.99401 1.90272 5.84179 1.79624 5.74128C1.60573 5.56201 1.49997 5.32052 1.49997 5.06251C1.49997 4.58928 1.85773 4.19176 2.33096 4.13702C2.4757 4.11976 2.59798 4.02154 2.64445 3.88277C2.69019 3.74401 2.65194 3.59179 2.54545 3.49128C2.29869 3.25879 2.19969 2.93254 2.27394 2.59651C2.36619 2.17801 2.7727 1.875 3.2407 1.875L10.125 1.875C10.734 1.875 11.7555 2.16075 12.1095 2.51551C12.2168 2.622 12.3788 2.6535 12.5183 2.59651C12.6585 2.53875 12.75 2.4015 12.75 2.25001C12.75 1.62975 13.2547 1.12501 13.875 1.12501L16.125 1.12501C16.7453 1.12501 17.25 1.62975 17.25 2.25001L17.25 8.25002C17.25 8.87029 16.7453 9.37502 16.125 9.37502L12.75 9.37502L12.75 9.00001C12.75 8.87025 12.6825 8.74952 12.5715 8.68051C12.462 8.61452 12.324 8.60777 12.207 8.66476L11.457 9.03977C11.3813 9.07729 11.3205 9.14029 11.2845 9.21752L9.03452 14.0925C9.01202 14.142 9.00004 14.196 9.00004 14.25L9.00004 16.6718C8.84401 16.758 8.57324 16.875 8.25001 16.875C7.839 16.875 6.75 15.8535 6.75 14.625C6.75 13.305 7.46849 11.4023 7.47524 11.3835C7.51873 11.2688 7.50375 11.139 7.434 11.037C7.36351 10.9358 7.24799 10.875 7.12501 10.875L1.96425 10.875C1.33875 10.875 0.80775 10.4273 0.755262 9.85575C0.715499 9.42825 0.921022 9.02174 1.28925 8.79449C1.404 8.724 1.47224 8.59649 1.467 8.46075C1.46176 8.32501 1.38375 8.20351 1.26376 8.14125C0.946511 7.97999 0.750024 7.662 0.750024 7.31251C0.749988 6.83928 1.10774 6.44176 1.58175 6.38702Z" />
  <path d="M12.375 9.375C12.582 9.375 12.75 9.20699 12.75 8.99999L12.75 2.24998C12.75 2.04298 12.582 1.87496 12.375 1.87496C12.168 1.87496 12 2.04298 12 2.24998L12 8.99999C12 9.20699 12.168 9.375 12.375 9.375Z" />
</svg>