<svg width="15" height="16" viewBox="0 0 15 16" fill="none" xmlns="http://www.w3.org/2000/svg">
<g clip-path="url(#clip0_49_218)">
<path d="M7.50179 0.799988H7.49819C3.52829 0.799988 0.299988 4.02919 0.299988 7.99999C0.299988 9.57499 0.807588 11.0348 1.67069 12.2201L0.773388 14.8949L3.54089 14.0102C4.67939 14.7644 6.03749 15.2 7.50179 15.2C11.4717 15.2 14.7 11.9699 14.7 7.99999C14.7 4.03009 11.4717 0.799988 7.50179 0.799988Z" fill="#DBE7F3"/>
<path d="M11.6913 10.9673C11.5176 11.4578 10.8282 11.8646 10.2783 11.9834C9.90207 12.0635 9.41067 12.1274 7.75647 11.4416C5.64057 10.565 4.27797 8.41487 4.17177 8.27537C4.07007 8.13587 3.31677 7.13688 3.31677 6.10368C3.31677 5.07048 3.84147 4.56738 4.05297 4.35138C4.22667 4.17408 4.51377 4.09308 4.78917 4.09308C4.87827 4.09308 4.95837 4.09758 5.03037 4.10118C5.24187 4.11018 5.34807 4.12278 5.48757 4.45668C5.66127 4.87518 6.08427 5.90838 6.13467 6.01458C6.18597 6.12078 6.23727 6.26478 6.16527 6.40428C6.09777 6.54828 6.03837 6.61218 5.93217 6.73458C5.82597 6.85698 5.72517 6.95058 5.61897 7.08198C5.52177 7.19628 5.41197 7.31868 5.53437 7.53018C5.65677 7.73718 6.07977 8.42747 6.70257 8.98187C7.50627 9.69737 8.15787 9.92597 8.39097 10.0232C8.56467 10.0952 8.77167 10.0781 8.89857 9.94307C9.05967 9.76937 9.25857 9.48137 9.46107 9.19787C9.60507 8.99447 9.78687 8.96927 9.97767 9.04127C10.1721 9.10877 11.2008 9.61727 11.4123 9.72257C11.6238 9.82877 11.7633 9.87917 11.8146 9.96827C11.865 10.0574 11.865 10.4759 11.6913 10.9673Z" fill="#464A5A"/>
</g>
<defs>
<clipPath id="clip0_49_218">
<rect width="14.4" height="14.4" fill="white" transform="translate(0.299988 0.799988)"/>
</clipPath>
</defs>
</svg>
