<svg width="20" height="20" viewBox="0 0 20 20" fill="none" xmlns="http://www.w3.org/2000/svg">
<g id="Group 33494">
<path id="Vector" d="M9.99891 0.571411C4.79149 0.571411 0.570312 4.79259 0.570312 10C0.570312 15.2074 4.79149 19.4286 9.99891 19.4286C15.2063 19.4286 19.4275 15.2074 19.4275 10C19.4275 4.79259 15.2063 0.571411 9.99891 0.571411Z" fill="url(#paint0_linear_1352_22405)"/>
<path id="Vector_2" d="M11.2732 12.4991H13.7133L14.0966 10.0203H11.2732V8.66541C11.2732 7.6358 11.6098 6.72264 12.573 6.72264H14.1207V4.55972C13.8486 4.52295 13.2735 4.44281 12.1869 4.44281C9.91739 4.44281 8.58701 5.64118 8.58701 8.37171V10.0208H6.25391V12.4995H8.58654V19.3127C9.04854 19.3815 9.51667 19.4286 9.99706 19.4286C10.4312 19.4286 10.8551 19.389 11.2732 19.3324V12.4991Z" fill="white"/>
</g>
<defs>
<linearGradient id="paint0_linear_1352_22405" x1="3.39559" y1="3.39669" x2="17.8317" y2="17.8328" gradientUnits="userSpaceOnUse">
<stop stop-color="#2AA4F4"/>
<stop offset="1" stop-color="#007AD9"/>
</linearGradient>
</defs>
</svg>
