<svg width="17" height="17" viewBox="0 0 17 17" fill="none" xmlns="http://www.w3.org/2000/svg">
<g id="Group">
<path id="Vector" d="M16.828 9.04036C16.828 8.50429 16.7805 7.99536 16.6991 7.5H9.03125V10.5604H13.4216C13.2248 11.5646 12.648 12.4129 11.793 12.9896V15.0254H14.4123C15.9459 13.6071 16.828 11.5171 16.828 9.04036Z" fill="#4285F4"/>
<path id="Vector_2" d="M9.02922 17.0001C11.2278 17.0001 13.0667 16.2672 14.4103 15.0254L11.791 12.9897C11.0581 13.4783 10.1285 13.7768 9.02922 13.7768C6.90529 13.7768 5.10708 12.3451 4.46243 10.4111H1.76172V12.5079C3.0985 15.1679 5.84672 17.0001 9.02922 17.0001Z" fill="#34A853"/>
<path id="Vector_3" d="M4.46279 10.4111C4.29315 9.92255 4.20493 9.40005 4.20493 8.85719C4.20493 8.31434 4.29993 7.79184 4.46279 7.30327V5.20648H1.76208C1.20565 6.30577 0.886719 7.54076 0.886719 8.85719C0.886719 10.1736 1.20565 11.4086 1.76208 12.5079L4.46279 10.4111Z" fill="#FBBC05"/>
<path id="Vector_4" d="M9.02922 3.93751C10.2303 3.93751 11.3024 4.35144 12.1506 5.15894L14.4714 2.83822C13.0667 1.5218 11.2278 0.714294 9.02922 0.714294C5.84672 0.714294 3.0985 2.54644 1.76172 5.20644L4.46243 7.30322C5.10708 5.3693 6.90529 3.93751 9.02922 3.93751Z" fill="#EA4335"/>
</g>
</svg>
