<svg width="20" height="20" viewBox="0 0 20 20" fill="none" xmlns="http://www.w3.org/2000/svg">
<g id="Group">
<path id="Vector" fill-rule="evenodd" clip-rule="evenodd" d="M10 -0.00109863C4.3675 -0.00109863 0 4.1264 0 9.6989C0 12.6139 1.195 15.1339 3.14 16.8739C3.3025 17.0189 3.4025 17.2239 3.4075 17.4439L3.4625 19.2239C3.48 19.7914 4.065 20.1614 4.585 19.9314L6.57 19.0564C6.7375 18.9814 6.9275 18.9689 7.105 19.0164C8.0175 19.2664 8.9875 19.4014 10 19.4014C15.6325 19.4014 20 15.2739 20 9.7014C20 4.1289 15.6325 -0.00109863 10 -0.00109863Z" fill="url(#paint0_radial_1352_19745)"/>
<path id="Vector_2" fill-rule="evenodd" clip-rule="evenodd" d="M3.99544 12.5365L6.93293 7.87652C7.40043 7.13402 8.40043 6.95152 9.10293 7.47652L11.4404 9.22902C11.6554 9.38902 11.9504 9.38902 12.1629 9.22652L15.3179 6.83152C15.7379 6.51152 16.2879 7.01652 16.0079 7.46402L13.0679 12.1215C12.6004 12.864 11.6004 13.0465 10.8979 12.5215L8.56043 10.769C8.34543 10.609 8.05043 10.609 7.83793 10.7715L4.68294 13.1665C4.26294 13.4865 3.71294 12.984 3.99544 12.5365Z" fill="white"/>
</g>
<defs>
<radialGradient id="paint0_radial_1352_19745" cx="0" cy="0" r="1" gradientUnits="userSpaceOnUse" gradientTransform="translate(3.85 19.8933) scale(21.792 21.792)">
<stop stop-color="#0099FF"/>
<stop offset="0.6098" stop-color="#A033FF"/>
<stop offset="0.9348" stop-color="#FF5280"/>
<stop offset="1" stop-color="#FF7061"/>
</radialGradient>
</defs>
</svg>
