<svg width="20" height="20" viewBox="0 0 20 20" fill="none" xmlns="http://www.w3.org/2000/svg">
<g id="Payment Method">
<g clip-path="url(#clip0_234_22764)">
<path id="Shape" d="M10.0402 16.0191C6.71789 16.0191 5.19994 14.3266 5.19994 13.0853C5.19949 12.7891 5.32103 12.5059 5.53596 12.3022C5.7509 12.0985 6.04024 11.9923 6.33593 12.0086C7.75839 12.0086 7.38631 14.1422 10.0402 14.1422C11.3968 14.1422 12.1937 13.3257 12.1937 12.5584C12.1937 12.0975 11.9303 11.5706 11.0346 11.3599L8.07119 10.6125C5.69056 10.0066 5.27567 8.68292 5.27567 7.45473C5.27567 4.90617 7.60692 3.98421 9.82621 3.98421C11.871 3.98421 14.301 5.11361 14.301 6.64143C14.301 7.29997 13.7511 7.6523 13.1123 7.6523C11.8973 7.6523 12.1015 5.94667 9.65829 5.94667C8.44327 5.94667 7.80448 6.51631 7.80448 7.31314C7.80448 8.10998 8.74949 8.37999 9.57926 8.56109L11.7656 9.05499C14.1627 9.595 14.8015 11.001 14.8015 12.3477C14.8015 14.4188 13.198 16.0191 10.0369 16.0191H10.0402ZM19.2138 11.6365C19.3087 11.0929 19.356 10.542 19.3553 9.99013C19.367 7.21803 18.1489 4.58344 16.0296 2.79654C13.9102 1.00964 11.1077 0.254362 8.37742 0.73429C7.53823 0.251127 6.58645 -0.00215041 5.61812 1.37534e-05C3.6305 0.0121557 1.79839 1.07742 0.804588 2.79879C-0.189215 4.52016 -0.195644 6.63944 0.787697 8.36682C0.239 11.3817 1.20015 14.4744 3.36113 16.6472C5.52211 18.82 8.60946 19.798 11.6273 19.2657C12.4655 19.7485 13.4161 20.0017 14.3833 20C16.3699 19.9872 18.2009 18.9224 19.1945 17.2021C20.1881 15.4817 20.1954 13.3636 19.2138 11.6365Z" fill="#0078D7"/>
</g>
</g>
<defs>
<clipPath id="clip0_234_22764">
<rect width="20" height="20" rx="6" fill="white"/>
</clipPath>
</defs>
</svg>
