<svg width="20" height="20" viewBox="0 0 20 20" fill="none" xmlns="http://www.w3.org/2000/svg">
<g id="Payment Method">
<path id="Vector" fill-rule="evenodd" clip-rule="evenodd" d="M1.69847 9.4111C6.86638 7.15953 10.3125 5.67516 12.0367 4.95798C16.9598 2.9103 17.9828 2.5546 18.6495 2.54285C18.7962 2.54027 19.1241 2.57661 19.3365 2.74895C19.5158 2.89448 19.5652 3.09106 19.5888 3.22903C19.6124 3.36701 19.6418 3.68131 19.6184 3.9269C19.3516 6.73002 18.1973 13.5325 17.61 16.672C17.3615 18.0005 16.8722 18.4459 16.3985 18.4895C15.369 18.5842 14.5873 17.8091 13.5902 17.1555C12.03 16.1328 11.1485 15.4961 9.63404 14.4981C7.88379 13.3447 9.0184 12.7108 10.0159 11.6748C10.2769 11.4036 14.8127 7.27794 14.9005 6.90368C14.9115 6.85687 14.9217 6.68239 14.8181 6.59026C14.7144 6.49813 14.5614 6.52963 14.451 6.55469C14.2945 6.59021 11.802 8.23766 6.97349 11.4971C6.266 11.9829 5.62517 12.2196 5.05102 12.2072C4.41806 12.1935 3.20049 11.8493 2.29536 11.5551C1.18518 11.1942 0.302831 11.0034 0.379664 10.3905C0.419683 10.0713 0.859286 9.74482 1.69847 9.4111Z" fill="url(#paint0_linear_234_22768)"/>
</g>
<defs>
<linearGradient id="paint0_linear_234_22768" x1="10.001" y1="2.54272" x2="10.001" y2="18.3791" gradientUnits="userSpaceOnUse">
<stop stop-color="#2AABEE"/>
<stop offset="1" stop-color="#229ED9"/>
</linearGradient>
</defs>
</svg>
