<svg width="20" height="20" viewBox="0 0 20 20" fill="none" xmlns="http://www.w3.org/2000/svg">
<g id="Group 33493">
<path id="Vector" d="M0.453125 9.52891C0.453125 5.25119 0.453125 3.11235 1.78204 1.78344C3.11095 0.454529 5.24979 0.454529 9.52751 0.454529H10.2837C14.5614 0.454529 16.7002 0.454529 18.0292 1.78344C19.3581 3.11235 19.3581 5.25119 19.3581 9.52891V10.2851C19.3581 14.5628 19.3581 16.7016 18.0292 18.0306C16.7002 19.3595 14.5614 19.3595 10.2837 19.3595H9.52751C5.24979 19.3595 3.11095 19.3595 1.78204 18.0306C0.453125 16.7016 0.453125 14.5628 0.453125 10.2851V9.52891Z" fill="#0077FF"/>
<path id="Vector_2" d="M10.5133 14.074C6.20454 14.074 3.74693 11.1201 3.64453 6.20483H5.80285C5.87374 9.81253 7.46487 11.3407 8.7252 11.6558V6.20483H10.7576V9.31627C12.0021 9.18236 13.3096 7.76449 13.7507 6.20483H15.783C15.4443 8.12684 14.0264 9.54471 13.0182 10.1276C14.0264 10.6002 15.6413 11.8369 16.2557 14.074H14.0185C13.538 12.5774 12.3409 11.4195 10.7576 11.2619V14.074H10.5133Z" fill="white"/>
</g>
</svg>
