<svg width="20" height="20" viewBox="0 0 20 20" fill="none" xmlns="http://www.w3.org/2000/svg">
<g id="Group">
<path id="Vector" d="M0 20L1.41356 14.8669C0.539637 13.3603 0.0811843 11.654 0.0859598 9.9097C0.0859598 4.44392 4.55587 0 10.043 0C12.7077 0 15.2101 1.03137 17.0869 2.90399C18.9685 4.77662 20.0048 7.26711 20 9.91445C20 15.3802 15.5301 19.8242 10.0382 19.8242H10.0334C8.36676 19.8242 6.72874 19.4059 5.2722 18.6169L0 20ZM5.52531 16.8251L5.82617 17.0057C7.09646 17.7567 8.553 18.1511 10.0382 18.1559H10.043C14.6036 18.1559 18.319 14.4629 18.319 9.9192C18.319 7.71863 17.4594 5.65114 15.8978 4.09221C14.3362 2.53327 12.254 1.67776 10.043 1.67776C5.48233 1.673 1.76695 5.36597 1.76695 9.9097C1.76695 11.4639 2.20153 12.98 3.03247 14.2918L3.22827 14.6055L2.39255 17.6426L5.52531 16.8251Z" fill="white"/>
<path id="Vector_2" d="M0.347656 19.653L1.71346 14.6958C0.868191 13.2462 0.424065 11.5969 0.424065 9.91442C0.42884 4.63875 4.74116 0.346924 10.042 0.346924C12.616 0.346924 15.0277 1.34502 16.8424 3.15111C18.6571 4.95719 19.6552 7.36213 19.6552 9.91917C19.6552 15.1948 15.3381 19.4867 10.042 19.4867H10.0372C8.42788 19.4867 6.84717 19.0827 5.44316 18.3222L0.347656 19.653Z" fill="url(#paint0_linear_1352_24654)"/>
<path id="Vector_3" d="M0 20L1.41356 14.8669C0.539637 13.3603 0.0811843 11.654 0.0859598 9.9097C0.0859598 4.44392 4.55587 0 10.043 0C12.7077 0 15.2101 1.03137 17.0869 2.90399C18.9685 4.77662 20.0048 7.26711 20 9.91445C20 15.3802 15.5301 19.8242 10.0382 19.8242H10.0334C8.36676 19.8242 6.72874 19.4059 5.2722 18.6169L0 20ZM5.52531 16.8251L5.82617 17.0057C7.09646 17.7567 8.553 18.1511 10.0382 18.1559H10.043C14.6036 18.1559 18.319 14.4629 18.319 9.9192C18.319 7.71863 17.4594 5.65114 15.8978 4.09221C14.3362 2.53327 12.254 1.67776 10.043 1.67776C5.48233 1.673 1.76695 5.36597 1.76695 9.9097C1.76695 11.4639 2.20153 12.98 3.03247 14.2918L3.22827 14.6055L2.39255 17.6426L5.52531 16.8251Z" fill="url(#paint1_linear_1352_24654)"/>
<path id="Vector_4" fill-rule="evenodd" clip-rule="evenodd" d="M7.55362 5.76527C7.36737 5.35178 7.17157 5.34227 6.99488 5.33752C6.85161 5.33276 6.68447 5.33276 6.51733 5.33276C6.35018 5.33276 6.08275 5.39455 5.85352 5.6417C5.6243 5.88885 4.98438 6.48771 4.98438 7.70919C4.98438 8.92592 5.8774 10.1046 6.00157 10.271C6.12573 10.4373 7.72554 13.0181 10.2518 14.0115C12.353 14.8385 12.7828 14.6721 13.2365 14.6293C13.6902 14.5866 14.7074 14.0305 14.9175 13.4506C15.1229 12.8708 15.1229 12.3765 15.0608 12.2719C14.9987 12.1674 14.8315 12.1056 14.5832 11.982C14.3349 11.8584 13.1124 11.2596 12.8831 11.174C12.6539 11.0932 12.4868 11.0504 12.3244 11.2976C12.1572 11.5447 11.6797 12.1008 11.5364 12.2672C11.3932 12.4335 11.2451 12.4525 10.9968 12.329C10.7485 12.2054 9.94617 11.944 8.99583 11.098C8.25562 10.4421 7.75419 9.62934 7.61092 9.38219C7.46766 9.13505 7.5966 9.00197 7.72076 8.87839C7.8306 8.76908 7.96909 8.58847 8.09326 8.44588C8.21742 8.3033 8.2604 8.19873 8.34158 8.03238C8.42277 7.86603 8.38456 7.72345 8.32248 7.59987C8.2604 7.48105 7.77329 6.25482 7.55362 5.76527Z" fill="white"/>
</g>
<defs>
<linearGradient id="paint0_linear_1352_24654" x1="10.0009" y1="19.6521" x2="10.0009" y2="0.346248" gradientUnits="userSpaceOnUse">
<stop stop-color="#20B038"/>
<stop offset="1" stop-color="#60D66A"/>
</linearGradient>
<linearGradient id="paint1_linear_1352_24654" x1="10.0019" y1="19.9981" x2="10.0019" y2="0" gradientUnits="userSpaceOnUse">
<stop stop-color="#F9F9F9"/>
<stop offset="1" stop-color="white"/>
</linearGradient>
</defs>
</svg>
