<svg viewBox="0 0 71 28" fill="none" xmlns="http://www.w3.org/2000/svg">
<path id="Vector" d="M33.579 13.6798V21.8875H30.957V1.61806H37.911C38.741 1.60084 39.5663 1.74704 40.3391 2.04822C41.112 2.34939 41.8172 2.79958 42.4139 3.37281C43.0167 3.91124 43.4964 4.57156 43.8208 5.3094C44.1453 6.04724 44.3069 6.84549 44.2949 7.65052C44.3121 8.45986 44.153 9.26333 43.8283 10.0059C43.5036 10.7484 43.0212 11.4125 42.4139 11.9525C41.1979 13.104 39.6969 13.6792 37.911 13.6781H33.579V13.6798ZM33.579 4.11353V11.1891H37.9761C38.4581 11.2033 38.9379 11.1174 39.3846 10.937C39.8313 10.7565 40.2352 10.4855 40.5704 10.1411C40.9038 9.8192 41.1689 9.43413 41.3499 9.0087C41.5309 8.58326 41.6241 8.12611 41.6241 7.66427C41.6241 7.20243 41.5309 6.74527 41.3499 6.31984C41.1689 5.89441 40.9038 5.50934 40.5704 5.1874C40.2394 4.83582 39.8369 4.55811 39.3897 4.3727C38.9424 4.18728 38.4606 4.09839 37.9761 4.11191H33.579V4.11353Z" fill="#5F6368"/>
<path id="Vector_2" d="M50.3379 7.56641C52.2759 7.56641 53.8057 8.0807 54.9272 9.10929C56.0487 10.1379 56.6089 11.5482 56.6079 13.3401V21.8874H54.0999V19.9629H53.9859C52.9002 21.5478 51.4562 22.3403 49.6539 22.3403C48.1155 22.3403 46.8284 21.8874 45.7926 20.9818C45.2956 20.5661 44.8982 20.0455 44.6294 19.4579C44.3606 18.8704 44.2272 18.2307 44.239 17.5855C44.239 16.1504 44.7851 15.0091 45.8773 14.1617C46.9695 13.3142 48.4276 12.8894 50.2516 12.8873C51.8085 12.8873 53.0907 13.1703 54.0983 13.7363V13.1412C54.1012 12.7013 54.0056 12.2663 53.8183 11.8677C53.6309 11.4691 53.3567 11.1168 53.0153 10.8366C52.3219 10.2153 51.4183 9.87635 50.4845 9.88721C49.0199 9.88721 47.8609 10.5007 47.0075 11.7277L44.6982 10.2834C45.9685 8.47208 47.8484 7.56641 50.3379 7.56641ZM46.9456 17.6421C46.9439 17.9735 47.0219 18.3005 47.1732 18.5958C47.3244 18.8912 47.5446 19.1464 47.8153 19.3402C48.3952 19.7932 49.1149 20.0332 49.8526 20.0195C50.959 20.0176 52.0196 19.5803 52.8019 18.8033C53.6705 17.9914 54.1048 17.0388 54.1048 15.9455C53.2872 15.2986 52.1472 14.9752 50.6848 14.9752C49.6197 14.9752 48.7316 15.2302 48.0205 15.7401C47.3023 16.2577 46.9456 16.8868 46.9456 17.6421Z" fill="#5F6368"/>
<path id="Vector_3" d="M71.0049 8.01929L62.2498 28.0008H59.5431L62.7921 21.0093L57.0352 8.01929H59.8851L64.0461 17.9817H64.1031L68.15 8.01929H71.0049Z" fill="#5F6368"/>
<path id="Vector_4" d="M22.9844 11.9104C22.9854 11.1169 22.9178 10.3248 22.7825 9.54272H11.7246V14.0274H18.058C17.9284 14.7437 17.6541 15.4265 17.2517 16.0347C16.8492 16.6428 16.3269 17.1638 15.7162 17.5661V20.4772H19.4961C21.7093 18.4507 22.9844 15.4539 22.9844 11.9104Z" fill="#4285F4"/>
<path id="Vector_5" d="M11.7265 23.2896C14.8908 23.2896 17.5551 22.2578 19.4979 20.4788L15.7181 17.5677C14.666 18.276 13.3111 18.6803 11.7265 18.6803C8.66806 18.6803 6.07214 16.6329 5.14387 13.8738H1.25V16.8738C2.22594 18.8024 3.72243 20.4237 5.57241 21.5566C7.42238 22.6895 9.55303 23.2895 11.7265 23.2896Z" fill="#34A853"/>
<path id="Vector_6" d="M5.14243 13.8738C4.65169 12.428 4.65169 10.8623 5.14243 9.41656V6.4165H1.24857C0.427573 8.03889 0 9.82945 0 11.6452C0 13.4609 0.427573 15.2515 1.24857 16.8738L5.14243 13.8738Z" fill="#FBBC04"/>
<path id="Vector_7" d="M11.7265 4.61002C13.3987 4.58289 15.0144 5.21031 16.2245 6.35668L19.5712 3.03317C17.4491 1.05374 14.6377 -0.0330033 11.7265 0.000763984C9.55303 0.000862355 7.42238 0.600864 5.57241 1.73378C3.72243 2.8667 2.22594 4.48795 1.25 6.41652L5.14387 9.41658C6.07214 6.6575 8.66806 4.61002 11.7265 4.61002Z" fill="#EA4335"/>
</svg>
