<svg viewBox="0 0 78 19" fill="none" xmlns="http://www.w3.org/2000/svg">
<path id="XMLID 30" d="M29.6703 8.1001C29.4703 9.6001 28.2703 9.6001 27.1703 9.6001H26.5703L27.0703 6.7001C27.0703 6.5001 27.2703 6.4001 27.4703 6.4001H27.7703C28.5703 6.4001 29.2703 6.4001 29.6703 6.8001C29.6703 7.2001 29.6703 7.6001 29.6703 8.1001ZM29.1703 4.1001H24.8703C24.5703 4.1001 24.3703 4.3001 24.2703 4.6001L22.5703 15.6001C22.5703 15.8001 22.6703 16.0001 22.9703 16.0001H24.9703C25.2703 16.0001 25.4703 15.8001 25.5703 15.5001L26.0703 12.5001C26.0703 12.2001 26.3703 12.0001 26.6703 12.0001H28.0703C30.8703 12.0001 32.4703 10.6001 32.9703 7.9001C33.1703 6.7001 32.9703 5.8001 32.4703 5.1001C31.6703 4.5001 30.5703 4.1001 29.1703 4.1001Z" fill="#263577"/>
<path id="XMLID 27" d="M39.0698 12.0999C38.8698 13.2999 37.9698 14.0999 36.7698 14.0999C36.1698 14.0999 35.6698 13.8999 35.3698 13.4999C35.0698 13.0999 34.9698 12.5999 35.0698 12.0999C35.2698 10.8999 36.1698 10.0999 37.3698 10.0999C37.9698 10.0999 38.4698 10.2999 38.7698 10.6999C38.9698 10.9999 39.1698 11.4999 39.0698 12.0999ZM41.8698 8.0999H39.8698C39.6698 8.0999 39.5698 8.1999 39.4698 8.3999L39.3698 8.9999L39.2698 8.7999C38.8698 8.1999 37.8698 7.8999 36.8698 7.8999C34.5698 7.8999 32.6698 9.5999 32.2698 11.9999C32.0698 13.1999 32.3698 14.2999 33.0698 15.0999C33.6698 15.7999 34.5698 16.0999 35.6698 16.0999C37.4698 16.0999 38.4698 14.8999 38.4698 14.8999L38.3698 15.4999C38.3698 15.6999 38.4698 15.8999 38.7698 15.8999H40.5698C40.8698 15.8999 41.0698 15.6999 41.1698 15.3999L42.2698 8.3999C42.2698 8.2999 42.1698 8.0999 41.8698 8.0999Z" fill="#263577"/>
<path id="XMLID 26" d="M52.7688 8.1001H50.6688C50.4688 8.1001 50.2688 8.2001 50.1688 8.4001L47.3688 12.6001L46.1688 8.6001C46.0688 8.3001 45.8688 8.2001 45.5688 8.2001H43.5688C43.3688 8.2001 43.1688 8.4001 43.2688 8.7001L45.5688 15.3001L43.4688 18.3001C43.2688 18.5001 43.4688 18.9001 43.7688 18.9001H45.8688C46.0688 18.9001 46.2688 18.8001 46.3688 18.6001L53.1688 8.7001C53.2688 8.4001 53.0688 8.1001 52.7688 8.1001Z" fill="#263577"/>
<path id="XMLID 21" d="M60.0688 8.1001C59.8688 9.6001 58.6688 9.6001 57.5688 9.6001H56.9688L57.4688 6.7001C57.4688 6.5001 57.6688 6.4001 57.8688 6.4001H58.1688C58.9688 6.4001 59.6688 6.4001 60.0688 6.8001C60.1688 7.2001 60.1688 7.6001 60.0688 8.1001ZM59.5688 4.1001H55.2688C54.9688 4.1001 54.7688 4.3001 54.6688 4.6001L52.9688 15.6001C52.9688 15.8001 53.0688 16.0001 53.3688 16.0001H55.5688C55.7688 16.0001 55.9688 15.9001 55.9688 15.6001L56.4688 12.5001C56.4688 12.2001 56.7688 12.0001 57.0688 12.0001H58.4688C61.2688 12.0001 62.8688 10.6001 63.3688 7.9001C63.5688 6.7001 63.3688 5.8001 62.8688 5.1001C62.1688 4.5001 61.0688 4.1001 59.5688 4.1001Z" fill="#2199D6"/>
<path id="XMLID 13" d="M69.5698 12.0999C69.3698 13.2999 68.4698 14.0999 67.2698 14.0999C66.6698 14.0999 66.1698 13.8999 65.8698 13.4999C65.5698 13.0999 65.4698 12.5999 65.5698 12.0999C65.7698 10.8999 66.6698 10.0999 67.8698 10.0999C68.4698 10.0999 68.9698 10.2999 69.2698 10.6999C69.4698 10.9999 69.6698 11.4999 69.5698 12.0999ZM72.3698 8.0999H70.3698C70.1698 8.0999 70.0698 8.1999 69.9698 8.3999L69.8698 8.9999L69.7698 8.7999C69.3698 8.1999 68.3698 7.8999 67.3698 7.8999C65.0698 7.8999 63.1698 9.5999 62.7698 11.9999C62.5698 13.1999 62.8698 14.2999 63.5698 15.0999C64.1698 15.7999 65.0698 16.0999 66.1698 16.0999C67.9698 16.0999 68.9698 14.8999 68.9698 14.8999L68.8698 15.4999C68.8698 15.6999 68.9698 15.8999 69.2698 15.8999H71.0698C71.3698 15.8999 71.5698 15.6999 71.6698 15.3999L72.7698 8.3999C72.7698 8.2999 72.5698 8.0999 72.3698 8.0999Z" fill="#2199D6"/>
<path id="XMLID 12" d="M74.7688 4.4001L72.9688 15.6001C72.9688 15.8001 73.0688 16.0001 73.3688 16.0001H75.1688C75.4688 16.0001 75.6688 15.8001 75.7688 15.5001L77.4688 4.5001C77.4688 4.3001 77.3688 4.1001 77.0688 4.1001H75.0688C74.9688 4.1001 74.8688 4.3001 74.7688 4.4001Z" fill="#2199D6"/>
<path id="XMLID 10" d="M4.76915 18.1001L5.06914 16.0001H4.36914H0.869141L3.26915 0.700096C3.26915 0.700096 3.26914 0.600098 3.36914 0.600098H3.46915H9.36914C11.2691 0.600098 12.6691 1.0001 13.3691 1.8001C13.6691 2.2001 13.8691 2.6001 13.9691 3.0001C14.0691 3.5001 14.0691 4.0001 13.9691 4.7001V5.1001L14.2691 5.3001C14.5691 5.4001 14.7691 5.6001 14.9691 5.8001C15.2691 6.1001 15.4691 6.5001 15.4691 7.0001C15.5691 7.5001 15.5691 8.1001 15.3691 8.8001C15.1691 9.6001 14.9691 10.2001 14.6691 10.8001C14.3691 11.3001 13.9691 11.7001 13.5691 12.1001C13.1691 12.4001 12.5691 12.6001 12.0691 12.8001C11.4691 12.9001 10.8691 13.0001 10.1691 13.0001H9.66914C9.36914 13.0001 9.06915 13.1001 8.76915 13.3001C8.56915 13.5001 8.36915 13.8001 8.26915 14.1001V14.3001L7.66914 18.0001V18.1001V18.2001C7.66914 18.2001 7.66914 18.2001 7.56914 18.2001H4.76915V18.1001Z" fill="#263577"/>
<path id="XMLID 8" d="M14.6699 4.69995C14.6699 4.79995 14.6699 4.89995 14.5699 4.99995C13.7699 8.99995 11.1699 10.2999 7.76993 10.2999H6.06992C5.66992 10.2999 5.26993 10.6 5.26993 11L4.36992 16.6L4.16992 18.2C4.16992 18.5 4.36992 18.7 4.56992 18.7H7.66992C8.06992 18.7 8.36992 18.4 8.36992 18.1V17.9L8.96992 14.2999V14.1C9.06992 13.7 9.36992 13.5 9.66992 13.5H10.1699C13.1699 13.5 15.4699 12.3 16.0699 8.79995C16.3699 7.29995 16.1699 6.09995 15.4699 5.29995C15.2699 5.09995 14.9699 4.89995 14.6699 4.69995Z" fill="#2199D6"/>
<path id="XMLID 6" d="M13.8695 4.4001C13.7695 4.4001 13.6695 4.3001 13.4695 4.3001C13.3695 4.3001 13.1695 4.2001 13.0695 4.2001C12.5695 4.1001 12.0695 4.1001 11.5695 4.1001H6.96953C6.86953 4.1001 6.76953 4.1001 6.66953 4.2001C6.46953 4.3001 6.26953 4.5001 6.26953 4.7001L5.26953 10.9001V11.1001C5.36953 10.7001 5.66952 10.4001 6.06952 10.4001H7.76953C11.1695 10.4001 13.7695 9.0001 14.5695 5.1001C14.5695 5.0001 14.5695 4.9001 14.6695 4.8001C14.4695 4.7001 14.2695 4.6001 14.0695 4.5001C13.9695 4.4001 13.8695 4.4001 13.8695 4.4001Z" fill="#252C5E"/>
<path id="XMLID 5" d="M6.26953 4.7C6.26953 4.5 6.46953 4.3 6.66953 4.2C6.76953 4.2 6.86953 4.1 6.96953 4.1H11.5695C12.0695 4.1 12.6695 4.1 13.0695 4.2C13.1695 4.2 13.3695 4.2 13.4695 4.3C13.5695 4.3 13.6695 4.4 13.8695 4.4C13.9695 4.4 13.9695 4.4 14.0695 4.5C14.2695 4.6 14.4695 4.7 14.6695 4.8C14.8695 3.3 14.6695 2.3 13.8695 1.4C12.9695 0.399998 11.3695 0 9.36952 0H3.46953C3.06953 0 2.66953 0.299997 2.66953 0.699997L0.269531 16.1C0.269531 16.4 0.469531 16.7 0.769531 16.7H4.36952L5.26953 10.9L6.26953 4.7Z" fill="#263577"/>
</svg>
