<svg viewBox="0 0 42 43" fill="none" xmlns="http://www.w3.org/2000/svg">
<path id="Vector" d="M33.1699 26.5002C33.8699 26.8002 34.1699 27.8002 34.1699 28.3002C34.2699 29.1002 34.0699 29.5002 33.7699 29.5002C33.4699 29.5002 33.0699 29.2002 32.6699 28.5002C32.2699 27.8002 32.0699 27.1002 32.2699 26.7002C32.5699 26.5002 32.8699 26.4002 33.1699 26.5002Z" fill="#F28A1A"/>
<path id="Vector_2" d="M29.0687 29.6001C29.4687 29.6001 29.9687 29.8001 30.4687 30.2001C31.2687 30.9001 31.5687 31.7001 31.1687 32.3001C30.9687 32.6001 30.4687 32.8001 30.0687 32.8001C29.5687 32.8001 29.0687 32.6001 28.7687 32.3001C27.9687 31.6001 27.7687 30.6001 28.2687 30.0001C28.3687 29.8001 28.6687 29.6001 29.0687 29.6001Z" fill="#F28A1A"/>
<path id="Vector_3" d="M19.5695 37.5C9.16953 37.5 0.769531 29.1 0.769531 18.8C0.769531 8.5 9.16953 0 19.5695 0C29.9695 0 38.3695 8.4 38.3695 18.8C38.3695 22.3 37.3695 25.6 35.7695 28.4C35.6695 28.5 35.5695 28.5 35.5695 28.3C34.8695 23.7 32.0695 21.2 28.0695 20.4C27.6695 20.3 27.6695 20.1 28.1695 20.1C29.4695 20 31.1695 20 32.1695 20.2C32.2695 19.7 32.2695 19.2 32.2695 18.8C32.2695 12 26.6695 6.4 19.8695 6.4C13.0695 6.4 7.46953 12 7.46953 18.8C7.46953 25.6 13.0695 31.2 19.8695 31.2H20.4695C20.2695 30.1 20.1695 29 20.2695 27.8C20.2695 27 20.4695 26.9 20.7695 27.5C22.4695 30.5 24.9695 33.1 29.7695 34.2C33.6695 35.1 37.5695 36.1 41.8695 41.4C42.2695 41.9 41.6695 42.4 41.2695 42C36.9695 38.2 33.0695 36.9 29.4695 36.9C24.9695 37 22.2695 37.5 19.5695 37.5Z" fill="#F28A1A"/>
</svg>
