<svg viewBox="0 0 144 18" fill="none" xmlns="http://www.w3.org/2000/svg">
<path id="Vector" d="M1.96875 0.500046C1.36875 0.800046 0.868762 1.30005 0.668762 1.80005C0.568762 2.10005 0.46875 4.80005 0.46875 9.70005V17.1H3.96875V12.4H8.56876L9.76877 14.7001L10.9688 17H12.9688C14.0688 17 14.9688 17 14.9688 16.9C14.9688 16.8 14.3688 15.6 13.5688 14.2001L12.1688 11.6L12.5688 11.4C14.5688 10.1 15.4688 7.40005 14.9688 4.40005C14.6687 2.60005 13.7687 1.30005 12.3687 0.700047C11.5687 0.400047 11.4688 0.300049 6.96875 0.300049C3.46875 0.300049 2.36875 0.300046 1.96875 0.500046ZM10.6688 3.90005C10.8688 4.00005 11.1688 4.30005 11.2688 4.60005C11.5688 5.30005 11.5687 7.00005 11.3687 7.50005C10.7687 8.70005 9.96876 9.00005 6.56876 9.00005H4.06876V3.70005H7.16876C8.86876 3.70005 10.4688 3.80005 10.6688 3.90005ZM20.0688 0.400047C18.5688 0.900047 17.4688 1.90005 17.0688 3.40005C16.6688 4.60005 16.2688 7.30005 16.2688 8.70005C16.2688 10.0001 16.6688 12.6 16.9688 13.7001C17.5688 15.5001 18.4688 16.5 20.1688 16.9C20.9688 17.1 21.6688 17.1 24.2688 17.1C27.1688 17.1 27.4688 17 28.2688 16.7001C30.3688 15.8001 31.2688 13.3001 31.2688 8.70005C31.2688 3.80005 30.2688 1.40005 28.0688 0.600048C27.2688 0.300048 26.9688 0.300049 23.7688 0.300049C22.0688 0.300049 20.3688 0.400047 20.0688 0.400047ZM27.0688 4.10005C28.0688 5.50005 28.0688 12.3 27.0688 13.3C26.7688 13.6 20.9688 13.6 20.7688 13.3C20.0688 12.4 19.7687 7.50005 20.3687 5.20005C20.5687 4.30005 20.6688 4.00005 20.9688 3.90005C21.1688 3.80005 22.5688 3.80005 24.1688 3.80005C26.5688 3.80005 26.9688 3.80005 27.0688 4.10005ZM34.6688 0.600048C34.3688 0.800048 33.9688 1.20005 33.7688 1.50005C33.4688 2.00005 33.4687 2.30005 33.3687 8.30005C33.3687 12.5 33.3688 14.8001 33.4688 15.2001C33.7687 16.1 34.3688 16.8 35.2688 17C36.1688 17.2 42.8688 17.2 44.0688 17C46.3688 16.6 47.5688 15.3 47.7688 12.8C47.8688 11.4 47.6688 10.4 47.0688 9.40005L46.6688 8.70005L47.2688 7.60004C47.7688 6.60004 47.8687 6.50005 47.8687 5.00005C47.8687 3.80005 47.7688 3.30005 47.5688 2.70005C47.1688 1.80005 46.5688 1.20005 45.6688 0.700047L44.8687 0.300049H40.1688C35.2688 0.300049 35.2688 0.300048 34.6688 0.600048ZM43.9688 3.90005C44.1688 4.10005 44.2688 5.10004 44.1688 5.60004C44.0688 5.90004 43.8688 6.20005 43.6688 6.50005C43.2688 6.90005 43.2688 6.90005 40.1688 6.90005H37.0688V3.70005H40.4688C42.2687 3.80005 43.8688 3.90005 43.9688 3.90005ZM43.2688 10.6C43.8688 10.8 44.1688 11.5 44.1688 12.3C44.1688 12.8 44.0687 13.1 43.8687 13.2001C43.6687 13.4001 42.7688 13.4 40.2688 13.4H36.8687V10.2001L39.8687 10.3C41.5687 10.4 43.0688 10.5 43.2688 10.6ZM52.7688 0.600048C51.2688 1.20005 50.5687 2.20005 49.9688 4.40005C49.6688 5.50005 49.6688 6.10005 49.6688 8.70005C49.6688 11.4001 49.6688 11.7 50.0688 13.1C50.5688 14.8 50.9687 15.5001 51.8687 16.2001C52.9687 17 53.2688 17 57.0688 17C60.8688 17 61.2688 16.9001 62.2688 16.2001C63.1688 15.6 63.5688 14.8 64.0688 13.1C64.4688 11.7 64.4688 11.4001 64.4688 8.70005C64.4688 6.20005 64.4688 5.60005 64.1688 4.40005C63.5688 2.10005 62.8687 1.10005 61.3687 0.600048C60.5687 0.300048 60.2688 0.300049 57.0688 0.300049C53.8688 0.300049 53.4688 0.300048 52.7688 0.600048ZM59.9688 3.90005C60.3688 4.10005 60.5687 4.50005 60.8687 6.20005C61.2687 8.30005 60.8688 12.2 60.2688 13.1C60.0688 13.5 60.0688 13.5 57.0688 13.5C53.5688 13.5 53.7687 13.6 53.3687 11.6C52.7687 8.80004 53.2688 4.20005 54.0688 3.90005C54.5688 3.70005 59.5687 3.70005 59.9688 3.90005Z" fill="#2F69B1"/>
<path id="Vector_2" d="M67.3691 0.700001L66.8691 1.2V16.1L67.2692 16.5C67.6692 16.9 67.8692 16.9 68.5692 16.9C69.2692 16.9 69.4692 16.8 69.7692 16.6C70.2692 16 70.3691 15.4 70.3691 12.8V10.3H72.5692L73.6692 11.3C75.8692 13.2 76.6692 14.2 76.6692 15.3C76.6692 15.9 76.7692 16.1 77.1692 16.5C77.6692 17 77.7691 17 78.4691 17C79.0691 17 79.2692 16.9 79.6692 16.6C80.1692 16.2 80.1692 16.1 80.1692 15C80.1692 14.1 80.0692 13.7 79.6692 12.9C79.1692 11.8 77.5692 10 76.6692 9.2L76.0692 8.7L77.0692 7.8C78.2692 6.7 79.3691 5.3 79.8691 4.2C80.1691 3.6 80.2692 3.1 80.2692 2.3C80.2692 1.2 80.2692 1.2 79.7692 0.700001C79.3692 0.300001 79.1691 0.300003 78.3691 0.300003C77.4691 0.300003 77.3692 0.300001 77.0692 0.700001C76.8692 1 76.7692 1.3 76.7692 1.8C76.7692 2.2 76.6692 2.7 76.5692 2.9C76.2692 3.5 75.1692 4.8 73.7692 6L72.6692 6.9H70.4691V4.4C70.4691 3.1 70.3692 1.7 70.2692 1.4C70.0692 0.600002 69.4692 0.200001 68.5692 0.200001C67.8692 0.300001 67.7691 0.300001 67.3691 0.700001ZM86.4691 0.5C84.4691 1.1 83.3692 2.6 82.5692 5.5C82.1692 6.8 82.1692 7.3 82.0692 11.1C81.9692 15.6 82.0692 16.1 82.7692 16.6C83.2692 17 84.5691 17 84.9691 16.6C85.4691 16.2 85.6692 15.7 85.6692 14.2V12.7H93.4691V14.4C93.4691 16 93.4691 16.1 93.8691 16.5C94.2691 16.9 94.4692 16.9 95.1692 16.9C95.9692 16.9 96.0691 16.9 96.4691 16.4L96.8691 15.9V11.1C96.7691 6.6 96.7691 6.2 96.4691 5.2C95.7691 2.8 94.6692 1.3 93.2692 0.700001C92.4692 0.300001 92.2692 0.300003 89.7692 0.300003C87.8692 0.300003 86.8691 0.3 86.4691 0.5ZM91.6692 3.9C92.4692 4.2 93.1691 6 93.3691 8.3L93.4691 9.3H85.6692L85.7692 8.1C85.9692 6 86.7692 4 87.5692 3.8C88.2692 3.7 91.1692 3.8 91.6692 3.9ZM101.669 0.5C100.169 1 99.3691 1.7 98.8691 3C98.5691 3.7 98.5692 4.1 98.5692 5.3C98.5692 7.7 99.2691 9.1 100.969 9.9C101.669 10.2 101.869 10.3 104.869 10.3C107.969 10.4 108.069 10.4 108.369 10.7C108.769 11.1 108.869 12.4 108.469 13L108.169 13.4H104.169C100.369 13.4 100.069 13.4 99.7692 13.7C98.9692 14.4 98.8692 15.8 99.6692 16.5L100.169 16.9H104.569C106.969 16.9 109.169 16.8 109.469 16.7C110.269 16.5 111.169 15.6 111.769 14.5C112.269 13.6 112.269 13.4 112.269 11.8C112.269 10.3 112.269 10.1 111.869 9.3C111.369 8.2 110.669 7.5 109.969 7.1C109.469 6.9 108.969 6.8 105.969 6.7C101.969 6.6 102.069 6.7 102.069 5.1C102.069 3.5 101.869 3.6 106.669 3.5L110.769 3.4L111.169 3C111.569 2.6 111.569 2.5 111.669 1.3L111.769 0H107.069C103.669 0.3 102.069 0.4 101.669 0.5ZM116.569 0.5C116.269 0.6 115.769 0.800002 115.469 0.900002C113.569 1.9 112.669 5.4 113.869 7.8C114.369 8.8 114.869 9.4 115.769 9.9C116.469 10.3 116.569 10.3 119.569 10.4C121.269 10.4 122.769 10.5 122.969 10.6C123.469 10.8 123.769 11.6 123.569 12.5C123.369 13.6 123.569 13.6 118.969 13.6H114.869L114.469 14C114.069 14.4 114.069 14.6 114.069 15.3C114.069 16 114.169 16.2 114.469 16.6L114.869 17H119.369C124.469 17 124.569 17 125.569 16C126.469 15.1 126.869 14.1 126.969 12.3C127.069 10.3 126.669 9.1 125.569 8C125.069 7.5 124.569 7.2 124.169 7.1C123.869 7 122.369 6.9 120.769 6.9C119.169 6.9 117.769 6.9 117.469 6.8C116.969 6.7 116.669 6.2 116.669 5.3C116.669 4.4 116.869 3.9 117.469 3.8C117.769 3.8 119.569 3.7 121.569 3.7C126.269 3.7 126.369 3.6 126.369 1.4V0.300003H121.669C118.569 0.300003 116.969 0.4 116.569 0.5ZM133.069 0.600002C132.669 0.800002 132.069 1.1 131.769 1.3C130.569 2.2 129.469 4.6 129.169 7.1C128.969 8.8 128.969 15.5 129.169 16.1C129.369 16.7 129.969 17 130.869 17C131.369 17 131.669 16.9 132.069 16.6L132.569 16.2V14.5L132.669 12.8H140.269L140.369 14.5V16.2L140.869 16.6C141.269 17 141.469 17 142.069 17C142.669 17 142.869 16.9 143.269 16.6L143.769 16.2V11.5C143.769 7.2 143.769 6.7 143.469 5.6C142.769 3.1 141.769 1.6 140.369 0.900002C139.469 0.500002 139.469 0.500002 136.669 0.400002C134.169 0.300002 133.769 0.300002 133.069 0.600002ZM139.069 4.3C139.669 5 140.169 6.5 140.169 8L140.269 9.2H132.569V8.3C132.569 6.4 133.369 4.2 134.269 3.8C134.469 3.7 135.469 3.7 136.669 3.7H138.669L139.069 4.3Z" fill="#D31223"/>
</svg>
