<svg viewBox="0 0 43 42" fill="none" xmlns="http://www.w3.org/2000/svg">
<path d="M27.0688 19.9L22.5688 15L17.5688 19.4L22.0688 24.4L27.0688 19.9Z" fill="#137ABE"/>
<path d="M13.9688 11L18.4688 15.9L23.4688 11.5L18.9688 6.6L13.9688 11Z" fill="#137ABE"/>
<path d="M30.5688 28.4L26.0688 23.5L21.0688 28L25.5688 32.9L30.5688 28.4Z" fill="#137ABE"/>
<path d="M25.3687 36.6L17.1688 27.5L19.4688 25.5L13.6687 19.1L15.9688 17.1L10.1687 10.7L19.2687 2.6L22.1688 5.7L27.1688 1.4L30.0688 4.4L31.9688 2.7C31.5688 2.5 31.0688 2.2 30.6688 2C27.7688 0.8 24.6687 0 21.3687 0C9.86875 0 0.46875 9.3 0.46875 20.7C0.46875 32.1 9.86875 41.4 21.4688 41.4C25.2687 41.4 28.7687 40.4 31.7687 38.7C32.7687 38.1 33.6687 37.5 34.5687 36.9L30.3687 32.2L25.3687 36.6Z" fill="#137ABE"/>
<path d="M23.1688 8.6L26.4688 12.3L30.2687 9L26.8687 5.3L23.1688 8.6Z" fill="#137ABE"/>
<path d="M33.6688 16.4L30.2687 12.7L26.5688 16.1L29.9688 19.7L33.6688 16.4Z" fill="#137ABE"/>
<path d="M36.8688 24.2L33.4688 20.5L29.7687 23.8L33.1688 27.6L36.8688 24.2Z" fill="#137ABE"/>
<path d="M37.0687 12L34.5687 14.2L36.8688 16.7L39.2687 14.5L37.0687 12Z" fill="#137ABE"/>
<path d="M37.7687 21.5L39.9688 24L42.4688 21.8L40.1688 19.3L37.7687 21.5Z" fill="#137ABE"/>
<path d="M31.3687 6.9L33.6688 9.4L36.0687 7.2L33.8688 4.7L31.3687 6.9Z" fill="#137ABE"/>
<path d="M33.0687 31.3L36.4688 35L40.1688 31.7L36.7687 28L33.0687 31.3Z" fill="#137ABE"/>
</svg>
