<svg viewBox="0 0 39 36" fill="none" xmlns="http://www.w3.org/2000/svg">
<path id="yandex_2" d="M38.2039 14.6298C38.0039 13.4298 36.9039 12.6298 35.4039 12.6298C34.9039 12.6298 34.5039 12.6298 34.0039 12.6298C33.1039 12.5298 32.9039 12.8298 32.9039 13.5298C32.9039 17.0298 32.9039 20.4298 32.9039 23.9298C32.9039 25.7298 31.1039 27.6298 29.0039 28.0298C22.4039 29.5298 15.8039 30.9298 9.20389 32.4298C8.50389 32.6298 7.7039 32.6298 6.9039 32.6298C6.6039 32.6298 6.10391 32.4298 6.00391 32.1298C5.90391 31.9298 6.2039 31.5298 6.4039 31.3298C6.7039 31.1298 7.10391 30.9298 7.50391 30.7298C8.70391 30.3298 10.0039 29.9298 11.2039 29.5298C16.1039 27.9298 21.0039 26.3298 25.9039 24.6298C28.1039 23.9298 29.3039 22.4298 29.3039 20.5298C29.4039 14.5298 29.3039 8.42977 29.3039 2.42977C29.3039 1.42977 28.8039 0.629777 27.7039 0.229777C26.4039 -0.270223 25.2039 0.129771 24.1039 0.629771C17.1039 3.92977 10.2039 7.22978 3.20389 10.5298C1.20389 11.5298 0.00390625 12.9298 0.00390625 14.9298C0.00390625 20.6298 0.00390625 26.3298 0.00390625 32.0298C0.00390625 32.3298 0.00388183 32.6298 0.103882 32.8298C0.803882 34.7298 2.60391 35.9298 5.00391 35.9298C9.90391 35.9298 14.8039 35.9298 19.7039 35.9298C24.6039 35.9298 29.4039 35.9298 34.3039 35.9298C35.4039 35.9298 36.3039 35.7298 37.1039 35.0298C38.1039 34.2298 38.1039 33.1298 38.1039 32.1298C38.1039 26.5298 38.1039 21.0298 38.1039 15.4298C38.3039 15.3298 38.3039 14.9298 38.2039 14.6298ZM17.8039 12.8298C18.3039 11.5298 19.4039 10.7298 21.0039 10.5298C22.1039 10.4298 23.0039 11.0298 23.2039 12.0298C23.4039 13.5298 21.6039 15.3298 19.7039 15.3298C18.2039 15.3298 17.3039 14.2298 17.8039 12.8298Z" fill="#E47418"/>
</svg>
