<svg viewBox="0 0 120 30" fill="none" xmlns="http://www.w3.org/2000/svg">
<path id="Vector" d="M10.8008 24.384H23.8748V27.096H10.8008V24.384ZM105.349 15.678L109.471 11.13H106.399L103.021 14.91V11.13H100.573V20.688H103.033V16.662L106.645 20.688H109.801L105.349 15.678ZM25.3148 16.308C25.2488 18.108 25.0208 18.45 24.0248 18.45V20.694H24.3968C26.8988 20.694 27.4928 19.404 27.5828 16.53L27.6908 13.35H30.0008V20.688H32.4488V11.13H25.4828L25.3148 16.308ZM14.6888 17.952H19.8488L20.7068 20.688H23.5688L19.7108 9.19195C19.3388 8.08195 18.9068 7.19995 17.4308 7.19995C15.9548 7.19995 15.5048 8.08195 15.1088 9.19195L11.0648 20.688H13.7528L14.6888 17.952ZM17.3048 10.2H17.3708L19.0988 15.648H15.4628L17.3048 10.2ZM74.4908 12.486H71.7608V9.78595H78.0968V7.38595H69.1928V20.688H74.4908C77.4248 20.688 79.1108 19.224 79.1108 16.548C79.1108 14.01 77.4008 12.486 74.4908 12.486ZM74.3648 18.282H71.7608V14.826H74.3648C75.7208 14.826 76.4828 15.426 76.4828 16.554C76.4828 17.682 75.7208 18.282 74.3648 18.282ZM50.1548 10.908V7.36795H47.7128V10.908C46.4305 10.9503 45.2174 11.4997 44.3399 12.4357C43.4625 13.3717 42.9923 14.6176 43.0328 15.9C42.9891 17.1849 43.4576 18.4346 44.3353 19.3741C45.2129 20.3137 46.4278 20.8662 47.7128 20.91V24.51H50.1608V20.91C50.7973 20.889 51.4234 20.7428 52.0033 20.4795C52.5832 20.2163 53.1054 19.8412 53.5402 19.3759C53.9749 18.9105 54.3135 18.3639 54.5367 17.7675C54.7599 17.171 54.8632 16.5364 54.8408 15.9C54.8665 15.2631 54.765 14.6275 54.5425 14.0304C54.3199 13.4331 53.9806 12.8862 53.5444 12.4215C53.1082 11.9569 52.5838 11.5837 52.0018 11.3238C51.4198 11.064 50.792 10.9226 50.1548 10.908ZM47.7188 18.6C47.0709 18.5288 46.477 18.2058 46.0651 17.7007C45.6531 17.1957 45.4562 16.5489 45.5168 15.9C45.464 15.2526 45.6637 14.61 46.0742 14.1067C46.4847 13.6033 47.0741 13.2784 47.7188 13.2V18.6ZM50.1668 18.6V13.2C50.8115 13.2784 51.4009 13.6033 51.8113 14.1067C52.2218 14.61 52.4216 15.2526 52.3688 15.9C52.4262 16.5483 52.2281 17.1933 51.8168 17.6977C51.4055 18.2021 50.8134 18.5259 50.1668 18.6ZM64.0148 17.754V14.532C64.0148 12.18 62.5208 10.71 60.0128 10.71C57.5048 10.71 56.0408 12.27 55.9208 13.896H58.3988C58.4828 13.548 58.8548 12.93 60.0068 12.93C60.2222 12.9022 60.4406 12.9249 60.6452 12.9963C60.8504 13.0677 61.0358 13.1857 61.187 13.3412C61.3382 13.4966 61.4516 13.6851 61.5176 13.8918C61.5836 14.0985 61.6004 14.3176 61.5668 14.532H59.1668C56.9948 14.532 55.7048 15.678 55.7048 17.574C55.6879 18.0264 55.7661 18.4774 55.9345 18.8977C56.1029 19.318 56.3576 19.6982 56.6823 20.0138C57.0069 20.3294 57.3942 20.5733 57.8191 20.7298C58.244 20.8862 58.697 20.9517 59.1488 20.922C59.6588 20.9488 60.1676 20.8495 60.6302 20.6329C61.0928 20.4162 61.4948 20.089 61.8008 19.68C62 20.0169 62.2904 20.2903 62.639 20.4687C62.987 20.6472 63.3788 20.7232 63.7688 20.688H64.6148V18.48C64.2008 18.48 64.0148 18.282 64.0148 17.754ZM61.5668 17.154C61.577 17.3903 61.5368 17.6261 61.4486 17.8458C61.361 18.0654 61.2278 18.264 61.058 18.4284C60.8876 18.5928 60.6848 18.7193 60.4622 18.7996C60.2396 18.8798 60.0026 18.912 59.7668 18.894C58.8848 18.894 58.1888 18.576 58.1888 17.622C58.1888 16.668 58.9628 16.53 59.6168 16.53H61.5668V17.154ZM38.5448 14.034H36.7868V11.13H34.3388V20.688H38.5868C41.2448 20.688 42.1868 18.96 42.1868 17.328C42.1988 15.222 40.8788 14.034 38.5448 14.034ZM38.3648 18.6H36.7868V16.2H38.3648C39.2108 16.2 39.7208 16.584 39.7208 17.4C39.7208 18.216 39.2348 18.6 38.3648 18.6ZM88.4528 17.754V14.532C88.4528 12.18 86.9588 10.71 84.4508 10.71C81.9428 10.71 80.4788 12.27 80.3588 13.896H82.8368C82.9208 13.548 83.2928 12.93 84.4448 12.93C84.6602 12.9022 84.8786 12.9249 85.0832 12.9963C85.2884 13.0677 85.4738 13.1857 85.625 13.3412C85.7762 13.4966 85.8896 13.6851 85.9556 13.8918C86.0216 14.0985 86.0384 14.3176 86.0048 14.532H83.6048C81.4328 14.532 80.1428 15.678 80.1428 17.574C80.126 18.0264 80.204 18.4774 80.3726 18.8977C80.5406 19.318 80.7956 19.6982 81.1202 20.0138C81.4448 20.3294 81.8324 20.5733 82.2572 20.7298C82.682 20.8862 83.135 20.9517 83.5868 20.922C84.1016 20.9538 84.6164 20.857 85.085 20.6402C85.553 20.4234 85.9598 20.0934 86.2688 19.68C86.465 20.011 86.75 20.2807 87.0914 20.4588C87.4328 20.6368 87.8168 20.7162 88.2008 20.688H89.0468V18.48C88.6208 18.48 88.4528 18.282 88.4528 17.754ZM86.0168 17.154C86.0258 17.3901 85.985 17.6254 85.8968 17.8446C85.8086 18.0639 85.6754 18.262 85.5056 18.4263C85.3358 18.5904 85.133 18.717 84.911 18.7976C84.689 18.8782 84.4526 18.911 84.2168 18.894C83.3348 18.894 82.6388 18.576 82.6388 17.622C82.6388 16.668 83.4128 16.53 84.0668 16.53H86.0168V17.154ZM96.2708 14.688H92.8928V11.13H90.4448V20.694H92.8928V16.926H96.2708V20.688H98.7188V11.13H96.2708V14.688Z" fill="#EF3124"/>
</svg>
