<svg viewBox="0 0 120 30" fill="none" xmlns="http://www.w3.org/2000/svg">
<path d="M56.0576 7.33801C55.7336 7.51801 54.8156 8.04001 54.7076 8.09401V23.304H56.0576V21.72L56.3096 22.044C56.6785 22.5231 57.1531 22.9105 57.6964 23.1759C58.2397 23.4413 58.837 23.5776 59.4416 23.574C62.0156 23.574 63.6416 21.126 63.6416 17.364C63.6416 13.602 62.2016 11.55 59.6636 11.55C59.0179 11.563 58.3829 11.7176 57.8034 12.0027C57.2239 12.2877 56.714 12.6965 56.3096 13.2L56.0576 13.47V7.33801ZM89.3756 7.33801C89.0516 7.51801 88.1336 8.04001 88.0256 8.09401V23.304H89.3996V20.01L91.5776 16.968C91.5776 16.968 94.4936 23.16 94.5776 23.322H95.9996C95.8016 22.926 92.3996 15.852 92.3996 15.852C92.3996 15.852 95.0096 12.252 95.3156 11.82H93.8396C93.4076 12.42 90.1136 17.256 90.1136 17.22L89.3996 18.39V7.33801H89.3756ZM44.3756 8.14801L41.9996 9.39001V11.748H40.0196V13.926H42.0356V20.46C42.0356 22.26 43.0796 23.46 44.6636 23.46C45.3952 23.4889 46.1197 23.3078 46.7516 22.938L47.3516 20.724L47.2256 20.814C46.7025 21.1696 46.093 21.3769 45.4616 21.414C44.6876 21.414 44.3636 21.018 44.3636 20.118V13.926H46.7636V11.73H44.3636L44.3756 8.14801ZM30.0656 11.55C28.5204 11.5171 27.0199 12.0702 25.8656 13.098C25.2563 13.66 24.7746 14.346 24.4527 15.1098C24.1308 15.8736 23.9763 16.6975 23.9996 17.526C23.9711 18.3519 24.1166 19.1745 24.4267 19.9405C24.7368 20.7064 25.2046 21.3986 25.7996 21.972C26.957 22.9947 28.4553 23.547 29.9996 23.52C30.793 23.5426 31.5808 23.3809 32.3011 23.0478C33.0216 22.7146 33.6549 22.2191 34.1516 21.6L34.1996 21.54L32.8496 19.902V19.956C32.4862 20.3528 32.0466 20.6721 31.5568 20.8948C31.0671 21.1174 30.5374 21.239 29.9996 21.252C29.5136 21.261 29.031 21.1697 28.5819 20.9839C28.1327 20.7982 27.7266 20.5219 27.3888 20.1724C27.0511 19.8228 26.789 19.4074 26.6188 18.9522C26.4486 18.4969 26.374 18.0114 26.3996 17.526C26.3722 17.0402 26.4456 16.554 26.6151 16.0979C26.7846 15.6418 27.0467 15.2257 27.3848 14.8758C27.7229 14.5258 28.1297 14.2496 28.5797 14.0645C29.0297 13.8793 29.5131 13.7893 29.9996 13.8C30.5317 13.8107 31.0559 13.9313 31.5391 14.1543C32.0224 14.3774 32.4543 14.698 32.8076 15.096L32.8436 15.168L34.1996 13.548L34.1636 13.512C33.6786 12.8905 33.0562 12.3899 32.3452 12.0495C31.6341 11.709 30.8538 11.5381 30.0656 11.55ZM69.9356 11.55C68.654 11.5392 67.3892 11.8354 66.2456 12.414L66.7316 13.512C67.6622 12.9573 68.726 12.6649 69.8096 12.666C71.5736 12.666 72.4736 13.584 72.4736 15.42V17.076L72.2396 16.95C71.3762 16.5106 70.4186 16.2882 69.4496 16.302C67.3796 16.302 65.1656 17.256 65.1656 19.902C65.1656 23.178 67.6316 23.538 68.7116 23.538C69.3824 23.5368 70.0448 23.3877 70.6514 23.1015C71.258 22.8153 71.7938 22.3989 72.2216 21.882L72.4736 21.612V23.286H73.7996V15.24C73.7996 12.756 72.5396 11.55 69.9116 11.55H69.9356ZM81.3356 11.55C80.7206 11.5372 80.1128 11.682 79.5698 11.9709C79.0268 12.2598 78.5666 12.6829 78.2336 13.2L77.9636 13.596V11.796H76.6136V23.304H77.9636V16.554C77.9636 14.154 79.0796 12.72 80.9636 12.72C82.8476 12.72 83.8436 13.92 83.8436 16.554V23.304H85.1996V16.248C85.1996 13.17 83.8676 11.55 81.3116 11.55H81.3356ZM35.5976 11.73V23.304H37.9556V11.73H35.5736H35.5976ZM49.1876 11.73V23.304H51.5876V11.73H49.1876ZM59.2616 12.72C61.2236 12.72 62.3396 14.43 62.3396 17.4C62.3396 20.712 61.3316 22.404 59.3396 22.404C58.686 22.3965 58.0448 22.2244 57.4753 21.9034C56.9059 21.5826 56.4265 21.1233 56.0816 20.568V14.484C56.4303 13.9582 56.8999 13.5237 57.4511 13.2168C58.0023 12.9099 58.619 12.7395 59.2496 12.72H59.2616ZM69.3416 17.346C70.397 17.2725 71.4518 17.4993 72.3836 18L72.4736 18.036V20.592C72.0938 21.1659 71.5778 21.6367 70.9712 21.9624C70.3652 22.288 69.6878 22.4583 68.9996 22.458C67.3796 22.458 66.4796 21.504 66.4796 19.794C66.4796 18.264 67.5596 17.346 69.3416 17.346Z" fill="#020168"/>
<path d="M52.9262 9.69577C51.866 8.18311 50.4569 6.94819 48.8182 6.09559C47.1795 5.24299 45.3594 4.79785 43.5122 4.79785C41.665 4.79785 39.845 5.24299 38.2063 6.09559C36.5676 6.94819 35.1584 8.18311 34.0982 9.69577L33.9902 9.85777H36.7082L36.7442 9.82177C37.6135 8.89561 38.6632 8.15743 39.8288 7.65283C40.9944 7.14823 42.2511 6.88783 43.5212 6.88783C44.7914 6.88783 46.0481 7.14823 47.2136 7.65283C48.3793 8.15743 49.4291 8.89561 50.2982 9.82177L50.3342 9.85777H53.0522L52.9262 9.69577Z" fill="#FF0100"/>
</svg>
