<svg viewBox="0 0 120 30" fill="none" xmlns="http://www.w3.org/2000/svg">
<path d="M101.998 10.2326H104.015L104.005 13.4898H104.442L105.591 10.2326H107.774L106.208 14.5387L108 19.3066H105.636L104.472 15.6579H103.995L104.005 19.3066H101.987V10.2326H101.998ZM95.1972 10.2326H97.2048V13.5049H98.64V10.2326H100.642V19.3066H98.64V15.668H97.2048V19.3066H95.1972V10.2326ZM88.206 19.3217H90.2934L90.5448 17.7508H91.98L92.2308 19.3217H94.3188L92.562 10.2477H89.9724L88.206 19.3217ZM91.2672 12.9979L91.6488 15.7583H90.876L91.2672 12.9979ZM82.605 19.3066H85.0488C85.581 19.3066 87.8046 19.0758 87.8142 16.3254C87.8142 14.0168 86.0928 13.6153 84.9786 13.6153H84.6126V12.4108H87.3324V10.2326H82.6098L82.605 19.3066ZM84.6072 17.4848V15.4321H84.9036C85.1544 15.4321 85.7916 15.4421 85.7916 16.3806C85.7916 17.3292 85.1496 17.4848 84.9036 17.4848H84.6072ZM74.64 10.2326H76.3866L77.9274 12.3756L79.4832 10.2326H81.2148V19.3066H79.1622V13.7759L77.9274 15.3568L76.6926 13.7759V19.3066H74.64V10.2326ZM70.3992 19.417C72.8334 19.417 73.6512 17.0782 73.6512 14.7595C73.6512 12.4408 72.8334 10.1021 70.3992 10.1021C67.965 10.1021 67.1466 12.4359 67.1466 14.7595C67.1466 17.0833 67.9698 19.417 70.3992 19.417ZM70.3992 17.2138C69.6762 17.2138 69.3048 16.3506 69.3048 14.7595C69.3048 13.1686 69.6714 12.3003 70.3992 12.3003C71.127 12.3003 71.4882 13.1636 71.4882 14.7595C71.4882 16.3555 71.127 17.2188 70.3992 17.2138ZM61.2048 19.3066H63.2574V16.3154H63.945C65.9724 16.3154 66.6048 14.4434 66.6048 13.2489C66.6048 12.0846 65.8824 10.2326 63.945 10.2326H61.2048V19.3066ZM63.2574 12.2301H63.744C64.206 12.2301 64.5018 12.5212 64.5018 13.274C64.5018 14.2476 64.0002 14.3179 63.744 14.3179H63.2574V12.2301ZM54.4241 10.2326H60.0252V19.3066H57.9725V12.4258H56.4769V19.3066H54.4241V10.2326ZM50.2133 13.7508C50.5446 13.7508 51.1519 13.53 51.1519 12.8625C51.1519 12.0745 50.4542 12.0243 50.2485 12.0243C50.0126 12.0243 49.5609 12.0645 49.1192 12.2803L49.0942 10.3079C49.7918 10.1272 50.2937 10.077 50.8859 10.077C52.5722 10.077 53.32 11.2815 53.32 12.4609C53.32 13.6053 52.6776 14.2978 52.0502 14.5638V14.6491C52.6575 14.8449 53.4605 15.4421 53.4605 16.8273C53.4605 18.5437 52.2962 19.4923 50.8006 19.4923C50.0076 19.4823 49.4806 19.3719 48.8533 19.0206L48.8884 17.1334C49.4706 17.3894 49.862 17.4145 50.2535 17.4145C50.916 17.4145 51.1769 16.9126 51.1769 16.5513C51.1769 16.0393 50.8558 15.6981 50.1581 15.6981H49.325V13.7508H50.2133ZM42.1431 19.3066H44.2209L44.4818 17.7357H45.9172L46.1682 19.3066H48.246L46.4894 10.2326H43.9047C43.8997 10.2326 42.1431 19.3066 42.1431 19.3066ZM45.1895 12.9729L45.581 15.7432H44.798L45.1895 12.9729ZM38.1682 10.2326H42.379V12.4961H40.256V19.3066H38.1682V10.2326ZM12.5219 14.875C12.5219 20.4559 16.9636 25.003 22.4241 25.003C27.8745 25.003 32.3111 20.4559 32.3111 14.875C32.3111 9.28399 27.8745 4.73696 22.4241 4.73696C16.9586 4.73195 12.5219 9.27901 12.5219 14.875ZM12 14.875C12 8.98789 16.6725 4.19995 22.4241 4.19995C28.1606 4.19995 32.8331 8.98291 32.8331 14.875C32.8331 20.752 28.1606 25.5349 22.4241 25.5349C16.6725 25.5349 12 20.752 12 14.875Z" fill="#0D356C"/>
<path d="M19.3127 8.13462C18.9513 8.29524 18.6101 8.496 18.2939 8.72688C20.7732 7.59762 23.7995 7.66788 25.4256 8.41068C25.9376 8.65158 26.2788 8.80212 26.4344 9.09324C24.7481 8.63148 24.0254 8.54616 22.6151 8.58132C20.6076 8.61642 17.9376 9.42948 16.9187 10.0518L16.467 10.629C17.9376 9.74064 20.6778 9.15846 22.1985 9.1083C23.8949 9.08322 25.2149 9.24378 26.4244 9.69048C26.3541 10.0067 26.1986 10.1623 25.9376 10.3228C21.0944 9.4596 18.2337 10.4784 15.649 12.2049L15.4583 12.7771C18.3441 10.7494 21.8774 10.1873 25.2851 10.7946C24.0656 11.2312 22.605 11.3316 21.3805 11.6177C20.3366 11.8636 19.7795 11.9339 18.3893 12.4106C16.979 12.8824 16.1459 13.3693 15.6239 13.9916C15.3729 14.2827 15.1823 14.624 15.1371 14.9903C15.117 15.2062 15.127 15.4069 15.1973 15.5976C15.2525 15.7682 15.388 15.9389 15.5285 16.1095C15.3629 16.4006 15.2174 16.777 15.4583 17.2187C15.5637 17.4245 15.8397 17.6302 16.1007 17.826L16.0254 18.0418C15.9903 18.2977 15.9551 18.6039 16.1208 18.8548C16.4018 19.3166 16.7481 19.6227 17.2952 19.9138C17.3805 20.2902 17.5059 20.5964 17.792 20.8624C18.3993 21.4345 19.7493 22.5286 22.1584 22.6993C23.9652 22.8197 25.255 22.2626 25.7418 22.0167L26.334 21.7005C25.3253 22.112 23.6289 22.358 22.2387 22.2325C20.2211 22.0619 18.4194 20.7118 18.1935 20.3203C18.2638 20.3705 18.3591 20.4056 18.4394 20.4408C20.8033 21.6101 23.8497 22.2425 27.7594 20.6114L28.0806 20.2952C24.5273 21.4244 21.4206 21.3893 18.0831 19.6027C18.1182 19.432 18.1935 19.2814 18.3441 19.166C19.1973 19.5524 20.0204 19.8737 21.0141 20.0744C22.1784 20.2952 23.5085 20.3454 24.5975 20.2952C25.7017 20.245 27.8849 19.688 28.9187 19.1258C29.0141 19.0405 29.0592 18.895 29.1546 18.7996C27.1371 19.5524 24.738 19.9037 23.2926 19.7933C21.8774 19.6829 20.6226 19.5123 18.9614 18.7344C19.2826 18.6039 19.6139 18.4935 19.9451 18.3931C21.0392 18.7344 22.1534 18.9401 23.4683 19.0004C24.7732 19.0606 27.8246 18.5638 29.7468 17.3743C29.8071 17.2036 29.8673 17.0179 29.8673 17.0179C29.8673 17.0179 27.1973 18.4784 24.1709 18.4784C22.7556 18.4784 21.8924 18.2726 21.25 18.112C22.6753 17.846 24.467 17.6252 26.4846 17.1032C27.5034 16.8373 28.7631 16.225 29.3353 15.7181C29.8221 15.2664 30.2036 14.6842 30.0731 14.087C30.048 13.9264 29.8372 13.5499 29.5712 13.4195C29.8221 13.0932 29.7971 12.8122 29.7619 12.5713C29.7368 12.3856 29.6515 12.1798 29.5511 11.9991C29.3855 11.7783 29.2299 11.6077 28.9087 11.4119C28.9589 11.156 28.9238 10.895 28.8134 10.6591C28.5624 10.2224 28.1157 9.84606 27.3428 9.44454C27.3077 9.28392 27.2123 9.07818 27.0467 8.87238C26.0731 7.88874 24.4821 7.41192 23.1421 7.38684H22.9212C21.3554 7.4019 20.0957 7.76322 19.3127 8.13462ZM26.9112 10.5688C27.0317 10.4333 27.2073 10.2275 27.2525 10.0568C27.5888 10.2777 27.9651 10.6039 28.0103 10.9452C27.659 10.8097 27.2776 10.6641 26.9112 10.5688ZM27.2073 12.0493C26.6402 11.8887 26.1383 11.698 25.4759 11.5775C25.8824 11.4169 26.1534 11.2513 26.3892 11.0556C26.9213 11.2012 27.4181 11.3818 27.8246 11.5675C27.7544 11.6729 27.3479 12.0593 27.2224 12.0593C27.2174 12.0544 27.2123 12.0544 27.2073 12.0493ZM28.2412 12.4759C28.3968 12.3554 28.5373 12.22 28.6678 12.0644C28.989 12.3454 29.0844 12.5362 28.9288 12.8423C28.713 12.6817 28.4871 12.5963 28.2412 12.4759ZM16.0505 15.4922C15.1722 14.2526 18.2186 13.3642 18.8008 13.1836C20.2814 12.7319 22.0179 12.3956 23.5838 12.1999C24.6628 12.0644 25.2349 12.1898 26.2538 12.4659C23.6289 13.1836 21.0392 13.4144 18.575 14.1572C16.5875 14.7444 16.0605 15.4922 16.0505 15.4922ZM16.703 16.0895C17.6314 15.2864 19.5185 14.8348 20.2061 14.6792C22.3993 14.1923 24.4419 13.8862 25.2851 13.6704C26.3039 13.4144 27.0166 13.1735 27.5135 12.9276C27.5385 12.8925 28.3466 13.294 28.4269 13.3894C28.1559 13.6202 27.7745 13.816 27.3579 13.9615C26.1132 14.4232 23.8447 14.9101 22.6452 15.0958C21.4357 15.3015 20.4219 15.4571 19.0869 15.8234C18.314 16.0343 17.792 16.2752 17.4106 16.5311C17.1296 16.3555 16.9639 16.3053 16.703 16.0895ZM18.4244 17.0631C18.8159 16.8925 19.2425 16.757 19.654 16.6516C21.7418 16.1246 23.5838 16.0292 26.1233 15.3266C27.3428 14.9954 28.2362 14.644 28.7933 14.2074C28.8736 14.1321 28.9589 14.0719 29.0442 14.0017C29.782 15.171 27.0166 16.0694 25.1245 16.486C24.1358 16.6867 23.1471 16.8774 22.1584 17.0581C20.9238 17.2639 20.5223 17.3743 19.664 17.6302C19.2425 17.4496 18.8159 17.2689 18.4244 17.0631ZM16.2011 16.6967C16.3917 16.8222 16.5323 16.9175 16.7582 17.038C16.6728 17.1133 16.5674 17.1836 16.4871 17.2689C16.3014 17.1585 16.1107 16.9175 16.2011 16.6967ZM17.1897 17.8159C17.3102 17.7055 17.4608 17.6001 17.6264 17.4897C17.9828 17.6603 18.3491 17.8159 18.6954 17.9765C18.4646 18.0619 18.2437 18.1723 18.0329 18.3078C17.7468 18.1421 17.4658 17.9816 17.1897 17.8159ZM16.8786 18.4082C17.0793 18.5437 17.2801 18.6541 17.4858 18.7595C17.4005 18.8799 17.3403 18.9753 17.3102 19.1008C17.0091 18.8498 16.8686 18.644 16.8786 18.4082Z" fill="#0D356C"/>
</svg>
