<svg viewBox="0 0 120 30" fill="none" xmlns="http://www.w3.org/2000/svg">
<path d="M15 16.5181C15 19.3501 16.59 22.2001 20.142 22.2001C23.694 22.2001 25.284 19.3501 25.284 16.5181C25.284 14.5861 24.63 12.36 23.544 10.566C22.488 8.83205 21.216 7.80005 20.142 7.80005C19.068 7.80005 17.796 8.83205 16.746 10.566C15.654 12.366 15 14.5861 15 16.5181ZM51.516 12.042H47.916V8.57405H58.974V12.048H55.374V21.4321H51.516V12.042ZM67.2 12.042H72.858V8.57405H67.2C62.004 8.57405 59.226 11.16 59.226 15C59.226 18.8461 62.004 21.4261 67.2 21.4261H72.858V17.9521H67.2C64.794 17.9521 63.21 17.0941 63.21 14.994C63.21 12.9 64.794 12.042 67.2 12.042ZM38.01 16.248L40.068 8.57405H46.884V21.4321H43.026V10.962L40.224 21.4261H35.802L33 10.968V21.4261H29.142V8.57405H35.958L38.01 16.248ZM82.464 12.3H81.102V13.5601H82.464C82.806 13.5601 83.016 13.38 83.016 13.056V12.8221C83.01 12.4861 82.836 12.3 82.464 12.3ZM82.806 15H79.284V8.57405H84.462V10.11H81.096V10.95H82.8C84.228 10.95 84.918 11.658 84.918 12.906C84.924 14.22 84.234 15 82.806 15ZM89.112 12.372H87.678L88.398 9.99605L89.112 12.372ZM91.872 15L89.886 8.57405H87.186L85.2 15H86.898L87.264 13.7701H89.538L89.91 15H91.872ZM96.462 15V12.51H94.386V15H92.526V8.57405H94.386V10.932H96.462V8.57405H98.328V15H96.462ZM101.634 10.926H101.31V8.57405H99.45V15H101.31V12.51H101.58L103.302 15H105.456L103.128 11.634L105.27 8.56805H103.302L101.634 10.926Z" fill="#E30600"/>
</svg>
