<svg viewBox="0 0 120 30" fill="none" xmlns="http://www.w3.org/2000/svg">
<path d="M30 0H59.4V29.4H30V0Z" fill="#15008F"/>
<path d="M61.2842 0H90.6842V29.4H61.2842V0Z" fill="#DD002E"/>
<path d="M38.9521 9.49796C39.3077 10.1759 39.8433 10.7427 40.5001 11.136C40.6406 11.2242 40.7442 11.3605 40.7916 11.5194C40.8391 11.6784 40.8272 11.8491 40.7581 12C40.5901 12.426 40.2601 13.044 40.4221 13.302C40.6401 13.4587 40.8968 13.5527 41.1644 13.5738C41.432 13.595 41.7002 13.5424 41.9401 13.422C42.0401 13.6401 42.1523 13.8524 42.2761 14.058C42.2204 14.1207 42.1456 14.1636 42.0633 14.1798C41.9809 14.196 41.8955 14.1849 41.8201 14.148C41.8967 14.2149 41.9441 14.3091 41.9522 14.4105C41.9603 14.5119 41.9285 14.6124 41.8635 14.6907C41.7986 14.769 41.7056 14.8188 41.6045 14.8294C41.5033 14.8401 41.402 14.8109 41.3221 14.748C41.266 14.7047 41.2244 14.6453 41.203 14.5777C41.1815 14.5102 41.1812 14.4377 41.2021 14.37C41.0928 14.5401 40.9335 14.6721 40.7461 14.748C40.646 14.6727 40.5719 14.5681 40.5342 14.4487C40.4966 14.3292 40.4972 14.201 40.5361 14.082C40.453 14.2286 40.3372 14.3541 40.1978 14.4487C40.0584 14.5434 39.899 14.6047 39.7321 14.628C39.6298 14.476 39.5829 14.2935 39.5993 14.111C39.6157 13.9285 39.6944 13.7573 39.8221 13.626C39.6974 13.7191 39.5509 13.779 39.3966 13.8C39.2423 13.821 39.0852 13.8024 38.9401 13.746C38.9401 13.746 38.8501 13.458 39.3661 13.032C39.1964 13.0259 39.0309 12.9771 38.8851 12.8901C38.7393 12.803 38.6179 12.6805 38.5321 12.534C38.6535 12.4327 38.7945 12.3576 38.9463 12.3132C39.098 12.2688 39.2573 12.2562 39.4141 12.276C39.2333 12.2193 39.0714 12.1146 38.9456 11.973C38.8199 11.8313 38.735 11.6581 38.7001 11.472C38.8715 11.3947 39.0617 11.3694 39.2473 11.3992C39.4329 11.4291 39.6056 11.5128 39.7441 11.64C39.6345 11.4842 39.5077 11.3413 39.3661 11.214C39.1608 10.9819 39.0162 10.7027 38.945 10.4012C38.8738 10.0997 38.8783 9.7853 38.9581 9.48596L38.9521 9.49796ZM41.3101 16.374C41.2176 16.2777 41.1461 16.1632 41.1001 16.038C41.1901 16.872 41.2201 17.418 41.7001 17.964C41.8772 17.5888 41.9093 17.1613 41.7901 16.764C41.7071 16.7178 41.6209 16.6777 41.5321 16.644C41.5934 16.8768 41.6097 17.1191 41.5801 17.358C41.4446 17.0492 41.3576 16.7213 41.3221 16.386L41.3101 16.374ZM40.5661 16.296C40.4736 16.1997 40.4021 16.0852 40.3561 15.96C40.3081 16.458 40.1881 17.718 40.6141 18.102C40.6141 18.102 40.9021 17.892 40.9921 16.038C40.9021 16.128 40.8721 16.248 40.7821 16.326C40.8251 16.6647 40.7839 17.0089 40.6621 17.328C40.6621 17.328 40.4521 17.22 40.5721 16.296H40.5661ZM39.5581 17.268C39.9361 16.842 40.0141 15.552 40.0141 15.552L40.1821 15.432L40.2301 15.384V15.504C40.2294 16.1761 40.1159 16.8434 39.8941 17.478C39.7231 17.7282 39.4947 17.9339 39.2281 18.078C38.8021 17.364 39.3181 16.392 39.7261 15.678L39.8941 15.588C39.7261 16.188 39.4381 16.788 39.5581 17.274V17.268ZM38.5561 15.042C38.5498 15.1021 38.567 15.1623 38.6041 15.21V15.258C38.2022 15.6759 37.8368 16.1275 37.5121 16.608C37.3584 16.8127 37.1627 16.9824 36.9381 17.1055C36.7136 17.2286 36.4654 17.3024 36.2101 17.322C36.2642 16.7578 36.4976 16.2258 36.8761 15.804C37.2887 15.3525 37.7517 14.9499 38.2561 14.604C38.3892 14.6656 38.5386 14.6824 38.6821 14.652H38.7301C38.6741 14.7077 38.6418 14.7829 38.6401 14.862C38.0002 15.1556 37.4526 15.6182 37.0561 16.2C36.9781 16.26 37.5541 16.092 38.5261 15.048L38.5561 15.042ZM37.8901 14.382L37.9381 14.334L37.9861 14.286C37.6501 14.406 36.4681 14.886 36.0901 15.042C35.7958 15.2055 35.5377 15.4269 35.3315 15.693C35.1252 15.9591 34.9751 16.2642 34.8901 16.59C35.1464 16.6119 35.4046 16.5829 35.6496 16.5046C35.8947 16.4264 36.1219 16.3004 36.3181 16.134C36.9841 15.588 37.7461 14.832 38.0341 14.586L37.9441 14.496C37.3914 14.9459 36.7871 15.3286 36.1441 15.636C36.2847 15.3749 36.4917 15.1555 36.7441 15C37.1061 14.7316 37.5122 14.5286 37.9441 14.4L37.8901 14.382ZM37.2001 13.8L37.2481 13.71C36.8701 13.8 35.8981 13.92 35.4481 14.046C35.0888 14.1418 34.7534 14.3113 34.4632 14.5437C34.1729 14.7762 33.9342 15.0664 33.7621 15.396C33.7621 15.396 34.4281 15.606 35.7361 15.018C36.353 14.6934 36.9975 14.4244 37.6621 14.214C37.5117 14.214 37.3643 14.1724 37.2361 14.094C36.6429 14.3829 35.9987 14.5521 35.3401 14.592C35.5442 14.4448 35.7659 14.3238 36.0001 14.232C36.3775 14.0316 36.7816 13.8861 37.2001 13.8ZM37.2001 13.2C37.3201 13.2511 37.4479 13.2816 37.5781 13.29C37.4816 13.346 37.3946 13.4169 37.3201 13.5C36.4943 13.7073 35.6504 13.8339 34.8001 13.878C34.1566 13.9687 33.5013 13.9279 32.8741 13.758C33.3855 13.4659 33.9376 13.2516 34.5121 13.122C34.9681 13.032 36.2281 13.032 36.8161 12.954C36.8684 12.9989 36.9246 13.039 36.9841 13.074C36.3122 13.078 35.6455 13.1915 35.0101 13.41C35.7468 13.494 36.4928 13.4224 37.2001 13.2ZM37.1221 12.444C37.2051 12.3978 37.2913 12.3577 37.3801 12.324C36.4589 12.0055 35.5014 11.8039 34.5301 11.724C33.8418 11.6404 33.1445 11.6708 32.4661 11.814C33.0472 12.1957 33.688 12.4776 34.3621 12.648C35.1695 12.7763 35.9894 12.8065 36.8041 12.738C36.8506 12.6609 36.9071 12.5902 36.9721 12.528C36.1922 12.5235 35.4168 12.4104 34.6681 12.192C35.4958 12.1276 36.3284 12.2088 37.1281 12.432L37.1221 12.444ZM37.1281 11.688C37.2125 11.9436 37.3904 12.1579 37.6261 12.288C36.7021 11.91 34.9381 11.652 33.9721 11.286C32.6701 10.74 32.4541 10.086 32.4541 10.086C33.3824 10.0932 34.3038 10.2471 35.1841 10.542C36.0181 10.8 37.2481 11.256 37.7041 11.466C37.5243 11.4664 37.3494 11.5254 37.2061 11.634C36.7501 11.424 36.2341 11.298 35.7781 11.136C35.4418 11.0212 35.0894 10.9605 34.7341 10.956C35.0498 11.1453 35.3859 11.2983 35.7361 11.412C36.2041 11.532 36.6601 11.622 37.1341 11.718L37.1281 11.688ZM37.0861 10.746C37.1341 10.836 37.2061 10.956 37.2541 11.034C35.9072 10.7479 34.6887 10.0345 33.7801 8.99996C33.4796 8.49254 33.3611 7.89782 33.4441 7.31396C34.107 7.61462 34.7044 8.04272 35.2021 8.57396C35.7061 9.10886 36.254 9.60056 36.8401 10.044L37.0081 10.542C36.5521 10.164 35.9641 9.73796 35.6281 9.44996C35.2937 9.19076 34.9265 8.97692 34.5361 8.81396C34.7384 9.06968 34.9611 9.30848 35.2021 9.52796C35.5128 9.78482 35.8485 10.0099 36.2041 10.2C36.4707 10.4244 36.7728 10.6028 37.0981 10.728" fill="white"/>
<path d="M41.1363 14.7L41.2563 14.58C41.4243 14.79 41.5443 15.006 41.6823 15.216C41.7674 15.4636 41.8376 15.7161 41.8923 15.972C41.9373 16.223 42.0245 16.4644 42.1503 16.686C42.0377 16.6881 41.926 16.6662 41.8225 16.6218C41.7191 16.5773 41.6262 16.5113 41.5503 16.428C41.3503 16.1716 41.2201 15.8678 41.1723 15.546C41.0903 15.2696 41.0739 14.9779 41.1243 14.694L41.1363 14.7ZM40.5243 14.742L40.6443 14.862L40.6923 14.91H40.7403L40.8603 14.862C40.9152 14.9658 40.946 15.0807 40.9503 15.198C40.9956 15.4076 40.9956 15.6245 40.9503 15.834C40.8936 16.0199 40.7951 16.1902 40.6623 16.332C40.5405 16.198 40.443 16.0437 40.3743 15.876C40.2831 15.6468 40.2831 15.3913 40.3743 15.162C40.4343 14.982 40.4823 14.856 40.5243 14.736V14.742ZM39.7683 14.766C39.9637 14.7375 40.1502 14.6658 40.3143 14.556C40.3443 14.606 40.364 14.6615 40.3722 14.7192C40.3805 14.7769 40.3771 14.8356 40.3623 14.892C40.3053 15.0654 40.2064 15.222 40.0743 15.348C39.9538 15.4522 39.8138 15.5313 39.6623 15.5807C39.5109 15.6302 39.3511 15.649 39.1923 15.636C39.1323 15.666 39.0543 15.408 39.7923 14.772L39.7683 14.766ZM39.5043 14.316C39.5218 14.4558 39.5803 14.5874 39.6723 14.694C39.5687 14.8626 39.4199 14.9986 39.2427 15.0867C39.0656 15.1747 38.8673 15.2112 38.6703 15.192C38.6235 15.0732 38.6243 14.9409 38.6723 14.8225C38.7203 14.7041 38.812 14.6087 38.9283 14.556C39.1263 14.478 39.2943 14.388 39.5283 14.316" fill="white"/>
<path d="M39.6004 13.896C39.3908 13.9413 39.174 13.9413 38.9644 13.896H38.8744V13.8C38.5384 14.058 38.2084 14.088 38.0704 14.346C38.1373 14.4397 38.2286 14.5134 38.3343 14.5588C38.4401 14.6043 38.5563 14.62 38.6704 14.604C38.8503 14.589 39.0253 14.537 39.1843 14.4513C39.3432 14.3656 39.4829 14.2481 39.5944 14.106C39.5765 14.0739 39.5672 14.0377 39.5672 14.001C39.5672 13.9643 39.5765 13.9281 39.5944 13.896H39.6004ZM38.8804 13.518C38.9226 13.3909 38.9946 13.2757 39.0904 13.182C38.8143 13.1366 38.5325 13.1366 38.2564 13.182C38.0391 13.1803 37.827 13.2489 37.6518 13.3776C37.4767 13.5063 37.3478 13.6881 37.2844 13.896C37.4847 14.015 37.7212 14.0577 37.9504 14.016C38.1306 14.002 38.306 13.9505 38.4651 13.8648C38.6242 13.779 38.7636 13.6609 38.8744 13.518H38.8804ZM38.7064 12.918C38.613 12.8119 38.5269 12.6996 38.4484 12.582L38.4004 12.516C38.0887 12.3644 37.7322 12.3324 37.3984 12.426C37.1923 12.488 37.0155 12.6222 36.9004 12.804C37.1357 12.9822 37.4123 13.0978 37.7044 13.14C38.0511 13.1856 38.4031 13.116 38.7064 12.942V12.918ZM38.7964 12.258C38.8444 12.21 38.9164 12.21 39.0064 12.21C38.832 12.0373 38.7147 11.8154 38.6704 11.574C38.4487 11.626 38.2164 11.6092 38.0044 11.526C37.8868 11.4831 37.7607 11.4688 37.6365 11.4845C37.5123 11.5002 37.3937 11.5452 37.2904 11.616C37.3341 11.7577 37.417 11.8843 37.5296 11.9809C37.6421 12.0775 37.7797 12.1403 37.9264 12.162C38.0534 12.2434 38.1977 12.294 38.3477 12.3096C38.4977 12.3252 38.6493 12.3055 38.7904 12.252L38.7964 12.258ZM38.6044 11.4L38.6944 11.352C38.7982 11.2971 38.913 11.2663 39.0304 11.262C38.7549 11.0254 38.4599 10.8126 38.1484 10.626C37.7925 10.4196 37.4085 10.266 37.0084 10.17C37.1213 10.5139 37.3076 10.8292 37.5544 11.094C37.6791 11.242 37.8446 11.35 38.0303 11.4044C38.216 11.4588 38.4136 11.4573 38.5984 11.4H38.6044ZM39.1444 11.112C39.0056 10.9111 38.9078 10.6848 38.8564 10.446C38.7664 10.158 38.6884 9.81002 38.5684 9.52202C38.3592 9.13952 38.0113 8.85182 37.5964 8.71802C37.5038 9.12038 37.546 9.542 37.7164 9.91802C38.0871 10.4288 38.5774 10.8408 39.1444 11.118V11.112ZM42.4204 14.118C42.4952 14.1897 42.5826 14.2467 42.6784 14.286C42.7343 14.4144 42.7592 14.554 42.7508 14.6938C42.7425 14.8335 42.7012 14.9693 42.6304 15.09C42.4266 15.4524 42.2597 15.8343 42.1324 16.23C42.1324 16.23 42.0124 16.23 41.8744 15.516C41.8323 15.251 41.7158 15.0034 41.5384 14.802C41.6163 14.8515 41.7046 14.8822 41.7964 14.892H41.8864L41.9344 14.802C42.0088 14.6731 42.0403 14.524 42.0244 14.376V14.256C42.0967 14.271 42.1718 14.2661 42.2415 14.2418C42.3112 14.2175 42.3731 14.1747 42.4204 14.118Z" fill="white"/>
<path d="M37.4339 9.00002V9.37802C37.0979 8.95202 36.6779 8.40602 36.2339 7.90802C36.027 7.63226 35.7755 7.39298 35.4899 7.20002C35.6596 7.72856 35.9635 8.204 36.3719 8.58002C36.6983 8.91158 37.0471 9.22034 37.4159 9.50402L37.4639 9.62403C37.5119 9.74403 37.5539 9.88202 37.5839 9.96002C37.6745 10.1266 37.7876 10.2801 37.9199 10.416C37.7999 10.368 37.6619 10.296 37.5419 10.248H37.4339C36.3815 9.65132 35.5106 8.78042 34.9139 7.72802C34.6178 6.9968 34.5776 6.18698 34.7999 5.43002C35.3447 5.92418 35.8373 6.47306 36.2699 7.06802C36.7124 7.67756 37.1018 8.32388 37.4339 9.00002ZM52.2539 12.444C52.1709 12.3979 52.0847 12.3577 51.9959 12.324C52.917 12.0055 53.8745 11.804 54.8459 11.724C55.5341 11.6404 56.2315 11.6709 56.9098 11.814C56.3287 12.1958 55.688 12.4777 55.0139 12.648C54.2064 12.7764 53.3865 12.8066 52.5719 12.738C52.5254 12.6609 52.4689 12.5903 52.4039 12.528C53.1837 12.5235 53.9592 12.4104 54.7079 12.192C53.8802 12.1276 53.0475 12.2089 52.2479 12.432L52.2539 12.444ZM52.2479 11.688C52.1634 11.9436 51.9855 12.1579 51.7499 12.288C52.6739 11.91 54.4378 11.652 55.4038 11.286C56.7058 10.74 56.9219 10.086 56.9219 10.086C55.9935 10.0932 55.0721 10.2471 54.1919 10.542C53.3579 10.8 52.1279 11.256 51.6719 11.466C51.8517 11.4664 52.0265 11.5254 52.1699 11.634C52.6259 11.424 53.1419 11.298 53.5979 11.136C53.9366 11.0326 54.2878 10.9761 54.6418 10.968C54.3261 11.1573 53.99 11.3103 53.6399 11.424C53.1719 11.532 52.7159 11.622 52.2419 11.712L52.2479 11.688ZM52.3319 10.74C52.2839 10.83 52.2119 10.95 52.1639 11.028C53.5208 10.7497 54.7505 10.038 55.6679 9.00002C55.9684 8.4926 56.0869 7.89788 56.0038 7.31402C55.3409 7.61468 54.7436 8.04278 54.2459 8.57402C53.7455 9.11264 53.1972 9.60464 52.6079 10.044L52.4399 10.542C52.8959 10.164 53.4839 9.73802 53.8199 9.45002C54.1542 9.19082 54.5214 8.97698 54.9118 8.81402C54.7096 9.06974 54.4869 9.30848 54.2459 9.52802C53.9332 9.78518 53.5955 10.0103 53.2379 10.2C52.9572 10.4038 52.6578 10.5805 52.3439 10.728L52.3319 10.74ZM51.9659 9.00002V9.37802C52.3019 8.95202 52.7219 8.40602 53.1659 7.90802C53.3727 7.63226 53.6242 7.39298 53.9098 7.20002C53.7401 7.72856 53.4362 8.204 53.0279 8.58002C52.7015 8.91158 52.3526 9.22034 51.9839 9.50402L51.9359 9.62403C51.8879 9.74403 51.8459 9.88202 51.8159 9.96002C51.7252 10.1266 51.6122 10.2801 51.4799 10.416C51.5999 10.368 51.7379 10.296 51.8579 10.248L51.9778 10.2C53.0303 9.60332 53.9012 8.73242 54.4979 7.68002C54.7858 6.95282 54.8217 6.15002 54.5998 5.40002C54.055 5.89418 53.5624 6.44306 53.1299 7.03802C52.6771 7.65188 52.2757 8.3021 51.9299 8.98202L51.9659 9.00002ZM38.7299 15.366C38.3039 15.792 37.3799 16.794 37.4699 17.838C37.9563 17.6845 38.3782 17.3745 38.6699 16.956C38.8802 16.5402 39.1187 16.1392 39.3839 15.756H39.0059C38.762 16.2524 38.4042 16.6842 37.9619 17.016C37.9619 17.016 37.8719 16.518 39.0059 15.426C39.0059 15.378 39.0539 15.336 39.0959 15.306C38.9735 15.3433 38.8457 15.3596 38.7179 15.354L38.7299 15.366ZM50.4299 9.48602C50.0742 10.164 49.5386 10.7307 48.8819 11.124C48.7497 11.2224 48.6575 11.3652 48.6222 11.5261C48.587 11.6871 48.611 11.8554 48.6899 12C48.8579 12.426 49.1879 13.044 49.0259 13.302C48.8639 13.56 48.0539 13.68 47.4359 13.422C47.3358 13.6401 47.2236 13.8525 47.0999 14.058C47.1556 14.1208 47.2304 14.1636 47.3127 14.1798C47.3951 14.1961 47.4804 14.1849 47.5559 14.148C47.5186 14.2514 47.5036 14.3616 47.5119 14.4712C47.5202 14.5807 47.5515 14.6874 47.6039 14.784C47.7284 14.7597 47.8463 14.7091 47.9497 14.6356C48.0532 14.5621 48.1398 14.4675 48.2039 14.358C48.3131 14.5281 48.4724 14.6602 48.6599 14.736C48.76 14.6608 48.8341 14.5561 48.8717 14.4367C48.9094 14.3173 48.9087 14.1891 48.8699 14.07C48.953 14.2166 49.0688 14.3421 49.2081 14.4368C49.3476 14.5315 49.5069 14.5928 49.6739 14.616C49.7762 14.464 49.823 14.2815 49.8066 14.0991C49.7903 13.9166 49.7116 13.7454 49.5839 13.614C49.7086 13.7072 49.8551 13.7671 50.0093 13.7881C50.1636 13.8091 50.3207 13.7905 50.4659 13.734C50.4659 13.734 50.5559 13.446 50.0399 13.02C50.2095 13.014 50.375 12.9652 50.5208 12.8781C50.6666 12.7911 50.7881 12.6685 50.8739 12.522C50.7524 12.4208 50.6114 12.3457 50.4597 12.3013C50.3079 12.2569 50.1487 12.2442 49.9919 12.264C50.171 12.2128 50.3304 12.1086 50.4493 11.9651C50.5682 11.8216 50.6408 11.6455 50.6579 11.46C50.4865 11.3827 50.2962 11.3575 50.1107 11.3873C49.9251 11.4172 49.7523 11.5009 49.6139 11.628C49.7234 11.4723 49.8503 11.3293 49.9919 11.202C50.2164 10.9807 50.3814 10.7064 50.4717 10.4043C50.5619 10.1022 50.5743 9.78218 50.5079 9.47402L50.4299 9.48602ZM48.1079 16.362C48.1938 16.2609 48.2646 16.1476 48.3179 16.026C48.2279 16.86 48.1979 17.406 47.7179 17.952C47.5407 17.5768 47.5086 17.1494 47.6279 16.752C47.7108 16.7059 47.7971 16.6657 47.8859 16.632C47.8245 16.8648 47.8082 17.1072 47.8379 17.346C47.9734 17.0372 48.0604 16.7094 48.0959 16.374L48.1079 16.362ZM48.8519 16.284C48.9443 16.1877 49.0158 16.0733 49.0619 15.948C49.1099 16.446 49.2299 17.706 48.8039 18.09C48.8039 18.09 48.5159 17.88 48.4259 16.026C48.5159 16.116 48.5459 16.236 48.6359 16.314C48.5928 16.6528 48.6341 16.997 48.7559 17.316C48.7559 17.316 48.9659 17.208 48.8459 16.284H48.8519ZM49.8479 17.256C49.4699 16.83 49.3919 15.54 49.3919 15.54C49.3454 15.4882 49.288 15.4472 49.2239 15.42L49.1999 15.384V15.504C49.2005 16.1762 49.3141 16.8435 49.5359 17.478C49.6952 17.7382 49.9265 17.9466 50.2019 18.078C50.6279 17.364 50.1119 16.392 49.7039 15.678C49.6397 15.6667 49.5809 15.6351 49.5359 15.588C49.7039 16.188 50.0039 16.788 49.8719 17.274L49.8479 17.256ZM50.8859 15.042C50.8922 15.1021 50.8749 15.1623 50.8379 15.21V15.258C51.2398 15.676 51.6051 16.1276 51.9299 16.608C52.0836 16.8128 52.2793 16.9824 52.5038 17.1055C52.7283 17.2287 52.9766 17.3025 53.2319 17.322C53.1777 16.7578 52.9443 16.2259 52.5659 15.804C52.1532 15.3526 51.6902 14.9499 51.1859 14.604C51.0528 14.6657 50.9033 14.6825 50.7599 14.652H50.7119C50.7678 14.7078 50.8001 14.783 50.8019 14.862C51.4263 15.162 51.9589 15.624 52.3439 16.2C52.4219 16.26 51.8279 16.092 50.8739 15.048L50.8859 15.042ZM51.4739 14.382V14.292L51.4259 14.244C51.7619 14.364 52.9439 14.844 53.3219 15C53.6162 15.1635 53.8742 15.385 54.0804 15.6511C54.2867 15.9171 54.4369 16.2223 54.5219 16.548C54.2655 16.57 54.0073 16.541 53.7622 16.4627C53.5172 16.3845 53.2901 16.2585 53.0939 16.092C52.4579 15.546 51.6659 14.79 51.3779 14.544L51.4679 14.454C52.0206 14.904 52.6248 15.2866 53.2679 15.594C53.1273 15.333 52.9203 15.1135 52.6679 14.958C52.2979 14.7028 51.894 14.5009 51.4679 14.358L51.4739 14.382ZM52.1999 13.8C52.1999 13.752 52.1519 13.752 52.1519 13.71C52.5299 13.8 53.5019 13.92 53.9518 14.046C54.3111 14.1419 54.6465 14.3114 54.9368 14.5438C55.227 14.7762 55.4658 15.0664 55.6379 15.396C55.6379 15.396 54.9719 15.606 53.6639 15.018C53.0469 14.6935 52.4024 14.4244 51.7379 14.214C51.8882 14.214 52.0356 14.1725 52.1639 14.094C52.757 14.383 53.4013 14.5522 54.0599 14.592C53.8558 14.4448 53.6341 14.3239 53.3999 14.232C53.0175 14.0429 52.6149 13.898 52.1999 13.8ZM52.1999 13.2C52.0799 13.2512 51.9521 13.2816 51.8219 13.29C51.9183 13.3461 52.0054 13.4169 52.0799 13.5C52.9056 13.7074 53.7496 13.834 54.5998 13.878C55.2434 13.9688 55.8986 13.928 56.5259 13.758C56.0144 13.466 55.4624 13.2516 54.8879 13.122C54.4319 13.032 53.1719 13.032 52.5839 12.954C52.5315 12.999 52.4753 13.0391 52.4159 13.074C53.0877 13.0781 53.7545 13.1916 54.3899 13.41C53.6532 13.4926 52.9074 13.4211 52.1999 13.2Z" fill="white"/>
<path d="M48.2637 14.7L48.1437 14.58C47.9904 14.7745 47.8632 14.9883 47.7657 15.216C47.6807 15.4636 47.6105 15.716 47.5557 15.972C47.4901 16.2169 47.4038 16.4557 47.2977 16.686C47.4155 16.687 47.5323 16.6648 47.6415 16.6205C47.7506 16.5762 47.85 16.5108 47.9337 16.428C48.1338 16.1716 48.264 15.8677 48.3117 15.546C48.368 15.2625 48.3515 14.9694 48.2637 14.694V14.7ZM48.8637 14.742L48.7437 14.862L48.6957 14.91H48.6477L48.4797 14.862C48.4248 14.9658 48.3941 15.0806 48.3897 15.198C48.3444 15.4076 48.3444 15.6244 48.3897 15.834C48.4464 16.0198 48.545 16.1902 48.6777 16.332C48.7996 16.198 48.897 16.0436 48.9657 15.876C49.0569 15.6467 49.0569 15.3913 48.9657 15.162C48.9665 15.0131 48.9294 14.8665 48.8577 14.736L48.8637 14.742ZM49.6137 14.766C49.4184 14.7375 49.2318 14.6658 49.0677 14.556C49.0378 14.606 49.0181 14.6615 49.0098 14.7191C49.0016 14.7769 49.005 14.8356 49.0197 14.892C49.0768 15.0653 49.1757 15.222 49.3077 15.348C49.4283 15.4522 49.5683 15.5312 49.7198 15.5807C49.8712 15.6301 50.031 15.649 50.1897 15.636C50.2377 15.666 50.3277 15.408 49.5897 14.772L49.6137 14.766ZM49.8777 14.316C49.8603 14.4558 49.8018 14.5873 49.7097 14.694C49.8134 14.8625 49.9622 14.9986 50.1393 15.0866C50.3165 15.1747 50.5148 15.2112 50.7117 15.192C50.7585 15.0731 50.7578 14.9408 50.7098 14.8225C50.6618 14.7041 50.5701 14.6087 50.4537 14.556C50.2557 14.478 50.0877 14.388 49.8537 14.316H49.8777ZM49.7997 13.896C50.0093 13.9413 50.2262 13.9413 50.4357 13.896H50.5257V13.8C50.8617 14.058 51.1917 14.088 51.3597 14.346C51.2997 14.4334 51.2175 14.5034 51.1215 14.5487C51.0257 14.594 50.9195 14.6131 50.8137 14.604C50.6337 14.5889 50.4588 14.537 50.2998 14.4513C50.1409 14.3656 50.0013 14.2481 49.8897 14.106C49.8332 14.0506 49.8009 13.9751 49.7997 13.896ZM50.5137 13.518C50.4716 13.3909 50.3995 13.2757 50.3037 13.182C50.5799 13.1366 50.8616 13.1366 51.1377 13.182C51.3551 13.1803 51.5672 13.2489 51.7423 13.3776C51.9175 13.5062 52.0464 13.6881 52.1097 13.896C51.9095 14.015 51.6729 14.0576 51.4437 14.016C51.2621 14.0084 51.0845 13.9597 50.9244 13.8734C50.7643 13.7871 50.6259 13.6656 50.5197 13.518H50.5137ZM50.6877 12.918C50.7902 12.8197 50.8772 12.7064 50.9457 12.582L50.9937 12.492C51.3054 12.3404 51.662 12.3083 51.9957 12.402C52.2018 12.464 52.3787 12.5981 52.4937 12.78C52.2584 12.9581 51.9818 13.0738 51.6897 13.116C51.3458 13.1179 51.0051 13.0506 50.6877 12.918ZM50.5497 12.234C50.5017 12.186 50.4297 12.186 50.3397 12.186C50.5121 12.0052 50.6413 11.7878 50.7177 11.55C50.9394 11.602 51.1718 11.5852 51.3837 11.502C51.5013 11.459 51.6275 11.4448 51.7517 11.4605C51.8759 11.4761 51.9945 11.5212 52.0977 11.592C52.0541 11.7337 51.9711 11.8603 51.8586 11.9569C51.7461 12.0535 51.6084 12.1163 51.4617 12.138C51.3264 12.221 51.174 12.2722 51.0161 12.2878C50.8581 12.3034 50.6987 12.2829 50.5497 12.228V12.234ZM50.7837 11.4H50.6937C50.5899 11.3451 50.4751 11.3143 50.3577 11.31C50.6332 11.0734 50.9283 10.8606 51.2397 10.674C51.5861 10.4486 51.9735 10.2936 52.3797 10.218C52.2492 10.5536 52.0647 10.8658 51.8337 11.142C51.7101 11.2913 51.5446 11.4002 51.3585 11.4547C51.1725 11.5093 50.9744 11.5069 50.7897 11.448L50.7837 11.4ZM50.2437 11.16C50.3825 10.9591 50.4804 10.7327 50.5317 10.494C50.6217 10.206 50.6997 9.85799 50.8197 9.56999C51.029 9.18749 51.3768 8.89979 51.7917 8.76599C51.8843 9.16835 51.8421 9.58997 51.6717 9.96599C51.3048 10.4803 50.8135 10.8931 50.2437 11.166V11.16ZM46.9677 14.166C46.893 14.2376 46.8055 14.2946 46.7097 14.334C46.6538 14.4623 46.629 14.602 46.6373 14.7418C46.6457 14.8815 46.6869 15.0173 46.7577 15.138C46.9616 15.5003 47.1284 15.8822 47.2557 16.278C47.2557 16.278 47.3757 16.278 47.5137 15.564C47.5558 15.299 47.6723 15.0514 47.8497 14.85C47.7718 14.8994 47.6835 14.9302 47.5917 14.94H47.5017L47.4537 14.85C47.3793 14.7211 47.3478 14.572 47.3637 14.424V14.304C47.2914 14.3165 47.2172 14.3104 47.1479 14.2863C47.0786 14.2621 47.0166 14.2207 46.9677 14.166Z" fill="white"/>
<path d="M50.6159 15.366C51.0419 15.792 51.9659 16.794 51.8759 17.838C51.3895 17.6845 50.9676 17.3745 50.6759 16.956C50.4656 16.5402 50.227 16.1392 49.9619 15.756H50.3399C50.5838 16.2524 50.9415 16.6842 51.3839 17.016C51.3839 17.016 51.4739 16.518 50.3399 15.426C50.3399 15.378 50.2919 15.336 50.2499 15.306C50.3723 15.3433 50.5001 15.3596 50.6279 15.354L50.6159 15.366ZM41.7539 7.69202C42.0244 7.601 42.3174 7.601 42.5879 7.69202C42.3151 7.76804 42.0267 7.76804 41.7539 7.69202ZM44.8199 7.20002C44.8199 7.29002 44.7719 7.32002 44.6999 7.32002C44.6839 7.32086 44.6679 7.3184 44.653 7.31264C44.638 7.30694 44.6244 7.29812 44.6131 7.28678C44.6018 7.2755 44.593 7.26188 44.5873 7.24694C44.5815 7.232 44.5791 7.21598 44.5799 7.20002C44.5799 7.11002 44.6279 7.08002 44.6999 7.08002C44.7159 7.07918 44.7319 7.08164 44.7468 7.0874C44.7618 7.0931 44.7754 7.10192 44.7867 7.11326C44.798 7.12454 44.8068 7.13816 44.8125 7.1531C44.8183 7.16804 44.8207 7.18406 44.8199 7.20002ZM43.9859 6.74402C43.8199 6.4118 43.6931 6.06146 43.6079 5.70002C43.6559 5.61002 43.6979 5.53202 43.8179 5.53202C43.9379 5.53202 43.9859 5.48402 44.0279 5.53202C44.1759 5.87855 44.2631 6.24794 44.2859 6.62402C44.1805 6.65462 44.078 6.69476 43.9799 6.74402H43.9859ZM44.3879 6.65402H44.5559C44.5125 6.34058 44.4423 6.0314 44.3459 5.73002C44.335 5.65828 44.3062 5.59044 44.2621 5.53276C44.2181 5.47509 44.1603 5.42944 44.0939 5.40002C44.1419 5.56802 44.2139 5.73602 44.2619 5.89802C44.3218 6.15332 44.3679 6.41174 44.3999 6.67202L44.3879 6.65402ZM44.0639 7.55402C43.8448 7.67174 43.5985 7.7297 43.3499 7.72202C43.4459 7.556 43.5745 7.4111 43.7279 7.29602C43.9386 7.15748 44.1915 7.09796 44.4419 7.12802C44.3484 7.29584 44.2194 7.44122 44.0639 7.55402ZM43.6859 7.60202C43.8745 7.52792 44.0446 7.41326 44.1839 7.26602C43.98 7.30766 43.8009 7.4285 43.6859 7.60202Z" fill="white"/>
<path d="M41.682 7.77C41.9514 7.8564 42.2333 7.89696 42.516 7.89C43.011 7.89402 43.5047 7.83762 43.986 7.722C43.9669 7.78254 43.9334 7.83756 43.8885 7.8825C43.8436 7.92738 43.7886 7.96086 43.728 7.98C43.8071 7.98174 43.8823 8.01402 43.938 8.07C43.9119 8.12094 43.8755 8.16588 43.8311 8.20206C43.7867 8.23818 43.7352 8.26476 43.68 8.28C43.8579 8.45634 44.0957 8.55918 44.3461 8.568C44.2792 8.62722 44.1988 8.6691 44.112 8.69004C44.0252 8.71092 43.9346 8.71026 43.848 8.688C43.632 8.64426 43.4385 8.52516 43.302 8.352C43.34 8.4324 43.3565 8.52132 43.35 8.61C43.2933 8.6025 43.2386 8.58372 43.1892 8.55492C43.1397 8.52606 43.0965 8.48766 43.062 8.442C43.1161 8.52876 43.1471 8.62788 43.152 8.73C43.0586 8.72826 42.9683 8.69676 42.894 8.64C42.9311 8.70348 42.9479 8.77674 42.942 8.85C42.7154 8.76834 42.5013 8.65524 42.306 8.514V8.724C42.354 8.772 41.706 8.676 41.706 7.752L41.682 7.77ZM42.798 8.13H42.06C42.0675 8.18676 42.0863 8.24142 42.1151 8.29086C42.144 8.3403 42.1824 8.3835 42.228 8.418C42.228 8.13 42.774 8.13 42.774 8.13H42.798ZM41.574 7.842C41.5775 8.03016 41.6183 8.21574 41.694 8.388C41.5662 8.30778 41.4657 8.1906 41.406 8.052C41.358 7.842 41.358 7.746 41.574 7.842ZM41.712 8.442L42.048 8.7C41.9243 8.7468 41.7981 8.78688 41.67 8.82C41.5461 8.71704 41.3901 8.6607 41.229 8.6607C41.0679 8.6607 40.9119 8.71704 40.788 8.82C40.7265 8.7876 40.6727 8.74242 40.6301 8.6874C40.5876 8.63244 40.5573 8.56896 40.5414 8.50128C40.5254 8.4336 40.5242 8.36328 40.5378 8.29512C40.5514 8.2269 40.5794 8.1624 40.62 8.106C40.6941 8.02458 40.7924 7.96908 40.9004 7.94748C41.0083 7.92588 41.1203 7.93938 41.22 7.986C41.2664 8.09274 41.3346 8.1885 41.4204 8.2671C41.5062 8.34564 41.6076 8.40522 41.718 8.442H41.712ZM41.118 8.532C41.1359 8.532 41.1533 8.52672 41.168 8.51682C41.1828 8.50692 41.1944 8.49288 41.2012 8.47644C41.208 8.46 41.2098 8.44188 41.2063 8.42442C41.2028 8.40696 41.1942 8.39094 41.1817 8.37834C41.1691 8.3658 41.1531 8.35722 41.1356 8.35374C41.1182 8.35026 41.1 8.35206 41.0836 8.35884C41.0672 8.36568 41.0531 8.3772 41.0432 8.39202C41.0333 8.40678 41.028 8.42418 41.028 8.442C41.028 8.49 41.028 8.532 41.118 8.532ZM42.072 8.772C42.1609 8.8899 42.2571 9.0021 42.36 9.108C42.1817 9.1017 42.0057 9.15084 41.8563 9.24858C41.707 9.34638 41.5916 9.48798 41.526 9.654C41.4659 9.56706 41.4298 9.46584 41.4213 9.36048C41.4129 9.25512 41.4325 9.1494 41.478 9.054C41.5524 8.96682 41.6442 8.89614 41.7476 8.84658C41.8509 8.79696 41.9635 8.76954 42.078 8.766L42.072 8.772ZM42.804 8.904L43.092 8.994V8.826C43.182 8.826 43.212 8.874 43.302 8.874C43.3751 9.13548 43.495 9.38148 43.656 9.6C43.6463 9.6918 43.6155 9.78006 43.566 9.858C43.4645 9.68514 43.3523 9.51882 43.23 9.36C43.1218 9.18474 42.9627 9.04662 42.774 8.964L42.804 8.904ZM42.228 8.874C42.443 8.91978 42.6469 9.00744 42.828 9.132C42.93 9.19566 43.0143 9.28398 43.073 9.38886C43.1318 9.4938 43.1631 9.61176 43.164 9.732C43.0721 9.60156 42.9585 9.48792 42.828 9.396C42.5832 9.28422 42.3752 9.1053 42.228 8.88V8.874ZM42.228 6.738C42.318 6.738 42.396 6.786 42.396 6.858C42.345 7.01802 42.2745 7.1712 42.186 7.314C42.0891 7.17594 42.018 7.02144 41.976 6.858C42.0036 6.81594 42.0423 6.78246 42.0879 6.76128C42.1335 6.74004 42.1841 6.732 42.234 6.738H42.228ZM42.096 7.542C42.0608 7.33674 42.0045 7.13568 41.928 6.942C41.8501 6.89256 41.7618 6.86178 41.67 6.852C41.6391 6.8547 41.6102 6.8682 41.5882 6.89016C41.5662 6.91212 41.5527 6.9411 41.55 6.972V7.02C41.6509 7.20864 41.7631 7.39098 41.886 7.566C41.9526 7.53942 42.0246 7.5291 42.096 7.536V7.542ZM42.306 7.536C42.3413 7.33074 42.3976 7.12968 42.474 6.936C42.552 6.88656 42.6402 6.85578 42.732 6.846C42.7629 6.8487 42.7919 6.8622 42.8139 6.88416C42.8358 6.90612 42.8493 6.9351 42.852 6.966V7.014C42.7616 7.20846 42.6489 7.3917 42.516 7.56C42.4497 7.53222 42.3774 7.52184 42.306 7.53V7.536ZM42.516 6.228H42.258V6H42.138V6.21H41.88V6.378H42.138V6.6H42.258V6.36H42.516V6.228ZM39.954 7.728V7.32C39.8517 7.35378 39.758 7.40934 39.6792 7.4829C39.6005 7.55646 39.5387 7.64622 39.498 7.746C39.498 7.746 39.834 7.536 39.954 7.746V7.728ZM40.242 8.292C40.29 8.124 40.332 7.914 40.362 7.746C40.4045 7.62126 40.4184 7.4886 40.4028 7.3578C40.3872 7.22694 40.3425 7.1013 40.272 6.99C40.1831 6.80298 40.1419 6.59682 40.152 6.39L39.864 6.51C39.8771 6.71964 39.9343 6.92412 40.032 7.11C40.0923 7.2687 40.1089 7.44072 40.08 7.608C40.0569 7.7274 40.0599 7.85034 40.0889 7.96848C40.1179 8.08656 40.1722 8.19696 40.248 8.292H40.242ZM40.248 6.492V6.372C40.4046 6.19584 40.616 6.07746 40.848 6.036C40.968 5.988 41.058 6.036 41.184 6.126C41.105 6.12774 41.0298 6.16002 40.974 6.216C40.8457 6.33078 40.7024 6.42768 40.548 6.504C40.4522 6.49686 40.3559 6.49686 40.26 6.504" fill="white"/>
<path d="M41.1656 6.084C41.2681 6.17208 41.3413 6.28932 41.3756 6.42C41.3381 6.5979 41.2668 6.76698 41.1656 6.918C41.0635 7.03722 41.0044 7.18722 40.9976 7.344C40.9976 7.434 41.0876 7.512 41.1176 7.602C41.028 7.57674 40.9443 7.53408 40.8711 7.47642C40.798 7.41876 40.737 7.34724 40.6916 7.266C40.6688 7.1862 40.6679 7.10178 40.689 7.02156C40.7101 6.94128 40.7525 6.86826 40.8116 6.81C40.8859 6.64536 40.9829 6.49188 41.0996 6.354C41.1472 6.27024 41.1681 6.17394 41.1596 6.078L41.1656 6.084ZM43.3916 8.73C43.4628 8.98512 43.5764 9.2265 43.7276 9.444C43.8322 9.62706 43.89 9.83322 43.8956 10.044C43.9828 9.84414 44.0139 9.62424 43.9856 9.408C43.8792 9.11682 43.6641 8.87814 43.3856 8.742L43.3916 8.73ZM43.8116 8.82C43.9418 8.8284 44.0696 8.85882 44.1896 8.91C44.3829 9.05874 44.5169 9.27144 44.5676 9.51C44.4342 9.4725 44.3068 9.41592 44.1896 9.342C44.0193 9.20736 43.8886 9.02904 43.8116 8.826V8.82ZM42.4616 9.342C42.3716 9.342 42.2936 9.39 42.2036 9.39C42.3214 9.43356 42.4341 9.4899 42.5396 9.558C42.6018 9.61098 42.6525 9.67608 42.6885 9.74934C42.7246 9.8226 42.7455 9.90246 42.7496 9.984C42.8079 10.2158 42.8946 10.4395 43.0076 10.65C43.0108 10.4229 43.0513 10.1979 43.1276 9.984C43.0311 9.92802 42.9441 9.8571 42.8696 9.774C42.7882 9.58824 42.6436 9.43734 42.4616 9.348V9.342ZM43.6616 9.948C43.7565 10.1421 43.8037 10.356 43.7996 10.572C43.7021 10.7997 43.575 11.0135 43.4216 11.208C43.3694 10.9591 43.3393 10.7062 43.3316 10.452C43.3274 10.3417 43.3538 10.2323 43.4077 10.1359C43.4617 10.0396 43.5413 9.96006 43.6376 9.906L43.6616 9.948ZM44.0936 9.906C44.2231 10.1313 44.3257 10.3709 44.3996 10.62C44.4204 10.6978 44.4231 10.7794 44.4075 10.8584C44.3919 10.9375 44.3584 11.0119 44.3096 11.076C44.1896 11.244 44.0516 11.412 43.9316 11.574C43.8516 11.4757 43.7943 11.3609 43.7636 11.238C43.7532 11.0711 43.7653 10.9036 43.7996 10.74C43.9308 10.4736 44.0334 10.1941 44.1056 9.906H44.0936ZM44.2736 11.544C44.1115 11.7094 43.9687 11.8926 43.8476 12.09C43.803 12.1577 43.7791 12.2369 43.7791 12.318C43.7791 12.3991 43.803 12.4783 43.8476 12.546C43.9797 12.7313 44.1494 12.8867 44.3456 13.002C44.2273 12.8249 44.1684 12.6148 44.1776 12.402C44.2229 12.256 44.2791 12.1136 44.3456 11.976C44.353 11.826 44.3263 11.6762 44.2676 11.538L44.2736 11.544ZM43.6676 11.328C43.7493 11.4368 43.7916 11.57 43.7876 11.706C43.7795 11.8752 43.7493 12.0427 43.6976 12.204C43.6071 12.4516 43.4947 12.6905 43.3616 12.918C43.2747 12.8021 43.204 12.675 43.1516 12.54C43.2716 12.372 43.3616 12.204 43.4876 12.042C43.5653 11.8088 43.6255 11.5702 43.6676 11.328ZM43.5776 11.208C43.4916 11.6554 43.3227 12.0827 43.0796 12.468C43.0114 12.5944 42.9164 12.7043 42.8014 12.7903C42.6864 12.8763 42.5541 12.9362 42.4136 12.966C42.2897 12.9601 42.1707 12.916 42.0729 12.8397C41.9752 12.7634 41.9034 12.6587 41.8676 12.54C41.8252 12.4304 41.8111 12.3119 41.8269 12.1954C41.8426 12.079 41.8876 11.9684 41.9576 11.874C41.9839 11.98 42.0369 12.0775 42.1114 12.1573C42.186 12.2371 42.2797 12.2965 42.3836 12.33C42.7016 12.3 43.1276 11.922 43.5836 11.208" fill="white"/>
<path d="M43.2 10.92C43.2417 11.0773 43.2417 11.2428 43.2 11.4C43.1839 11.487 43.1501 11.5698 43.1005 11.6431C43.051 11.7164 42.9868 11.7787 42.912 11.826C42.8146 11.8827 42.6998 11.9017 42.5893 11.8796C42.4788 11.8575 42.3802 11.7958 42.312 11.706L42.264 11.658C42.4741 11.6368 42.6737 11.556 42.8395 11.4254C43.0052 11.2946 43.1303 11.1194 43.2 10.92ZM44.232 13.8C44.3923 14.0008 44.5198 14.2256 44.61 14.466C44.6018 14.7774 44.5129 15.0813 44.352 15.348C44.1602 15.1885 44.0134 14.9817 43.926 14.748C43.9037 14.5772 43.9195 14.4036 43.9724 14.2397C44.0254 14.0757 44.114 13.9256 44.232 13.8ZM43.824 14.088C43.897 13.8848 44.0114 13.6988 44.16 13.542C44.2042 13.3625 44.186 13.1734 44.1086 13.0055C44.0312 12.8376 43.8992 12.701 43.734 12.618C43.5807 12.8167 43.4666 13.0427 43.398 13.284C43.35 13.632 43.686 13.8 43.824 14.088ZM43.068 12.66C42.9761 12.7905 42.8624 12.9041 42.732 12.996V13.422C42.7976 13.6669 42.884 13.9058 42.99 14.136C43.1207 13.9746 43.2186 13.7891 43.278 13.59C43.3126 13.4263 43.3287 13.2593 43.326 13.092C43.2514 12.9435 43.1651 12.801 43.068 12.666V12.66ZM42.354 13.866C42.1751 13.6113 42.0544 13.3205 42 13.014C42.0906 13.0649 42.1912 13.0955 42.2947 13.1037C42.3983 13.112 42.5024 13.0978 42.6 13.062C42.6455 13.2412 42.6455 13.4289 42.6 13.608C42.5213 13.7103 42.435 13.8066 42.342 13.896L42.354 13.866ZM42.39 13.986L42.6 13.8C42.648 13.752 42.81 14.178 42.858 14.298C42.768 14.298 42.69 14.298 42.648 14.25C42.5701 14.1618 42.4837 14.0814 42.39 14.01V13.986ZM43.35 13.8C43.2224 14.0099 43.0801 14.2104 42.924 14.4C42.9693 14.546 43.0255 14.6884 43.092 14.826C43.1934 15.0093 43.3207 15.1771 43.47 15.324C43.5725 15.1671 43.6589 15.0003 43.728 14.826C43.7978 14.6957 43.8231 14.5461 43.8 14.4C43.71 14.19 43.464 13.974 43.374 13.764L43.35 13.8ZM43.8 14.94C43.9392 15.1235 44.0523 15.3255 44.136 15.54C44.1654 15.6677 44.1484 15.8018 44.088 15.918C44.04 16.008 43.92 16.206 43.83 16.374C43.6607 16.2458 43.5299 16.0736 43.452 15.876C43.4263 15.794 43.4173 15.7077 43.4255 15.6222C43.4338 15.5366 43.4591 15.4536 43.5 15.378C43.59 15.258 43.758 15.138 43.806 14.952L43.8 14.94ZM42.954 14.922C43.0721 15.0742 43.169 15.2417 43.242 15.42C43.2863 15.4955 43.3097 15.5815 43.3097 15.669C43.3097 15.7566 43.2863 15.8426 43.242 15.918C43.152 16.086 43.074 16.206 43.032 16.296C42.9101 16.162 42.8127 16.0077 42.744 15.84C42.699 15.6771 42.699 15.505 42.744 15.342C42.8436 15.2166 42.9152 15.0714 42.954 14.916V14.922ZM44.154 16.116C43.9824 16.3437 43.8617 16.6056 43.8 16.884C43.8656 17.1426 43.9519 17.3954 44.058 17.64C44.1795 17.517 44.2772 17.3726 44.346 17.214C44.45 17.0523 44.4926 16.8585 44.466 16.668C44.4712 16.5647 44.4522 16.4615 44.4106 16.3667C44.3689 16.2719 44.3057 16.1882 44.226 16.122L44.154 16.116ZM43.422 16.074C43.5509 16.2618 43.6238 16.4824 43.632 16.71C43.5421 16.9217 43.4295 17.1228 43.296 17.31C43.2071 17.1527 43.1367 16.9856 43.086 16.812C43.0822 16.6733 43.1106 16.5356 43.1689 16.4097C43.2272 16.2837 43.3138 16.173 43.422 16.086V16.074ZM47.67 7.68603C47.3995 7.59501 47.1065 7.59501 46.836 7.68603C47.1088 7.76205 47.3972 7.76205 47.67 7.68603ZM44.7 6.34203C44.8065 6.08103 44.8928 5.81226 44.958 5.53803C44.958 5.4696 44.9308 5.40398 44.8825 5.3556C44.834 5.30722 44.7684 5.28003 44.7 5.28003C44.6316 5.28003 44.566 5.30722 44.5175 5.3556C44.4692 5.40398 44.442 5.4696 44.442 5.53803C44.5005 5.81409 44.587 6.08349 44.7 6.34203ZM45.414 6.76803C45.58 6.43581 45.7068 6.08547 45.792 5.72403C45.744 5.63403 45.702 5.55603 45.624 5.55603C45.546 5.55603 45.456 5.50803 45.414 5.55603C45.266 5.90256 45.1788 6.27195 45.156 6.64803C45.204 6.67803 45.324 6.72603 45.414 6.76803ZM45 6.67203H44.82C44.8634 6.35859 44.9336 6.04941 45.03 5.74803C45.0298 5.66911 45.0555 5.59229 45.1032 5.52941C45.1509 5.46654 45.2179 5.42108 45.294 5.40003C45.246 5.56803 45.174 5.73603 45.126 5.89803C45.078 6.15603 45.036 6.41403 44.988 6.65403L45 6.67203ZM45.036 7.12203C45.2846 7.11435 45.5309 7.17231 45.75 7.29003C45.9134 7.39377 46.0445 7.54137 46.128 7.71603C45.8794 7.72371 45.6331 7.66575 45.414 7.54803C45.3206 7.51389 45.2372 7.45707 45.1712 7.38273C45.1052 7.30839 45.0588 7.21881 45.036 7.12203ZM45.204 7.24203C45.3432 7.38939 45.5132 7.50411 45.702 7.57803C45.6484 7.48923 45.5761 7.41315 45.4901 7.35513C45.404 7.29705 45.3064 7.25847 45.204 7.24203ZM47.052 8.76003V8.55003C46.8685 8.68923 46.6666 8.80233 46.452 8.88603C46.4462 8.81277 46.4629 8.73951 46.5 8.67603C46.4221 8.72547 46.3338 8.75625 46.242 8.76603C46.29 8.67603 46.29 8.55603 46.362 8.47803C46.3285 8.52471 46.2856 8.56383 46.2359 8.59281C46.1863 8.62173 46.1311 8.63991 46.074 8.64603C46.0675 8.55735 46.084 8.46843 46.122 8.38803C46.0043 8.55885 45.8264 8.67885 45.624 8.72403C45.5375 8.74629 45.4469 8.74695 45.3601 8.72607C45.2732 8.70513 45.1928 8.66325 45.126 8.60403C45.377 8.59821 45.6158 8.49495 45.792 8.31603C45.6955 8.25999 45.6085 8.18913 45.534 8.10603C45.5897 8.05005 45.665 8.01777 45.744 8.01603C45.6835 7.99689 45.6284 7.96341 45.5835 7.91853C45.5386 7.87359 45.5051 7.81857 45.486 7.75803C45.9669 7.87617 46.4609 7.93263 46.956 7.92603C47.2384 7.92663 47.5193 7.88619 47.79 7.80603C47.67 8.68803 47.046 8.77803 47.046 8.77803L47.052 8.76003ZM47.166 8.40003C47.2127 8.36655 47.2518 8.32359 47.2808 8.27397C47.3097 8.22435 47.3279 8.16915 47.334 8.11203C47.0811 8.11857 46.8281 8.10249 46.578 8.06403V8.11203C46.626 8.14203 47.178 8.14203 47.178 8.40003H47.166ZM47.844 7.85403C47.8405 8.04219 47.7997 8.22777 47.724 8.40003C47.8519 8.31981 47.9523 8.20263 48.012 8.06403C48.06 7.88403 48.06 7.75803 47.844 7.85403ZM48.27 8.05203C48.3697 8.00541 48.4817 7.99191 48.5897 8.01351C48.6977 8.03511 48.7959 8.09067 48.87 8.17203C48.9249 8.29287 48.9382 8.42847 48.9078 8.55771C48.8774 8.68689 48.805 8.80239 48.702 8.88603C48.5781 8.78307 48.4221 8.72673 48.261 8.72673C48.0999 8.72673 47.9439 8.78307 47.82 8.88603C47.7015 8.82537 47.5738 8.78481 47.442 8.76603C47.5362 8.65905 47.6503 8.57139 47.778 8.50803C47.9932 8.42043 48.1698 8.25867 48.276 8.05203H48.27ZM48.444 8.52003C48.444 8.50221 48.4387 8.48481 48.4288 8.47005C48.4189 8.45523 48.4049 8.44371 48.3884 8.43687C48.372 8.43009 48.3539 8.42829 48.3364 8.43177C48.319 8.43525 48.3029 8.44383 48.2903 8.45637C48.2778 8.46897 48.2692 8.48499 48.2657 8.50245C48.2623 8.51991 48.2641 8.53803 48.2708 8.55447C48.2777 8.57091 48.2892 8.58495 48.304 8.59485C48.3188 8.60475 48.3362 8.61003 48.354 8.61003C48.402 8.61003 48.444 8.56203 48.444 8.52003ZM47.352 8.80803C47.2631 8.92593 47.1669 9.03813 47.064 9.14403C47.2424 9.13773 47.4184 9.18687 47.5677 9.28461C47.717 9.38241 47.8324 9.52401 47.898 9.69003C47.9581 9.60309 47.9942 9.50187 48.0027 9.39651C48.0111 9.29115 47.9915 9.18543 47.946 9.09003C47.874 9.00009 47.7827 8.92749 47.6788 8.87769C47.575 8.82783 47.4612 8.80197 47.346 8.80203" fill="white"/>
<path d="M46.6264 8.95201L46.3384 9.04201V8.87401C46.2484 8.87401 46.2184 8.92201 46.1284 8.92201C46.041 9.16873 45.9111 9.39823 45.7444 9.60001C45.7542 9.69181 45.7849 9.78007 45.8344 9.85801C45.9359 9.68515 46.0481 9.51883 46.1704 9.36001C46.2875 9.19249 46.4441 9.05647 46.6264 8.96401V8.95201ZM47.1724 8.87401C46.9574 8.91979 46.7535 9.00745 46.5724 9.13201C46.4704 9.19567 46.3861 9.28399 46.3274 9.38887C46.2687 9.49381 46.2373 9.61183 46.2364 9.73201C46.3283 9.60157 46.442 9.48793 46.5724 9.39601C46.8082 9.27067 47.0131 9.09439 47.1724 8.88001V8.87401ZM47.1724 6.73801C47.0824 6.73801 47.0044 6.78601 47.0044 6.85801C47.0554 7.01803 47.1259 7.17121 47.2144 7.31401C47.3113 7.17595 47.3824 7.02145 47.4244 6.85801C47.3559 6.78787 47.2641 6.74521 47.1664 6.73801H47.1724ZM47.2864 7.54201C47.2994 7.33237 47.3566 7.12789 47.4544 6.94201C47.5323 6.89257 47.6206 6.86179 47.7124 6.85201C47.7604 6.85201 47.8324 6.90001 47.8024 6.97201V7.02001C47.7015 7.20865 47.5893 7.39099 47.4664 7.56601C47.4664 7.53601 47.3764 7.53601 47.2864 7.53601V7.54201ZM47.0884 7.53601C47.0531 7.33075 46.9968 7.12975 46.9204 6.93601C46.8424 6.88657 46.7542 6.85579 46.6624 6.84601C46.6315 6.84871 46.6025 6.86221 46.5805 6.88417C46.5586 6.90613 46.5451 6.93511 46.5424 6.96601V7.01401C46.6432 7.20265 46.7554 7.38499 46.8784 7.56001C46.9447 7.53223 47.017 7.52185 47.0884 7.53001V7.53601ZM46.8784 6.22801H47.1184V6.00001H47.2864V6.21001H47.4964V6.37801H47.2864V6.60001H47.1184V6.36001H46.8784V6.22801ZM44.4004 4.87201H44.6104V4.61401H44.7784V4.87201H45.0004V4.99201H44.7904V5.29801H44.6224V4.99201H44.4004V4.87201ZM49.4524 7.72201V7.31401C49.5547 7.34779 49.6485 7.40335 49.7272 7.47691C49.806 7.55047 49.8678 7.64023 49.9084 7.74001C49.9084 7.74001 49.5724 7.53001 49.4524 7.74001V7.72201ZM49.1464 8.28601C49.0984 8.11801 49.0564 7.90801 49.0264 7.74001C48.95 7.49053 48.9671 7.22179 49.0744 6.98401C49.1852 6.80491 49.2278 6.59191 49.1944 6.38401L49.4824 6.50401C49.4694 6.71365 49.4121 6.91813 49.3144 7.10401C49.2541 7.26271 49.2375 7.43473 49.2664 7.60201C49.3126 7.71577 49.3259 7.84027 49.3047 7.96123C49.2834 8.08225 49.2286 8.19475 49.1464 8.28601ZM49.1464 6.48601V6.36601C48.9898 6.18985 48.7784 6.07147 48.5464 6.03001C48.4264 5.98201 48.3364 6.03001 48.2104 6.12001C48.2894 6.12175 48.3646 6.15403 48.4204 6.21001C48.5487 6.32479 48.6921 6.42169 48.8464 6.49801C48.9423 6.49255 49.0384 6.49255 49.1344 6.49801" fill="white"/>
<path d="M48.2223 6.084C48.1198 6.17208 48.0465 6.28932 48.0123 6.42C48.0498 6.5979 48.121 6.76698 48.2223 6.918C48.3243 7.03722 48.3835 7.18722 48.3903 7.344C48.3903 7.434 48.3003 7.512 48.2703 7.602C48.3598 7.57674 48.4436 7.53408 48.5167 7.47642C48.5898 7.41876 48.6508 7.34724 48.6963 7.266C48.7191 7.1862 48.72 7.10178 48.6988 7.02156C48.6777 6.94128 48.6354 6.86826 48.5763 6.81C48.5019 6.64536 48.405 6.49188 48.2883 6.354C48.2407 6.27024 48.2197 6.17394 48.2283 6.078L48.2223 6.084ZM46.0143 8.73C45.943 8.98512 45.8295 9.2265 45.6783 9.444C45.5613 9.63504 45.5029 9.85614 45.5103 10.08C45.423 9.88014 45.3919 9.66024 45.4203 9.444C45.4529 9.28446 45.5249 9.13554 45.6297 9.01086C45.7344 8.88618 45.8687 8.78964 46.0203 8.73H46.0143ZM45.5943 8.808C45.4641 8.8164 45.3363 8.84682 45.2163 8.898C45.0229 9.04674 44.889 9.25944 44.8383 9.498C44.9717 9.4605 45.099 9.40392 45.2163 9.33C45.383 9.19194 45.5129 9.01464 45.5943 8.814V8.808ZM46.9443 9.33C47.0343 9.33 47.1123 9.378 47.2023 9.378C47.0844 9.42156 46.9718 9.4779 46.8663 9.546C46.8041 9.59898 46.7534 9.66408 46.7173 9.73734C46.6812 9.8106 46.6605 9.89046 46.6563 9.972C46.5979 10.2038 46.5113 10.4275 46.3983 10.638C46.3951 10.4109 46.3545 10.1859 46.2783 9.972C46.3747 9.91602 46.4618 9.8451 46.5363 9.762C46.572 9.66708 46.6265 9.58044 46.6966 9.50718C46.7667 9.43398 46.851 9.37572 46.9443 9.336V9.33ZM45.7443 9.936C45.6454 10.1332 45.5961 10.3515 45.6003 10.572C45.6978 10.7997 45.8249 11.0135 45.9783 11.208C46.0305 10.9591 46.0606 10.7062 46.0683 10.452C46.0664 10.3428 46.0375 10.2357 45.9841 10.1404C45.9307 10.0451 45.8545 9.96456 45.7623 9.906L45.7443 9.936ZM44.7003 10.662C44.7003 10.494 45.0783 10.116 45.0783 9.906C45.0487 9.81804 44.9992 9.73818 44.9337 9.6726C44.8681 9.60702 44.7882 9.55752 44.7003 9.528C44.5393 9.61344 44.4077 9.74508 44.3223 9.906C44.3223 10.116 44.7003 10.542 44.7003 10.662ZM45.3003 9.906C45.1729 10.1315 45.0722 10.3712 45.0003 10.62C44.9795 10.6978 44.9768 10.7794 44.9924 10.8584C45.008 10.9375 45.0415 11.0119 45.0903 11.076C45.2103 11.244 45.3483 11.412 45.4683 11.574C45.5482 11.4757 45.6056 11.3609 45.6363 11.238C45.6466 11.0711 45.6345 10.9036 45.6003 10.74C45.4624 10.4765 45.3595 10.1962 45.2943 9.906H45.3003ZM44.6943 11.88C44.8101 11.7944 44.8995 11.678 44.9523 11.544C44.9783 11.4895 44.9877 11.4285 44.9791 11.3687C44.9706 11.3089 44.9445 11.253 44.9043 11.208C44.802 11.1028 44.7295 10.9724 44.6943 10.83C44.6418 10.965 44.5711 11.0921 44.4843 11.208C44.4433 11.2526 44.4168 11.3086 44.4082 11.3686C44.3996 11.4286 44.4094 11.4897 44.4363 11.544C44.493 11.6757 44.5817 11.7911 44.6943 11.88ZM45.1203 11.544C45.2823 11.7094 45.4252 11.8926 45.5463 12.09C45.5909 12.1577 45.6147 12.2369 45.6147 12.318C45.6147 12.3991 45.5909 12.4783 45.5463 12.546C45.4141 12.7313 45.2445 12.8867 45.0483 13.002C45.1666 12.8249 45.2254 12.6148 45.2163 12.402C45.171 12.256 45.1148 12.1136 45.0483 11.976C45.0409 11.826 45.0676 11.6762 45.1263 11.538L45.1203 11.544ZM45.7263 11.328C45.6445 11.4368 45.6022 11.57 45.6063 11.706C45.6144 11.8752 45.6446 12.0427 45.6963 12.204C45.7867 12.4516 45.8992 12.6905 46.0323 12.918C46.1191 12.8021 46.1898 12.675 46.2423 12.54C46.1223 12.372 46.0323 12.204 45.9063 12.042C45.7803 11.88 45.7683 11.544 45.7263 11.328ZM45.8643 11.208C45.9502 11.6554 46.1191 12.0827 46.3623 12.468C46.4305 12.5944 46.5255 12.7043 46.6404 12.7903C46.7554 12.8763 46.8878 12.9362 47.0283 12.966C47.1522 12.9601 47.2711 12.916 47.3689 12.8397C47.4667 12.7634 47.5384 12.6587 47.5743 12.54C47.6167 12.4304 47.6307 12.3119 47.6149 12.1954C47.5992 12.079 47.5543 11.9684 47.4843 11.874C47.4579 11.98 47.4049 12.0775 47.3304 12.1573C47.2558 12.2371 47.1622 12.2965 47.0583 12.33C46.7403 12.3 46.3143 11.922 45.8583 11.208" fill="white"/>
<path d="M46.2004 10.92C46.1587 11.0773 46.1587 11.2428 46.2004 11.4C46.2165 11.487 46.2503 11.5698 46.2999 11.6432C46.3495 11.7164 46.4137 11.7787 46.4884 11.826C46.5859 11.8827 46.7006 11.9017 46.8112 11.8796C46.9216 11.8575 47.0203 11.7958 47.0884 11.706L47.1364 11.658C46.9257 11.639 46.725 11.559 46.5589 11.428C46.3927 11.297 46.2682 11.1205 46.2004 10.92ZM44.7004 13.014C44.8095 12.9785 44.9015 12.9036 44.9584 12.804C45.0404 12.651 45.0817 12.4796 45.0784 12.306C45.0326 12.168 44.9614 12.0398 44.8684 11.928C44.8219 11.9799 44.7646 12.0209 44.7004 12.048C44.6481 12.0031 44.5919 11.963 44.5324 11.928C44.4455 12.0439 44.3749 12.171 44.3224 12.306C44.3044 12.3927 44.3059 12.4824 44.3266 12.5685C44.3473 12.6546 44.3869 12.735 44.4424 12.804C44.4904 12.942 44.5804 12.972 44.7004 13.014ZM44.7004 14.274C44.7484 14.064 45.1264 13.728 45.1264 13.518C45.1264 13.308 44.8684 13.26 44.7004 13.14C44.5324 13.26 44.3644 13.23 44.2744 13.518C44.2744 13.686 44.6524 14.064 44.7004 14.274ZM45.1564 13.818C44.9962 14.0188 44.8686 14.2436 44.7784 14.484C44.7866 14.7954 44.8756 15.0993 45.0364 15.366C45.2282 15.2065 45.375 14.9997 45.4624 14.766C45.4913 14.5923 45.4786 14.4142 45.4254 14.2463C45.3722 14.0784 45.28 13.9255 45.1564 13.8V13.818ZM45.5824 14.088C45.5094 13.8848 45.395 13.6988 45.2464 13.542C45.2023 13.3625 45.2204 13.1734 45.2978 13.0055C45.3752 12.8376 45.5072 12.701 45.6724 12.618C45.8083 12.8272 45.9209 13.0505 46.0084 13.284C46.0384 13.632 45.7024 13.8 45.5824 14.088ZM46.3384 12.66C46.4303 12.7905 46.544 12.9041 46.6744 12.996V13.422C46.6088 13.6669 46.5224 13.9058 46.4164 14.136C46.2857 13.9746 46.1878 13.7891 46.1284 13.59C46.0938 13.4264 46.0777 13.2593 46.0804 13.092C46.1284 13.044 46.2484 12.786 46.3384 12.666V12.66ZM47.0524 13.866C47.2291 13.6108 47.3479 13.32 47.4004 13.014C47.3098 13.0649 47.2093 13.0955 47.1057 13.1037C47.0021 13.112 46.898 13.0978 46.8004 13.062C46.7549 13.2412 46.7549 13.4289 46.8004 13.608C46.8748 13.7139 46.9614 13.8105 47.0584 13.896L47.0524 13.866ZM47.0104 13.986C46.9204 13.896 46.8424 13.866 46.8004 13.776C46.7104 13.944 46.6324 14.112 46.5424 14.274C46.6324 14.274 46.7104 14.274 46.7524 14.226C46.8304 14.1378 46.9168 14.0574 47.0104 13.986ZM46.0324 13.8C46.16 14.0099 46.3024 14.2104 46.4584 14.4C46.4131 14.546 46.357 14.6885 46.2904 14.826C46.189 15.0093 46.0617 15.1771 45.9124 15.324C45.8099 15.1671 45.7235 15.0003 45.6544 14.826C45.5908 14.6936 45.5718 14.5442 45.6004 14.4C45.6904 14.19 45.9484 13.974 46.0264 13.764L46.0324 13.8ZM44.7004 16.458C44.8088 16.2972 44.9089 16.131 45.0004 15.96C45.0411 15.8435 45.0411 15.7166 45.0004 15.6C44.9524 15.48 44.7424 15.174 44.7124 15.102C44.5961 15.26 44.4919 15.4265 44.4004 15.6C44.3554 15.722 44.3554 15.8561 44.4004 15.978C44.4784 16.236 44.6884 16.356 44.6884 16.476L44.7004 16.458ZM45.5224 14.958C45.3832 15.1415 45.2701 15.3435 45.1864 15.558C45.157 15.6857 45.1741 15.8197 45.2344 15.936C45.2824 16.026 45.4024 16.224 45.4924 16.392C45.6617 16.2638 45.7925 16.0916 45.8704 15.894C45.8962 15.812 45.9052 15.7257 45.8969 15.6402C45.8887 15.5546 45.8633 15.4716 45.8224 15.396C45.7744 15.276 45.6124 15.156 45.5164 14.97L45.5224 14.958ZM46.3984 14.94C46.2803 15.0922 46.1834 15.2597 46.1104 15.438C46.0661 15.5135 46.0427 15.5995 46.0427 15.687C46.0427 15.7746 46.0661 15.8606 46.1104 15.936C46.2004 16.104 46.2784 16.224 46.3204 16.314C46.4423 16.18 46.5397 16.0257 46.6084 15.858C46.6534 15.6951 46.6534 15.523 46.6084 15.36C46.5205 15.2276 46.4498 15.0845 46.3984 14.934V14.94ZM44.7004 18.9C44.8679 18.5387 44.9812 18.1545 45.0364 17.76C44.992 17.4686 44.8766 17.1925 44.7004 16.956C44.5042 17.1805 44.3862 17.4627 44.3644 17.76C44.4062 18.1573 44.5201 18.5436 44.7004 18.9ZM45.1984 16.122C45.3864 16.3437 45.5236 16.6038 45.6004 16.884C45.5348 17.1425 45.4486 17.3954 45.3424 17.64C45.2209 17.517 45.1232 17.3726 45.0544 17.214C44.9964 17.137 44.9557 17.0483 44.935 16.9541C44.9143 16.8599 44.9141 16.7623 44.9344 16.668C44.9233 16.564 44.9397 16.4589 44.9818 16.3631C45.0239 16.2673 45.0903 16.1842 45.1744 16.122H45.1984ZM45.9784 16.074C45.8495 16.2618 45.7766 16.4824 45.7684 16.71C45.8583 16.9217 45.9709 17.1228 46.1044 17.31C46.1933 17.1527 46.2637 16.9856 46.3144 16.812C46.3182 16.6733 46.2898 16.5356 46.2315 16.4097C46.1732 16.2837 46.0866 16.173 45.9784 16.086" fill="white"/>
<path d="M44.9995 19.734C45.0539 19.4433 45.1509 19.1623 45.2875 18.9C45.3136 18.7759 45.312 18.6477 45.283 18.5243C45.254 18.4009 45.1982 18.2854 45.1195 18.186C45.0051 18.5602 44.8627 18.9252 44.6935 19.278C44.5307 18.9225 44.3885 18.5579 44.2675 18.186C44.1888 18.2854 44.133 18.4009 44.104 18.5243C44.075 18.6477 44.0734 18.7759 44.0995 18.9C44.2244 19.1684 44.3248 19.4476 44.3995 19.734C44.3936 19.8579 44.3495 19.9769 44.2732 20.0747C44.1969 20.1724 44.0922 20.2442 43.9735 20.28C44.0781 20.3212 44.1934 20.3271 44.3017 20.2968C44.4101 20.2665 44.5055 20.2016 44.5735 20.112C44.6253 20.0655 44.6663 20.0082 44.6935 19.944C44.7384 19.9963 44.7786 20.0526 44.8135 20.112C44.8809 20.2024 44.9763 20.2679 45.0849 20.2983C45.1934 20.3287 45.309 20.3223 45.4135 20.28C45.3143 20.2202 45.228 20.1411 45.16 20.0473C45.092 19.9534 45.0435 19.8469 45.0175 19.734H44.9995ZM43.6375 17.094C43.6855 17.214 43.8055 17.52 43.8475 17.592C43.8638 17.7018 43.8446 17.814 43.7928 17.9122C43.7411 18.0103 43.6593 18.0895 43.5595 18.138C43.4467 18.0699 43.3568 17.9696 43.3015 17.85C43.2738 17.7959 43.2635 17.7346 43.2721 17.6744C43.2807 17.6142 43.3077 17.5582 43.3495 17.514C43.4146 17.3534 43.5127 17.2083 43.6375 17.088V17.094ZM44.2375 17.688C44.2177 17.9467 44.1611 18.2013 44.0695 18.444C44.0057 18.5785 43.9129 18.6973 43.7978 18.7917C43.6826 18.8862 43.5479 18.9538 43.4035 18.99C43.2654 18.9666 43.1354 18.9089 43.0255 18.822C43.0361 18.7443 43.0689 18.6712 43.12 18.6116C43.1711 18.552 43.2383 18.5084 43.3135 18.486C43.6953 18.3171 44.0174 18.0369 44.2375 17.682V17.688ZM43.4335 18.282C43.3812 18.2371 43.325 18.1969 43.2655 18.162C43.1164 18.2166 42.9735 18.2869 42.8395 18.372C42.6656 18.5004 42.5118 18.6541 42.3835 18.828C42.5321 18.8738 42.6909 18.8738 42.8395 18.828C42.8722 18.6729 42.965 18.537 43.0975 18.45C43.1977 18.373 43.3118 18.3159 43.4335 18.282ZM43.1995 18.054C43.1178 17.9452 43.0755 17.812 43.0795 17.676L42.5815 18.012C42.4211 18.1343 42.2778 18.2776 42.1555 18.438C42.3187 18.3871 42.485 18.3471 42.6535 18.318C42.8635 18.228 43.0315 18.15 43.1995 18.06V18.054ZM42.5335 18.486C42.245 18.5775 41.9502 18.6477 41.6515 18.696C41.4462 18.7846 41.2607 18.913 41.1055 19.074L41.5615 19.194C41.7173 19.0813 41.8841 18.9848 42.0595 18.906C42.2421 18.7963 42.4011 18.6515 42.5275 18.48L42.5335 18.486ZM42.1015 19.86C42.1915 19.812 42.1915 19.74 42.1495 19.65C42.0794 19.5501 41.9781 19.4763 41.8615 19.44C41.6035 19.35 41.3155 19.272 41.0575 19.182C41.0126 19.2343 40.9724 19.2906 40.9375 19.35C40.9375 19.398 40.9375 19.44 41.0275 19.44H41.5735C41.6031 19.4652 41.6237 19.4992 41.6324 19.537C41.6411 19.5749 41.6372 19.6145 41.6215 19.65C41.6994 19.6006 41.7877 19.5698 41.8795 19.56C41.9371 19.5918 41.9873 19.6356 42.0266 19.6884C42.0659 19.7412 42.0935 19.8017 42.1075 19.866L42.1015 19.86ZM41.6815 19.2C41.8301 19.2376 41.9732 19.2941 42.1075 19.368C42.1555 19.32 42.1975 19.32 42.2275 19.278C42.3064 19.1372 42.4227 19.0209 42.5635 18.942C42.4902 18.9478 42.417 18.9311 42.3535 18.894C42.2635 18.942 42.1855 18.942 42.0955 18.984C41.9495 19.0325 41.8118 19.1034 41.6875 19.194L41.6815 19.2ZM42.8875 18.906C42.8395 18.954 42.7675 18.954 42.6775 18.954C42.4536 19.0875 42.2902 19.3026 42.2215 19.554C42.1941 19.6264 42.1963 19.7068 42.2278 19.7776C42.2592 19.8483 42.3174 19.9038 42.3895 19.932C42.4785 19.9711 42.5789 19.9756 42.671 19.9445C42.7632 19.9134 42.8404 19.849 42.8875 19.764C42.8875 19.716 42.9355 19.716 42.9355 19.674C42.9048 19.6989 42.8694 19.7173 42.8316 19.7286C42.7937 19.7397 42.7539 19.7433 42.7147 19.7391C42.6754 19.7349 42.6374 19.723 42.6026 19.7042C42.5679 19.6853 42.5373 19.6597 42.5125 19.629C42.4624 19.567 42.4389 19.4875 42.4474 19.4082C42.4559 19.3288 42.4955 19.2561 42.5575 19.206C42.6055 19.206 42.6055 19.158 42.6475 19.158C42.783 19.0708 42.9426 19.0288 43.1035 19.038C43.0135 18.99 42.9355 18.918 42.8935 18.918" fill="white"/>
<path d="M40.164 22.2C40.2156 21.994 40.2859 21.7932 40.374 21.6C40.584 21.174 41.01 20.13 41.964 19.962C42.054 19.962 41.874 19.704 41.754 19.752C41.6322 19.7859 41.5182 19.8429 41.418 19.92V19.662C41.418 19.614 41.37 19.614 41.328 19.614C41.2103 19.6161 41.0949 19.647 40.992 19.704C40.6654 20.149 40.3992 20.6352 40.2 21.15C39.99 21.648 39.864 21.816 39.6 21.75C39.336 21.684 39.264 21.414 38.844 21.492C38.6804 21.5359 38.5327 21.6254 38.418 21.75C38.4391 21.7979 38.4769 21.8364 38.5244 21.8585C38.5719 21.8805 38.6257 21.8846 38.676 21.87C38.9281 21.8768 39.1743 21.9491 39.39 22.08C39.6454 22.1394 39.9038 22.1855 40.164 22.218V22.2ZM43.986 18.912C44.0148 19.0797 44.0873 19.237 44.196 19.368C44.196 19.368 43.908 20.718 42.846 20.838C42.8912 20.6355 43.0112 20.4576 43.182 20.34C43.518 20.13 43.986 19.794 43.938 19.296C43.8415 19.352 43.7544 19.4229 43.68 19.506C43.512 19.716 43.224 20.262 42.678 20.262C42.7278 20.0937 42.8284 19.9449 42.966 19.836C43.2141 19.7009 43.4308 19.5148 43.602 19.29C43.6786 19.1228 43.8128 18.9887 43.98 18.912H43.986ZM43.482 23.856L44.118 24.78L44.616 23.898L44.448 23.61L44.112 24.246L43.686 23.61L43.476 23.85" fill="white"/>
<path d="M43.32 23.088L41.85 21L42.108 20.832L41.352 20.544V21.378L41.61 21.168L43.158 23.352L43.326 23.094L43.32 23.088ZM38.034 18.15C38.244 17.94 38.532 18.102 38.868 18.438C39.204 18.774 39.414 19.038 39.204 19.242C38.994 19.446 38.706 19.29 38.37 18.984C38.034 18.678 37.872 18.384 38.034 18.15Z" fill="white"/>
<path d="M38.5741 21.828C38.4787 21.7462 38.4032 21.6436 38.3532 21.5283C38.3034 21.4129 38.2804 21.2876 38.2861 21.162C38.2761 21.0405 38.2913 20.9182 38.3309 20.8029C38.3705 20.6875 38.4336 20.5816 38.5163 20.4919C38.5988 20.4022 38.6991 20.3306 38.8109 20.2816C38.9225 20.2326 39.0432 20.2074 39.1651 20.2074C39.2871 20.2074 39.4077 20.2326 39.5193 20.2816C39.6311 20.3306 39.7314 20.4022 39.8139 20.4919C39.8966 20.5816 39.9597 20.6875 39.9993 20.8029C40.0389 20.9182 40.0541 21.0405 40.0441 21.162V21.33C40.1022 21.1728 40.1725 21.0204 40.2541 20.874C40.1739 20.5868 39.9849 20.3421 39.7272 20.192C39.4695 20.0419 39.1635 19.9981 38.8741 20.07C38.5665 20.1685 38.3101 20.3841 38.1601 20.67C38.2097 20.2983 38.3684 19.9495 38.6161 19.668C38.7654 19.5529 38.934 19.4656 39.1141 19.41C38.9604 19.4104 38.8086 19.3768 38.6696 19.3114C38.5306 19.246 38.4078 19.1506 38.3101 19.032C38.0715 18.8619 37.9082 18.606 37.8541 18.318C37.8914 18.544 37.86 18.776 37.7641 18.984C37.5182 19.4497 37.4178 19.9786 37.4761 20.502C37.5903 21.0027 37.8539 21.4567 38.2321 21.804C38.2737 21.8491 38.3057 21.9021 38.3263 21.9598C38.3469 22.0175 38.3557 22.0788 38.3521 22.14H39.1561C39.1561 22.14 39.3241 22.14 39.3241 22.02C39.3241 21.9 39.2341 21.9 39.1561 21.9C38.9541 21.9213 38.7499 21.9009 38.5561 21.84L38.5741 21.828ZM42.0301 22.02C41.6363 22.1403 41.2356 22.2365 40.8301 22.308C40.594 22.3453 40.3551 22.3614 40.1161 22.356V22.476C40.1322 22.4914 40.1448 22.5101 40.1531 22.5308C40.1614 22.5515 40.1651 22.5738 40.1641 22.596C40.417 22.6026 40.67 22.5865 40.9201 22.548C41.3702 22.4937 41.8105 22.3765 42.2281 22.2L42.0481 22.002L42.0301 22.02ZM42.7321 22.002C43.3778 21.6698 43.915 21.1597 44.2801 20.532L44.3701 20.412C44.3255 20.4347 44.2761 20.4465 44.2261 20.4465C44.1761 20.4465 44.1267 20.4347 44.0821 20.412L44.0341 20.502C43.6623 21.0546 43.1726 21.5177 42.6001 21.858L42.7201 22.008L42.7321 22.002ZM39.1201 22.248H38.6641C38.6342 22.239 38.6027 22.2363 38.5716 22.24C38.5406 22.2436 38.5106 22.2537 38.4836 22.2694C38.4566 22.2852 38.4331 22.3063 38.4146 22.3315C38.3961 22.3567 38.383 22.3855 38.3761 22.416C38.3281 22.506 38.3761 22.584 38.4661 22.674C38.5561 22.764 38.6341 22.722 38.6761 22.674C38.8484 22.5894 39.0148 22.4932 39.1741 22.386C39.2041 22.296 39.2521 22.206 39.1141 22.248H39.1201ZM39.4921 22.458C39.4271 22.425 39.355 22.4085 39.2821 22.41C39.1155 22.5007 38.9621 22.6137 38.8261 22.746C38.7781 22.836 38.8261 22.866 38.9161 22.914C38.9638 22.9511 39.024 22.9683 39.0841 22.962C39.1631 22.9603 39.2384 22.928 39.2941 22.872C39.3421 22.824 39.5041 22.614 39.5521 22.584C39.5414 22.54 39.5209 22.499 39.4921 22.464V22.458ZM39.5401 22.674C39.4921 22.722 39.3301 22.932 39.3301 22.932C39.3301 22.932 39.3301 22.98 39.3781 23.022H39.4261C39.5765 23.022 39.7239 22.9805 39.8521 22.902C39.9901 22.824 40.1101 22.614 39.9721 22.566C39.9375 22.5436 39.8986 22.5286 39.8579 22.522C39.8172 22.5153 39.7755 22.5171 39.7356 22.5272C39.6956 22.5373 39.6581 22.5556 39.6255 22.5808C39.593 22.6061 39.5659 22.6378 39.5461 22.674H39.5401ZM39.6361 22.128C39.5969 22.1054 39.5524 22.0935 39.5071 22.0935C39.4618 22.0935 39.4173 22.1054 39.3781 22.128C39.3301 22.218 39.3781 22.296 39.4981 22.338C39.566 22.379 39.6419 22.4045 39.7208 22.4128C39.7995 22.4211 39.8792 22.4119 39.9541 22.386C40.0141 22.338 39.9241 22.206 39.6361 22.128ZM45.8401 17.094C45.7921 17.214 45.6721 17.52 45.6301 17.592C45.6138 17.7018 45.633 17.814 45.6848 17.9122C45.7365 18.0103 45.8183 18.0895 45.9181 18.138C46.0309 18.0699 46.1208 17.9696 46.1761 17.85C46.2038 17.7959 46.2141 17.7346 46.2055 17.6744C46.1969 17.6142 46.1699 17.5582 46.1281 17.514C46.0081 17.334 45.9181 17.208 45.8401 17.088V17.094ZM45.2041 17.688C45.2177 17.9524 45.2894 18.2105 45.4141 18.444C45.4779 18.5785 45.5707 18.6973 45.6858 18.7917C45.801 18.8862 45.9357 18.9538 46.0801 18.99C46.2182 18.9666 46.3482 18.9089 46.4581 18.822C46.451 18.7467 46.4232 18.6748 46.3776 18.6144C46.332 18.5541 46.2706 18.5075 46.2001 18.48C45.8045 18.3129 45.4665 18.0333 45.2281 17.676" fill="white"/>
<path d="M45.9599 18.2641C46.0122 18.2191 46.0684 18.179 46.1279 18.1441C46.277 18.1986 46.4199 18.269 46.5539 18.3541C46.7278 18.4824 46.8816 18.6361 47.0099 18.8101C46.8613 18.8558 46.7025 18.8558 46.5539 18.8101C46.5212 18.6549 46.4285 18.519 46.2959 18.4321C46.2479 18.3541 46.1279 18.3121 45.9599 18.2641ZM46.2179 18.0541C46.3053 17.9299 46.3476 17.7796 46.3379 17.6281L46.8359 17.9641C46.9963 18.0863 47.1396 18.2296 47.2619 18.3901C47.0987 18.3392 46.9324 18.2991 46.7639 18.2701C46.5782 18.218 46.4062 18.1258 46.2599 18.0001L46.2179 18.0541ZM46.8599 18.4681C47.1484 18.5596 47.4432 18.6298 47.7419 18.6781C47.9472 18.7666 48.1328 18.8951 48.2879 19.0561L47.8319 19.1761C47.6761 19.0634 47.5093 18.9669 47.3339 18.8881C47.1483 18.7825 46.9884 18.637 46.8659 18.4621L46.8599 18.4681ZM47.2739 19.8421C47.1839 19.7941 47.1839 19.7221 47.2259 19.6321C47.296 19.5322 47.3973 19.4583 47.5139 19.4221C47.7719 19.3321 48.0599 19.2541 48.3179 19.1641C48.3628 19.2164 48.403 19.2726 48.4379 19.3321C48.4379 19.3801 48.4379 19.4221 48.3479 19.4221H47.8019C47.7723 19.4472 47.7517 19.4812 47.743 19.5191C47.7343 19.5569 47.7382 19.5965 47.7539 19.6321C47.676 19.5826 47.5877 19.5518 47.4959 19.5421C47.3836 19.6112 47.302 19.7207 47.2679 19.8481L47.2739 19.8421ZM47.7179 19.2001C47.5693 19.2377 47.4262 19.2941 47.2919 19.3681C47.2685 19.3666 47.2464 19.3567 47.2299 19.3401C47.2132 19.3235 47.2033 19.3015 47.2019 19.2781C47.123 19.1372 47.0067 19.021 46.8659 18.9421C46.9392 18.9479 47.0124 18.9311 47.0759 18.8941C47.1659 18.9421 47.2439 18.9421 47.3339 18.9841C47.4676 19.0392 47.5945 19.1096 47.7119 19.1941L47.7179 19.2001ZM46.5119 18.9061C46.5599 18.9541 46.6319 18.9541 46.7219 18.9541C46.9458 19.0876 47.1092 19.3026 47.1779 19.5541C47.2053 19.6265 47.2031 19.7068 47.1716 19.7776C47.1402 19.8484 47.082 19.9039 47.0099 19.9321C46.9209 19.9712 46.8205 19.9756 46.7284 19.9445C46.6362 19.9135 46.559 19.8491 46.5119 19.7641C46.5119 19.7161 46.4639 19.7161 46.4639 19.6741C46.526 19.7242 46.6054 19.7476 46.6847 19.7392C46.764 19.7308 46.8368 19.6911 46.8869 19.6291C46.937 19.567 46.9605 19.4876 46.952 19.4083C46.9436 19.3289 46.9039 19.2562 46.8419 19.2061C46.7939 19.2061 46.7939 19.1581 46.7519 19.1581C46.6164 19.0709 46.4568 19.0288 46.2959 19.0381C46.3859 18.9901 46.4639 18.9181 46.5059 18.9181L46.5119 18.9061ZM49.2839 22.2001C49.2304 21.9939 49.158 21.7931 49.0679 21.6001C48.8579 21.1741 48.4319 20.1301 47.4779 19.9621C47.3879 19.9621 47.5679 19.7041 47.6879 19.7521C47.8097 19.786 47.9237 19.843 48.0239 19.9201V19.6621C48.0239 19.6141 48.0719 19.6141 48.1139 19.6141C48.1731 19.6042 48.2337 19.6071 48.2917 19.6226C48.3496 19.6382 48.4036 19.666 48.4499 19.7041C48.7825 20.1559 49.0528 20.6503 49.2539 21.1741C49.4639 21.6721 49.5899 21.8401 49.8539 21.7741C50.1179 21.7081 50.2319 21.4381 50.6099 21.5161C50.7735 21.56 50.9212 21.6494 51.0359 21.7741C51.0147 21.8219 50.9769 21.8604 50.9295 21.8825C50.882 21.9046 50.8281 21.9087 50.7779 21.8941C50.5257 21.9008 50.2796 21.9732 50.0639 22.1041C49.7919 22.1641 49.5339 22.2101 49.2899 22.2421L49.2839 22.2001ZM45.4139 18.9001C45.3851 19.0678 45.3126 19.2251 45.2039 19.3561C45.2039 19.3561 45.4919 20.7061 46.5539 20.8261C46.5087 20.6236 46.3887 20.4457 46.2179 20.3281C45.8819 20.1181 45.4139 19.7821 45.4619 19.2841C45.5584 19.3401 45.6454 19.411 45.7199 19.4941C45.8879 19.7041 46.1759 20.2501 46.7219 20.2501C46.6721 20.0818 46.5715 19.933 46.4339 19.8241C46.1858 19.6889 45.969 19.5029 45.7979 19.2781C45.7168 19.114 45.5839 18.9812 45.4199 18.9001H45.4139ZM44.6999 20.1901C44.8696 20.5251 45.0835 20.8359 45.3359 21.114C45.5039 21.282 45.9359 21.714 46.1699 21.918C45.8013 21.8333 45.458 21.6627 45.1679 21.4201C45.0273 21.5032 44.8728 21.5601 44.7119 21.5881C44.5494 21.5665 44.3936 21.509 44.2559 21.4201C43.9714 21.6712 43.6258 21.8429 43.2539 21.918C43.4639 21.708 43.9199 21.282 44.0879 21.114C44.3618 20.8608 44.568 20.5432 44.6879 20.1901" fill="white"/>
<path d="M44.7003 21.708C44.8305 21.6996 44.9583 21.6692 45.0783 21.618C45.0003 21.8156 44.8695 21.9878 44.7003 22.116C44.541 21.9782 44.4122 21.8085 44.3223 21.618C44.4423 21.6692 44.5701 21.6996 44.7003 21.708Z" fill="white"/>
<path d="M45.2466 24.7741L47.8086 21.2101L48.0666 21.4201V20.5861L47.3106 20.8741L47.5686 21.0421L45.3066 24.2281L44.1066 22.1341L43.9866 22.3441L42.9846 23.8921L42.7266 23.7241V24.5581L43.5306 24.2701L43.2726 24.1021L44.1546 22.7521L45.2466 24.7681" fill="white"/>
<path d="M45.7025 23.346L45.2765 22.68C45.2285 22.8 45.0665 23.016 44.9405 23.316L44.7725 22.98L45.2705 22.098L45.3905 22.308L45.8465 23.112L45.6965 23.34L45.7025 23.346ZM46.2425 23.55L46.4105 23.838L46.6685 23.67V24.504L45.8645 24.216L46.1225 24.048L46.0025 23.88L46.2425 23.544V23.55ZM51.3725 18.144C51.1625 17.934 50.8745 18.096 50.5385 18.432C50.2025 18.768 49.9925 19.032 50.2025 19.236C50.4125 19.44 50.7005 19.284 51.0365 18.978C51.3725 18.672 51.5345 18.378 51.3725 18.144Z" fill="white"/>
<path d="M50.874 21.828C50.9694 21.7462 51.0449 21.6436 51.0948 21.5283C51.1447 21.4129 51.1677 21.2876 51.162 21.162C51.1437 20.9415 51.0432 20.7358 50.8804 20.5858C50.7176 20.4359 50.5043 20.3527 50.283 20.3527C50.0616 20.3527 49.8484 20.4359 49.6856 20.5858C49.5227 20.7358 49.4222 20.9415 49.404 21.162V21.33C49.356 21.24 49.194 20.904 49.194 20.874C49.2742 20.5868 49.4632 20.3422 49.7208 20.1921C49.9785 20.0419 50.2845 19.9981 50.574 20.07C50.8815 20.1685 51.138 20.3841 51.288 20.67C51.2384 20.2983 51.0797 19.9496 50.832 19.668C50.6827 19.553 50.514 19.4656 50.334 19.41C50.4876 19.4104 50.6394 19.3768 50.7785 19.3114C50.9175 19.246 51.0403 19.1506 51.138 19.032C51.3801 18.8616 51.5459 18.6031 51.6 18.312C51.5627 18.538 51.5941 18.77 51.69 18.978C51.9359 19.4437 52.0362 19.9726 51.978 20.496C51.8638 20.9967 51.6002 21.4507 51.222 21.798C51.1804 21.8431 51.1484 21.8961 51.1278 21.9538C51.1071 22.0115 51.0984 22.0728 51.102 22.134H50.28C50.28 22.134 50.112 22.134 50.112 22.014C50.112 21.894 50.202 21.894 50.28 21.894C50.4819 21.9105 50.6853 21.8902 50.88 21.834L50.874 21.828ZM46.722 22.014C46.0859 21.6685 45.5519 21.1615 45.174 20.544L45.084 20.424C45.1286 20.4467 45.1779 20.4585 45.228 20.4585C45.278 20.4585 45.3273 20.4467 45.372 20.424L45.42 20.514C45.7907 21.0637 46.2783 21.5247 46.848 21.864L46.728 22.014H46.722ZM47.328 22.014C47.7218 22.1343 48.1225 22.2305 48.528 22.302C48.7641 22.3393 49.003 22.3554 49.242 22.35V22.47C49.2258 22.4854 49.2132 22.5041 49.205 22.5248C49.1967 22.5455 49.193 22.5678 49.194 22.59C48.9411 22.5966 48.6881 22.5805 48.438 22.542C47.9984 22.4869 47.5684 22.3718 47.16 22.2L47.34 22.002L47.328 22.014ZM50.238 22.242H50.694C50.817 22.2391 50.9366 22.2819 51.03 22.362C51.0309 22.4157 51.0207 22.469 51 22.5186C50.9794 22.5681 50.9487 22.6129 50.91 22.65C50.82 22.698 50.742 22.698 50.7 22.65C50.5277 22.5654 50.3613 22.4692 50.202 22.362C50.172 22.332 50.124 22.194 50.25 22.242H50.238ZM49.872 22.452C49.9524 22.414 50.0413 22.3975 50.13 22.404C50.2966 22.4947 50.45 22.6077 50.586 22.74C50.634 22.83 50.586 22.86 50.496 22.908C50.4483 22.9451 50.3881 22.9623 50.328 22.956C50.249 22.9543 50.1737 22.922 50.118 22.866C50.07 22.818 49.908 22.608 49.86 22.578C49.8682 22.5384 49.8682 22.4976 49.86 22.458L49.872 22.452ZM49.8 22.68C49.848 22.728 50.01 22.938 50.01 22.938C50.01 22.938 50.01 22.986 49.962 23.028H49.914C49.7636 23.028 49.6162 22.9865 49.488 22.908C49.368 22.818 49.23 22.62 49.368 22.572C49.402 22.5477 49.4409 22.5312 49.482 22.5234C49.5231 22.5157 49.5654 22.5171 49.606 22.5273C49.6466 22.5376 49.6844 22.5566 49.7168 22.5829C49.7493 22.6093 49.7756 22.6425 49.794 22.68H49.8ZM49.704 22.134C49.7432 22.1114 49.7877 22.0995 49.833 22.0995C49.8783 22.0995 49.9227 22.1114 49.962 22.134C50.01 22.224 49.962 22.302 49.842 22.344C49.7747 22.3862 49.6986 22.4125 49.6196 22.4208C49.5405 22.4291 49.4606 22.4193 49.386 22.392C49.326 22.344 49.416 22.212 49.704 22.134Z" fill="white"/>
<path d="M87.4027 8.81401C87.2827 7.67401 86.7367 7.09801 85.4767 7.09801H83.8867L83.6767 13.53H84.8767C84.8767 13.53 84.9967 10.53 84.9967 10.422H86.4667C86.4667 10.542 86.7247 13.53 86.7247 13.53H87.9247C87.8767 13.482 87.4567 9.07201 87.4087 8.81401H87.4027ZM85.0087 9.33001C85.0087 9.21001 85.0567 8.28601 85.0567 8.13001H85.2667C86.1007 8.13001 86.2687 8.29801 86.3587 9.33001H85.0087ZM73.2487 17.646C73.1287 16.506 72.5827 15.93 71.3227 15.93H69.7327L69.5227 22.362H70.7227C70.7227 22.362 70.8427 19.362 70.8427 19.254H72.3127C72.3127 19.374 72.5707 22.362 72.5707 22.362H73.7707C73.7227 22.302 73.3027 17.886 73.2547 17.646H73.2487ZM70.8547 18.144C70.8547 18.024 70.9027 17.1 70.9027 16.944H71.1127C71.9467 16.944 72.1147 17.112 72.2047 18.144H70.8547ZM64.5127 7.09801V13.518H65.7127V8.11801H67.1407V13.518H68.3407V7.09801H64.5127ZM76.9987 9.33001H76.3627C76.1497 9.33919 75.9397 9.28033 75.7627 9.16201C75.7213 9.11695 75.6889 9.06397 75.6685 9.00625C75.6481 8.94847 75.6391 8.88721 75.6427 8.82601V7.09801H74.4427V8.94601C74.4361 9.14725 74.4775 9.34711 74.5639 9.52885C74.6509 9.71059 74.7799 9.86875 74.9407 9.99001C75.2755 10.2735 75.7021 10.425 76.1407 10.416H76.9747V13.524H78.1747V7.09801H76.9747V9.33001H76.9987ZM79.4647 7.09801V8.14201H80.4367V13.542H81.6367V8.14201H82.6087V7.09801H79.4647ZM77.7367 15.864V17.928H76.0987V15.87H74.9287V22.302H76.0987V19.026H77.7367V22.302H78.9367V15.87L77.7367 15.864ZM66.2407 18H65.6947V16.974H67.8007V15.93H64.5247V22.362H66.3247C66.6079 22.3659 66.8881 22.3113 67.1491 22.2015C67.4101 22.0916 67.6453 21.9291 67.8403 21.724C68.0353 21.5188 68.1859 21.2756 68.2819 21.0096C68.3785 20.7435 68.4187 20.4604 68.4007 20.178C68.3527 19.452 68.1127 18.024 66.2587 18.024L66.2407 18ZM66.0907 21.33C65.9707 21.33 65.6647 21.282 65.6647 21.282V19.026H65.8747C66.4747 19.026 67.1767 18.978 67.1767 20.166C67.1767 21.258 66.4207 21.336 66.0847 21.336L66.0907 21.33ZM73.5967 10.08C73.6051 9.36937 73.4599 8.66527 73.1707 8.01601C73.0387 7.69087 72.8119 7.41289 72.5197 7.21819C72.2275 7.02349 71.8837 6.92101 71.5327 6.92401H71.4847C71.1349 6.92731 70.7941 7.03231 70.5031 7.22623C70.2121 7.42015 69.9841 7.69459 69.8467 8.01601C69.5605 8.66617 69.4153 9.36961 69.4207 10.08V10.29C69.4057 10.814 69.4765 11.337 69.6307 11.838C69.9667 13.14 70.6747 13.596 71.4787 13.638H71.5267C72.3307 13.638 73.0447 13.182 73.3747 11.838C73.5043 11.3318 73.5745 10.8124 73.5847 10.29V10.08H73.5967ZM70.5847 10.29C70.5847 8.57401 71.0107 7.98601 71.4667 7.98601C71.9227 7.98601 72.3487 8.58601 72.3487 10.29C72.3487 11.994 71.9227 12.552 71.4667 12.552C71.0107 12.552 70.6327 11.952 70.5847 10.29ZM84.7387 22.29L83.3107 18.51C83.6497 18.2529 83.8927 17.8895 84.0007 17.478C84.0907 17.052 84.2107 15.888 84.2107 15.888H83.0107C83.0107 16.008 82.9627 16.386 82.9207 16.812C82.8727 17.448 82.6627 18.012 82.0867 18.012H81.6607V15.9H80.4607V22.302H81.6607V19.026H82.3747L83.5747 22.302L84.7387 22.29Z" fill="white"/>
</svg>
