<svg viewBox="0 0 120 30" fill="none" xmlns="http://www.w3.org/2000/svg">
<path d="M14.4727 5.47205H33.3067V24.306H14.4727V5.47205Z" fill="#FFED00"/>
<path d="M56.118 16.9141L55.632 19.914H58.56L59.046 16.9141H61.2L59.88 24.984H57.744L58.302 21.522H55.374L54.816 24.984H52.656L54 16.9141H56.142H56.118ZM64.65 16.9141H62.4L61.05 24.984H63.258L63.858 21.4981L66.138 25.008H69L66 20.754L70.02 16.938H67.32L64.086 20.262L64.65 16.9141ZM49.35 21.96L48.882 19.38L47.532 21.96H49.35ZM49.674 23.562H46.626L45.816 24.96H43.464L48.066 16.89H50.466L52.326 24.96H49.98L49.674 23.562ZM43.884 22.5361C43.8205 23.0783 43.5947 23.5886 43.236 24C42.378 24.882 41.076 24.93 40.236 24.9541H37.002L38.4 16.9141H43.908L43.65 18.492H40.308L40.05 20.0941H41.004C41.8172 20.0373 42.6244 20.2688 43.284 20.7481C43.5318 20.9701 43.7175 21.2528 43.8227 21.5685C43.9279 21.8841 43.949 22.2218 43.884 22.548V22.5361ZM40.398 21.6H39.798L39.498 23.322H40.056C41.31 23.322 41.568 22.974 41.64 22.506C41.712 22.038 41.64 21.6 40.386 21.6H40.398ZM96.186 9.43805H98.418C98.367 9.18893 98.229 8.96591 98.0292 8.80883C97.8294 8.65169 97.5804 8.57063 97.326 8.58005C97.0626 8.55317 96.7992 8.62661 96.588 8.78567C96.3768 8.94473 96.2328 9.17771 96.186 9.43805ZM100.2 10.356V10.566H96.156C96.1368 10.7283 96.1542 10.8928 96.2082 11.0471C96.2616 11.2015 96.3492 11.3418 96.465 11.4573C96.5802 11.5728 96.7206 11.6606 96.8748 11.7141C97.029 11.7676 97.194 11.7854 97.356 11.766C97.5408 11.7818 97.7262 11.7415 97.8876 11.6505C98.049 11.5596 98.1798 11.4221 98.262 11.256H100.122C99.822 12.558 98.61 13.14 97.38 13.14C95.58 13.14 94.242 12.12 94.242 10.212C94.2192 9.81539 94.2816 9.41843 94.4256 9.04799C94.569 8.67755 94.791 8.34227 95.0748 8.06477C95.3592 7.78721 95.7 7.57391 96.0738 7.43927C96.4476 7.30457 96.846 7.25165 97.242 7.28405C99.126 7.28405 100.194 8.48405 100.194 10.356H100.2ZM46.86 8.89205C46.6948 8.88371 46.5298 8.90963 46.3752 8.96807C46.2205 9.02657 46.0796 9.11633 45.9613 9.23183C45.843 9.34733 45.7498 9.48599 45.6876 9.63923C45.6255 9.79241 45.5956 9.95675 45.6 10.122C45.5958 10.2847 45.6249 10.4465 45.6852 10.5976C45.7455 10.7487 45.836 10.8859 45.951 11.001C46.0661 11.116 46.2033 11.2065 46.3544 11.2668C46.5055 11.3271 46.6673 11.3562 46.83 11.352C46.9942 11.3626 47.1589 11.3381 47.3129 11.28C47.4669 11.2219 47.6068 11.1317 47.7232 11.0153C47.8396 10.8989 47.9298 10.759 47.9879 10.605C48.046 10.451 48.0705 10.2863 48.06 10.122C48.064 9.95939 48.0351 9.79763 47.9747 9.64649C47.9143 9.49541 47.8239 9.35819 47.7088 9.24311C47.5938 9.12809 47.4566 9.03761 47.3055 8.97731C47.1544 8.91695 46.9926 8.88791 46.83 8.89205H46.86ZM49.92 7.38005V12.87H48V12.27C47.8183 12.5291 47.5738 12.7377 47.2893 12.8762C47.0049 13.0148 46.6899 13.0787 46.374 13.062C46.0018 13.0529 45.6352 12.9693 45.2958 12.8163C44.9563 12.6633 44.651 12.4439 44.3977 12.171C44.1444 11.8982 43.9483 11.5773 43.8209 11.2275C43.6935 10.8777 43.6374 10.5059 43.656 10.134C43.6358 9.76349 43.6899 9.39263 43.8151 9.04331C43.9404 8.69393 44.1342 8.37317 44.3851 8.09981C44.6362 7.82645 44.9393 7.60601 45.2767 7.45151C45.6141 7.29701 45.979 7.21151 46.35 7.20005C46.6602 7.19279 46.9684 7.25285 47.2533 7.37609C47.5381 7.49939 47.7928 7.68287 48 7.91405V7.38005H49.92ZM78.03 8.89205C77.8674 8.88791 77.7054 8.91695 77.5542 8.97731C77.4036 9.03761 77.2662 9.12809 77.151 9.24311C77.0358 9.35819 76.9458 9.49541 76.8852 9.64649C76.8246 9.79763 76.7958 9.95939 76.8 10.122C76.7958 10.2847 76.8246 10.4465 76.8852 10.5976C76.9458 10.7487 77.0358 10.8859 77.151 11.001C77.2662 11.116 77.4036 11.2065 77.5542 11.2668C77.7054 11.3271 77.8674 11.3562 78.03 11.352C78.1944 11.3626 78.3588 11.3381 78.513 11.28C78.6672 11.2219 78.807 11.1317 78.9234 11.0153C79.0398 10.8989 79.1298 10.759 79.188 10.605C79.2462 10.451 79.2708 10.2863 79.26 10.122C79.2642 9.95939 79.2354 9.79763 79.1748 9.64649C79.1142 9.49541 79.0242 9.35819 78.909 9.24311C78.7938 9.12809 78.6564 9.03761 78.5058 8.97731C78.3546 8.91695 78.1926 8.88791 78.03 8.89205ZM81.102 7.38005V12.87H79.2V12.27C79.0182 12.5291 78.774 12.7377 78.4896 12.8762C78.2052 13.0148 77.8902 13.0787 77.574 13.062C77.202 13.0529 76.8354 12.9693 76.4958 12.8163C76.1562 12.6633 75.8508 12.4439 75.5976 12.171C75.3444 11.8982 75.1482 11.5773 75.021 11.2275C74.8938 10.8777 74.8374 10.5059 74.856 10.134C74.8368 9.76349 74.8914 9.39281 75.0174 9.04373C75.1434 8.69471 75.3378 8.37437 75.5898 8.10161C75.8412 7.82879 76.1448 7.60907 76.4826 7.45529C76.8198 7.30145 77.1852 7.21673 77.556 7.20605C77.871 7.19603 78.1836 7.25531 78.4734 7.37975C78.7626 7.50413 79.0206 7.69067 79.23 7.92605V7.38005H81.102ZM37.302 12.87V4.80005H40.56C42.744 4.80005 43.374 6.36005 43.374 7.45205C43.3892 7.81949 43.3257 8.18591 43.1877 8.52677C43.0498 8.86763 42.8406 9.17507 42.5741 9.42851C42.3076 9.68189 41.9901 9.87539 41.6427 9.99605C41.2953 10.1167 40.9261 10.1617 40.56 10.128H39.36V12.87H37.302ZM39.372 6.54605V8.40005H40.068C41.022 8.40005 41.112 7.80005 41.112 7.49405C41.112 7.18805 40.974 6.58805 40.068 6.58805H39.468L39.396 6.54605H39.372ZM51.138 7.38605V12.876H52.998L54.906 9.87605V12.876H56.838V7.38005H54.978L53.07 10.332V7.38005L51.138 7.38605ZM54.138 6.69005C54.5906 6.72647 55.0434 6.62201 55.4344 6.39113C55.8253 6.16019 56.1354 5.81402 56.322 5.40005L55.068 4.93205C55.0214 5.13343 54.9046 5.31164 54.7386 5.43478C54.5726 5.55791 54.3682 5.61791 54.162 5.60405C53.9552 5.62044 53.7496 5.5614 53.583 5.43786C53.4165 5.31432 53.3002 5.13463 53.256 4.93205L52.002 5.40005C52.191 5.80612 52.4985 6.14549 52.884 6.37355C53.2695 6.60167 53.715 6.70781 54.162 6.67805L54.138 6.69005ZM60.81 15.258V12.96C59.67 12.96 57.762 12.492 57.762 10.122C57.762 7.75205 59.646 7.30805 60.81 7.30805V4.90805H62.742V7.30805C63.906 7.30805 65.742 7.77605 65.742 10.122C65.742 12.468 63.858 12.96 62.742 12.96V15.288L60.81 15.258ZM62.61 8.65805V11.706C63.264 11.706 63.912 11.238 63.912 10.17C63.912 9.10205 63.258 8.63405 62.61 8.65805ZM60.936 11.658V8.65805C60.282 8.65805 59.634 9.12605 59.634 10.194C59.634 11.262 60.288 11.706 60.936 11.682V11.658ZM69.468 15.282V12.96C68.328 12.96 66.42 12.492 66.42 10.122C66.42 7.75205 68.304 7.30805 69.468 7.30805V4.90805H71.4V7.30805C72.564 7.30805 74.448 7.77605 74.448 10.122C74.448 12.468 72.564 12.96 71.4 12.96V15.288H69.468V15.282ZM71.268 8.68205V11.73C71.922 11.73 72.57 11.262 72.57 10.194C72.57 9.12605 71.916 8.65805 71.268 8.68205ZM69.57 11.682V8.68205C68.916 8.68205 68.244 9.15005 68.244 10.218C68.226 10.4056 68.2482 10.5947 68.3088 10.7732C68.3688 10.9516 68.4666 11.1153 68.5944 11.2535C68.7222 11.3916 68.8782 11.5013 69.0516 11.5751C69.225 11.649 69.4116 11.6854 69.6 11.682H69.57ZM82.362 7.38005V12.87H84.222L86.13 9.87005V12.87H88.062V7.38005H86.202L84.27 10.308V7.38005H82.362ZM85.362 6.68405C85.8072 6.71207 86.25 6.60437 86.6328 6.37505C87.015 6.14579 87.3192 5.80579 87.504 5.40005L86.25 4.93205C86.2032 5.13343 86.0868 5.31164 85.9206 5.43478C85.7544 5.55791 85.5504 5.61791 85.344 5.60405C85.137 5.62307 84.93 5.56505 84.7626 5.44108C84.5958 5.31711 84.48 5.13588 84.438 4.93205L83.178 5.40005C83.367 5.80612 83.6748 6.14549 84.06 6.37355C84.4458 6.60167 84.891 6.70781 85.338 6.67805L85.362 6.68405ZM89.502 8.95805C89.919 8.66921 90.411 8.50673 90.918 8.49005C91.152 8.49005 91.686 8.53805 91.686 8.97605C91.686 9.41405 91.218 9.44405 91.038 9.44405H90.084V10.644H90.924C91.206 10.644 91.716 10.644 91.716 11.112C91.716 11.298 91.602 11.646 90.924 11.646C90.3354 11.6447 89.7606 11.4671 89.274 11.136L88.8 12.45C89.55 12.8806 90.4014 13.1042 91.266 13.098C93.474 13.098 93.756 11.82 93.756 11.4C93.7584 11.0797 93.648 10.7688 93.444 10.5219C93.2394 10.2749 92.955 10.1079 92.64 10.05C92.8842 9.94025 93.09 9.75989 93.2316 9.53213C93.3726 9.30443 93.4422 9.03977 93.432 8.77205C93.432 7.49405 92.082 7.23605 91.248 7.23605C90.4662 7.25051 89.697 7.43261 88.992 7.77005L89.502 8.95805ZM101.172 12.864H103.104V10.68H104.874V12.864H106.8V7.38005H104.868V9.31205H103.098V7.38005H101.166L101.172 12.864Z" fill="black"/>
<path d="M33.9598 24.96H13.7998V4.80005H33.9598V24.96ZM33.3058 5.47205H14.4718V24.306H33.3058V5.47205Z" fill="black"/>
<path d="M23.892 17.19L18.102 22.98L15.798 20.676L21.6 14.892L20.4 13.692V11.292L19.56 10.452V12.522L18.84 13.242L15.888 10.338L15.168 11.058C15.1719 10.4129 15.3033 9.775 15.5545 9.18088C15.8058 8.58676 16.1719 8.04814 16.632 7.59598C17.076 7.0984 17.6977 6.7951 18.3631 6.7513C19.0285 6.70756 19.6846 6.92686 20.19 7.36198L23.118 10.314L22.374 11.058L23.892 12.6L25.428 11.064L24.684 10.32L27.6 7.35598C28.1047 6.91936 28.7611 6.6991 29.427 6.7429C30.0929 6.7867 30.7148 7.09102 31.158 7.58998C31.618 8.04214 31.9842 8.58076 32.2354 9.17488C32.4867 9.769 32.618 10.4069 32.622 11.052L31.902 10.332L28.95 13.26L28.23 12.54V10.452L27.396 11.292V13.692L26.196 14.892L31.986 20.682L29.682 22.98L23.892 17.19Z" fill="black"/>
</svg>
