<svg viewBox="0 0 120 30" fill="none" xmlns="http://www.w3.org/2000/svg">
<path d="M54.2998 11.7L56.5798 10.02H49.0198V19.98H56.5798V18.3H51.1798V15.78H55.7398V14.1H51.1798V11.7H54.2998ZM44.8798 11.7L47.1598 10.02H38.5198V19.98H43.0198C45.5398 19.98 46.9798 18.84 46.9798 16.86C46.9798 14.94 45.6598 13.92 43.2598 13.92H40.6198V11.7H44.8798ZM42.9598 15.54C44.3398 15.54 44.9398 16.02 44.9398 16.92C44.9398 17.82 44.2798 18.3 42.9598 18.3H40.6798V15.54H42.9598ZM62.6398 10.02H58.5598V19.98H60.7198V17.16H62.6998C65.3398 17.16 66.9598 15.78 66.9598 13.56C66.9598 11.34 65.2798 10.02 62.6398 10.02ZM62.6398 15.48H60.7198V11.64H62.6398C64.0198 11.64 64.7998 12.3 64.7998 13.56C64.7398 14.82 64.0198 15.48 62.6398 15.48ZM34.8598 17.82C34.2598 18.12 33.6598 18.3 32.9998 18.3C31.0798 18.3 29.6398 16.92 29.6398 15C29.6398 13.08 31.0198 11.7 32.9998 11.7C33.7198 11.7 34.3798 11.94 34.9798 12.3L36.5398 11.16L36.4198 11.04C35.5198 10.26 34.3198 9.83997 32.9398 9.83997C31.4398 9.83997 30.1198 10.32 29.0998 11.28C28.1398 12.24 27.5398 13.56 27.5998 14.94C27.5998 16.32 28.1398 17.64 29.0998 18.66C30.1198 19.62 31.4998 20.16 32.8798 20.1C34.4398 20.1 35.7598 19.56 36.7198 18.6L35.3398 17.58L34.8598 17.82ZM99.5998 14.1H94.9798V10.02H92.8198V19.98H94.9798V15.9H99.5998V19.98H101.76V10.02H99.5998V14.1ZM85.0198 10.02L80.6998 19.98H82.8598L83.6998 18H88.2598L89.0998 19.98H91.3798L87.1798 10.02H85.0198ZM84.4198 16.32L86.0998 12.3L87.6598 16.32H84.4198ZM109.56 14.82L113.46 10.02H111L107.76 14.28H106.56V10.02H104.4V19.98H106.56V15.96H107.94L111.24 19.98H114L109.56 14.82ZM76.1998 13.92H73.5598V11.7H79.1998V10.02H71.3998V19.98H75.8998C78.4198 19.98 79.8598 18.84 79.8598 16.86C79.9198 14.94 78.5998 13.92 76.1998 13.92ZM75.8398 18.36H73.5598V15.6H75.8398C77.2198 15.6 77.8198 16.08 77.8198 16.98C77.8798 17.88 77.1598 18.36 75.8398 18.36Z" fill="#21A038"/>
<path d="M20.8196 9.95996C21.2396 10.44 21.5396 11.04 21.8396 11.58L14.2796 17.16L11.0996 15.18V12.78L14.2796 14.76L20.8196 9.95996ZM22.4396 13.56L20.6396 14.88V15.06C20.6396 16.92 19.8596 18.6 18.5396 19.74L19.7996 21.18C21.4796 19.68 22.5596 17.46 22.5596 15.06C22.5596 14.52 22.4996 14.04 22.4396 13.56Z" fill="#21A038"/>
<path d="M18.7804 19.5C17.6404 20.64 16.0204 21.36 14.2804 21.36H13.9804L13.8604 23.28H14.2804C16.5604 23.28 18.6604 22.32 20.1604 20.82L18.7804 19.5Z" fill="url(#paint0_linear_290_39785)"/>
<path d="M14.2796 21.4203C12.4196 21.4203 10.7396 20.5803 9.53961 19.3203L8.09961 20.5803C9.59961 22.2603 11.8196 23.3403 14.2796 23.3403V21.4203Z" fill="url(#paint1_linear_290_39785)"/>
<path d="M9.78 19.5C8.64 18.36 7.92 16.74 7.92 15V14.64L6 14.58V15C6 17.28 6.9 19.38 8.4 20.88L9.78 19.5Z" fill="url(#paint2_linear_290_39785)"/>
<path d="M7.92 15C7.92 13.14 8.76 11.46 10.02 10.26L8.7 8.88C7.02 10.38 6 12.6 6 15H7.92Z" fill="url(#paint3_linear_290_39785)"/>
<path d="M9.6593 10.6197C10.7993 9.41973 12.4793 8.63973 14.2793 8.63973H14.5793L14.6993 6.71973H14.2793C11.9393 6.71973 9.8393 7.67973 8.2793 9.29973L9.6593 10.6197Z" fill="url(#paint4_linear_290_39785)"/>
<path d="M14.2793 8.63973C15.5993 8.63973 16.8593 9.05973 17.8793 9.77973L19.4993 8.57973C18.0593 7.43973 16.2593 6.71973 14.2793 6.71973V8.63973Z" fill="url(#paint5_linear_290_39785)"/>
<defs>
<linearGradient id="paint0_linear_290_39785" x1="14.0767" y1="22.5449" x2="18.8861" y2="20.8293" gradientUnits="userSpaceOnUse">
<stop offset="0.1226" stop-color="#A3CD39"/>
<stop offset="0.2846" stop-color="#86C339"/>
<stop offset="0.8693" stop-color="#21A038"/>
</linearGradient>
<linearGradient id="paint1_linear_290_39785" x1="8.34063" y1="20.4015" x2="13.9375" y2="22.089" gradientUnits="userSpaceOnUse">
<stop offset="0.1324" stop-color="#F2E913"/>
<stop offset="0.2977" stop-color="#EBE716"/>
<stop offset="0.5306" stop-color="#D9E01F"/>
<stop offset="0.8023" stop-color="#BBD62D"/>
<stop offset="0.9829" stop-color="#A3CD39"/>
</linearGradient>
<linearGradient id="paint2_linear_290_39785" x1="8.48268" y1="20.4523" x2="7.32954" y2="15.2491" gradientUnits="userSpaceOnUse">
<stop offset="0.1444" stop-color="#F2E913"/>
<stop offset="0.3037" stop-color="#E7E518"/>
<stop offset="0.5823" stop-color="#CADB26"/>
<stop offset="0.891" stop-color="#A3CD39"/>
</linearGradient>
<linearGradient id="paint3_linear_290_39785" x1="7.05492" y1="15.4886" x2="8.71428" y2="9.52615" gradientUnits="userSpaceOnUse">
<stop offset="0.0698" stop-color="#A3CD39"/>
<stop offset="0.2599" stop-color="#81C55F"/>
<stop offset="0.9216" stop-color="#0FA8E0"/>
</linearGradient>
<linearGradient id="paint4_linear_290_39785" x1="8.5865" y1="9.31041" x2="14.4928" y2="8.01669" gradientUnits="userSpaceOnUse">
<stop offset="0.0592" stop-color="#0FA8E0"/>
<stop offset="0.5385" stop-color="#0099F9"/>
<stop offset="0.9234" stop-color="#0291EB"/>
</linearGradient>
<linearGradient id="paint5_linear_290_39785" x1="13.8155" y1="7.69395" x2="19.328" y2="8.81895" gradientUnits="userSpaceOnUse">
<stop offset="0.0566" stop-color="#0291EB"/>
<stop offset="0.79" stop-color="#0C8ACB"/>
</linearGradient>
</defs>
</svg>