<svg width="120" height="30" viewBox="0 0 120 30" fill="none" xmlns="http://www.w3.org/2000/svg">
<g clip-path="url(#clip0_306_34525)">
<path d="M55.98 10.6198L52.2 14.4598H50.7V10.6198H49.2V19.7998H50.7V15.9598H52.2L55.98 19.7998H57.96L53.46 15.2398L58.02 10.6198H55.98ZM20.4 13.2598C20.7 12.8398 21.12 12.4798 21.6 12.2398C22.08 11.9998 22.62 11.8798 23.16 11.8798C23.94 11.8798 24.78 12.1798 25.38 12.7198L26.58 11.5198C25.98 10.9798 25.26 10.5598 24.48 10.3798C23.7 10.1998 22.86 10.1398 22.08 10.3798C21.3 10.5598 20.58 10.9198 19.92 11.4598C19.32 11.9998 18.84 12.6598 18.54 13.4398C18.24 14.2198 18.12 14.9998 18.24 15.8398C18.36 16.6198 18.6 17.3998 19.08 18.0598C19.56 18.7198 20.16 19.2598 20.88 19.6798C21.6 20.0998 22.38 20.2798 23.22 20.2798C24.42 20.2798 25.62 19.8598 26.52 19.0198L25.32 17.8798C24.9 18.2398 24.42 18.4798 23.88 18.5398C23.34 18.6598 22.8 18.6598 22.32 18.4798C21.78 18.3598 21.36 18.0598 20.94 17.6998C20.52 17.3398 20.28 16.8598 20.1 16.3798C19.92 15.8998 19.86 15.3598 19.92 14.8198C19.92 14.2198 20.1 13.6798 20.4 13.2598ZM2.16 9.95981C0.78 11.3398 0 13.2598 0 15.1798C0 17.0998 0.78 19.0198 2.16 20.3998C3.54 21.7798 5.46 22.5598 7.38 22.5598H7.68V19.7998H7.38C6.18 19.7398 5.04 19.2598 4.26 18.4198C3.42 17.5798 3 16.4398 3 15.2398C3 14.0398 3.48 12.8998 4.26 12.0598C5.1 11.2198 6.24 10.6798 7.38 10.6798H7.68V7.7998H7.38C5.46 7.7998 3.54 8.5798 2.16 9.95981V9.95981ZM36.12 11.6398C35.16 10.6798 33.9 10.1998 32.58 10.1998C31.62 10.1998 30.6 10.4998 29.82 11.0398C28.98 11.5798 28.38 12.3598 27.96 13.2598C27.6 14.1598 27.48 15.1798 27.66 16.1398C27.84 17.0998 28.32 17.9998 29.04 18.7198C29.76 19.4398 30.6 19.9198 31.62 20.0998C32.58 20.2798 33.6 20.2198 34.5 19.7998C35.4 19.4398 36.18 18.7798 36.72 17.9398C37.26 17.0998 37.56 16.1398 37.56 15.1798C37.62 13.8598 37.08 12.5998 36.12 11.6398V11.6398ZM35.7 16.4998C35.52 16.9198 35.28 17.2798 34.98 17.5798C34.68 17.8798 34.32 18.1198 33.9 18.2998C33.48 18.4798 33.06 18.5398 32.64 18.5398C31.98 18.5398 31.32 18.3598 30.78 17.9998C30.24 17.6398 29.82 17.0998 29.52 16.4998C29.28 15.8998 29.22 15.2398 29.34 14.5798C29.46 13.9198 29.76 13.3198 30.24 12.8398C30.72 12.3598 31.32 12.0598 31.98 11.9398C32.64 11.8198 33.3 11.8798 33.9 12.1198C34.5 12.3598 35.04 12.7798 35.4 13.3798C35.76 13.9198 35.94 14.5798 35.94 15.2398C35.94 15.6598 35.82 16.0798 35.7 16.4998V16.4998Z" fill="#FF4B5F"/>
<path d="M66.54 11.6397C65.58 10.6797 64.32 10.1997 63 10.1997C62.04 10.1997 61.02 10.4997 60.24 11.0397C59.4 11.5797 58.8 12.3597 58.38 13.2597C58.02 14.1597 57.9 15.1797 58.08 16.1397C58.26 17.0997 58.74 17.9997 59.46 18.7197C60.18 19.4397 61.02 19.9197 62.04 20.0997C63 20.2797 64.02 20.2197 64.92 19.7997C65.82 19.4397 66.6 18.7797 67.14 17.9397C67.68 17.0997 67.98 16.1397 67.98 15.1797C68.04 13.8597 67.5 12.5997 66.54 11.6397ZM66.12 16.4997C65.94 16.9197 65.7 17.2797 65.4 17.5797C65.1 17.8797 64.74 18.1197 64.32 18.2997C63.9 18.4797 63.48 18.5397 63.06 18.5397C62.4 18.5397 61.74 18.3597 61.2 17.9997C60.66 17.6397 60.24 17.0997 59.94 16.4997C59.7 15.8997 59.64 15.2397 59.76 14.5797C59.88 13.9197 60.18 13.3197 60.66 12.8397C61.14 12.3597 61.74 12.0597 62.4 11.9397C63.06 11.8197 63.72 11.8797 64.32 12.1197C64.92 12.3597 65.46 12.7797 65.82 13.3797C66.18 13.9197 66.36 14.5797 66.36 15.2397C66.36 15.6597 66.3 16.0797 66.12 16.4997V16.4997ZM78.48 10.6197L74.76 15.0597L71.04 10.6197V10.6797V10.6197H69.54V19.7997H71.04V13.0797L74.76 17.5197L78.48 13.1397V19.7997H79.92V10.6197H78.48ZM46.5 15.1797C46.74 14.9397 46.98 14.6397 47.1 14.2797C47.22 13.9197 47.34 13.6197 47.34 13.2597C47.34 12.8997 47.28 12.5397 47.16 12.2397C47.04 11.9397 46.86 11.6397 46.56 11.3997C46.32 11.1597 46.02 10.9797 45.72 10.7997C45.42 10.6797 45.06 10.6197 44.7 10.6197H39.3V19.7997H44.7C45.42 19.7997 46.08 19.4997 46.56 19.0197C47.04 18.5397 47.34 17.8797 47.34 17.1597C47.34 16.7997 47.28 16.4397 47.1 16.0797C46.98 15.7197 46.74 15.4197 46.5 15.1797V15.1797ZM45.54 17.9997C45.3 18.2397 45 18.3597 44.7 18.3597H40.8V15.9597H44.7C45 15.9597 45.3 16.0797 45.54 16.3197C45.78 16.5597 45.9 16.8597 45.9 17.1597C45.9 17.4597 45.78 17.7597 45.54 17.9997ZM46.02 13.7997C45.96 13.9797 45.84 14.0997 45.72 14.2197C45.6 14.3397 45.42 14.3997 45.24 14.4597C45.06 14.5197 44.88 14.5197 44.7 14.4597H40.8V12.1197H44.7C44.88 12.0597 45.06 12.0597 45.24 12.1197C45.42 12.1797 45.6 12.2397 45.72 12.3597C45.84 12.4797 45.96 12.5997 46.02 12.7797C46.08 12.9597 46.14 13.1397 46.14 13.3197C46.14 13.4997 46.08 13.6197 46.02 13.7997V13.7997Z" fill="#FF4B5F"/>
<path d="M8.88 7.97998V11.82H7.38C6.48 11.82 5.64 12.18 4.98 12.84C4.32 13.5 3.96 14.34 3.96 15.24C3.96 16.14 4.32 16.98 4.98 17.64C5.64 18.3 6.48 18.66 7.38 18.66H8.88V22.5C10.56 22.14 12.06 21.24 13.14 19.92C14.22 18.6 14.82 16.92 14.82 15.24C14.82 13.56 14.22 11.88 13.14 10.56C12.06 9.17998 10.56 8.27998 8.88 7.97998V7.97998ZM95.94 10.62H94.26L90.24 19.8H91.8L92.7 17.82H97.44L98.34 19.8H99.96L95.94 10.62ZM93.36 16.38L95.1 12.48L96.84 16.38H93.36ZM120 10.62H118.02L114.18 14.46H112.68V10.62H111.18V19.8H112.68V15.96H114.18L117.96 19.8H119.94L115.5 15.24L120 10.62ZM89.46 16.08C89.34 15.78 89.1 15.48 88.86 15.24C88.62 15 88.32 14.82 87.96 14.64C87.66 14.52 87.3 14.46 86.94 14.46H83.04V12.06H88.74V10.56H81.6V19.8H86.94C87.66 19.8 88.32 19.5 88.8 19.02C89.28 18.54 89.58 17.82 89.58 17.16C89.7 16.8 89.64 16.44 89.46 16.08V16.08ZM87.84 18C87.6 18.24 87.3 18.36 87 18.36H83.16V15.96H87C87.3 15.96 87.6 16.08 87.84 16.32C88.08 16.56 88.2 16.86 88.2 17.16C88.2 17.46 88.08 17.76 87.84 18ZM107.88 14.46H102.54V10.62H101.04V19.8H102.54V15.96H107.88V19.8H109.38V10.62H107.88V14.46Z" fill="#003791"/>
</g>
<defs>
<clipPath id="clip0_306_34525">
<rect width="120" height="30" fill="white"/>
</clipPath>
</defs>
</svg>
