<svg width="88" height="16" viewBox="0 0 88 16" fill="none" xmlns="http://www.w3.org/2000/svg">
<g clip-path="url(#clip0_960_26819)">
<path d="M7.99999 11.5133L10.7667 13.1866C11.2733 13.4933 11.8933 13.0399 11.76 12.4666L11.0267 9.31993L13.4733 7.19993C13.92 6.81326 13.68 6.07993 13.0933 6.03326L9.87332 5.75993L8.61332 2.78659C8.38665 2.24659 7.61332 2.24659 7.38665 2.78659L6.12665 5.75326L2.90665 6.02659C2.31999 6.07326 2.07999 6.80659 2.52665 7.19326L4.97332 9.31326L4.23999 12.4599C4.10665 13.0333 4.72665 13.4866 5.23332 13.1799L7.99999 11.5133Z" fill="#FFD201"/>
</g>
<g clip-path="url(#clip1_960_26819)">
<path d="M26 11.5133L28.7667 13.1866C29.2733 13.4933 29.8933 13.0399 29.76 12.4666L29.0267 9.31993L31.4733 7.19993C31.92 6.81326 31.68 6.07993 31.0933 6.03326L27.8733 5.75993L26.6133 2.78659C26.3867 2.24659 25.6133 2.24659 25.3867 2.78659L24.1267 5.75326L20.9067 6.02659C20.32 6.07326 20.08 6.80659 20.5267 7.19326L22.9733 9.31326L22.24 12.4599C22.1067 13.0333 22.7267 13.4866 23.2333 13.1799L26 11.5133Z" fill="#FFD201"/>
</g>
<g clip-path="url(#clip2_960_26819)">
<path d="M44 11.5133L46.7667 13.1866C47.2733 13.4933 47.8933 13.0399 47.76 12.4666L47.0267 9.31993L49.4733 7.19993C49.92 6.81326 49.68 6.07993 49.0933 6.03326L45.8733 5.75993L44.6133 2.78659C44.3867 2.24659 43.6133 2.24659 43.3867 2.78659L42.1267 5.75326L38.9067 6.02659C38.32 6.07326 38.08 6.80659 38.5267 7.19326L40.9733 9.31326L40.24 12.4599C40.1067 13.0333 40.7267 13.4866 41.2333 13.1799L44 11.5133Z" fill="#FFD201"/>
</g>
<g clip-path="url(#clip3_960_26819)">
<path d="M62 11.5133L64.7667 13.1866C65.2733 13.4933 65.8933 13.0399 65.76 12.4666L65.0267 9.31993L67.4733 7.19993C67.92 6.81326 67.68 6.07993 67.0933 6.03326L63.8733 5.75993L62.6133 2.78659C62.3867 2.24659 61.6133 2.24659 61.3867 2.78659L60.1267 5.75326L56.9067 6.02659C56.32 6.07326 56.08 6.80659 56.5267 7.19326L58.9733 9.31326L58.24 12.4599C58.1067 13.0333 58.7267 13.4866 59.2333 13.1799L62 11.5133Z" fill="#FFD201"/>
</g>
<g clip-path="url(#clip4_960_26819)">
<path d="M85.1 6.02667L81.8733 5.74667L80.6133 2.78C80.3867 2.24 79.6133 2.24 79.3867 2.78L78.1267 5.75333L74.9067 6.02667C74.32 6.07333 74.08 6.80667 74.5267 7.19333L76.9733 9.31333L76.24 12.46C76.1067 13.0333 76.7267 13.4867 77.2333 13.18L80 11.5133L82.7667 13.1867C83.2733 13.4933 83.8933 13.04 83.76 12.4667L83.0267 9.31333L85.4733 7.19333C85.92 6.80667 85.6867 6.07333 85.1 6.02667ZM80 10.2667L77.4933 11.78L78.16 8.92667L75.9467 7.00667L78.8667 6.75333L80 4.06667L81.14 6.76L84.06 7.01333L81.8467 8.93333L82.5133 11.7867L80 10.2667Z" fill="#FFD201"/>
</g>
<defs>
<clipPath id="clip0_960_26819">
<rect width="16" height="16" fill="white"/>
</clipPath>
<clipPath id="clip1_960_26819">
<rect width="16" height="16" fill="white" transform="translate(18)"/>
</clipPath>
<clipPath id="clip2_960_26819">
<rect width="16" height="16" fill="white" transform="translate(36)"/>
</clipPath>
<clipPath id="clip3_960_26819">
<rect width="16" height="16" fill="white" transform="translate(54)"/>
</clipPath>
<clipPath id="clip4_960_26819">
<rect width="16" height="16" fill="white" transform="translate(72)"/>
</clipPath>
</defs>
</svg>
