<svg width="120" height="30" viewBox="0 0 120 30" fill="none" xmlns="http://www.w3.org/2000/svg">
<path d="M25.475 7.40791C25.825 8.11489 25.128 8.81389 24.421 8.46187C24.297 8.39941 24.197 8.29939 24.1345 8.17537C23.7845 7.46839 24.4815 6.76939 25.1885 7.12141C25.3125 7.18387 25.4125 7.28389 25.475 7.40791ZM28.558 7.40791C28.908 8.11489 28.2115 8.81389 27.504 8.46187C27.3805 8.39989 27.28 8.29939 27.218 8.17537C26.8655 7.46839 27.5645 6.76939 28.2715 7.12141C28.3955 7.18387 28.4955 7.28389 28.558 7.40791V7.40791Z" fill="#A54181"/>
<path d="M29.6 9.48644C29.0655 9.89294 28.009 10.267 26.6375 10.267C25.266 10.267 24.209 9.89294 23.675 9.48644H22.507C22.8015 10.5334 24.5355 11.3389 26.637 11.3389C28.7385 11.3389 30.472 10.5334 30.7665 9.48644H29.6V9.48644ZM44.3405 20.4945C43.7025 20.4945 43.1975 20.4385 42.825 20.326C42.461 20.218 42.1215 20.04 41.825 19.803C41.5195 19.5574 41.2795 19.2409 41.125 18.8809C40.9655 18.5145 40.8855 18.03 40.8855 17.4274V12.694H39.5895V11.1H40.8835V8.08496H42.9575V11.1H45.5815V12.6955H42.9575V16.9999C42.9575 17.1784 42.9725 17.356 43.002 17.532C43.0325 17.7124 43.086 17.8885 43.1615 18.055C43.2385 18.2265 43.3575 18.376 43.5075 18.489C43.745 18.6919 44.039 18.8164 44.35 18.8455C44.6055 18.877 44.863 18.895 45.1205 18.9H45.6345V20.4955L44.3405 20.4945V20.4945ZM52.123 11.1C52.504 11.0965 52.8825 11.1625 53.2395 11.295C53.554 11.407 53.839 11.589 54.073 11.827C54.273 12.027 54.4385 12.3135 54.5695 12.687C54.7005 13.0605 54.7655 13.5124 54.7645 14.043V18.918C54.7605 19.1205 54.74 19.3219 54.7025 19.521C54.624 19.989 54.2575 20.3554 53.7895 20.434C53.562 20.4739 53.331 20.4945 53.1 20.4945H48.615C48.3335 20.493 48.052 20.475 47.7725 20.4409C47.4725 20.406 47.186 20.2699 46.913 20.0335C46.7275 19.872 46.575 19.6765 46.463 19.4575C46.351 19.2415 46.267 19.012 46.213 18.775C46.16 18.5475 46.1265 18.3165 46.113 18.0835C46.101 17.859 46.095 17.658 46.0955 17.4805C46.095 17.0689 46.1395 16.659 46.2285 16.2574C46.317 15.8575 46.5385 15.5029 46.893 15.1939C47.1885 14.934 47.487 14.7775 47.7885 14.724C48.0605 14.674 48.3365 14.647 48.613 14.6445H52.69V13.9885C52.689 13.8394 52.6745 13.6909 52.646 13.545C52.6105 13.381 52.5345 13.2285 52.424 13.102C52.3035 12.939 52.132 12.8205 51.9365 12.765C51.766 12.7195 51.59 12.6955 51.4135 12.694H46.787V11.1H52.123ZM49.233 16.2409C49.117 16.2465 49.0015 16.2615 48.8875 16.2855C48.719 16.321 48.57 16.4194 48.471 16.5604C48.4135 16.6495 48.366 16.7445 48.329 16.8439C48.27 16.986 48.2405 17.2285 48.2405 17.571C48.2435 17.748 48.258 17.925 48.285 18.1C48.305 18.2935 48.389 18.4744 48.524 18.6145C48.61 18.6955 48.709 18.7615 48.8165 18.8095C48.936 18.8685 49.067 18.8995 49.2 18.9H52.09C52.149 18.9 52.223 18.897 52.3115 18.891C52.4 18.8854 52.484 18.8509 52.551 18.7935C52.613 18.748 52.657 18.682 52.675 18.6075C52.687 18.54 52.6925 18.472 52.6925 18.4035V16.2394L49.233 16.2409V16.2409ZM56.1825 8.08496H58.2565V20.4945H56.1825V8.08496ZM59.6745 20.4945V8.08496H61.7502V20.4945H59.6745ZM66.2514 20.4945L63.0078 17.0554C62.8518 16.879 62.7126 16.6894 62.5908 16.488C62.4378 16.2315 62.3604 15.9364 62.3688 15.6379C62.3688 15.2835 62.4462 14.9965 62.5998 14.778C62.7528 14.5594 62.895 14.3734 63.0252 14.22L65.8614 11.1H68.2728L64.7448 14.8939C64.665 14.9845 64.5936 15.0825 64.5318 15.1864C64.4688 15.3034 64.4388 15.435 64.4436 15.5674C64.4454 15.727 64.4916 15.8824 64.5768 16.0174C64.6656 16.1665 64.7694 16.306 64.8864 16.434L68.7336 20.494L66.2514 20.4945V20.4945ZM71.2686 8.08496V11.1H74.0184C74.3118 11.1004 74.6052 11.1184 74.8962 11.1535C75.1992 11.1889 75.4962 11.2605 75.7824 11.3659C76.0794 11.4765 76.3572 11.632 76.6068 11.827C76.8876 12.052 77.1222 12.3289 77.2986 12.6424C77.5638 13.0975 77.736 13.6005 77.8032 14.1229C77.8818 14.6955 77.9202 15.273 77.919 15.8509C77.919 16.6195 77.8662 17.2489 77.7594 17.739C77.6532 18.229 77.5044 18.6325 77.3136 18.9499C77.1444 19.2585 76.9158 19.5304 76.6398 19.75C76.3896 19.9455 76.1118 20.104 75.8154 20.2195C75.5304 20.331 75.2328 20.4055 74.9292 20.4409C74.6442 20.4754 74.3568 20.4934 74.0694 20.4945H71.109C70.845 20.4949 70.5816 20.4769 70.32 20.4409C70.0548 20.4004 69.8094 20.2765 69.6198 20.0865C69.4458 19.935 69.3222 19.734 69.2652 19.5105C69.2202 19.3159 69.1962 19.1164 69.195 18.9165V8.08496H71.2686V8.08496ZM71.2686 18.1189C71.2686 18.2134 71.271 18.319 71.2776 18.429C71.2842 18.5449 71.3316 18.6544 71.4102 18.7395C71.4798 18.81 71.5698 18.8565 71.6676 18.8725C71.7702 18.8905 71.8734 18.8989 71.9772 18.8989H73.4844C73.626 18.8989 73.7856 18.8929 73.9632 18.8809C74.145 18.8685 74.3238 18.8295 74.4948 18.766C74.6814 18.696 74.8572 18.6004 75.018 18.4825C75.204 18.34 75.3528 18.154 75.4518 17.9415C75.5352 17.737 75.6042 17.527 75.6558 17.3125C75.7332 17.023 75.7716 16.5649 75.7716 15.9385C75.7716 15.1939 75.7272 14.6565 75.6384 14.325C75.5502 13.9935 75.4872 13.7929 75.45 13.7224C75.273 13.3485 74.9682 13.05 74.5908 12.8805C74.4216 12.8044 74.2422 12.754 74.0586 12.7305C73.8912 12.708 73.722 12.696 73.5528 12.6949H71.2662L71.2686 18.1189V18.1189ZM84.8652 11.1C85.2462 11.0965 85.6248 11.1625 85.9824 11.295C86.2968 11.407 86.5812 11.589 86.8152 11.827C87.0156 12.027 87.1812 12.3135 87.312 12.687C87.4428 13.0605 87.5082 13.5124 87.507 14.043V18.918C87.5034 19.1205 87.4824 19.3219 87.4452 19.521C87.3672 19.989 87 20.356 86.532 20.434C86.3034 20.4745 86.0724 20.4955 85.8402 20.496H81.3552C81.0738 20.4945 80.793 20.4765 80.5134 20.4424C80.2134 20.4075 79.9272 20.2714 79.6536 20.035C79.4682 19.8735 79.3152 19.678 79.2036 19.459C79.0914 19.243 79.0074 19.014 78.9534 18.7765C78.9006 18.5494 78.867 18.318 78.8532 18.085C78.8412 17.8605 78.8352 17.6595 78.8352 17.482C78.8352 17.0704 78.8802 16.6605 78.9684 16.2589C79.0572 15.859 79.2792 15.5044 79.6332 15.1954C79.929 14.9355 80.2272 14.779 80.5284 14.7255C80.8002 14.6755 81.0762 14.6485 81.3528 14.646H85.4304V13.9885C85.4292 13.8394 85.4148 13.6909 85.386 13.545C85.3512 13.381 85.275 13.2285 85.1646 13.102C85.0434 12.939 84.8718 12.8205 84.6768 12.765C84.5064 12.7195 84.3306 12.6955 84.1542 12.694H79.527V11.1H84.8652ZM81.9762 16.2409C81.8598 16.2465 81.7446 16.2615 81.6306 16.2855C81.4614 16.321 81.3126 16.419 81.2136 16.5604C81.1566 16.6495 81.1092 16.7445 81.072 16.8439C81.0126 16.986 80.9826 17.2285 80.9832 17.571C80.9862 17.749 81.0012 17.9265 81.0276 18.1024C81.0474 18.2959 81.132 18.477 81.267 18.6169C81.3528 18.6979 81.4518 18.7639 81.5592 18.8119C81.678 18.87 81.8082 18.9 81.9402 18.9004H84.8298C84.8892 18.9004 84.963 18.8974 85.0518 18.8914C85.14 18.886 85.224 18.8515 85.2912 18.7939C85.353 18.7489 85.3968 18.6829 85.4148 18.6079C85.4268 18.5404 85.4328 18.4725 85.4328 18.4039V16.2394L81.9762 16.2409V16.2409ZM88.9248 12.5344C88.9272 12.3679 88.9422 12.202 88.9698 12.0379C89.0016 11.8444 89.091 11.6655 89.2266 11.524C89.4084 11.31 89.6658 11.1735 89.9448 11.143C90.183 11.116 90.4224 11.101 90.6624 11.0985H93.9774C94.4472 11.0959 94.9158 11.1379 95.3778 11.223C95.8146 11.3055 96.2226 11.518 96.6012 11.8609C96.849 12.0855 97.0644 12.387 97.248 12.765C97.4316 13.143 97.5228 13.657 97.5228 14.3074V20.4945H95.4498V14.928C95.4504 14.628 95.4264 14.3284 95.379 14.0325C95.3358 13.7535 95.2266 13.489 95.0598 13.2615C94.9128 13.0654 94.713 12.915 94.4838 12.8269C94.2534 12.7384 93.9492 12.6945 93.5712 12.694H91.461C91.4022 12.694 91.3428 12.697 91.284 12.703C91.2156 12.714 91.1526 12.7485 91.1064 12.8005C91.0518 12.8515 91.017 12.921 91.0092 12.9955C91.0032 13.0665 91.0008 13.1314 91.0008 13.1905V20.4945H88.9248V12.5344V12.5344ZM98.9412 20.4945V8.08496H101.015V20.4945H98.9412ZM105.518 20.4945L102.274 17.0554C102.118 16.879 101.979 16.6894 101.857 16.488C101.704 16.2315 101.627 15.9364 101.635 15.6379C101.635 15.2835 101.713 14.9965 101.866 14.778C102.019 14.5594 102.161 14.3734 102.292 14.22L105.128 11.1H107.539L104.011 14.8939C103.931 14.9845 103.86 15.0825 103.798 15.1864C103.735 15.3034 103.705 15.435 103.71 15.5674C103.712 15.727 103.758 15.8824 103.843 16.0174C103.932 16.1665 104.036 16.306 104.153 16.434L108 20.494L105.518 20.4945Z" fill="#A54181"/>
<path d="M34.3255 14.5598V3.7833C34.3255 2.6878 33.438 1.8003 32.3425 1.7998H20.35C19.2545 1.7998 18.3665 2.6878 18.3665 3.7833V14.5598C18.3665 15.6553 19.2545 16.5433 20.35 16.5433H29.105C29.9595 18.5133 34.3255 18.3133 34.3255 18.3133C34.3255 18.3133 33.141 17.7498 32.8125 16.4868C33.7005 16.2698 34.3255 15.4738 34.3255 14.5598V14.5598ZM21.1185 13.1153V5.2278C21.1175 4.8543 21.42 4.5508 21.7935 4.5498H30.9C31.2735 4.5498 31.576 4.8523 31.576 5.2258V13.1153C31.5765 13.4888 31.274 13.7913 30.9005 13.7918H21.795C21.4215 13.7918 21.1185 13.4888 21.1185 13.1153Z" fill="#A54181"/>
<path d="M24.1785 17.8002V20.1692C24.177 20.5427 23.8735 20.8442 23.5 20.8432H15.428C15.0545 20.8442 14.751 20.5417 14.75 20.1682V13.0842C14.75 12.7107 15.0525 12.4082 15.426 12.4082H17.1325V9.6582H13.9825C12.888 9.65868 12.001 10.5457 12 11.6402V21.6117C12 22.5257 12.625 23.3217 13.513 23.5387C13.1845 24.8002 12 25.3647 12 25.3647C12 25.3647 16.366 25.5647 17.221 23.5947H24.9465C26.042 23.5947 26.9295 22.7072 26.93 21.6117V17.8002H24.1785Z" fill="#1D9A9E"/>
<path d="M16.4895 14.8426C16.489 15.2646 16.8315 15.6071 17.2535 15.6076C17.6755 15.6081 18.018 15.2656 18.0185 14.8436C18.019 14.4216 17.6765 14.0791 17.2545 14.0786H17.254C16.832 14.0781 16.49 14.4201 16.4895 14.8421V14.8426V14.8426ZM20.78 18.3651H18.655V19.7296H20.78V18.3651Z" fill="#1D9A9E"/>
</svg>
