<svg width="120" height="30" viewBox="0 0 120 30" fill="none" xmlns="http://www.w3.org/2000/svg">
<path d="M109.102 11.2942C109.573 11.2942 110.044 11.2876 110.521 11.2942V15.0677C110.678 15.0677 110.841 15.0612 111.005 15.0612C111.423 13.8055 111.901 12.5695 112.3 11.3007C112.823 11.268 113.346 11.2811 113.869 11.2942C113.353 12.7461 112.882 14.2176 112.365 15.6628C112.888 17.2194 113.45 18.7627 114 20.3127C113.483 20.3258 112.973 20.3127 112.457 20.3258C111.973 19.0505 111.535 17.7556 111.05 16.4803C110.881 16.4411 110.698 16.4607 110.527 16.4607C110.521 17.7491 110.527 19.0374 110.527 20.3258H109.108C109.102 17.324 109.102 14.3091 109.102 11.2942V11.2942ZM103.124 11.2942C103.608 11.3007 104.092 11.2876 104.582 11.3007V15.0742C105.125 15.0677 105.668 15.0742 106.211 15.0742C106.204 13.8186 106.211 12.5564 106.211 11.3007H107.63V20.3323H106.211C106.204 19.044 106.204 17.7622 106.211 16.4738H104.582C104.589 17.7556 104.582 19.044 104.582 20.3323H103.124C103.124 17.3175 103.118 14.3091 103.124 11.2942V11.2942ZM99.0168 17.3959C99.4356 17.3894 99.8544 17.409 100.273 17.3829C100.051 15.931 99.828 14.4791 99.6582 13.0207C99.4224 14.4726 99.2196 15.9375 99.0168 17.3959ZM98.6772 11.2746C99.3246 11.2876 99.972 11.2615 100.613 11.2942C101.11 14.3091 101.639 17.324 102.149 20.3389C101.659 20.3323 101.168 20.3323 100.685 20.3389L100.449 18.7497H98.8014C98.736 19.2794 98.6508 19.8026 98.592 20.3323C98.1012 20.3389 97.611 20.3323 97.1202 20.3323C97.6434 17.3109 98.154 14.2895 98.6772 11.2746ZM93.5628 15.7675C93.5628 16.8139 93.5562 17.8668 93.5694 18.9132C93.8832 18.9066 94.197 18.9328 94.5048 18.887C94.779 18.8216 94.956 18.5404 94.956 18.2658C94.9686 17.7099 94.956 17.1474 94.9626 16.5915C94.9686 16.3299 94.9098 16.0356 94.6746 15.8852C94.3278 15.7217 93.9354 15.7675 93.5628 15.7675V15.7675ZM92.124 11.3007C93.3666 11.2942 94.6158 11.3007 95.8584 11.3007V12.6741C95.0934 12.6741 94.3344 12.6807 93.576 12.6676C93.5562 13.2366 93.5694 13.8055 93.5694 14.3745C94.3278 14.4072 95.2242 14.3091 95.8254 14.865C96.4206 15.4012 96.4404 16.2711 96.4206 17.0166C96.3882 17.8537 96.5646 18.7824 96.0804 19.5279C95.7534 20.0642 95.1126 20.28 94.5174 20.3127C93.72 20.352 92.922 20.3193 92.1306 20.3323C92.1174 17.324 92.124 14.3091 92.124 11.3007V11.3007ZM82.7586 11.2942C83.2428 11.2942 83.727 11.2876 84.2106 11.3007C84.237 12.4387 84.1584 13.5766 84.1716 14.7211C84.1782 15.4536 84.1716 16.1795 84.1518 16.912C84.6816 15.0481 85.2048 13.1777 85.7082 11.3073C86.31 11.2876 86.9118 11.3007 87.5136 11.2942V20.3323H86.0748C86.094 18.4162 86.0874 16.5 86.1204 14.5837C85.5384 16.4934 84.9888 18.4096 84.4332 20.3258C83.877 20.3389 83.3148 20.3258 82.7526 20.3323C82.7586 17.324 82.7526 14.3091 82.7586 11.2942V11.2942ZM76.5654 11.2942C77.0364 11.2942 77.5074 11.2876 77.985 11.2942C78.0042 13.1515 77.9454 15.0023 77.952 16.8531C78.4752 15.0023 78.9786 13.145 79.5018 11.2942C80.097 11.2876 80.6988 11.2876 81.294 11.2942C81.3006 14.3025 81.2808 17.3044 81.3072 20.3127C80.8164 20.3454 80.3196 20.3258 79.8288 20.3258C79.881 19.711 79.8552 19.0897 79.8618 18.4684C79.842 17.1736 79.9662 15.8787 79.8618 14.5837C79.3518 16.513 78.75 18.4096 78.2004 20.3258H76.5264C76.5132 17.3175 76.5264 14.3091 76.5654 11.2942V11.2942ZM70.6404 11.3007H72.0792C72.0858 12.5564 72.0726 13.8186 72.0858 15.0808H72.5634C73.0014 13.8186 73.4328 12.5564 73.884 11.3007C74.4006 11.3073 74.9112 11.3007 75.4278 11.3073C74.9304 12.7591 74.427 14.211 73.9428 15.6694C74.4138 17.239 75.042 18.7758 75.5454 20.3389H74.0082C73.5378 19.0505 73.0734 17.7687 72.609 16.4803H72.0858C72.0792 17.7687 72.0858 19.057 72.0792 20.3389H70.6404C70.6338 17.324 70.6404 14.3091 70.6404 11.3007V11.3007ZM60 11.2942H63.819V12.6937H61.419C61.419 13.472 61.4256 14.2437 61.419 15.0219C62.0862 15.035 62.76 15.0219 63.4266 15.0285C63.4206 15.4928 63.4206 15.9571 63.4266 16.4215C62.7534 16.428 62.0862 16.4084 61.4124 16.428C61.4322 17.2586 61.419 18.0892 61.419 18.9262H63.813C63.813 19.3906 63.819 19.8615 63.813 20.3323H59.9935C60 17.3175 60 14.3091 60 11.2942ZM54.1795 11.3007C54.6634 11.3007 55.1539 11.2942 55.6379 11.3007C55.651 12.6218 55.6117 13.9494 55.6575 15.2704C55.7229 15.9506 56.5403 15.8263 57.0243 15.8263V11.2942C57.5083 11.2876 57.9922 11.2942 58.4827 11.2942V20.3323C57.9988 20.3323 57.5148 20.3258 57.0308 20.3389C57.0178 19.299 57.0243 18.2658 57.0243 17.2259C56.3377 17.2128 55.5921 17.2782 54.9773 16.9054C54.4149 16.5588 54.2056 15.8656 54.1795 15.2443C54.1795 13.9298 54.186 12.6153 54.1795 11.3007V11.3007ZM48.0058 11.2942H49.4446C49.4642 12.576 49.4184 13.8513 49.4249 15.1331C49.4184 15.7348 49.4511 16.3299 49.3988 16.9316C49.9285 15.0612 50.4517 13.1842 50.9618 11.3073C51.5635 11.2876 52.1652 11.3007 52.7668 11.2942C52.7734 14.3091 52.7734 17.3175 52.7668 20.3323H51.3281C51.3477 18.4162 51.3412 16.5 51.3804 14.5837C50.7983 16.4934 50.2424 18.4162 49.6865 20.3323C49.1306 20.3389 48.5682 20.3323 48.0124 20.3323C48.0058 17.3175 47.9993 14.3091 48.0058 11.2942V11.2942ZM43.8137 12.7003C43.8137 13.7401 43.8072 14.7865 43.8203 15.8263C44.2258 15.8002 44.7097 15.9244 45.0432 15.6301C45.3179 15.205 45.1675 14.6688 45.2067 14.1979C45.1675 13.7598 45.3244 13.2496 45.0236 12.8769C44.7031 12.576 44.2126 12.733 43.8137 12.7003ZM42.3749 11.3007H44.6508C45.2852 11.3073 45.998 11.5165 46.3381 12.0986C46.7959 12.818 46.6455 13.7074 46.6717 14.5118C46.6913 15.2901 46.6847 16.1991 46.0634 16.7681C45.4487 17.2978 44.5789 17.2259 43.8203 17.2259C43.8072 18.2658 43.8203 19.3056 43.8137 20.3389C43.3363 20.3323 42.8524 20.3389 42.3749 20.3389V11.3007V11.3007ZM38.0848 16.2645C38.0782 17.1474 38.0848 18.0303 38.0782 18.9132C38.5099 18.8608 39.0265 19.044 39.3928 18.7431C39.6674 18.4946 39.5824 18.0826 39.6086 17.7491C39.5824 17.324 39.7067 16.7943 39.3535 16.4673C39.0134 16.1337 38.5033 16.3103 38.0848 16.2645V16.2645ZM38.0848 12.6087C38.0782 13.387 38.0782 14.1652 38.0848 14.95C38.5622 14.9369 39.3077 15.0612 39.4647 14.4529C39.5105 13.9625 39.5628 13.4393 39.4058 12.9684C39.1442 12.4845 38.536 12.6349 38.0848 12.6087V12.6087ZM36.659 11.3007H39.0265C39.6609 11.3073 40.3475 11.5689 40.6745 12.1378C41.0277 12.7657 40.9754 13.5178 40.9492 14.2176C40.9165 14.7407 40.7399 15.3555 40.1906 15.5517C40.6811 15.7152 40.9688 16.2253 41.0212 16.7158C41.0931 17.3698 41.0866 18.0369 41.0015 18.6908C40.9361 19.2075 40.6876 19.7307 40.2364 20.0119C39.7525 20.3062 39.1639 20.3323 38.6145 20.3127H36.6656C36.659 17.3044 36.659 14.3025 36.659 11.3007V11.3007ZM33.0294 13.0207C32.8594 14.4726 32.637 15.9244 32.4081 17.3763C32.8267 17.4025 33.2452 17.3829 33.6638 17.3959C33.4545 15.9375 33.2648 14.4726 33.0294 13.0207ZM32.068 11.2876C32.7155 11.2615 33.3629 11.2811 34.0104 11.2746C34.5336 14.2895 35.0503 17.3109 35.5604 20.3323H34.0889C34.0169 19.8026 33.9385 19.2729 33.8665 18.7497C33.3172 18.7562 32.7743 18.7497 32.225 18.7562C32.14 19.2859 32.0746 19.8157 31.9961 20.3389C31.5056 20.3389 31.0217 20.3323 30.5312 20.3389C31.0413 17.324 31.5776 14.3091 32.068 11.2876V11.2876ZM25.7701 11.2942H30.1453C30.1584 11.7651 30.1584 12.2294 30.1453 12.7003C29.6614 12.6937 29.1774 12.6937 28.6934 12.7003V20.3323H27.2547C27.2482 17.7883 27.2547 15.2443 27.2547 12.7003C26.7642 12.7003 26.2737 12.6937 25.7832 12.7003C25.7701 12.2359 25.7701 11.7651 25.7701 11.2942ZM65.1336 12.3602C65.3694 11.6408 66.1146 11.1699 66.8604 11.1765C67.5402 11.1176 68.2992 11.2222 68.7828 11.7585C69.3654 12.4125 69.3456 13.3543 69.3324 14.1783H67.8738C67.8612 13.7728 67.92 13.3543 67.776 12.9684C67.6122 12.4714 66.8208 12.4125 66.5532 12.8507C66.3828 13.1254 66.3894 13.4655 66.3828 13.7794C66.3894 15.1658 66.3828 16.5588 66.3828 17.9453C66.396 18.2658 66.4026 18.6385 66.651 18.8805C66.9648 19.1355 67.521 19.0832 67.7304 18.7104C67.9392 18.3181 67.8546 17.8472 67.8672 17.4221C68.3514 17.4221 68.8422 17.4221 69.3258 17.4286C69.3324 18.1153 69.3456 18.8412 69.0252 19.4691C68.7174 20.0707 68.0442 20.3977 67.3836 20.4239C66.7362 20.4697 66.0168 20.3781 65.5392 19.8942C65.016 19.3906 64.9572 18.6254 64.9182 17.9388C64.905 16.6896 64.9182 15.4405 64.9116 14.1914C64.9182 13.5832 64.9308 12.9488 65.1336 12.3602V12.3602ZM83.2362 8.94638H87.0558C87.0684 9.35186 87.0684 9.76387 87.0558 10.1693C85.7802 10.1628 84.5118 10.1693 83.2362 10.1693V8.94638V8.94638ZM7.8639 11.4577H18.7594V20.352L16.3658 21.7319L16.3592 13.8578H14.515V22.7913L12.1083 24.1713V13.8578H10.264V25.2307L7.8639 26.6106V11.4577V11.4577ZM6 7.2002H20.6167V9.60032L6 9.60686V7.2002Z" fill="#002456"/>
</svg>
