<svg width="120" height="30" viewBox="0 0 120 30" fill="none" xmlns="http://www.w3.org/2000/svg">
<path d="M34.871 13.4197L35.2575 12.2061L34.0005 12.2458C33.4118 12.2241 32.8447 12.0255 32.3679 11.6751H32.5376C33.3034 11.6715 34.0042 11.2344 34.3436 10.5481L34.8963 9.36703C34.4629 9.37063 34.0294 9.34532 33.5996 9.29114C33.1878 9.19364 32.8194 8.96971 32.5412 8.65183C32.1656 8.25092 31.6455 8.02333 31.0964 8.01973C30.8833 8.01973 30.6702 8.05585 30.4643 8.12083C30.4933 8.02333 30.5185 7.92583 30.5366 7.82467C30.6233 7.12034 30.4246 6.40873 29.9875 5.84889L29.0339 4.67497L28.4488 6.04754C28.3549 6.2426 28.214 6.41239 28.0334 6.53515C27.9323 6.04393 27.6939 5.59605 27.3399 5.24207C26.7476 4.63524 25.9348 4.29572 25.086 4.30294C24.9379 4.30294 24.7898 4.31378 24.6454 4.33545L23.5039 4.55939C23.6015 4.17651 23.7568 3.8117 23.9663 3.47578L24.5948 2.49692L23.0127 2.64501L22.507 1.5614L21.5318 2.09237L20.6288 1.2002L19.7257 2.09237L18.7505 1.58669L18.2448 2.64501L16.6627 2.46441L17.2912 3.44688C17.5007 3.78281 17.656 4.14762 17.7536 4.5305L16.67 4.31739H16.6339C16.4821 4.29572 16.3304 4.28488 16.1787 4.28488C15.3299 4.27766 14.5172 4.61718 13.9248 5.22401C13.5672 5.5816 13.3216 6.03673 13.2241 6.53515C13.0507 6.41599 12.9098 6.25345 12.8159 6.06199L12.2272 4.67859L11.2664 5.85611C10.8365 6.416 10.6451 7.12394 10.7282 7.82467C10.7462 7.92583 10.7715 8.02333 10.8004 8.12083C10.5945 8.05585 10.3814 8.01973 10.1683 8.01973C9.61926 8.02333 9.09912 8.25092 8.72346 8.65183C8.44896 8.96605 8.08416 9.19004 7.67598 9.29114C7.24254 9.35618 6.8019 9.38143 6.3612 9.36703L6.8994 10.5662C7.23894 11.2525 7.93968 11.6896 8.7054 11.6932H8.8752C8.40564 12.0363 7.84578 12.235 7.2642 12.2602L6 12.2061L6.38646 13.4197C6.67548 14.3697 7.49538 15.0668 8.48148 15.1932C8.38032 15.8326 7.9758 16.3852 7.39788 16.6742L6.42984 17.0679L6.94998 17.9745C7.37982 18.6427 8.12028 19.0401 8.91132 19.0329C9.11718 19.0329 9.3231 19.0111 9.52536 18.9678C9.57594 19.1881 9.64092 19.4085 9.71316 19.6216C9.89376 20.0984 9.90462 20.6185 9.74928 21.1026L9.27972 22.0886L10.3309 22.3668C10.5656 22.4281 10.8112 22.4571 11.0533 22.4571C11.2266 22.4571 11.3964 22.439 11.5661 22.3993C11.689 22.3704 11.8118 22.3342 11.9273 22.2873C12.061 22.5293 12.2308 22.7532 12.4222 22.9519C13.094 23.6418 14.0476 23.9922 15.2576 23.9922H16.1209L14.3402 24.7326L15.6911 25.4008C16.2365 25.6681 16.7928 25.9102 17.3599 26.1232L17.1973 26.5929L17.6633 26.8059C18.4363 27.1093 19.2562 27.2791 20.087 27.308H21.1958C22.023 27.2791 22.8393 27.1057 23.6087 26.8023L24.0602 26.5929L23.9012 26.1232C24.4756 25.9029 25.0391 25.6537 25.5881 25.3756L26.9137 24.7326L25.1366 24.0102H26.0035C27.2135 24.0102 28.1707 23.649 28.8389 22.9699C29.0339 22.7713 29.2001 22.5474 29.3338 22.3053C29.4494 22.3523 29.5721 22.3884 29.695 22.4173C29.8648 22.4571 30.0345 22.4751 30.2079 22.4751C30.4499 22.4751 30.6955 22.4426 30.9303 22.3848L31.985 22.1067L31.5263 21.1387C31.3529 20.6474 31.3601 20.1092 31.5443 19.6216C31.6202 19.4013 31.6816 19.1773 31.7321 18.9534C31.9345 18.9967 32.1439 19.0184 32.3498 19.0184C33.1481 19.0256 33.8921 18.6138 34.3148 17.9348L34.8277 17.039L33.8741 16.6489C33.2962 16.3599 32.8916 15.8073 32.7905 15.168C33.7766 15.0379 34.5965 14.3444 34.8855 13.3908L34.871 13.4197V13.4197Z" fill="white"/>
<path d="M24.9705 17.2556H16.3016V20.5064C16.3016 21.8429 17.266 22.6737 18.6928 22.6737C19.8847 22.6737 20.199 22.7206 20.6396 23.1613C20.9178 22.8615 21.3115 22.6918 21.7232 22.699V22.6484L21.9978 21.8032L21.5318 21.2939C21.344 21.3517 21.1489 21.3734 20.9539 21.3625C20.6613 21.3589 20.3723 21.33 20.087 21.2722H19.9967C19.957 21.2722 19.957 21.2722 19.9462 21.2939L19.892 21.3842L19.7944 21.5467L19.6066 21.5034L18.7722 21.3083L18.6566 21.4961V21.5179L18.7578 21.6298L18.7144 21.7743C18.6386 21.9513 18.5302 22.1102 18.3929 22.2475L18.1835 22.4714L17.992 22.233L17.8511 22.056C17.6995 21.8573 17.6633 21.5973 17.75 21.3625L17.5153 21.46L17.4105 21.2289L17.3527 21.0663C17.2046 20.7232 17.3165 20.3258 17.6164 20.1091L18.2882 19.7479L18.9275 19.8743C18.9275 19.813 18.9673 19.5926 18.9853 19.5385H18.9492L18.588 19.6757L18.2268 19.4301C18.1546 19.3579 18.151 19.2386 18.2268 19.1628L18.5699 18.6427L17.6995 17.5591L19.0034 18.0719L19.0937 17.9636L19.2743 17.7469L19.4802 17.9419C19.5344 17.9961 19.5705 18.0611 19.5886 18.137C19.9498 18.2815 20.618 18.704 20.6722 19.3903L20.4662 19.4734C20.4916 19.5095 20.5241 19.5385 20.5638 19.5565L21.5174 19.6504L21.6041 19.6251C21.7666 19.5637 21.94 19.5312 22.1134 19.5276C22.2868 19.5276 22.4565 19.5673 22.6118 19.6432C22.6804 19.6179 22.7563 19.6034 22.8286 19.5998H22.8755C23.3848 19.5998 23.6413 19.9827 23.8435 20.2861L23.9483 20.4379C24.1253 20.6907 24.3601 21.0591 24.3709 21.0736L24.4756 21.2361L24.3456 21.3878C24.2264 21.5467 24.0386 21.637 23.8399 21.637C23.7821 21.6406 23.7243 21.6406 23.6665 21.637C23.6159 21.6262 23.5654 21.6118 23.5148 21.5901C23.5148 21.6406 23.5148 21.7021 23.4859 21.7526L23.3378 22.6051C24.3203 22.4064 25.0138 21.5251 24.9741 20.5209L24.9705 17.2556V17.2556ZM16.2908 16.9919H23.0417C22.7671 16.703 22.6732 16.2876 22.796 15.9083C22.7057 15.865 22.619 15.8072 22.5432 15.7422C22.2795 15.9373 21.4596 16.5224 21.2645 16.6705L21.2212 16.6994L18.5699 16.2298H18.5158C18.4291 16.2334 18.3424 16.2334 18.2557 16.2298C18.2304 16.349 18.1257 16.4321 18.0065 16.4321H17.9632C17.8223 16.4068 17.7247 16.2731 17.7464 16.1323V16.0745C17.4032 15.8289 17.2407 15.4027 17.331 14.9909V14.9439L17.3708 14.915C17.3708 14.915 17.4213 14.8789 17.4899 14.8392L17.2985 14.8103C17.2263 14.7958 17.1793 14.7308 17.1902 14.6586C17.201 14.5864 17.266 14.5394 17.3383 14.5502H17.3419L17.8006 14.6225L17.8439 13.0079L18.5266 12.2855L18.9529 13.1812L18.505 14.7344L18.9095 14.7994C18.9817 14.8139 19.0287 14.8789 19.0178 14.9512C19.007 15.0161 18.9529 15.0595 18.8878 15.0595H18.8662L18.5374 15.0053V15.0306C18.5735 15.0956 18.6278 15.1462 18.6964 15.1787L20.7155 15.2112L21.232 14.7019C20.8383 14.5646 20.5566 14.2179 20.5096 13.8025C20.2568 13.705 20.0509 13.5172 19.9353 13.2752C19.8378 13.0476 19.8197 12.7912 19.8884 12.5528C19.5705 12.4264 19.2815 12.2349 19.0468 11.9893H16.0487C16.1932 12.3433 16.2763 12.7189 16.2908 13.0982V16.9919V16.9919Z" fill="#FCE527"/>
<path d="M39.5919 14.2031H42.5682V19.2599H44.7354V14.2031H47.7118V12.3682H39.5919V14.2031ZM50.5725 16.3703V12.3971H48.4775V19.2599H50.3269L53.9389 15.2434V19.2599H56.0339V12.3682H54.1846L50.5725 16.3703V16.3703ZM63.009 14.9255H59.6423V12.3971H57.5473V19.2599H59.6423V16.6882H63.009V19.2599H65.1036V12.3971H63.009V14.9255V14.9255ZM72.411 14.3909C71.916 14.2392 71.3958 14.1778 70.8792 14.2031H68.712V12.3971H66.6174V19.2599L70.8648 19.2311C71.3094 19.2383 71.7498 19.1877 72.18 19.0721C73.2708 18.8048 74.022 17.8115 73.986 16.6882C74.0292 15.6587 73.3896 14.7196 72.411 14.3909V14.3909ZM71.3418 17.4973C71.0778 17.5876 70.7964 17.6237 70.518 17.5984H68.712V15.8502H70.518C70.7892 15.8321 71.0634 15.8647 71.3274 15.9369C71.6598 16.0344 71.8836 16.3414 71.8764 16.6882C71.88 17.0422 71.6706 17.3636 71.3418 17.4973V17.4973ZM82.7628 12.3971H80.1336L77.6052 14.9833H77.0274V12.3971H74.9322V19.2599H77.0274V16.6593H77.6052L80.1048 19.2599H82.893L79.4112 15.6479L82.7628 12.3971Z" fill="#222220"/>
<path d="M87.2712 12.1806C84.4392 12.1806 82.7484 13.7699 82.7484 15.8215C82.7484 17.8731 84.4536 19.4624 87.2562 19.4624C90.0594 19.4624 91.7496 17.8731 91.7496 15.8215C91.7496 13.7699 90.1026 12.1806 87.2712 12.1806V12.1806ZM87.2562 17.7864C85.8552 17.7864 84.9594 16.9485 84.9594 15.8215C84.9594 14.6946 85.8696 13.871 87.2562 13.871C88.6434 13.871 89.5536 14.6946 89.5536 15.8215C89.5536 16.9485 88.6578 17.7864 87.2562 17.7864ZM98.6526 12.6718V11.9783H96.5574V12.6718C93.9276 12.7296 92.3532 13.8421 92.3532 15.807C92.3532 17.772 93.9276 18.7979 96.5574 18.8556V19.5491H98.6526V18.8556C101.296 18.7979 102.871 17.772 102.871 15.807C102.871 13.8421 101.3 12.7296 98.6526 12.6718V12.6718ZM96.5574 17.3819C95.1126 17.3241 94.4766 16.7318 94.4766 15.807C94.4766 14.8824 95.1126 14.2178 96.5574 14.16V17.3819ZM98.6526 17.3819V14.16C100.112 14.2178 100.733 14.8824 100.733 15.807H100.736C100.736 16.7318 100.115 17.3241 98.6526 17.3819ZM109.781 12.6718V11.9783H107.686V12.6718C105.056 12.7296 103.481 13.8421 103.481 15.807C103.481 17.772 105.056 18.7979 107.686 18.8556V19.5491H109.781V18.8556C112.425 18.7979 114 17.772 114 15.807C114 13.8421 112.425 12.7296 109.781 12.6718V12.6718ZM107.686 17.3819C106.241 17.3241 105.605 16.7318 105.605 15.807C105.605 14.8824 106.241 14.2178 107.686 14.16V17.3819ZM111.858 15.807C111.858 16.7318 111.241 17.3241 109.781 17.3819V14.16C111.241 14.2178 111.862 14.8824 111.862 15.807H111.858ZM19.0612 18.675C19.0178 18.675 18.9781 18.7076 18.9745 18.7509V18.7545C18.9709 18.8015 19.007 18.8448 19.0539 18.8484H19.0575C19.1081 18.8484 19.1442 18.8087 19.1442 18.7617C19.1442 18.7112 19.1081 18.675 19.0612 18.675ZM19.0576 18.6714C19.0612 18.6714 19.0612 18.675 19.0612 18.675C19.0648 18.675 19.0648 18.6714 19.0684 18.6714H19.0576ZM24.9596 24.5952L24.4611 24.4037L24.5984 23.8872L24.7501 23.3237C24.0674 23.6741 23.3522 23.9558 22.6154 24.1653C22.2542 24.2664 21.9941 24.3134 21.9941 24.3134V24.6782C21.5498 24.7505 21.1019 24.7902 20.6504 24.7938H20.6107C20.1592 24.7902 19.7113 24.7505 19.267 24.6782V24.317C19.267 24.317 19.0033 24.2664 18.6421 24.1653C17.9053 23.9558 17.1901 23.6741 16.5074 23.3237L16.6555 23.8872L16.7963 24.4037L16.2943 24.5952L15.7525 24.801C16.4966 25.1875 17.2732 25.509 18.0751 25.7618L17.8836 26.282C18.7541 26.6143 19.686 26.7768 20.6179 26.7552H20.6396C21.5715 26.7768 22.5034 26.6143 23.3739 26.282L23.186 25.7618C23.9843 25.509 24.7609 25.1875 25.505 24.801L24.9596 24.5952ZM16.3557 24.8336L17.1648 24.5627L16.9228 23.768C17.4538 24.0317 18.0028 24.252 18.5699 24.4254L18.1726 25.509C17.5477 25.3428 16.9372 25.1153 16.3557 24.8336V24.8336ZM20.6504 26.4987L20.6324 26.4843C19.8377 26.4806 19.0466 26.3723 18.2809 26.1628L18.7685 24.8408C19.3754 24.9925 20.0002 25.0755 20.6287 25.0791H20.6685C21.297 25.0719 21.9218 24.9925 22.5287 24.8408L23.0163 26.1628C22.2469 26.3795 21.4487 26.4915 20.6504 26.4987V26.4987ZM23.1138 25.5307V25.5198L22.7165 24.4362C23.2836 24.2628 23.8326 24.0425 24.3636 23.7788L24.1216 24.5735L24.9415 24.848C24.3563 25.1334 23.7423 25.3645 23.1138 25.5307ZM20.6287 3.97763C21.445 3.95596 22.2469 4.20158 22.9115 4.67476C23.0162 4.14017 23.2149 3.62726 23.5003 3.16131L22.6804 3.25522L22.2541 2.34138L21.427 2.7676L20.6287 1.97656L19.8304 2.7676L19.0033 2.34138L18.5771 3.25522L17.7571 3.16131C18.0425 3.62726 18.2411 4.14017 18.3459 4.67476C19.0105 4.20158 19.8124 3.95596 20.6287 3.97763V3.97763ZM18.541 3.57308L18.7685 3.59837L18.866 3.39248L19.1514 2.77844L19.6823 3.05295L19.8883 3.1577L20.0544 3.00599L20.6287 2.42446L21.203 3.00599L21.3692 3.16853L21.575 3.06379L22.1024 2.78927L22.3914 3.40332L22.4889 3.6092L22.7165 3.58392L22.9332 3.55864C22.8465 3.7573 22.7707 3.96319 22.7092 4.17268C21.4053 3.50446 19.8557 3.50446 18.5518 4.17268C18.4904 3.96319 18.4145 3.7573 18.3278 3.55864L18.541 3.57308V3.57308ZM31.3421 11.4329L31.2445 11.3137C30.5727 10.4576 29.9333 9.64492 28.792 9.27286C28.8389 9.23314 28.8859 9.19702 28.9364 9.1645C29.4782 8.85748 29.8611 8.33014 29.9839 7.7197C30.0454 7.16704 29.89 6.61444 29.5505 6.17374L29.1893 5.72225L28.9617 6.26044C28.9617 6.29296 28.5608 7.15624 27.7517 7.15624H27.5133C27.5566 6.58912 27.3508 6.02926 26.9498 5.62472C26.4622 5.12626 25.7903 4.84814 25.0933 4.85175C24.9632 4.85175 24.8332 4.86259 24.7067 4.88065L24.1541 4.98901L24.4972 5.44051C24.7645 5.80171 25.0066 6.42658 24.7212 6.76252C24.5839 6.88174 24.4286 6.97564 24.2588 7.04062C23.8976 7.21042 23.3775 7.4524 23.3775 8.05924C23.3775 8.45296 23.6845 8.86474 24.2372 9.21508C25.8662 10.2482 26.8739 11.3137 27.311 12.5129C27.9865 14.3406 27.1051 15.3809 26.2491 15.9299L25.8662 16.1755L26.2021 16.4825C26.5019 16.739 26.8703 16.8979 27.2641 16.9376H27.5927C27.9287 16.9376 28.261 16.8907 28.5824 16.7931C28.503 16.934 28.4055 17.0676 28.3007 17.1905C27.8131 17.7576 27.0907 18.0682 26.343 18.0285H26.0215L25.9963 18.35C25.9927 18.8015 26.1913 19.2276 26.5345 19.5203C26.6248 19.5997 26.7259 19.6647 26.8342 19.7153C26.2997 20.2354 25.9963 20.947 25.9854 21.6947C25.9854 22.1028 25.8915 22.5074 25.7145 22.8758L25.3533 23.4176H25.9963C27.0582 23.4176 27.8709 23.1251 28.4344 22.5435C28.7269 22.2365 28.9436 21.8645 29.0701 21.4599C29.2796 21.6369 29.5252 21.7597 29.7925 21.8211C29.9189 21.85 30.049 21.8645 30.179 21.8645C30.374 21.8645 30.5691 21.8391 30.7569 21.7958L31.1687 21.6875L30.9881 21.3046C30.7605 20.6942 30.7605 20.0187 30.9881 19.4082C31.1217 19.0109 31.2157 18.5991 31.2662 18.1802C31.5913 18.3463 31.9525 18.4294 32.3173 18.4258C32.9169 18.433 33.4768 18.1368 33.8018 17.6348L34.0005 17.2736L33.6393 17.1218C32.4293 16.6198 32.162 15.2689 32.1078 14.5392C32.227 14.5645 32.3462 14.579 32.469 14.5826L32.5702 14.6512C33.8849 14.6512 34.3256 13.3112 34.3436 13.2534L34.4918 12.7802H33.9969C32.9566 12.744 31.985 12.2528 31.3421 11.4329V11.4329ZM32.5738 14.2864H32.5232C32.2595 14.29 31.9994 14.2178 31.7755 14.0805C31.7755 14.0805 31.5841 16.692 33.5309 17.5011V17.5119C33.2745 17.9021 32.8339 18.1332 32.3679 18.126C31.8405 18.1585 31.3312 17.9346 30.9989 17.5264C31.0097 18.1404 30.9086 18.7545 30.7027 19.3324C30.439 20.0295 30.439 20.8025 30.7027 21.4997C30.5402 21.5394 30.3776 21.561 30.2115 21.561C30.1103 21.561 30.0056 21.5502 29.9081 21.5249C29.4277 21.4094 29.0448 21.0554 28.8895 20.5894C28.8895 20.5894 28.9654 23.0961 26.0432 23.0961H26.0215C26.2418 22.6772 26.3575 22.2112 26.3539 21.738C26.4803 19.8851 27.7372 19.6214 27.7372 19.6214C27.3905 19.578 27.0618 19.4552 26.7728 19.2602C26.5091 19.0398 26.3575 18.7148 26.3502 18.3716C27.1954 18.4077 28.0118 18.0573 28.5644 17.4144C28.8967 17.0352 29.117 16.5728 29.2109 16.0779C28.745 16.4283 28.1707 16.6053 27.5891 16.58H27.293C26.9787 16.5476 26.6789 16.4247 26.4369 16.2188C27.5494 15.4964 28.3296 14.2611 27.6397 12.3864C27.0835 10.8839 25.7506 9.76054 24.4106 8.91532C23.9663 8.64076 23.699 8.33014 23.699 8.06284C23.699 7.43434 24.5912 7.41628 24.9596 6.97924C25.3822 6.48802 25.1185 5.69335 24.7501 5.21656C24.8548 5.1985 24.9632 5.19128 25.0679 5.19128C25.6712 5.18405 26.2527 5.42606 26.6717 5.8595C27.0979 6.26404 27.2605 6.87448 27.0979 7.438L27.293 7.47772C27.4121 7.49938 27.5314 7.51024 27.6542 7.51384H27.7336C28.792 7.51384 29.2687 6.40492 29.2687 6.40492C29.2687 6.40492 30.3957 7.79194 28.7378 8.87554C28.4524 9.0598 28.326 9.23674 28.3766 9.41734L28.4018 9.53656L28.5211 9.55822C29.7239 9.8833 30.3271 10.7141 31.0748 11.6568C31.7827 12.5562 32.8519 13.098 33.9969 13.1378H34.0186C34.0186 13.1378 33.6574 14.2864 32.5738 14.2864V14.2864Z" fill="#222220"/>
<path d="M30.2548 9.43535C30.6593 9.66653 31.0097 9.98081 31.2842 10.3565C31.4901 10.6743 31.7827 10.9271 32.1294 11.0789C32.2594 11.1222 32.4003 11.1439 32.5376 11.1439C33.0902 11.1439 33.5959 10.8296 33.8488 10.3384L34.0582 9.86885L33.5489 9.83993C32.9999 9.73877 32.5051 9.45707 32.1403 9.03443C31.8694 8.74187 31.4901 8.57207 31.0891 8.56847C30.7785 8.57207 30.4787 8.66603 30.2186 8.83217L29.7491 9.16085L30.2548 9.43535ZM31.1 8.91887L31.0891 8.92247C31.3961 8.92247 31.6851 9.05609 31.891 9.28367C32.3136 9.76769 32.8915 10.0892 33.5273 10.1939C33.3322 10.5587 32.953 10.7863 32.5376 10.7899C32.4364 10.7899 32.3353 10.7719 32.2378 10.7393C31.6526 10.5407 31.4467 9.65573 30.4318 9.12113C30.6304 8.99111 30.8616 8.92247 31.1 8.91887V8.91887ZM30.4931 14.0913L30.4859 14.0841C30.1898 11.7001 28.4596 9.97721 26.5344 8.93333C26.3574 8.83577 26.1912 8.75633 26.0323 8.68049C26.827 8.84303 27.6541 8.64797 28.2934 8.14949C28.2934 8.14949 27.1773 8.96945 24.8945 8.22533C25.5266 8.63711 26.7547 9.21503 27.878 10.1542C30.681 12.6176 28.6763 15.0232 28.6763 15.0232C29.5143 14.2286 29.8069 13.0149 29.4312 11.9241C30.0236 12.9101 30.3089 14.0516 30.2476 15.2002C30.1681 17.0929 29.117 18.7472 28.0334 20.0656C27.7083 20.481 27.4843 20.9686 27.3904 21.4888C27.5746 20.9722 27.8528 20.4955 28.214 20.0837C29.3879 18.7075 30.3812 17.2807 30.5221 15.2255C30.6449 15.5867 31.1434 16.6378 31.938 17.0315C31.938 17.0315 30.941 16.4319 30.4931 14.0913V14.0913ZM15.5393 22.9011C15.3659 22.5326 15.272 22.1281 15.2684 21.7199C15.2576 20.9722 14.9506 20.2607 14.416 19.7405C14.5243 19.69 14.6255 19.625 14.7158 19.5455C15.0589 19.2529 15.2576 18.8267 15.254 18.3752L15.2323 18.0537H14.9072C14.1631 18.0898 13.4407 17.7828 12.9531 17.2157C12.8483 17.0929 12.7544 16.9592 12.6713 16.8184C12.9928 16.9159 13.3252 16.9629 13.661 16.9629H13.9898C14.3834 16.9231 14.7555 16.7642 15.0553 16.5077L15.3912 16.2007L15.0083 15.9551C14.1487 15.4061 13.271 14.3658 13.9464 12.5381C14.3834 11.3498 15.3912 10.277 17.0347 9.24395C17.5873 8.88275 17.8907 8.48183 17.8907 8.08811C17.8907 7.48127 17.3815 7.23929 17.0094 7.06949C16.8397 7.00445 16.6843 6.91055 16.5471 6.79139C16.2581 6.45545 16.5001 5.81612 16.771 5.46936L17.1322 5.01786L16.576 4.9095C16.4495 4.88783 16.3195 4.8806 16.1895 4.8806C15.4852 4.85893 14.8061 5.12984 14.3076 5.62468C13.8995 6.02561 13.6864 6.58907 13.7261 7.15979H13.5094C12.6967 7.15979 12.3137 6.30011 12.2993 6.26399L12.0718 5.72582L11.7106 6.17735C11.3746 6.61799 11.2193 7.17065 11.2807 7.72325C11.4035 8.33369 11.7828 8.86109 12.3246 9.16811C12.3752 9.20057 12.4258 9.23669 12.4691 9.27647C11.3277 9.63767 10.6883 10.4612 10.0165 11.3173L9.91896 11.4401C9.27606 12.26 8.30082 12.7513 7.26054 12.7874H6.76566L6.9174 13.2605C6.9174 13.3183 7.3725 14.6584 8.69088 14.6584H8.75592C8.87874 14.6548 8.9979 14.6404 9.11712 14.615C9.06294 15.3374 8.79564 16.6956 7.58202 17.1977L7.22082 17.3494L7.41948 17.7106C7.74456 18.2126 8.30442 18.5089 8.904 18.5016C9.2688 18.5052 9.6264 18.4222 9.95148 18.256C10.0021 18.675 10.096 19.0868 10.2296 19.4841C10.4572 20.0945 10.4572 20.77 10.2296 21.3804L10.049 21.7633L10.4608 21.8716C10.6486 21.915 10.8437 21.9403 11.0387 21.9403C11.1688 21.9403 11.2988 21.9258 11.4252 21.8969C11.6925 21.8355 11.9381 21.7127 12.1476 21.5357C12.274 21.9403 12.4907 22.3123 12.7834 22.6193C13.3504 23.2009 14.1631 23.4898 15.2215 23.4934H15.8644L15.5393 22.9011V22.9011ZM15.2287 23.1034C12.3065 23.1034 12.3788 20.5966 12.3788 20.5966C12.2234 21.0625 11.8406 21.4165 11.3602 21.5321C11.2627 21.5574 11.1579 21.5683 11.0568 21.5683C10.8906 21.5683 10.7281 21.5465 10.5692 21.5068C10.8328 20.8097 10.8328 20.0367 10.5692 19.3396C10.3633 18.7617 10.2658 18.1477 10.2766 17.5336C9.94428 17.9417 9.435 18.1657 8.9076 18.1332H8.88954C8.41998 18.1404 7.97934 17.9056 7.72284 17.5155C9.66978 16.7064 9.47832 14.0949 9.47832 14.0949C9.25434 14.2322 8.9943 14.3044 8.7306 14.3008H8.69088C7.60728 14.3008 7.24608 13.1522 7.24608 13.1522H7.26774C8.41278 13.1161 9.48552 12.5743 10.1935 11.6749C10.9376 10.7321 11.5444 9.90131 12.7472 9.57623L12.8664 9.55457L12.8917 9.43541C12.9242 9.25115 12.7978 9.07415 12.5305 8.89355C10.8725 7.80995 11.9995 6.42293 11.9995 6.42293C11.9995 6.42293 12.4691 7.53185 13.5346 7.53185H13.5852C13.708 7.52825 13.8272 7.51739 13.9464 7.49573L14.1415 7.45601C13.9753 6.89249 14.1415 6.28205 14.5677 5.87753C14.9867 5.44408 15.5682 5.20208 16.1714 5.2093C16.2762 5.2093 16.3846 5.21652 16.4893 5.23458C16.1281 5.71499 15.8608 6.50963 16.2834 6.99725C16.6446 7.41989 17.5404 7.43795 17.5404 8.08085C17.5404 8.34815 17.2912 8.65877 16.8469 8.93693C15.5032 9.78215 14.1704 10.9055 13.6177 12.4081C12.9278 14.2828 13.708 15.5289 14.8205 16.2405C14.5785 16.4428 14.2787 16.5692 13.9645 16.6017H13.6646C13.0831 16.627 12.5088 16.45 12.0428 16.0996C12.1368 16.5944 12.3571 17.0568 12.6858 17.4361C13.2385 18.0754 14.0584 18.4294 14.9036 18.3932C14.8964 18.7364 14.7446 19.0615 14.481 19.2818C14.192 19.4768 13.8633 19.5997 13.5166 19.643C13.5166 19.643 14.7772 19.8995 14.9144 21.7597C14.9108 22.2328 15.0264 22.6988 15.2467 23.1178L15.2287 23.1034V23.1034Z" fill="#222220"/>
<path d="M8.7162 11.1401H8.71986C8.85708 11.1401 8.99796 11.1184 9.12798 11.0751C9.47478 10.9234 9.76734 10.6705 9.9732 10.3527C10.2441 9.97705 10.5945 9.66277 10.999 9.43159L11.5047 9.16069L11.0351 8.83201C10.7751 8.66587 10.4753 8.57191 10.1683 8.56831C9.76734 8.57191 9.38808 8.74171 9.11718 9.03787C8.75598 9.45691 8.2575 9.74227 7.7121 9.84337L7.20276 9.86869L7.40868 10.3383C7.66152 10.8295 8.1636 11.1365 8.7162 11.1401V11.1401ZM9.36642 9.28351C9.56868 9.05593 9.85764 8.92231 10.1647 8.92231C10.3994 8.92591 10.6306 8.99815 10.8293 9.12457C9.80706 9.66997 9.59394 10.5441 9.02328 10.7428C8.92932 10.7753 8.82822 10.7933 8.72706 10.7933C8.30808 10.7933 7.92522 10.5622 7.73016 10.1938C8.36586 10.089 8.94378 9.76753 9.36642 9.28351V9.28351ZM11.0171 15.2145C10.9558 14.0659 11.2375 12.9244 11.8335 11.9384C11.4578 13.0292 11.7504 14.2429 12.5884 15.0375C12.5884 15.0375 10.5801 12.6319 13.3867 10.1684C14.51 9.22933 15.7345 8.65141 16.3666 8.23963C14.0838 8.98369 12.9677 8.16379 12.9677 8.16379C13.607 8.66227 14.4305 8.85727 15.2252 8.69473C15.0662 8.77063 14.9001 8.85367 14.7231 8.94757C12.7979 9.99511 11.0569 11.718 10.7716 14.102V14.0839C10.3237 16.4245 9.32676 17.0241 9.32676 17.0241C10.1177 16.634 10.6198 15.5793 10.739 15.2181C10.8727 17.2769 11.8768 18.7037 13.0507 20.0763C13.4083 20.488 13.6901 20.9649 13.8743 21.4814C13.7768 20.9649 13.5528 20.4772 13.2241 20.0655C12.1405 18.7471 11.093 17.0928 11.0171 15.2145ZM19.9677 10.8656C20.0941 10.7428 20.2711 10.685 20.4481 10.7067V11.3893C20.4445 11.5591 20.4011 11.7216 20.3181 11.8698H21.0008C20.9177 11.7216 20.8744 11.5591 20.8708 11.3893V10.7067C21.0441 10.685 21.2211 10.7428 21.3475 10.8656V10.3924H19.9677V10.8656V10.8656ZM19.6824 7.58947H19.6752C19.78 7.67977 19.9028 7.75201 20.0364 7.79533L20.1231 7.83511V7.38721L19.3212 7.05127C19.3609 7.27519 19.491 7.47025 19.6824 7.58947V7.58947ZM21.586 7.58587L21.5824 7.58947C21.7738 7.47025 21.9038 7.27519 21.9436 7.05127L21.1417 7.38721V7.83145L21.2248 7.79173C21.3584 7.74841 21.4813 7.67617 21.586 7.58587V7.58587Z" fill="#222220"/>
<path d="M23.0236 5.77642C23.0236 5.10096 21.8858 4.49414 20.6324 4.49414C19.379 4.49414 18.2412 5.10096 18.2412 5.77642L18.2665 5.94257L18.7685 8.8322L18.2665 9.12476L16.9553 9.86888C16.9553 9.86888 16.6627 10.0206 16.5255 10.1109C16.0306 10.4721 15.9259 10.9561 16.2112 11.1656C16.2835 10.6743 16.7133 10.3131 17.2118 10.3276C17.6272 10.3384 18.0137 10.5479 18.2485 10.891C18.3207 10.9777 18.3857 11.0716 18.4435 11.1656C18.5194 11.2884 18.5952 11.3967 18.671 11.5015H15.3263C15.608 11.9855 15.7706 12.5309 15.8067 13.0908V20.5207C15.8067 22.3268 17.1901 23.1756 18.6963 23.1756C19.8522 23.1756 20.0075 23.1214 20.6432 23.7571C21.2789 23.1214 21.4343 23.1756 22.5901 23.1756C24.0855 23.1756 25.4797 22.3195 25.4797 20.5207V13.098C25.5158 12.5382 25.6784 11.9928 25.9601 11.5087H22.5793C22.6551 11.404 22.731 11.2956 22.8068 11.1728C22.8682 11.0789 22.9333 10.985 23.0019 10.8983C23.2403 10.5552 23.6267 10.3456 24.0421 10.3348C24.5406 10.3204 24.9704 10.6816 25.0427 11.1728C25.3316 10.9669 25.2269 10.4504 24.7285 10.1181C24.5948 10.0242 24.3022 9.87608 24.3022 9.87608L23.0019 9.1103L22.4998 8.81774L23.0019 5.92812L23.0236 5.77642ZM18.7252 6.10874L20.4879 6.70472V9.47156L19.1912 8.78522L18.7252 6.10874V6.10874ZM16.0487 11.9891H19.0864C19.3212 12.2347 19.6102 12.4298 19.928 12.5526C19.8594 12.791 19.8775 13.0474 19.975 13.275C20.0906 13.517 20.2964 13.7049 20.5493 13.8024C20.5963 14.2177 20.878 14.5645 21.2717 14.7018C21.055 14.9221 20.8419 15.128 20.7552 15.211L18.7361 15.1786C18.6674 15.1461 18.6133 15.0955 18.5771 15.0304V15.0052L18.9058 15.0594H18.9275C18.9925 15.0594 19.0467 15.016 19.0576 14.951C19.0684 14.8788 19.0214 14.8137 18.9491 14.7993L18.5446 14.7343L18.9925 13.1811L18.5663 12.2853L17.8836 13.0077L17.8403 14.6223L17.3815 14.5501C17.3093 14.5356 17.2443 14.5825 17.2298 14.6548V14.6584C17.219 14.7307 17.266 14.7957 17.3382 14.8101L17.5297 14.839C17.461 14.8788 17.414 14.9076 17.4104 14.9149L17.3707 14.9437V14.9907C17.2804 15.4025 17.4466 15.8287 17.7861 16.0743V16.1322C17.7644 16.273 17.8619 16.4067 18.0028 16.4319H18.0461C18.1654 16.4319 18.2701 16.3489 18.2954 16.2297C18.3821 16.2333 18.4652 16.2333 18.5518 16.2297H18.606L21.2536 16.7101L21.297 16.6812C21.5065 16.5331 22.312 15.9588 22.5757 15.7528C22.6515 15.8179 22.7382 15.8757 22.8285 15.919C22.7057 16.2983 22.7996 16.7137 23.0741 17.0026H16.2907V13.098C16.2763 12.7188 16.1932 12.3431 16.0487 11.9891V11.9891ZM22.3481 15.5614C22.0736 15.7637 21.3982 16.2549 21.1525 16.4283L18.7505 16.0093V15.9443C18.7903 15.7818 18.8119 15.6156 18.8155 15.4495L20.8382 15.4819L20.878 15.4422C20.9105 15.4097 21.5498 14.7921 21.8749 14.4345C21.9616 14.5428 22.0627 14.6331 22.1783 14.7054C22.1206 15.0016 22.1819 15.3086 22.3481 15.5614V15.5614ZM18.3351 15.128V15.1388C18.3893 15.24 18.4688 15.3267 18.5663 15.3844C18.5627 15.5325 18.5482 15.677 18.523 15.8215C18.523 15.854 18.523 15.8865 18.4976 15.919V15.9696C18.3315 15.9696 18.169 15.9443 18.01 15.8937C17.7211 15.7384 17.5585 15.4206 17.6055 15.0955C17.7355 15.0052 17.8836 14.9474 18.0389 14.9257C18.1726 14.9221 18.2918 15.0016 18.3351 15.128V15.128ZM18.0859 14.6476L18.1256 13.1197L18.4868 12.7585L18.7072 13.2172L18.2773 14.7054L18.0859 14.6476ZM22.33 22.6952H21.9833L22.2542 21.8103C22.2975 21.6874 22.0736 21.5285 21.9797 21.3876C22.2 21.5213 22.4276 21.6405 22.6624 21.7488C22.6624 21.7777 22.33 22.6952 22.33 22.6952ZM23.2583 21.7055L23.2294 21.6802L23.0416 22.6555C22.9224 22.6555 22.796 22.6807 22.6804 22.688L22.8791 21.7488C22.9369 21.4707 22.1891 21.3876 21.8207 20.835C21.5788 21.0373 21.2681 21.1312 20.9575 21.0987C20.683 21.0951 20.4121 21.0662 20.1448 21.012C20.0978 21.0084 20.0509 21.0084 20.0039 21.012C19.8919 21.0048 19.7836 21.0625 19.7258 21.1601L19.6716 21.2504L18.6421 21.0012L18.3965 21.4274C18.3568 21.4852 18.364 21.5646 18.4146 21.6152L18.4832 21.691C18.4146 21.8247 18.3279 21.9475 18.2231 22.0522L18.0715 21.8644C17.9558 21.6766 17.9667 21.4346 18.0967 21.2576L18.5013 20.5749L19.3646 20.705L19.2309 20.3979C19.0503 19.9934 19.3248 19.4769 19.3537 19.1807C19.3537 19.271 19.2598 19.2891 19.1659 19.2891H18.9167C18.8986 19.2855 18.8769 19.2855 18.8588 19.2891L18.6241 19.4299L18.4399 19.2601C18.411 19.206 18.4218 19.141 18.4652 19.1012L18.8914 18.6208L18.3857 18.0321L19.1081 18.3933L19.3248 18.1332C19.3826 18.191 19.3573 18.3427 19.3573 18.3427C19.8811 18.4728 20.2459 18.9495 20.2315 19.4913V19.5961C20.3037 19.7116 20.4193 19.7911 20.5493 19.8237L21.5282 19.9212C21.7232 19.8598 21.9219 19.82 22.1242 19.7947C22.2975 19.7947 22.4709 19.8489 22.6154 19.9428C22.684 19.8959 22.7671 19.867 22.8502 19.8634H22.8827C23.3197 19.8634 23.5039 20.2607 23.7388 20.5858C23.9157 20.835 24.1541 21.2107 24.1541 21.2107C24.0855 21.3118 23.9735 21.3732 23.8507 21.3732C23.8073 21.3768 23.7676 21.3768 23.7243 21.3732C23.2547 21.2865 23.1861 20.3185 22.9188 20.2426H22.8755C22.8249 20.2426 22.7779 20.2715 22.7527 20.3185C22.8755 20.6472 22.8032 20.7808 22.9369 21.0409C23.0344 21.1962 23.1572 21.3371 23.2981 21.4563C23.2981 21.4563 23.28 21.6007 23.2583 21.7055V21.7055ZM17.9956 20.7592H17.9884L18.0317 20.8711C18.0028 20.9686 17.6705 21.1095 17.6705 21.1095L17.5982 20.9506C17.5043 20.7231 17.573 20.463 17.7716 20.3149L18.317 19.9825L18.8986 20.1054C18.895 20.221 18.9311 20.3329 18.9997 20.4268L18.3893 20.3113L18.0281 20.5641C17.9703 20.6147 17.9594 20.6941 17.9956 20.7592V20.7592ZM24.9813 20.5243C25.021 21.5285 24.3239 22.4098 23.3378 22.6049L23.5039 21.7308C23.5039 21.6802 23.522 21.6188 23.5292 21.5682C23.5798 21.5899 23.6304 21.6043 23.6809 21.6152C23.7388 21.6188 23.7965 21.6188 23.8543 21.6152C24.053 21.6152 24.2408 21.5249 24.36 21.366L24.49 21.2143L24.3817 21.0662C24.3817 21.0662 24.1397 20.6833 23.9591 20.4304L23.8579 20.2788C23.6557 19.9753 23.3992 19.5925 22.8899 19.5925H22.843C22.7707 19.5961 22.6949 19.6105 22.6262 19.6358C22.4709 19.56 22.3012 19.5202 22.1278 19.5202C21.9544 19.5238 21.781 19.5564 21.6185 19.6177L21.5318 19.6431L20.5782 19.5491C20.5385 19.531 20.506 19.5022 20.4807 19.4661L20.6866 19.383C20.6288 18.6931 19.9642 18.2704 19.603 18.1296C19.5849 18.0537 19.5488 17.9887 19.4946 17.9346L19.2887 17.7395L19.1081 17.9562L19.0178 18.0646L17.6813 17.5155L18.5518 18.5992L18.2087 19.1193C18.1364 19.1915 18.1328 19.3107 18.2087 19.3866L18.5699 19.6322L18.9311 19.4949H18.9672C18.9672 19.5491 18.9275 19.7695 18.9094 19.8309L18.2809 19.7225L17.6091 20.0837C17.2985 20.3076 17.1901 20.7194 17.3527 21.0662L17.4285 21.2287L17.5333 21.4599L17.768 21.3624C17.6813 21.5971 17.7175 21.8572 17.8691 22.0559L18.01 22.2365L18.1979 22.4749L18.4073 22.2509C18.5446 22.1137 18.653 21.9547 18.7288 21.7777L18.7722 21.6333L18.671 21.5213V21.4996L18.7866 21.3118L19.621 21.5068L19.8088 21.5502L19.91 21.384L19.9642 21.2937C19.9642 21.2757 19.9642 21.2721 20.0147 21.2721H20.105C20.3904 21.3298 20.6794 21.3588 20.9683 21.3624C21.1633 21.3732 21.3584 21.3515 21.5462 21.2937L22.0085 21.8211L21.734 22.6663V22.7169C21.3223 22.7097 20.9285 22.8794 20.6504 23.1792C20.2061 22.7385 19.8919 22.6916 18.7036 22.6916C17.2768 22.6916 16.3124 21.8572 16.3124 20.5243V17.2735H24.9813V20.5243V20.5243ZM25.2161 11.9891C25.0679 12.3395 24.9885 12.7152 24.974 13.098V15.5325C24.6598 15.4639 24.425 15.1966 24.4033 14.8752V14.7631H24.295C24.1072 14.7487 23.9338 14.662 23.8037 14.5284C23.6448 14.3442 23.5581 14.113 23.5545 13.871C23.3992 14.1238 23.4136 14.4489 23.5943 14.6873C23.7351 14.8643 23.941 14.9835 24.1649 15.0124C24.23 15.4314 24.5659 15.7565 24.9849 15.8107V17.0026H23.4678C23.0705 16.8004 22.9043 16.3272 23.0813 15.919L23.1391 15.789L23.0055 15.7384C22.5721 15.5867 22.3336 15.1207 22.4709 14.6801L22.4998 14.5717L22.3987 14.5248C22.0194 14.3044 21.8099 13.8746 21.8713 13.4412C21.6727 13.6434 21.6221 13.9504 21.7485 14.2033C21.6763 14.2864 21.5824 14.3839 21.4776 14.4922C21.0983 14.4128 20.8238 14.0841 20.8094 13.6976V13.6073L20.7263 13.5748C20.506 13.5098 20.3254 13.3581 20.2206 13.1558C20.152 12.9897 20.1375 12.8019 20.1845 12.6285C20.2567 12.6429 20.329 12.6537 20.4012 12.661C20.4734 12.6646 20.5493 12.6646 20.6215 12.661C21.2067 12.661 21.763 12.4081 22.153 11.9747L25.2161 11.9891V11.9891ZM22.8755 9.52574L23.4678 9.88694L23.6159 9.97358C23.3089 10.0567 23.0308 10.2228 22.8104 10.454L22.7852 10.4757C22.7346 10.5298 22.6876 10.584 22.6407 10.6419L22.6118 10.678C22.5648 10.7358 22.5215 10.7971 22.4818 10.8622L22.4601 10.8947C22.4095 10.9669 22.3625 11.0464 22.3156 11.1258C21.9869 11.7796 21.3476 12.2167 20.6215 12.2889C19.8955 12.2167 19.2562 11.7796 18.9275 11.1258C18.8806 11.0464 18.8336 10.9705 18.7866 10.8947L18.7577 10.8549L18.6421 10.6671L18.6097 10.6274C18.5627 10.5696 18.5157 10.5154 18.4688 10.4649L18.4435 10.4395C18.2231 10.2084 17.945 10.0422 17.638 9.95918L17.7897 9.87248L18.3857 9.51128L18.9961 9.15008L20.6252 10.035L22.2542 9.17894L22.8755 9.52574V9.52574ZM22.0736 8.80328L20.7769 9.48596V6.70832L22.5359 6.11234L22.0736 8.80328V8.80328ZM20.6288 6.41576L18.7 5.64277C18.8625 5.25267 19.621 4.92036 20.6288 4.92036C21.6365 4.92036 22.3951 5.25267 22.5576 5.64277L20.6288 6.41576V6.41576Z" fill="#222220"/>
</svg>
