<svg width="120" height="30" viewBox="0 0 120 30" fill="none" xmlns="http://www.w3.org/2000/svg">
<path d="M27 9.98999H33.204C35.9883 14.8368 40.0092 18.8577 44.856 21.642V27.846C40.7125 26.4332 36.9482 24.0889 33.8527 20.9933C30.7571 17.8978 28.4128 14.1335 27 9.98999Z" fill="#00AFAA"/>
<path d="M44.874 9.99005H33.204C31.7265 7.43051 30.6233 4.67249 29.928 1.80005H36.666C38.8398 1.80004 40.9248 2.66234 42.4636 4.19775C44.0024 5.73316 44.8693 7.81625 44.874 9.99005Z" fill="#00AFAA"/>
<path d="M44.808 1.80005C45.2536 3.8186 46.267 5.6677 47.7287 7.12937C49.1903 8.59109 51.0394 9.60443 53.058 10.05V1.80005H44.808Z" fill="#00AFAA"/>
<path d="M44.874 9.98999V21.642C40.0272 18.8577 36.0063 14.8368 33.222 9.98999H44.874Z" fill="#00539B"/>
<path d="M66.666 11.9101V20.2381H64.116V11.9101H61.422V9.95405H69.36V11.9041L66.666 11.9101V11.9101ZM82.632 10.8841C83.4846 10.1983 84.5382 9.81059 85.632 9.78005C88.578 9.78005 89.976 11.8561 89.976 14.8321C89.976 18.5941 87.864 20.5141 84.81 20.5141C81.756 20.5141 80.148 18.5941 80.148 14.1661C80.148 10.4821 80.982 7.94405 82.26 6.76805C83.724 5.41205 84.18 5.44805 85.896 5.00405C86.952 4.73405 87.972 4.56605 88.368 4.40405L89.298 6.51605C88.794 6.81605 87.852 7.03805 85.974 7.41605C83.802 7.84205 82.824 8.61605 82.602 10.8661L82.632 10.8841V10.8841ZM84.96 18.4441C86.646 18.4441 87.276 17.0761 87.276 15.1201C87.276 13.3561 86.754 11.9101 85.056 11.9101C84.2856 11.8639 83.5248 12.0984 82.914 12.5701C82.833 13.3673 82.8066 14.1692 82.836 14.9701C82.8 17.0761 83.484 18.4441 84.96 18.4441V18.4441ZM76.74 20.2441L73.308 15.4441V20.2441H70.728V9.95405H73.308V14.4601L76.362 9.95405H79.2L75.876 14.6161L79.782 20.2561H76.782L76.74 20.2441V20.2441Z" fill="#00539B"/>
<path d="M53.058 18.162V24.9C50.1886 24.1897 47.4335 23.0788 44.874 21.6V9.98999C45.9479 9.98921 47.0116 10.1999 48.004 10.6102C48.9965 11.0205 49.8985 11.6222 50.6585 12.3811C51.4184 13.1399 52.0215 14.041 52.4332 15.0329C52.8449 16.0247 53.0572 17.0881 53.058 18.162V18.162Z" fill="#F39A00"/>
</svg>
