<svg width="120" height="30" viewBox="0 0 120 30" fill="none" xmlns="http://www.w3.org/2000/svg">
<path d="M42.396 22.4821C40.4096 22.5466 38.4751 21.8415 36.996 20.5141C36.2036 19.7924 35.5824 18.9029 35.1775 17.9106C34.7727 16.9183 34.5946 15.848 34.656 14.7781C34.6092 12.9643 35.2258 11.1957 36.39 9.80407C37.4782 8.55199 38.9588 7.70593 40.59 7.40407C42.592 6.93715 44.6963 7.24357 46.482 8.26207C47.5584 8.85529 48.4585 9.72289 49.0908 10.7768C49.7231 11.8306 50.0651 13.0331 50.082 14.2621C50.202 16.5841 49.65 18.6721 47.934 20.3281C46.4575 21.7274 44.4899 22.4903 42.456 22.4521L42.396 22.4821V22.4821ZM42.498 10.9081C41.7111 10.8641 40.9331 11.0933 40.2958 11.5568C39.6584 12.0204 39.2006 12.6899 39 13.4521C38.7068 14.3794 38.7068 15.3747 39 16.3021C39.1784 16.9326 39.5346 17.4984 40.0259 17.932C40.5172 18.3656 41.123 18.6487 41.7708 18.7473C42.4186 18.846 43.0811 18.7562 43.6793 18.4886C44.2774 18.2209 44.7859 17.7868 45.144 17.2381C45.5626 16.5823 45.8012 15.8278 45.836 15.0506C45.8708 14.2733 45.7004 13.5006 45.342 12.8101C45.0908 12.2419 44.677 11.7608 44.1526 11.4277C43.6283 11.0945 43.0171 10.9241 42.396 10.9381L42.498 10.9081V10.9081ZM75 16.2781C74.256 16.3201 73.554 16.3741 72.774 16.4161V22.1281H68.574V7.65607H72.69V13.0021C73.5858 13.0796 74.4882 13.0066 75.36 12.7861C75.8748 12.6359 76.3428 12.3563 76.7184 11.974C77.0946 11.5916 77.3664 11.1193 77.508 10.6021C77.784 9.64807 77.898 8.65207 78.108 7.60207H81.93C82.008 10.6021 81.42 13.2181 78.576 14.8381C78.696 15.0541 78.774 15.2281 78.888 15.4021C80.088 17.3521 81.228 19.3021 82.398 21.2701C82.5336 21.5424 82.6518 21.823 82.752 22.1101H78.366C77.232 20.1961 76.104 18.2281 74.97 16.2601L75 16.2781V16.2781ZM93.57 13.4521C93.5994 13.0366 93.5994 12.6196 93.57 12.2041C93.5118 11.8815 93.3612 11.5828 93.1362 11.3441C92.9118 11.1056 92.6226 10.9374 92.304 10.8601C91.2048 10.4981 90.0384 10.3854 88.89 10.5301C87.8124 10.6002 86.7588 10.8794 85.788 11.3521C85.614 10.3201 85.434 9.34207 85.242 8.35207C86.0814 7.94659 86.9742 7.66369 87.894 7.51207C89.8068 7.11877 91.7826 7.14541 93.684 7.59007C95.712 8.10007 97.134 9.27007 97.524 11.4121C97.605 11.948 97.6368 12.4903 97.62 13.0321V18.4321C97.698 19.5421 97.794 19.6321 98.928 19.8361V22.1401C97.8078 22.5082 96.594 22.4742 95.496 22.0441C95.2062 21.8947 94.956 21.6786 94.7664 21.4136C94.5768 21.1487 94.4526 20.8424 94.404 20.5201C94.371 20.366 94.3506 20.2095 94.344 20.0521C92.958 22.0441 90.99 22.5301 88.806 22.4101C86.37 22.2721 84.498 20.6101 84.144 18.7021C83.58 15.5641 85.176 13.2241 88.344 12.7321C90.39 12.4381 90.96 12.5761 93.552 13.4521H93.57V13.4521ZM93.54 16.2001C92.883 15.7563 92.1264 15.4822 91.338 15.4021C90.9384 15.3209 90.5262 15.3222 90.1272 15.4058C89.7276 15.4894 89.3496 15.6535 89.016 15.8881C88.698 16.1258 88.464 16.4586 88.347 16.8383C88.2306 17.218 88.2378 17.6248 88.368 18.0001C88.4772 18.3337 88.6848 18.6268 88.9626 18.8408C89.241 19.0549 89.5776 19.1801 89.928 19.2001C90.639 19.2724 91.3572 19.1651 92.016 18.8881C92.5572 18.7073 93.012 18.3327 93.2934 17.8364C93.5748 17.3401 93.663 16.7572 93.54 16.2001ZM61.236 7.63807H65.292V22.1461H61.2V17.5081C60.438 17.6821 59.754 17.8801 59.034 17.9761C57.162 18.2281 55.386 17.9761 53.886 16.7761C52.7788 15.824 52.0453 14.5101 51.816 13.0681C51.462 11.2681 51.678 9.46807 51.618 7.66807H55.848V8.31007C55.848 9.51007 55.848 10.6501 55.908 11.8381C55.9195 12.1895 56.0009 12.5352 56.1472 12.855C56.2936 13.1747 56.5021 13.4622 56.7607 13.7006C57.0191 13.939 57.3225 14.1236 57.653 14.2438C57.9836 14.3638 58.3347 14.417 58.686 14.4001C59.6006 14.4284 60.4992 14.1542 61.242 13.6201L61.236 7.63807V7.63807ZM29.346 22.0921H25.272V11.3461H21V7.65607H33.6V11.3041H29.346V22.0921Z" fill="#333333"/>
</svg>
