<svg viewBox="0 0 120 30" fill="none" xmlns="http://www.w3.org/2000/svg">
<g clip-path="url(#clip0_290_39784)">
<path d="M112.14 15.72H109.68V13.32H108.42V19.44H109.68V16.8H112.14V19.44H113.4V13.26H112.14V15.72ZM105.24 13.32H103.8L101.34 19.5H102.72L103.2 18.12H105.84L106.32 19.5H107.7L105.24 13.32ZM103.56 16.98L104.46 14.52L105.36 16.98H103.56ZM120 19.44L117.3 16.08L119.88 13.26H118.32L116.1 15.9V13.26H114.84V19.44H116.1V16.32L118.44 19.44H120ZM100.38 16.2C100.02 15.84 99.5401 15.66 99.0601 15.6H97.7401V14.4H100.44V13.32H96.4801V19.44H99.0601C99.3001 19.44 99.5401 19.38 99.7801 19.32C100.02 19.26 100.2 19.08 100.38 18.9C100.56 18.72 100.68 18.54 100.8 18.3C100.92 18.06 100.92 17.82 100.92 17.58C100.92 17.04 100.68 16.56 100.38 16.2ZM99.3001 18.18C99.1201 18.36 98.9401 18.42 98.7001 18.48H97.6801V16.68H98.7001C98.8201 16.68 98.9401 16.68 99.0601 16.74C99.1801 16.8 99.3001 16.86 99.3601 16.92C99.4201 16.98 99.5401 17.1 99.5401 17.22C99.6001 17.34 99.6001 17.46 99.6001 17.58C99.6001 17.76 99.4801 18 99.3001 18.18ZM25.3801 20.46H22.4401L23.7601 18.12L20.4601 12.3H23.4601L25.2001 15.72L26.8801 12.3H29.7601L25.3801 20.46ZM62.1001 20.46H58.4401C56.4601 20.46 54.8401 18.78 54.8401 16.5C54.8401 13.86 56.4601 12.3 58.4401 12.3H62.1001V14.34H59.7601C58.3801 14.34 57.5401 14.76 57.5401 16.44C57.5401 18.12 58.3201 18.48 59.7601 18.48H62.1001V20.46ZM71.6401 20.46H68.9401V14.7L65.8801 20.46H62.6401V12.3H65.3401V17.88L68.4001 12.3H71.6401V20.46ZM52.0801 12.3H49.1401L46.2601 19.08L43.3801 12.3H40.3801L36.9001 20.52H39.7201L40.3201 18.78H43.3201L43.9801 20.52H48.4201L50.5801 14.58L52.6801 20.52H55.5001L52.0801 12.3ZM41.1001 16.92L42.0001 14.58L42.8401 16.92H41.1001ZM35.5201 12.3H30.0001V20.52H32.6401V18.12H35.5201C38.2801 18.12 38.2801 15.66 38.2801 15.12C38.2801 14.58 38.2801 12.3 35.5201 12.3ZM34.6201 16.08H32.7001V14.34H34.6201C34.9201 14.34 35.7001 14.34 35.7001 15.18C35.7001 16.02 34.9201 16.08 34.6201 16.08ZM77.5801 15.36H74.8801V14.28H79.9801V12.24H72.1801V20.46H77.5801C80.4001 20.46 80.4001 18.78 80.4001 17.88C80.4001 16.98 80.4001 15.42 77.5801 15.36ZM77.1001 18.6H74.8201V17.28H77.1001C77.7001 17.28 77.7001 17.7 77.7001 17.88C77.7001 18.06 77.7001 18.6 77.1001 18.6ZM8.58012 8.16C8.76012 8.16 9.00012 8.16 9.18012 8.22L9.12012 2.64H9.78012C9.72012 4.56 9.84012 6.42 10.0201 8.34C11.5801 8.7 13.0201 9.48 14.1601 10.68C15.3001 11.88 16.0201 13.32 16.3201 14.94C16.6201 16.56 16.3801 18.18 15.7201 19.68C15.0601 21.18 13.9801 22.38 12.6001 23.28C12.5401 23.22 12.4801 23.1 12.3601 22.98C9.90012 19.86 9.30012 15.24 9.12012 11.22C9.48012 11.28 9.78012 11.34 10.1401 11.4C10.6801 14.82 12.1801 18.06 14.5801 20.58C15.4201 19.56 15.9001 18.18 15.7801 16.86C15.7201 15.48 15.1201 14.22 14.2201 13.26C13.1401 12.12 11.8201 11.28 10.3201 10.92C9.60012 10.74 8.88012 10.62 8.16012 10.62C7.44012 10.62 6.66012 10.74 5.94012 10.92C2.82012 11.7 0.480117 14.16 0.480117 17.1C0.480117 18.36 0.900117 19.56 1.68012 20.58C4.08012 18.06 5.58012 14.82 6.12012 11.4C6.48012 11.34 6.78012 11.34 7.20012 11.22C7.02012 15.3 6.42012 19.86 3.96012 22.92C3.90012 23.04 3.78012 23.16 3.72012 23.22C2.34012 22.32 1.32012 21.06 0.660117 19.56C0.000117159 18.06 -0.179883 16.44 0.120117 14.82C0.420117 13.2 1.20012 11.76 2.28012 10.62C3.36012 9.48 4.86012 8.64 6.42012 8.34C6.66012 4.2 6.60012 2.64 6.60012 2.64H7.26012L7.20012 8.22C7.38012 8.16 7.56012 8.1 7.74012 8.16V0H8.46012C8.52012 0 8.52012 8.16 8.58012 8.16Z" fill="#0E3263"/>
<path d="M8.5802 11.1602C8.6402 15.0602 8.9402 19.8602 10.2002 23.1602C10.3202 23.5202 10.5002 23.8802 10.7402 24.2402C9.9002 24.4802 9.0602 24.6002 8.2202 24.6602C7.3802 24.6602 6.5402 24.5402 5.7002 24.2402C5.9402 23.8202 6.1202 23.4602 6.3002 23.0402C7.4402 19.8002 7.7402 15.0002 7.8002 11.1602H8.5802ZM88.0802 10.2002H88.6202V22.5602H88.0802V10.2002Z" fill="#0E3263"/>
</g>
<defs>
<clipPath id="clip0_290_39784">
<rect width="120" height="30" fill="white"/>
</clipPath>
</defs>
</svg>