<svg viewBox="0 0 120 30" fill="none" xmlns="http://www.w3.org/2000/svg">
<path d="M56.7607 15.7799C56.2807 15.1199 55.5607 14.6999 54.7807 14.5199C55.5007 14.3399 56.1607 13.9199 56.5807 13.3199C57.0007 12.7199 57.2407 11.9999 57.1807 11.2799C57.1807 9.35993 55.8007 7.67993 53.1007 7.67993H45.7207V21.7799H53.4007C56.1007 21.7799 57.4807 20.0999 57.4807 17.9999C57.4807 17.2199 57.2407 16.3799 56.7607 15.7799ZM48.7207 10.2599H52.5007C52.7407 10.2599 52.9207 10.2599 53.1007 10.3199C53.2807 10.3799 53.4607 10.4999 53.6407 10.6199C53.8207 10.7399 53.9407 10.9199 54.0007 11.1599C54.0607 11.3399 54.1207 11.5799 54.1207 11.7599C54.1207 11.9999 54.0607 12.1799 54.0007 12.3599C53.9407 12.5399 53.8207 12.7199 53.6407 12.8999C53.4607 13.0199 53.2807 13.1399 53.1007 13.1999C52.9207 13.2599 52.6807 13.3199 52.5007 13.2599H48.7207V10.2599ZM52.5607 19.1999H48.7207V15.8999H52.5607C52.8007 15.8999 53.0407 15.8999 53.2207 15.9599C53.4607 16.0199 53.6407 16.1399 53.8207 16.3199C54.0007 16.4999 54.1207 16.6799 54.2407 16.8599C54.3607 17.0999 54.3607 17.2799 54.3607 17.5199C54.4207 18.5999 53.7007 19.1999 52.5607 19.1999ZM66.3607 12.8399H62.7007V10.3199H69.9607V7.67993H59.7007V21.7799H66.3607C69.3607 21.7799 71.0407 19.7399 71.0407 17.2799C71.0407 14.8199 69.3607 12.8399 66.3607 12.8399ZM67.7407 18.0599C67.6207 18.2999 67.5007 18.4799 67.3207 18.6599C67.1407 18.8399 66.9007 18.9599 66.6607 19.0799C66.4207 19.1399 66.1807 19.1999 65.9407 19.1999H62.7007V15.5399H65.9407C66.1807 15.5399 66.4207 15.5399 66.6607 15.6599C66.9007 15.7199 67.1407 15.8999 67.3207 16.0799C67.5007 16.2599 67.6207 16.4399 67.7407 16.6799C67.8607 16.9199 67.9207 17.1599 67.9207 17.3999C67.9207 17.6399 67.8607 17.8199 67.7407 18.0599ZM79.5007 7.67993H72.9007V21.7799H75.9007V16.7999H79.5007C82.5607 16.7999 84.2407 14.6999 84.2407 12.2399C84.2407 9.77993 82.5607 7.67993 79.5007 7.67993ZM81.0007 13.0199C80.8807 13.2599 80.7607 13.4999 80.5207 13.6799C80.3407 13.8599 80.1007 13.9799 79.8607 14.0999C79.6207 14.1599 79.3207 14.2199 79.0807 14.1599H75.9007V10.3799H79.0807C79.3207 10.3799 79.6207 10.3799 79.8607 10.4399C80.1007 10.4999 80.3407 10.6799 80.5207 10.8599C80.7007 11.0399 80.8807 11.2799 81.0007 11.5199C81.1207 11.7599 81.1807 11.9999 81.1807 12.2999C81.1807 12.5399 81.1207 12.7799 81.0007 13.0199ZM92.4007 7.67993H85.8007V21.7799H88.8007V16.7999H92.4007C95.4607 16.7999 97.1407 14.6999 97.1407 12.2399C97.1407 9.77993 95.5207 7.67993 92.4007 7.67993ZM93.9607 13.0199C93.8407 13.2599 93.7207 13.4999 93.4807 13.6799C93.3007 13.8599 93.0607 13.9799 92.8207 14.0999C92.5807 14.1599 92.2807 14.2199 92.0407 14.1599H88.8007V10.3799H91.9807C92.2207 10.3799 92.5207 10.3799 92.7607 10.4399C93.0007 10.4999 93.2407 10.6799 93.4207 10.8599C93.6007 11.0399 93.7807 11.2799 93.9007 11.5199C94.0207 11.7599 94.0807 11.9999 94.0807 12.2999C94.1407 12.5399 94.0807 12.7799 93.9607 13.0199Z" fill="#1D1D1B"/>
<path d="M25.5602 14.28L30.2402 14.04L30.6602 21.54L25.9802 21.78L25.5602 14.28ZM30.9002 19.86L32.1002 15.3L39.3602 17.22L38.1602 21.78L30.9002 19.86ZM33.9002 13.92L37.9802 7.62L41.9402 10.2L37.8602 16.5L33.9002 13.92ZM28.3802 5.94L32.1002 3L36.8402 8.82L33.1802 11.76C33.1202 11.82 28.4402 5.94 28.3802 5.94ZM22.2002 10.2L29.2202 7.5L30.9002 11.88L23.8802 14.58L22.2002 10.2Z" fill="#1D1D1B"/>
<path d="M25.7402 24.96H97.2002V26.52H25.7402V24.96Z" fill="#FFD101"/>
</svg>