<svg width="120" height="30" viewBox="0 0 120 30" fill="none" xmlns="http://www.w3.org/2000/svg">
<path d="M15.0001 4.94405C14.9999 4.76354 15.07 4.59005 15.1954 4.46019C15.3207 4.33034 15.4916 4.25427 15.6721 4.24805H36.0301C36.1199 4.24961 36.2085 4.26885 36.2909 4.30467C36.3733 4.3405 36.4478 4.39221 36.5102 4.45684C36.5726 4.52147 36.6217 4.59777 36.6546 4.68136C36.6875 4.76496 36.7036 4.85422 36.7021 4.94405V25.278C36.7021 25.4585 36.6321 25.632 36.5068 25.7619C36.3814 25.8917 36.2104 25.9678 36.0301 25.974H15.6721C15.5822 25.9725 15.4936 25.9532 15.4112 25.9174C15.3288 25.8816 15.2543 25.8299 15.1919 25.7652C15.1295 25.7006 15.0804 25.6243 15.0475 25.5407C15.0146 25.4571 14.9984 25.3679 15.0001 25.278V4.94405Z" fill="#003870"/>
<path d="M57.042 11.1962H56.142C56.125 11.1976 56.1089 11.2049 56.0968 11.2171C56.0848 11.2291 56.0773 11.2451 56.076 11.2622V13.2842H53.4V11.2622C53.3986 11.2451 53.3912 11.2291 53.3791 11.2171C53.3671 11.2049 53.351 11.1976 53.334 11.1962H52.434C52.392 11.1962 52.368 11.2382 52.368 11.2862V16.2002C52.368 16.2422 52.41 16.2662 52.458 16.2902H53.4C53.442 16.2902 53.466 16.2482 53.49 16.2242V14.1422H56.142V16.2002C56.142 16.2422 56.184 16.2662 56.232 16.2662H57.132C57.174 16.2662 57.198 16.2242 57.222 16.1762V11.2862C57.132 11.2442 57.108 11.2202 57.066 11.1962H57.042V11.1962ZM45 13.6922C44.8825 13.5542 44.7331 13.447 44.5647 13.3801C44.3963 13.3132 44.2141 13.2885 44.034 13.3082H41.586V12.3002C41.586 12.2342 41.586 12.1202 41.652 12.0782C41.7283 12.0409 41.8136 12.0264 41.898 12.0362H44.4C44.4234 12.0347 44.4455 12.0248 44.462 12.0082C44.4786 11.9917 44.4886 11.9696 44.49 11.9462V11.2862C44.4886 11.2628 44.4786 11.2407 44.462 11.2241C44.4455 11.2075 44.4234 11.1976 44.4 11.1962H41.274C41.1711 11.191 41.0683 11.2063 40.9714 11.2414C40.8746 11.2763 40.7857 11.3303 40.71 11.4002C40.6396 11.4755 40.5852 11.5643 40.5502 11.6612C40.5151 11.7582 40.5001 11.8613 40.506 11.9642V15.5642C40.4954 15.7418 40.5509 15.9171 40.662 16.0562C40.7369 16.1272 40.8257 16.1819 40.9227 16.217C41.0197 16.2521 41.123 16.2668 41.226 16.2602H44.058C44.2285 16.2757 44.4004 16.2554 44.5625 16.2006C44.7248 16.1458 44.8738 16.0578 45 15.9422C45.2308 15.6071 45.3349 15.2009 45.294 14.7962C45.3254 14.4053 45.2216 14.0156 45 13.6922V13.6922ZM44.034 15.3362C43.9653 15.3906 43.8862 15.4304 43.8016 15.4531C43.717 15.4757 43.6286 15.4809 43.542 15.4682H41.922C41.808 15.4682 41.652 15.4682 41.61 15.4022C41.5987 15.3206 41.5987 15.2378 41.61 15.1562V14.1662H43.59C43.6766 14.1535 43.765 14.1586 43.8496 14.1813C43.9342 14.204 44.0133 14.2438 44.082 14.2982C44.1416 14.3692 44.1862 14.4515 44.213 14.5402C44.2398 14.6288 44.2483 14.7221 44.238 14.8142C44.2442 15.0034 44.1825 15.1886 44.064 15.3362H44.034V15.3362ZM51.51 16.2002L49.62 11.7362C49.5526 11.5453 49.4231 11.3825 49.2524 11.2738C49.0817 11.165 48.8795 11.1166 48.678 11.1362C48.4755 11.1098 48.2702 11.1554 48.098 11.2651C47.9258 11.3747 47.7976 11.5415 47.736 11.7362L45.84 16.1702C45.8414 16.1936 45.8513 16.2157 45.8679 16.2322C45.8845 16.2488 45.9066 16.2587 45.93 16.2602H46.8C46.8 16.2602 46.866 16.2602 46.866 16.2182L47.382 14.9342H49.98L50.496 16.2182C50.496 16.2182 50.538 16.2602 50.562 16.2602H51.42C51.4434 16.2587 51.4655 16.2488 51.482 16.2322C51.4986 16.2157 51.5086 16.1936 51.51 16.1702V16.2002ZM47.706 14.1542L48.516 12.1502C48.516 12.1502 48.582 11.9702 48.648 11.9702C48.714 11.9702 48.78 12.1502 48.78 12.1502L49.59 14.1542H47.706V14.1542ZM63 16.1462L60.6 14.1002C60.486 14.0102 60.288 13.8302 60.288 13.6742C60.288 13.5182 60.42 13.4522 60.558 13.3142L62.742 11.3342C62.7462 11.3205 62.7462 11.3059 62.742 11.2922C62.7408 11.2724 62.7342 11.2534 62.7222 11.2373C62.7108 11.2214 62.6946 11.2091 62.676 11.2022H61.53L59.46 13.0682C59.3789 13.1384 59.3101 13.2215 59.256 13.3142V11.2862C59.2546 11.2691 59.2472 11.2531 59.2351 11.2411C59.223 11.2289 59.207 11.2216 59.19 11.2202H58.29C58.248 11.2202 58.224 11.2622 58.224 11.3102V16.2362C58.224 16.2782 58.266 16.3022 58.29 16.3262H59.19C59.207 16.3248 59.223 16.3174 59.2351 16.3053C59.2472 16.2932 59.2546 16.2772 59.256 16.2602V14.0762C59.3246 14.1969 59.4163 14.3029 59.526 14.3882L61.8 16.3022H62.964C62.9874 16.3007 63.0096 16.2908 63.0258 16.2742C63.0426 16.2577 63.0528 16.2356 63.054 16.2122C63.054 16.1702 63.054 16.1462 63.012 16.1222L63 16.1462V16.1462ZM99.714 5.19019C99.7224 4.99572 99.6834 4.80216 99.6 4.62619C99.5286 4.5005 99.423 4.39768 99.2958 4.32969C99.168 4.2617 99.024 4.23135 98.88 4.24219C98.6874 4.24099 98.4984 4.29748 98.3382 4.40441C98.178 4.51133 98.0532 4.66379 97.98 4.84219L95.868 8.12419C95.868 8.16619 95.802 8.21419 95.778 8.21419C95.754 8.21419 95.778 8.12419 95.778 8.05819V4.31419C95.7768 4.29714 95.769 4.28114 95.757 4.26904C95.745 4.25695 95.7288 4.24955 95.712 4.24819H94.812C94.77 4.24819 94.746 4.29019 94.746 4.33819V8.45419C94.746 8.72419 94.746 9.35419 95.556 9.35419C95.7318 9.37219 95.9088 9.33433 96.0618 9.24595C96.2148 9.15763 96.336 9.02335 96.408 8.86219L98.592 5.53219C98.634 5.46619 98.682 5.37619 98.724 5.37619C98.766 5.37619 98.766 5.37619 98.766 5.50819V9.28819C98.766 9.33019 98.808 9.35419 98.832 9.37819H99.732C99.7488 9.37681 99.765 9.36943 99.777 9.35731C99.789 9.34525 99.7968 9.32923 99.798 9.31219L99.714 5.19019V5.19019ZM45 7.01419C44.8775 6.87679 44.7088 6.78925 44.526 6.76819C44.6776 6.73081 44.8126 6.64429 44.91 6.52219C45.0056 6.40723 45.0767 6.27397 45.119 6.13057C45.1613 5.98717 45.1739 5.83663 45.156 5.68819C45.1886 5.29083 45.0685 4.896 44.82 4.58419C44.5417 4.35808 44.1877 4.24652 43.83 4.27219H41.274C41.1637 4.26136 41.0524 4.27571 40.9484 4.31417C40.8445 4.35262 40.7507 4.41418 40.674 4.49419C40.5547 4.64869 40.4912 4.83902 40.494 5.03419V8.63419C40.4883 8.82979 40.5521 9.02113 40.674 9.17419C40.7587 9.25813 40.8623 9.32047 40.9761 9.35593C41.0899 9.39145 41.2106 9.39907 41.328 9.37819H43.914C44.0989 9.39709 44.2856 9.37279 44.4595 9.30715C44.6333 9.24157 44.7896 9.13651 44.916 9.00019C45.0374 8.85013 45.1276 8.67721 45.1812 8.49175C45.2348 8.30629 45.2507 8.11195 45.228 7.92019C45.2594 7.76173 45.2552 7.59823 45.2158 7.44157C45.1763 7.28491 45.1027 7.13893 45 7.01419V7.01419ZM41.58 6.36019V5.32219C41.5768 5.2855 41.581 5.24855 41.5924 5.21351C41.6037 5.17848 41.6219 5.14607 41.646 5.11819C41.6717 5.09963 41.7009 5.08637 41.7318 5.07916C41.7627 5.07196 41.7947 5.07094 41.826 5.07619H43.5C43.6665 5.05687 43.8344 5.09727 43.974 5.19019C44.0914 5.33519 44.1474 5.52041 44.13 5.70619C44.151 5.87849 44.1107 6.05269 44.016 6.19819C43.9481 6.26263 43.8661 6.31033 43.7765 6.33739C43.6869 6.36451 43.5922 6.37021 43.5 6.35419L41.58 6.36019V6.36019ZM44.034 8.36419C43.8736 8.48797 43.6711 8.54401 43.47 8.52019H41.928C41.862 8.52019 41.706 8.52019 41.658 8.45419C41.6249 8.36821 41.6107 8.27617 41.616 8.18419V7.20019H43.596C43.908 7.20019 44.046 7.31419 44.088 7.40419C44.1728 7.55371 44.2124 7.72459 44.202 7.89619C44.2085 8.06311 44.1601 8.22751 44.064 8.36419H44.034ZM50.874 4.76419C50.2684 4.33129 49.5271 4.13106 48.786 4.20019C48.0394 4.1131 47.2871 4.30546 46.674 4.74019C46.4372 5.02553 46.2617 5.35659 46.1585 5.71273C46.0553 6.06889 46.0265 6.44245 46.074 6.81019C46.0276 7.17793 46.0568 7.55125 46.16 7.90723C46.2632 8.26315 46.4381 8.59429 46.674 8.88019C47.2892 9.31027 48.0398 9.50221 48.786 9.42019C49.386 9.42019 50.34 9.42019 50.898 8.88019C51.456 8.34019 51.498 7.26019 51.498 6.81019C51.51 6.11419 51.438 5.23219 50.904 4.74019L50.874 4.76419V4.76419ZM47.46 5.43619C47.8483 5.17178 48.3072 5.03038 48.777 5.03038C49.2467 5.03038 49.7057 5.17178 50.094 5.43619C50.3492 5.84609 50.4571 6.33073 50.4 6.81019C50.4444 7.28209 50.335 7.75567 50.088 8.16019C49.9135 8.32681 49.7036 8.45167 49.4739 8.52547C49.2442 8.59927 49.0008 8.62003 48.762 8.58619C48.162 8.58619 47.73 8.52019 47.46 8.16019C47.1961 7.76221 47.0774 7.28545 47.124 6.81019C47.0707 6.32689 47.1896 5.84032 47.46 5.43619V5.43619ZM68.088 4.74019C67.479 4.31575 66.738 4.12411 66 4.20019C65.2536 4.1131 64.5012 4.30546 63.888 4.74019C63.651 5.02553 63.4758 5.35659 63.3726 5.71273C63.2694 6.06889 63.2406 6.44245 63.288 6.81019C63.2418 7.17793 63.2706 7.55125 63.3738 7.90723C63.477 8.26315 63.6522 8.59429 63.888 8.88019C64.503 9.31027 65.2536 9.50221 66 9.42019C66.6 9.42019 67.554 9.42019 68.112 8.88019C68.67 8.34019 68.712 7.26019 68.712 6.81019C68.694 6.11419 68.628 5.23219 68.088 4.74019V4.74019ZM64.644 5.43619C65.0322 5.17178 65.4912 5.03038 65.961 5.03038C66.4308 5.03038 66.8898 5.17178 67.278 5.43619C67.5354 5.84534 67.6452 6.33001 67.59 6.81019C67.6344 7.28209 67.5252 7.75567 67.278 8.16019C67.1034 8.32681 66.8934 8.45167 66.6636 8.52547C66.4344 8.59927 66.1908 8.62003 65.952 8.58619C65.352 8.58619 64.92 8.52019 64.65 8.16019C64.386 7.76221 64.2672 7.28545 64.314 6.81019C64.2588 6.32761 64.3758 5.8411 64.644 5.43619V5.43619ZM87.726 8.52019H84.96C84.828 8.52019 84.69 8.52019 84.648 8.47819C84.6246 8.45995 84.606 8.43607 84.5946 8.40877C84.5832 8.38147 84.579 8.35165 84.582 8.32219V7.20019H87.126C87.1494 7.19875 87.1716 7.18885 87.1878 7.17223C87.2046 7.15567 87.2148 7.13359 87.216 7.11019V6.45019C87.2148 6.42679 87.2046 6.40471 87.1878 6.38815C87.1716 6.37153 87.1494 6.36163 87.126 6.36019H84.6V5.37019C84.5952 5.33064 84.5988 5.29057 84.6102 5.25241C84.6216 5.21425 84.6408 5.17879 84.666 5.14819C84.7398 5.10327 84.8256 5.08037 84.912 5.08219H87.702C87.7254 5.08076 87.7476 5.07082 87.7638 5.05424C87.7806 5.03767 87.7908 5.01559 87.792 4.99219V4.33219C87.7908 4.30878 87.7806 4.28671 87.7638 4.27013C87.7476 4.25355 87.7254 4.24361 87.702 4.24219H84.372C84.255 4.2287 84.1362 4.23989 84.0234 4.27502C83.9106 4.31016 83.8068 4.36846 83.718 4.44619C83.5986 4.60069 83.535 4.79102 83.538 4.98619V8.53819C83.526 8.64703 83.538 8.75713 83.5734 8.86081C83.6088 8.96443 83.6664 9.05911 83.742 9.13819C83.9166 9.26059 84.1296 9.31597 84.342 9.29419H87.714C87.7374 9.29275 87.7596 9.28285 87.7758 9.26623C87.7926 9.24967 87.8028 9.22759 87.804 9.20419V8.56219C87.7794 8.53873 87.7476 8.52403 87.714 8.52019H87.726V8.52019ZM104.892 8.52019H102.12C101.988 8.52019 101.85 8.52019 101.808 8.47819C101.785 8.45995 101.766 8.43607 101.755 8.40877C101.743 8.38147 101.739 8.35165 101.742 8.32219V7.20019H104.304C104.327 7.19875 104.35 7.18885 104.366 7.17223C104.383 7.15567 104.393 7.13359 104.394 7.11019V6.45019C104.393 6.42679 104.383 6.40471 104.366 6.38815C104.35 6.37153 104.327 6.36163 104.304 6.36019H101.76V5.37019C101.755 5.33064 101.759 5.29057 101.77 5.25241C101.782 5.21425 101.801 5.17879 101.826 5.14819C101.9 5.10327 101.986 5.08037 102.072 5.08219H104.862C104.885 5.08076 104.908 5.07082 104.924 5.05424C104.941 5.03767 104.951 5.01559 104.952 4.99219V4.33219C104.951 4.30878 104.941 4.28671 104.924 4.27013C104.908 4.25355 104.885 4.24361 104.862 4.24219H101.532C101.415 4.2287 101.296 4.23989 101.183 4.27502C101.071 4.31016 100.967 4.36846 100.878 4.44619C100.759 4.60069 100.695 4.79102 100.698 4.98619V8.53819C100.686 8.64703 100.698 8.75713 100.733 8.86081C100.769 8.96443 100.826 9.05911 100.902 9.13819C101.077 9.26059 101.29 9.31597 101.502 9.29419H104.874C104.897 9.29275 104.92 9.28285 104.936 9.26623C104.953 9.24967 104.963 9.22759 104.964 9.20419V8.56219C104.964 8.56219 104.898 8.52019 104.85 8.52019H104.892ZM93.528 4.26619H92.628C92.6112 4.26755 92.595 4.27495 92.583 4.28704C92.571 4.29914 92.5632 4.31514 92.562 4.33219V6.36019H89.91V4.33219C89.9088 4.31514 89.901 4.29914 89.889 4.28704C89.877 4.27495 89.8608 4.26755 89.844 4.26619H88.944C88.902 4.26619 88.878 4.30819 88.878 4.35619V9.28219C88.878 9.32419 88.92 9.34819 88.968 9.37219H89.868C89.91 9.37219 89.934 9.33019 89.958 9.30619V7.20019H92.61V9.27019C92.61 9.31219 92.652 9.33619 92.7 9.33619H93.6C93.642 9.33619 93.666 9.29419 93.69 9.24619V4.33219C93.6 4.29019 93.576 4.26619 93.534 4.26619H93.528V4.26619ZM62.016 4.56019C61.7172 4.32386 61.3392 4.21208 60.96 4.24819H58.458C58.3495 4.24079 58.2405 4.25502 58.1375 4.29004C58.0345 4.32506 57.9395 4.38017 57.858 4.45219C57.7868 4.53352 57.734 4.62916 57.7029 4.73267C57.6719 4.83617 57.6634 4.94512 57.678 5.05219V9.25219C57.678 9.29419 57.72 9.31819 57.744 9.34219H58.644C58.661 9.34081 58.6771 9.33343 58.6891 9.32131C58.7012 9.30925 58.7086 9.29323 58.71 9.27619V7.57219H61.11C61.407 7.58053 61.6992 7.49437 61.944 7.32619C62.124 7.14553 62.2596 6.92623 62.3418 6.68503C62.424 6.44377 62.4504 6.18697 62.418 5.93419C62.4546 5.43884 62.3022 4.94802 61.992 4.56019H62.016V4.56019ZM61.164 6.56419C61.0818 6.63403 60.9864 6.68611 60.8826 6.71707C60.7794 6.74803 60.6708 6.75727 60.564 6.74419H58.686V5.34619C58.686 5.25619 58.686 5.19019 58.752 5.14219C58.8061 5.10959 58.8691 5.09489 58.932 5.10019H60.552C60.7644 5.07559 60.9786 5.13122 61.152 5.25619C61.2894 5.44502 61.3536 5.67755 61.332 5.91019C61.3518 6.02407 61.3482 6.14077 61.3212 6.25321C61.2942 6.36565 61.245 6.47149 61.176 6.56419H61.164ZM76.35 9.21619L74.274 7.20019C74.1354 7.08523 74.04 6.92653 74.004 6.75019C74.0268 6.61633 74.1 6.49615 74.208 6.41419L76.074 4.43419V4.39219C76.074 4.35019 76.074 4.30219 76.008 4.30219H74.886L73.242 6.14419C73.1748 6.22069 73.1148 6.30301 73.062 6.39019V4.33219C73.0608 4.31514 73.053 4.29914 73.041 4.28704C73.029 4.27495 73.0128 4.26755 72.996 4.26619H72.096C72.054 4.26619 72.03 4.30819 72.03 4.35619V6.40219C71.9772 6.31501 71.9172 6.23269 71.85 6.15619L70.2 4.31419H69.078C69.036 4.31419 69.012 4.35619 69.012 4.40419V4.44619L70.878 6.42619C70.992 6.54019 71.082 6.63019 71.082 6.76219C71.0688 6.85129 71.0382 6.93691 70.992 7.01413C70.9458 7.09135 70.8846 7.15867 70.812 7.21219L68.742 9.23419C68.7378 9.24787 68.7378 9.26251 68.742 9.27619C68.7432 9.29959 68.7534 9.32167 68.7702 9.33823C68.7864 9.35485 68.8086 9.36475 68.832 9.36619H69.996L71.796 7.47619C71.889 7.37275 71.9718 7.26019 72.042 7.14019V9.32419C72.042 9.36619 72.084 9.39019 72.108 9.41419H73.008C73.0248 9.41281 73.041 9.40543 73.053 9.39331C73.065 9.38125 73.0728 9.36523 73.074 9.34819V7.10419C73.1388 7.22773 73.2216 7.34101 73.32 7.44019L75.12 9.33019H76.284C76.3074 9.32875 76.3296 9.31885 76.3458 9.30223C76.3626 9.28567 76.3728 9.26359 76.374 9.24019C76.362 9.24019 76.362 9.21619 76.344 9.21619H76.35V9.21619ZM82.758 8.52019H82.356L80.796 4.80019C80.7306 4.60809 80.6016 4.44403 80.43 4.33499C80.259 4.22594 80.0556 4.1784 79.854 4.20019C79.6536 4.17208 79.4496 4.2173 79.2798 4.32755C79.11 4.43779 78.9858 4.60563 78.93 4.80019L77.4 8.52019H76.998C76.9746 8.52163 76.9524 8.53153 76.9362 8.54815C76.9194 8.56471 76.9092 8.58679 76.908 8.61019V9.26419C76.9092 9.28759 76.9194 9.30967 76.9362 9.32623C76.9524 9.34285 76.9746 9.35275 76.998 9.35419H82.8C82.8234 9.35275 82.8456 9.34285 82.8618 9.32623C82.8786 9.30967 82.8888 9.28759 82.89 9.26419V8.61019C82.878 8.58337 82.8588 8.56057 82.8342 8.54455C82.8102 8.52853 82.7814 8.52007 82.752 8.52019H82.758V8.52019ZM79.722 5.19019C79.722 5.19019 79.788 5.01019 79.854 5.01019C79.92 5.01019 79.986 5.19019 79.986 5.19019L81.336 8.52019H78.366L79.722 5.19019ZM56.4 7.01419C56.2775 6.87679 56.1088 6.78925 55.926 6.76819C56.0776 6.73081 56.2126 6.64429 56.31 6.52219C56.4056 6.40723 56.4767 6.27397 56.519 6.13057C56.5613 5.98717 56.5739 5.83663 56.556 5.68819C56.5886 5.29083 56.4684 4.896 56.22 4.58419C55.9349 4.34849 55.5685 4.23428 55.2 4.26619H52.32C52.2966 4.26761 52.2745 4.27755 52.2579 4.29413C52.2413 4.31071 52.2314 4.33278 52.23 4.35619V5.01019C52.2314 5.03359 52.2413 5.05567 52.2579 5.07224C52.2745 5.08883 52.2966 5.09876 52.32 5.10019H54.792C54.9585 5.08087 55.1264 5.12127 55.266 5.21419C55.3834 5.35919 55.4394 5.54441 55.422 5.73019C55.443 5.90249 55.4027 6.07669 55.308 6.22219C55.2401 6.28663 55.1581 6.33433 55.0685 6.36139C54.9789 6.38851 54.8842 6.39421 54.792 6.37819H52.902C52.8786 6.37963 52.8565 6.38953 52.8399 6.40615C52.8233 6.42271 52.8134 6.44479 52.812 6.46819V7.12219C52.8134 7.14559 52.8233 7.16767 52.8399 7.18423C52.8565 7.20085 52.8786 7.21075 52.902 7.21219H54.924C55.236 7.21219 55.374 7.32619 55.416 7.41619C55.5008 7.56571 55.5404 7.73659 55.53 7.90819C55.5418 8.08231 55.4954 8.25541 55.398 8.40019C55.2376 8.52397 55.0352 8.58001 54.834 8.55619H52.296C52.2726 8.55763 52.2505 8.56753 52.2339 8.58415C52.2173 8.60071 52.2074 8.62279 52.206 8.64619V9.30019C52.2074 9.32359 52.2173 9.34567 52.2339 9.36223C52.2505 9.37885 52.2726 9.38875 52.296 9.39019H55.296C55.4756 9.41251 55.658 9.39385 55.8295 9.33565C56.0009 9.27751 56.157 9.18127 56.286 9.05419C56.4074 8.90413 56.4976 8.73121 56.5513 8.54575C56.6048 8.36029 56.6207 8.16595 56.598 7.97419C56.6311 7.80907 56.6307 7.63897 56.5967 7.47403C56.5627 7.30909 56.4958 7.15273 56.4 7.01419V7.01419ZM41.676 25.9742H40.53V23.4542H42.444V23.8802H41.094V24.3962H41.694C42.294 24.3962 42.636 24.7082 42.636 25.1822C42.636 25.6562 42.264 25.9742 41.676 25.9742ZM41.676 24.8282H41.112V25.5242H41.676C41.922 25.5242 42.078 25.3922 42.078 25.1882C42.0777 25.1357 42.0661 25.084 42.0441 25.0363C42.022 24.9887 41.99 24.9464 41.9502 24.9123C41.9104 24.8782 41.8636 24.853 41.8132 24.8384C41.7628 24.8239 41.7098 24.8204 41.658 24.8282H41.676V24.8282ZM44.85 25.9742L44.67 25.5242H43.614L43.434 25.9742H42.834L43.89 23.4542H44.34L45.396 25.9742H44.796H44.85V25.9742ZM44.178 24.1742L43.8 25.1222H44.52L44.16 24.1982L44.178 24.1742ZM47.352 25.9742V24.9182H46.356V25.9742H45.792V23.4542H46.356V24.4862H47.322V23.4542H47.886V25.9742H47.352ZM48.588 25.9742V23.4542H49.152V24.6542L50.076 23.4542H50.748L49.752 24.6002L50.808 25.9262H50.112L49.098 24.6242V25.9262H48.558L48.588 25.9742V25.9742ZM51.108 26.5382V25.4582H51.708V26.1542L51.108 26.5382ZM53.244 25.9742V23.4542H53.808V24.6542L54.732 23.4542H55.38L54.408 24.6002L55.464 25.9262H54.816L53.802 24.6242V25.9262H53.202L53.244 25.9742V25.9742ZM57.786 24.8042C57.8123 24.9668 57.7994 25.1333 57.7483 25.2899C57.6971 25.4465 57.6092 25.5885 57.492 25.7042C57.267 25.8784 56.9905 25.9729 56.706 25.9729C56.4214 25.9729 56.145 25.8784 55.92 25.7042C55.8125 25.582 55.731 25.4391 55.6805 25.2844C55.6299 25.1297 55.6114 24.9663 55.626 24.8042V24.6002C55.626 24.1082 55.692 23.9042 55.92 23.7002C56.145 23.526 56.4214 23.4315 56.706 23.4315C56.9905 23.4315 57.267 23.526 57.492 23.7002C57.6008 23.8079 57.6838 23.939 57.7347 24.0835C57.7856 24.2279 57.8032 24.382 57.786 24.5342V24.8042V24.8042ZM57.066 24.0002C56.9664 23.9128 56.8384 23.8647 56.706 23.8647C56.5735 23.8647 56.4456 23.9128 56.346 24.0002C56.214 24.1142 56.214 24.3602 56.214 24.6722V24.8042C56.214 25.0742 56.214 25.2962 56.346 25.4042C56.4456 25.4915 56.5735 25.5397 56.706 25.5397C56.8384 25.5397 56.9664 25.4915 57.066 25.4042C57.18 25.2902 57.198 25.1582 57.198 24.6602C57.198 24.1622 57.174 24.1082 57.066 24.0002V24.0002ZM59.358 23.8862V25.9562H58.8V23.8802H58.032V23.4542H60.102V23.8802L59.358 23.8862V23.8862ZM62.532 24.8102C62.5584 24.9728 62.5452 25.1393 62.4942 25.2959C62.4432 25.4525 62.355 25.5945 62.238 25.7102C62.013 25.8844 61.7364 25.9789 61.452 25.9789C61.1676 25.9789 60.891 25.8844 60.666 25.7102C60.5586 25.588 60.477 25.4451 60.4266 25.2904C60.3762 25.1357 60.3576 24.9723 60.372 24.8102V24.6002C60.372 24.1082 60.438 23.9042 60.666 23.7002C60.891 23.526 61.1676 23.4315 61.452 23.4315C61.7364 23.4315 62.013 23.526 62.238 23.7002C62.3466 23.8079 62.43 23.939 62.4804 24.0835C62.5314 24.2279 62.5494 24.382 62.532 24.5342V24.8102V24.8102ZM61.836 24.0002C61.7364 23.9128 61.6086 23.8647 61.476 23.8647C61.3434 23.8647 61.2156 23.9128 61.116 24.0002C60.984 24.1142 60.984 24.3602 60.984 24.6722V24.8042C60.984 25.0742 60.984 25.2962 61.116 25.4042C61.2156 25.4915 61.3434 25.5397 61.476 25.5397C61.6086 25.5397 61.7364 25.4915 61.836 25.4042C61.95 25.2902 61.968 25.1582 61.968 24.6602C61.968 24.1622 61.944 24.1082 61.836 24.0002V24.0002ZM64.236 23.4602C64.8 23.4602 65.178 23.7722 65.178 24.2462C65.178 24.7202 64.794 25.0322 64.236 25.0322H63.672V25.9742H63.108V23.4542L64.236 23.4602ZM64.2 24.6002C64.446 24.6002 64.626 24.4682 64.626 24.2642C64.626 24.0602 64.47 23.9282 64.2 23.9282H63.684V24.6002H64.2ZM66.81 25.9922H65.688V23.4722H66.252V24.4142H66.816C67.38 24.4142 67.758 24.7262 67.758 25.2002C67.734 25.4292 67.62 25.6393 67.4412 25.7843C67.2624 25.9294 67.0332 25.9977 66.804 25.9742L66.81 25.9922V25.9922ZM66.768 24.8462H66.252V25.5422H66.768C67.014 25.5422 67.194 25.4102 67.194 25.2062C67.191 25.1528 67.1772 25.1006 67.1538 25.0526C67.1304 25.0045 67.0974 24.9617 67.0572 24.9265C67.017 24.8913 66.9702 24.8645 66.9198 24.8476C66.8688 24.8307 66.8154 24.8241 66.762 24.8282L66.768 24.8462V24.8462ZM68.052 25.9922V23.4722H68.616V25.9922H68.052ZM70.908 25.9922V24.3722L69.786 25.9922H69.294V23.4722H69.858V25.0682L70.98 23.4722H71.472V25.9922H70.908V25.9922ZM70.392 23.3402C70.08 23.3402 69.792 23.2262 69.738 22.8482H70.14C70.1424 22.8809 70.1508 22.9127 70.1658 22.9418C70.1808 22.9709 70.2018 22.9967 70.227 23.0175C70.2522 23.0383 70.2816 23.0537 70.3128 23.0627C70.3446 23.0718 70.3776 23.0743 70.41 23.0702C70.4748 23.0753 70.5396 23.055 70.59 23.0136C70.6398 22.9722 70.6722 22.9129 70.68 22.8482H71.082C71.0424 22.999 70.9494 23.1302 70.8204 23.2174C70.6908 23.3046 70.5348 23.3419 70.38 23.3222L70.392 23.3402V23.3402ZM75 24.8042C75.0618 24.8557 75.1104 24.9212 75.1416 24.9953C75.1728 25.0694 75.186 25.15 75.18 25.2302C75.18 25.6802 74.844 25.9502 74.304 25.9502H73.104V23.4542H74.274C74.814 23.4542 75.174 23.7242 75.174 24.1502C75.1788 24.2667 75.1464 24.3817 75.0816 24.4787C75.0168 24.5757 74.9232 24.6497 74.814 24.6902C74.883 24.715 74.9466 24.7538 75 24.8042V24.8042ZM74.214 24.4682C74.436 24.4682 74.598 24.3542 74.598 24.1742C74.598 23.9942 74.466 23.8802 74.214 23.8802H73.65V24.4802L74.214 24.4682V24.4682ZM74.214 25.5242C74.436 25.5242 74.598 25.4102 74.598 25.2122C74.598 25.0142 74.466 24.9002 74.214 24.9002H73.614V25.5002H74.214V25.5242V25.5242ZM76.71 25.9742C76.4238 25.9851 76.143 25.8889 75.924 25.7042C75.63 25.4582 75.63 25.1402 75.63 24.6902C75.5982 24.5099 75.6084 24.3248 75.6594 24.1491C75.7104 23.9734 75.801 23.8116 75.924 23.6762C76.143 23.4915 76.4238 23.3953 76.71 23.4062C76.9524 23.3809 77.1954 23.4476 77.391 23.5932C77.5872 23.7388 77.7204 23.9526 77.766 24.1922H77.202C77.1738 24.1097 77.1252 24.0355 77.0616 23.9762C76.9974 23.9169 76.92 23.8744 76.8354 23.8523C76.7514 23.8304 76.6626 23.8296 76.578 23.8502C76.4934 23.8708 76.4148 23.912 76.35 23.9702C76.236 24.0842 76.218 24.1922 76.218 24.6902C76.218 25.1882 76.218 25.2902 76.35 25.4102C76.4142 25.4728 76.4928 25.5181 76.5792 25.5418C76.665 25.5656 76.7562 25.567 76.8432 25.546C76.9302 25.525 77.0106 25.4823 77.076 25.4218C77.142 25.3613 77.1918 25.285 77.22 25.2002H77.784C77.7336 25.4374 77.5974 25.6476 77.4012 25.7905C77.205 25.9333 76.9632 25.9987 76.722 25.9742H76.71V25.9742ZM78.264 25.9742V23.4542H80.178V23.8802H78.852V24.4802H79.998V24.9062H78.852V25.5062H80.178V25.9322H78.264V25.9742ZM81.264 23.8802V25.9502H80.7V23.4542H82.5V23.8802H81.264ZM84.684 26.5142V25.9502H83.088V26.5142H82.548V25.5242H82.818C83.076 25.0904 83.1936 24.5873 83.154 24.0842V23.4302H84.888V25.5002H85.224V26.4902H84.684V26.5142V26.5142ZM84.324 23.8802H83.724V24.2402C83.7432 24.6815 83.6586 25.1212 83.478 25.5242H84.378V23.8802H84.324V23.8802ZM87.324 25.9742L87.144 25.5242H86.112L85.932 25.9742H85.332L86.388 23.4542H86.838L87.894 25.9742H87.294H87.324V25.9742ZM86.652 24.1742L86.292 25.0982H87L86.652 24.1742ZM90.162 25.9742C89.8758 25.9851 89.595 25.8889 89.376 25.7042C89.082 25.4582 89.082 25.1402 89.082 24.6902C89.0502 24.5099 89.0604 24.3248 89.1114 24.1491C89.1624 23.9734 89.253 23.8116 89.376 23.6762C89.595 23.4915 89.8758 23.3953 90.162 23.4062C90.4044 23.3809 90.6474 23.4476 90.843 23.5932C91.0386 23.7388 91.1724 23.9526 91.218 24.1922H90.654C90.6258 24.1097 90.5772 24.0355 90.5136 23.9762C90.4494 23.9169 90.372 23.8744 90.2874 23.8523C90.2034 23.8304 90.1146 23.8296 90.03 23.8502C89.9454 23.8708 89.8668 23.912 89.802 23.9702C89.688 24.0842 89.67 24.1922 89.67 24.6902C89.67 25.1882 89.67 25.2902 89.802 25.4102C89.8668 25.4684 89.9454 25.5096 90.03 25.5302C90.1146 25.5508 90.2034 25.55 90.2874 25.528C90.372 25.506 90.4494 25.4635 90.5136 25.4042C90.5772 25.3449 90.6258 25.2707 90.654 25.1882H91.218C91.1766 25.4275 91.0458 25.642 90.8514 25.788C90.6576 25.934 90.4152 26.0006 90.174 25.9742H90.162ZM93.762 23.8802V25.9502H93.198V23.8802H92.436V23.4542H94.506V23.8802H93.762V23.8802ZM96.936 24.8042C96.9624 24.9668 96.9492 25.1333 96.8982 25.2899C96.8472 25.4465 96.759 25.5885 96.642 25.7042C96.417 25.8784 96.1404 25.9729 95.856 25.9729C95.5716 25.9729 95.295 25.8784 95.07 25.7042C94.9626 25.582 94.881 25.4391 94.8306 25.2844C94.7802 25.1297 94.7616 24.9663 94.776 24.8042V24.6002C94.776 24.1082 94.842 23.9042 95.07 23.7002C95.295 23.526 95.5716 23.4315 95.856 23.4315C96.1404 23.4315 96.417 23.526 96.642 23.7002C96.7506 23.8079 96.834 23.939 96.8844 24.0835C96.9354 24.2279 96.9534 24.382 96.936 24.5342V24.8042V24.8042ZM96.252 24.0002C96.1524 23.9128 96.0246 23.8647 95.892 23.8647C95.7594 23.8647 95.6316 23.9128 95.532 24.0002C95.4 24.1142 95.4 24.3602 95.4 24.6722V24.8042C95.4 25.0742 95.4 25.2962 95.532 25.4042C95.6316 25.4915 95.7594 25.5397 95.892 25.5397C96.0246 25.5397 96.1524 25.4915 96.252 25.4042C96.366 25.2902 96.384 25.1582 96.384 24.6602C96.384 24.1622 96.36 24.1082 96.252 24.0002V24.0002ZM98.652 25.9802H97.506V23.4602H99.42V23.8862H98.07V24.4022H98.67C99.27 24.4022 99.612 24.7142 99.612 25.1882C99.612 25.6622 99.264 25.9742 98.682 25.9742L98.652 25.9802V25.9802ZM98.652 24.8342H98.088V25.5302H98.652C98.898 25.5302 99.054 25.3982 99.054 25.1942C99.054 25.1435 99.0438 25.0933 99.0234 25.0468C99.0036 25.0003 98.9736 24.9586 98.9364 24.9242C98.8992 24.8897 98.8554 24.8635 98.8074 24.847C98.7594 24.8304 98.7084 24.824 98.658 24.8282L98.652 24.8342V24.8342ZM102.204 24.8342C102.23 24.9968 102.217 25.1633 102.166 25.3199C102.115 25.4765 102.027 25.6185 101.91 25.7342C101.685 25.9084 101.408 26.0029 101.124 26.0029C100.84 26.0029 100.563 25.9084 100.338 25.7342C100.231 25.612 100.149 25.4691 100.099 25.3144C100.048 25.1597 100.03 24.9963 100.044 24.8342V24.6002C100.044 24.1082 100.11 23.9042 100.338 23.7002C100.563 23.526 100.84 23.4315 101.124 23.4315C101.408 23.4315 101.685 23.526 101.91 23.7002C102.019 23.8079 102.102 23.939 102.152 24.0835C102.203 24.2279 102.221 24.382 102.204 24.5342V24.8342V24.8342ZM101.514 24.0002C101.414 23.9128 101.287 23.8647 101.154 23.8647C101.021 23.8647 100.894 23.9128 100.794 24.0002C100.662 24.1142 100.662 24.3602 100.662 24.6722V24.8042C100.662 25.0742 100.662 25.2962 100.794 25.4042C100.894 25.4915 101.021 25.5397 101.154 25.5397C101.287 25.5397 101.414 25.4915 101.514 25.4042C101.628 25.2902 101.646 25.1582 101.646 24.6602C101.646 24.1622 101.628 24.1082 101.514 24.0002V24.0002ZM104.418 25.9802V24.3602L103.296 25.9802H102.804V23.4602H103.368V25.0562L104.49 23.4602H105V25.9802H104.418ZM103.878 23.3282C103.566 23.3282 103.278 23.2142 103.224 22.8362H103.626C103.628 22.8689 103.637 22.9007 103.652 22.9298C103.667 22.9589 103.688 22.9847 103.713 23.0055C103.738 23.0263 103.768 23.0417 103.799 23.0507C103.831 23.0598 103.864 23.0623 103.896 23.0582C103.961 23.0633 104.026 23.043 104.076 23.0016C104.126 22.9602 104.158 22.9009 104.166 22.8362H104.568C104.526 23.1842 104.214 23.3222 103.878 23.3222V23.3282V23.3282Z" fill="#003870"/>
<path d="M24.2881 8.49613C24.3541 8.49613 24.4021 8.45413 24.3541 8.38213L24.2221 8.04613C24.206 8.01193 24.1805 7.98307 24.1487 7.96285C24.1168 7.94263 24.0798 7.93201 24.0421 7.93213H18.2821C18.2161 7.93213 18.1681 7.97413 18.2161 8.04613L18.3721 8.38213C18.3881 8.41633 18.4135 8.44519 18.4454 8.46541C18.4773 8.48563 18.5143 8.49625 18.5521 8.49613H24.2881ZM24.7381 9.15013C24.722 9.11593 24.6965 9.08707 24.6647 9.06685C24.6328 9.04663 24.5958 9.03601 24.5581 9.03613H18.8221C18.7561 9.03613 18.7081 9.07813 18.7561 9.15013L18.9121 9.48613C18.9281 9.52033 18.9535 9.54919 18.9854 9.56941C19.0173 9.58963 19.0543 9.60025 19.0921 9.60013H24.8281C24.8941 9.60013 24.9421 9.55813 24.8941 9.48613L24.7381 9.15013ZM25.2781 10.2721C25.262 10.2379 25.2365 10.2091 25.2047 10.1888C25.1728 10.1686 25.1358 10.158 25.0981 10.1581H19.3381C19.2721 10.1581 19.2241 10.2001 19.2721 10.2721L19.4281 10.6081C19.4441 10.6423 19.4695 10.6712 19.5014 10.6914C19.5333 10.7116 19.5703 10.7223 19.6081 10.7221H25.3441C25.4101 10.7221 25.4581 10.6801 25.4101 10.6081L25.2781 10.2721V10.2721ZM25.8001 11.4001C25.784 11.3659 25.7585 11.3371 25.7267 11.3168C25.6948 11.2966 25.6578 11.286 25.6201 11.2861H19.8841C19.8181 11.2861 19.7701 11.3281 19.8181 11.4001L19.9741 11.7361C19.9901 11.7703 20.0155 11.7992 20.0474 11.8194C20.0793 11.8396 20.1163 11.8502 20.1541 11.8501H25.8901C25.9561 11.8501 26.0041 11.8081 25.9561 11.7361L25.8001 11.4001V11.4001ZM26.3401 12.5041C26.324 12.4699 26.2985 12.4411 26.2667 12.4208C26.2348 12.4006 26.1978 12.39 26.1601 12.3901H20.4001C20.3341 12.3901 20.2861 12.4321 20.3341 12.5041L20.4901 12.8401C20.5061 12.8743 20.5315 12.9032 20.5634 12.9234C20.5953 12.9436 20.6323 12.9542 20.6701 12.9541H26.4001C26.4661 12.9541 26.5141 12.9121 26.4661 12.8401L26.3401 12.5041V12.5041ZM26.8801 13.6261C26.864 13.5919 26.8385 13.5631 26.8067 13.5428C26.7748 13.5226 26.7378 13.512 26.7001 13.5121H20.9401C20.8741 13.5121 20.8261 13.5541 20.8741 13.6261L21.0301 13.9621C21.0461 13.9963 21.0715 14.0252 21.1034 14.0454C21.1353 14.0656 21.1723 14.0762 21.2101 14.0761H26.9461C27.0121 14.0761 27.0601 14.0341 27.0121 13.9621L26.8801 13.6261V13.6261ZM27.3961 14.7301C27.38 14.6959 27.3545 14.6671 27.3227 14.6468C27.2908 14.6266 27.2538 14.616 27.2161 14.6161H21.4801C21.4141 14.6161 21.3661 14.6581 21.4141 14.7301L21.5701 15.0661C21.5861 15.1003 21.6115 15.1292 21.6434 15.1494C21.6753 15.1696 21.7123 15.1802 21.7501 15.1801H27.4861C27.5521 15.1801 27.6001 15.1381 27.5521 15.0661L27.3961 14.7301V14.7301Z" fill="white"/>
<path d="M25.752 7.37406C25.7861 7.3713 25.8181 7.35654 25.8423 7.33236C25.8665 7.30818 25.8812 7.27614 25.884 7.24206V6.94806C25.8812 6.91398 25.8665 6.88194 25.8423 6.85776C25.8181 6.83358 25.7861 6.81882 25.752 6.81606H16.842C16.8079 6.81882 16.7759 6.83358 16.7517 6.85776C16.7275 6.88194 16.7127 6.91398 16.71 6.94806V7.24206C16.7127 7.27614 16.7275 7.30818 16.7517 7.33236C16.7759 7.35654 16.8079 7.3713 16.842 7.37406H25.752ZM21.948 15.7381C21.882 15.7381 21.834 15.7801 21.882 15.8521L25.482 23.3641C25.4876 23.3769 25.4968 23.3878 25.5085 23.3955C25.5203 23.4032 25.534 23.4073 25.548 23.4073C25.562 23.4073 25.5757 23.4032 25.5874 23.3955C25.5992 23.3878 25.6084 23.3769 25.614 23.3641L28.92 16.3921C28.936 16.3579 28.9615 16.329 28.9933 16.3088C29.0252 16.2886 29.0623 16.2779 29.1 16.2781H34.452C34.4861 16.2753 34.5181 16.2605 34.5423 16.2364C34.5665 16.2122 34.5812 16.1801 34.584 16.1461V15.8521C34.5812 15.818 34.5665 15.7859 34.5423 15.7618C34.5181 15.7376 34.4861 15.7228 34.452 15.7201L21.948 15.7381ZM34.5 6.81006H29.916C29.8819 6.81282 29.8499 6.82758 29.8257 6.85176C29.8015 6.87594 29.7867 6.90798 29.784 6.94206V7.23606C29.7867 7.27014 29.8015 7.30218 29.8257 7.32636C29.8499 7.35054 29.8819 7.3653 29.916 7.36806H30.6C30.78 7.36806 31.746 7.36806 31.362 8.51406L28.302 15.0361C28.302 15.1021 28.302 15.1501 28.368 15.1501H29.4C29.4377 15.1502 29.4748 15.1396 29.5066 15.1193C29.5385 15.0991 29.564 15.0703 29.58 15.0361L32.886 8.13006C33.0031 7.8813 33.1909 7.67262 33.426 7.53006C33.6931 7.40946 33.9855 7.35594 34.278 7.37406H34.482C34.5161 7.3713 34.5481 7.35654 34.5723 7.33236C34.5965 7.30818 34.6112 7.27614 34.614 7.24206V6.94806C34.6165 6.93138 34.6155 6.91428 34.611 6.89802C34.6065 6.8817 34.5986 6.86658 34.5879 6.85356C34.5771 6.84054 34.5637 6.82992 34.5486 6.82242C34.5334 6.81492 34.5169 6.81072 34.5 6.81006V6.81006Z" fill="white"/>
<path d="M33.222 15.1802C33.4964 15.1742 33.763 15.0873 33.9882 14.9303C34.2134 14.7732 34.3871 14.5531 34.4875 14.2976C34.5879 14.0421 34.6105 13.7625 34.5525 13.4942C34.4944 13.2259 34.3583 12.9807 34.1614 12.7895C33.9643 12.5984 33.7152 12.4697 33.4453 12.4197C33.1753 12.3698 32.8966 12.4007 32.6443 12.5088C32.3918 12.6168 32.177 12.797 32.0268 13.0268C31.8766 13.2566 31.7977 13.5257 31.8 13.8002C31.8063 14.1715 31.9595 14.5252 32.226 14.7838C32.4925 15.0425 32.8506 15.185 33.222 15.1802Z" fill="#ED1B34"/>
</svg>
