<svg viewBox="0 0 120 30" fill="none" xmlns="http://www.w3.org/2000/svg">
<path d="M47.4 5.838H33.09L34.128 3H48.42L47.4 5.838ZM46.89 7.248H32.58L31.548 10.08H45.84L46.89 7.248ZM45.342 11.478H31.038L30 14.31H44.28L45.342 11.478Z" fill="#009FDF"/>
<path d="M81.4385 21.39H84.0005C84.3665 21.4361 84.7385 21.39 85.0823 21.2558C85.4255 21.1217 85.7303 20.9039 85.9685 20.622C86.3261 20.1605 86.5031 19.5846 86.4665 19.002C86.4881 18.631 86.4185 18.2603 86.2637 17.9225C86.1089 17.5846 85.8737 17.2899 85.5785 17.064C85.0991 16.7517 84.5291 16.6081 83.9585 16.656H81.4085V21.384L81.4385 21.39ZM78.0605 24.24V7.24798H89.1185L88.1405 10.098H81.4385V13.86H84.1685C86.3765 13.86 87.5165 14.388 88.3085 15.06C88.8743 15.5634 89.3189 16.1879 89.6099 16.887C89.9009 17.5862 90.0305 18.3419 89.9885 19.098C90.0299 19.9088 89.8691 20.7172 89.5199 21.4504C89.1713 22.1835 88.6457 22.8185 87.9905 23.298C86.9225 24.036 85.8125 24.246 83.5505 24.246L78.0605 24.24ZM68.2625 24.24V10.098H63.3425V7.24798H76.9925L76.0145 10.098H71.6645V24.258H68.2565L68.2625 24.24ZM54.6425 14.04H56.5805C56.9828 14.0735 57.3878 14.0432 57.7805 13.95C58.1828 13.82 58.5292 13.5578 58.7634 13.2059C58.9977 12.854 59.1059 12.4332 59.0705 12.012C59.1256 11.5934 59.0245 11.1693 58.7865 10.8206C58.5486 10.4719 58.1904 10.2232 57.7805 10.122C57.3582 10.022 56.924 9.98158 56.4905 10.002H54.6905V14.04H54.6425ZM54.6425 16.98V21.438H57.0005C57.6421 21.5081 58.2862 21.3299 58.8005 20.94C59.0421 20.7213 59.2325 20.4519 59.358 20.1511C59.4835 19.8503 59.541 19.5255 59.5265 19.2C59.5391 18.678 59.3811 18.1661 59.0765 17.742C58.5785 17.094 57.9485 16.974 56.8985 16.974H54.6485L54.6425 16.98ZM60.0905 15.18V15.24C60.6695 15.4749 61.2077 15.7989 61.6865 16.2C62.1725 16.602 62.5559 17.1134 62.8061 17.6921C63.0563 18.2709 63.1661 18.9007 63.1265 19.53C63.1265 21.858 61.8965 23.538 59.8685 24.03C59.0586 24.2301 58.2238 24.311 57.3905 24.27H51.2705V7.24798H56.7185C57.5853 7.21546 58.4526 7.2961 59.2985 7.48798C61.2665 8.01598 62.5565 9.37798 62.5565 11.526C62.5733 12.0352 62.4857 12.5425 62.3003 13.017C62.1143 13.4915 61.8341 13.9232 61.4765 14.286C61.0955 14.6729 60.6407 14.979 60.1385 15.186H60.0905V15.18Z" fill="#0A2973"/>
</svg>
