<svg width="120" height="30" viewBox="0 0 120 30" fill="none" xmlns="http://www.w3.org/2000/svg">
<path d="M47.4 5.838H33.09L34.128 3H48.42L47.4 5.838ZM46.89 7.248H32.58L31.548 10.08H45.84L46.89 7.248V7.248ZM45.342 11.478H31.038L30 14.31H44.28L45.342 11.478V11.478Z" fill="#009FDF"/>
<path d="M81.438 21.3902H84C84.366 21.4363 84.738 21.3902 85.0818 21.2561C85.425 21.122 85.7298 20.9041 85.968 20.6222C86.3256 20.1608 86.5026 19.5848 86.466 19.0022C86.4876 18.6312 86.418 18.2606 86.2632 17.9227C86.1084 17.5848 85.8732 17.2901 85.578 17.0642C85.0986 16.7519 84.5286 16.6083 83.958 16.6562H81.408V21.3842L81.438 21.3902V21.3902ZM78.06 24.2402V7.24823H89.118L88.14 10.0982H81.438V13.8602H84.168C86.376 13.8602 87.516 14.3882 88.308 15.0602C88.8738 15.5636 89.3184 16.1881 89.6094 16.8872C89.9004 17.5864 90.03 18.3422 89.988 19.0982C90.0294 19.9091 89.8686 20.7174 89.5194 21.4506C89.1708 22.1838 88.6452 22.8187 87.99 23.2982C86.922 24.0362 85.812 24.2462 83.55 24.2462L78.06 24.2402V24.2402ZM68.262 24.2402V10.0982H63.342V7.24823H76.992L76.014 10.0982H71.664V24.2582H68.256L68.262 24.2402ZM54.642 14.0402H56.58C56.9822 14.0738 57.3873 14.0434 57.78 13.9502C58.1822 13.8203 58.5287 13.5581 58.7629 13.2062C58.9972 12.8543 59.1054 12.4335 59.07 12.0122C59.1251 11.5937 59.024 11.1695 58.786 10.8208C58.5481 10.4721 58.1899 10.2234 57.78 10.1222C57.3577 10.0222 56.9235 9.98183 56.49 10.0022H54.69V14.0402H54.642V14.0402ZM54.642 16.9802V21.4382H57C57.6416 21.5083 58.2857 21.3301 58.8 20.9402C59.0416 20.7215 59.232 20.4521 59.3575 20.1513C59.483 19.8506 59.5405 19.5258 59.526 19.2002C59.5386 18.6782 59.3806 18.1663 59.076 17.7422C58.578 17.0942 57.948 16.9742 56.898 16.9742H54.648L54.642 16.9802V16.9802ZM60.09 15.1802V15.2402C60.669 15.4752 61.2072 15.7991 61.686 16.2002C62.172 16.6023 62.5554 17.1136 62.8056 17.6924C63.0558 18.2711 63.1656 18.9009 63.126 19.5302C63.126 21.8582 61.896 23.5382 59.868 24.0302C59.0581 24.2304 58.2233 24.3112 57.39 24.2702H51.27V7.24823H56.718C57.5848 7.21571 58.4521 7.29635 59.298 7.48823C61.266 8.01623 62.556 9.37823 62.556 11.5262C62.5728 12.0354 62.4852 12.5427 62.2998 13.0173C62.1138 13.4918 61.8336 13.9235 61.476 14.2862C61.095 14.6731 60.6402 14.9792 60.138 15.1862H60.09V15.1802V15.1802Z" fill="#0A2973"/>
</svg>
