<svg width="120" height="30" viewBox="0 0 120 30" fill="none" xmlns="http://www.w3.org/2000/svg">
<path d="M43.8439 7.19517C45.2546 6.79665 46.7227 6.62055 48.1871 6.60201C49.4125 6.59085 50.6471 6.62235 51.8519 6.86709C52.5731 7.00797 53.3071 7.26747 53.8262 7.81059C54.4212 8.36673 54.5639 9.22869 54.551 10.0072C54.5417 10.7617 54.3082 11.5774 53.7001 12.0686C53.3368 12.3559 52.9142 12.5728 52.46 12.6673C52.4563 12.6896 52.4507 12.7359 52.447 12.7582C53.4258 12.9472 54.4305 13.4052 54.9718 14.2819C55.3945 15.0216 55.463 15.9076 55.4 16.74C55.3388 17.5612 55.0051 18.3861 54.3749 18.9329C53.7928 19.4482 53.0365 19.7078 52.2895 19.8765C51.3552 20.0748 50.3987 20.1434 49.4458 20.173C47.5106 20.2639 45.5567 20.0859 43.6882 19.5651C43.8105 18.6734 44.0163 17.7929 44.1628 16.905C44.387 16.9161 44.6132 16.9327 44.8338 16.9865C45.9868 17.2497 47.1583 17.4889 48.3466 17.4703C48.975 17.4759 49.6201 17.4426 50.2189 17.2257C50.5673 17.0922 50.9381 16.8586 51.0289 16.4694C51.1475 15.9892 51.1086 15.4164 50.7583 15.0364C50.4172 14.6545 49.8982 14.5099 49.4087 14.4376C48.2205 14.256 47.0119 14.3598 45.8144 14.3227C45.8181 13.559 45.8274 12.7971 45.807 12.0352C46.8098 12.0297 47.8127 12.0556 48.8156 12.0093C49.3012 11.9611 49.8444 11.8369 50.1447 11.4142C50.5784 10.8581 50.445 9.84783 49.748 9.56607C49.3402 9.36405 48.8712 9.32883 48.4226 9.32697C47.0768 9.30099 45.757 9.60129 44.4427 9.85155C44.2313 8.96733 44.0905 8.06829 43.8439 7.19517V7.19517ZM64.8426 6.75585C67.0542 6.77067 69.2676 6.76143 71.4792 6.75957C71.4828 7.33791 71.4756 7.91625 71.4828 8.49465C69.837 8.48535 68.1888 8.48907 66.543 8.49279C66.5406 9.64767 66.537 10.8043 66.543 11.9611C67.4436 11.9629 68.3448 11.9574 69.2454 11.9629C70.1202 11.9871 71.0568 12.2466 71.6292 12.9528C72.2838 13.7425 72.408 14.8102 72.4134 15.7983C72.4248 16.714 72.3672 17.6761 71.9466 18.5066C71.6184 19.122 71.0418 19.604 70.3722 19.806C69.9072 19.9506 69.4158 19.9914 68.9322 19.9877C67.5678 19.9877 66.2034 19.9858 64.8408 19.9877C64.8486 15.5777 64.8444 11.1677 64.8426 6.75585V6.75585ZM66.5352 13.5423C66.5406 15.1513 66.5466 16.7585 66.5334 18.3675C67.2822 18.3824 68.0292 18.3824 68.778 18.3731C69.3066 18.3508 69.9036 18.2619 70.2594 17.8263C70.7022 17.3128 70.743 16.5972 70.7472 15.9522C70.7508 15.2904 70.68 14.5563 70.2132 14.0446C69.8148 13.6424 69.2322 13.5497 68.691 13.5497C67.974 13.5442 67.2546 13.5553 66.5352 13.5423V13.5423ZM91.9722 6.75771C92.5266 6.76881 93.0822 6.76695 93.6384 6.75585C93.6666 9.87381 93.6444 12.9936 93.6516 16.1116C93.6444 17.4055 93.6666 18.6975 93.6402 19.9896C93.0864 19.9877 92.5302 19.984 91.9758 19.9914C91.9518 17.8707 91.9662 15.7482 91.9686 13.6276C90.1386 13.6276 88.3074 13.6313 86.4774 13.6257C86.4924 15.6036 86.4774 17.5834 86.487 19.5613C86.487 19.7078 86.4588 19.8524 86.4366 19.9969C85.8864 19.9821 85.3356 19.9969 84.7854 19.9877C84.789 15.5814 84.774 11.1733 84.7926 6.76695C85.3524 6.76509 85.914 6.76509 86.4738 6.76881C86.4996 8.54469 86.4648 10.3206 86.4924 12.0946C88.32 12.0871 90.1464 12.0946 91.974 12.0927C91.9554 10.3113 91.959 8.53359 91.9722 6.75771V6.75771ZM96.1302 6.75771C96.6882 6.76509 97.248 6.76881 97.806 6.75771C97.8648 8.70783 97.7796 10.6616 97.8486 12.6117C98.1582 12.4987 98.3082 12.1909 98.5104 11.9536C99.5814 10.6005 100.672 9.26205 101.741 7.90515C102.056 7.53255 102.327 7.11915 102.679 6.77997C103.336 6.73917 103.995 6.77811 104.653 6.77067C104.257 7.39353 103.736 7.92183 103.276 8.49837C102.608 9.26763 101.99 10.0795 101.318 10.8451C100.784 11.5199 100.199 12.1539 99.6744 12.8361C100.262 13.6368 100.823 14.458 101.398 15.2681C102.314 16.4934 103.157 17.7706 104.068 19.0015C104.297 19.3278 104.505 19.6707 104.776 19.9673C104.114 19.9969 103.448 19.9969 102.788 19.9747C102.436 19.5409 102.142 19.0627 101.81 18.6141C100.721 17.0681 99.6114 15.535 98.5284 13.9835C98.3676 13.7574 98.2116 13.5275 98.0358 13.3106C97.9854 13.3087 97.8852 13.3069 97.8372 13.305C97.806 14.8121 97.8336 16.321 97.824 17.83C97.8132 18.5492 97.854 19.2703 97.7946 19.9896C97.242 19.9784 96.69 19.9877 96.1374 19.984C96.1206 15.5777 96.132 11.1677 96.1302 6.75771V6.75771ZM15.2261 6.77439C17.5507 6.77811 19.8753 6.77625 22.1999 6.77439C23.2027 6.79107 24.2593 6.86895 25.1454 7.38423C25.861 7.79391 26.3263 8.56695 26.4208 9.37887C26.532 10.2223 26.4801 11.1658 25.9388 11.8629C25.6403 12.2966 25.1677 12.571 24.6838 12.7489C25.1306 12.9046 25.5922 13.0566 25.9629 13.3606C26.7062 13.9242 27.0307 14.89 27.0307 15.7965C27.0807 16.7047 26.975 17.6613 26.5135 18.4602C26.0723 19.2073 25.24 19.6299 24.4169 19.8097C23.77 19.971 23.0971 19.9969 22.4315 19.9933C20.0384 19.9988 17.6453 19.9896 15.2521 19.9988C15.2428 19.8246 15.2317 19.6522 15.228 19.4798C15.2261 15.244 15.2373 11.0083 15.2261 6.77439V6.77439ZM19.3822 9.20277C19.3822 10.1222 19.3785 11.0416 19.384 11.9611C20.0125 11.9518 20.6427 11.9778 21.2693 11.95C21.907 11.9277 22.4149 11.329 22.4501 10.7135C22.4705 10.3057 22.4149 9.84597 22.1146 9.54201C21.8513 9.28059 21.4658 9.19719 21.1061 9.19905C20.5334 9.20091 19.9587 9.20091 19.3822 9.20277V9.20277ZM19.384 14.3839C19.3804 15.4516 19.3785 16.5213 19.3859 17.589C19.9865 17.5853 20.5871 17.5908 21.1877 17.5871C21.4899 17.576 21.8013 17.5816 22.0849 17.4648C23.0414 17.1496 23.3084 15.7946 22.7393 15.0309C22.439 14.573 21.8699 14.3746 21.3416 14.3765C20.6891 14.3876 20.0366 14.3765 19.384 14.3839V14.3839ZM28.0947 6.77811C29.7389 6.76881 31.3813 6.78363 33.0274 6.77067C33.9877 9.25839 34.8571 11.7813 35.7765 14.2857C35.8099 14.2838 35.8784 14.2782 35.9118 14.2745C36.6348 11.7683 37.4764 9.29727 38.1993 6.79293C39.6712 6.75213 41.1449 6.78549 42.6186 6.77625C42.5203 7.25451 42.296 7.69197 42.1237 8.14431C41.0207 11.012 39.9029 13.8723 38.7962 16.7362C38.3328 17.9653 37.3559 18.9737 36.1695 19.5243C35.3335 19.9377 34.4029 20.1323 33.476 20.1842C31.8392 20.225 30.2042 20.0266 28.6007 19.7115C28.8677 18.8421 29.1272 17.969 29.3218 17.0811C30.1226 17.259 30.9253 17.4852 31.7539 17.4814C32.4509 17.4926 33.1924 17.4926 33.8227 17.1552C34.1304 17.005 34.3288 16.7159 34.5364 16.4563C33.5798 16.36 32.6252 15.9892 31.943 15.2941C31.4796 14.8362 31.2886 14.1967 31.0328 13.6165C30.1375 11.5774 29.257 9.53457 28.3746 7.49175C28.2671 7.25823 28.1651 7.02465 28.0947 6.77811V6.77811ZM77.3496 6.75585C78.0138 6.77811 78.6792 6.74475 79.3446 6.77625C79.3722 6.79293 79.4262 6.82815 79.4538 6.84669C80.31 9.94425 81.2058 13.0344 82.0584 16.1338C82.4514 17.411 82.7736 18.7068 83.1576 19.9858C82.5588 19.9858 81.96 19.9858 81.3594 19.9877C81.1038 18.9478 80.796 17.9226 80.5404 16.8827C80.4954 16.7159 80.4642 16.5416 80.3658 16.3971C79.0218 16.3859 77.6796 16.4044 76.3362 16.3896C75.9594 17.5723 75.678 18.7828 75.3606 19.9821C74.7642 19.9896 74.1672 19.9914 73.5702 19.9821C74.3652 17.1719 75.159 14.3598 75.9612 11.5514C76.4268 9.95349 76.851 8.34261 77.3496 6.75585V6.75585ZM78.0264 9.90159C77.5686 11.5403 77.0922 13.1753 76.6548 14.8195C77.8002 14.8455 78.9438 14.814 80.0898 14.8344C79.491 12.7842 78.9828 10.708 78.399 8.65221C78.2376 9.05631 78.1356 9.48081 78.0264 9.90159V9.90159ZM59.0296 11.7924C59.4726 11.6533 59.9713 11.6719 60.3918 11.8721C61.002 12.1483 61.4544 12.7693 61.4856 13.444C61.5096 14.0502 61.2708 14.6935 60.774 15.0624C60.2904 15.4498 59.608 15.5499 59.0222 15.3701C58.3622 15.1476 57.8246 14.5452 57.7431 13.8463C57.6041 12.9676 58.1787 12.0501 59.0296 11.7924V11.7924ZM15 22.2381C18.1309 22.1973 21.2618 22.2325 24.3928 22.2214H98.8326C100.888 22.2325 102.944 22.1955 105 22.24C104.952 22.7164 104.974 23.1946 104.974 23.6729C97.761 23.6877 90.5466 23.6748 83.334 23.6785C60.555 23.6729 37.7785 23.684 15 23.6729V22.2381V22.2381Z" fill="#067941"/>
</svg>
