<svg width="120" height="30" viewBox="0 0 120 30" fill="none" xmlns="http://www.w3.org/2000/svg">
<path d="M46.08 18.2399C45.96 18.1799 45.9 18.0599 45.9 17.9999V14.8199C45.9 14.0999 46.02 13.3199 45.72 12.6599C45.18 11.5199 43.62 11.5199 42.54 11.8199C41.76 12.0599 41.46 12.8999 41.4 13.6199C41.4 13.7399 41.34 13.8599 41.34 13.9799C41.34 14.0399 41.34 14.0999 41.46 14.0999L42.84 14.3399C42.9 14.3399 42.96 14.3399 42.96 14.2199C42.96 13.8599 42.9 13.4399 43.2 13.1399C43.38 13.0199 43.68 12.9599 43.86 13.0799C44.1 13.1999 44.1 13.6199 44.1 13.9199C44.1 14.2199 43.8 14.4599 43.56 14.5799C42.78 14.8799 41.76 15.2399 41.52 16.2599C41.34 17.0999 41.28 18.1199 41.52 18.9599C41.64 19.3799 42.06 19.6799 42.42 19.7399C42.96 19.8599 43.44 19.7399 43.8 19.3799C43.92 19.2599 43.92 19.1999 44.04 19.1399C44.1 19.0799 44.16 19.1399 44.16 19.1399C44.22 19.2599 44.22 19.3799 44.34 19.4999C44.76 19.8599 45.48 19.6799 46.02 19.7399C46.08 19.7399 46.14 19.6799 46.14 19.6199L46.2 18.4199C46.32 18.2399 46.2 18.2399 46.08 18.2399V18.2399ZM44.16 17.5199C44.16 17.6399 44.1 17.8199 44.04 17.8799C43.98 17.9999 43.8 18.0599 43.68 18.1199C43.56 18.1199 43.44 18.0599 43.32 17.9999C43.2 17.8199 43.2 17.5799 43.2 17.3399C43.2 16.8599 43.2 16.4399 43.62 16.1399C43.74 16.0199 43.86 15.8999 44.04 15.8399C44.1 15.7799 44.16 15.8999 44.16 15.9599V17.5199V17.5199ZM66.6 12.4199C66.24 11.8199 65.4 11.5199 64.74 11.6999L64.26 11.9399C64.2 11.9399 64.08 11.9999 64.08 11.8199C64.08 11.4599 64.44 11.0399 64.8 10.8599C65.28 10.6199 65.94 10.4399 66.42 10.1399C67.02 9.7199 67.26 9.3599 67.26 8.6999C67.26 8.6399 67.26 8.5799 67.2 8.5799L65.76 8.3399C65.7 8.3399 65.64 8.3399 65.64 8.3999C65.64 8.6999 65.46 9.0599 65.16 9.1799C64.44 9.5399 63.96 9.4799 63.36 10.0799C62.52 10.9799 62.58 12.7199 62.52 13.9199C62.52 14.6999 62.52 16.4399 62.58 16.7999C62.58 17.2799 62.64 17.8199 62.76 18.2399C63.06 19.1999 63.84 19.6199 64.74 19.6199C65.64 19.6199 66.48 19.2599 66.78 18.2399C66.96 17.5799 67.02 16.3199 66.96 15.2999C67.02 14.3999 67.08 13.2599 66.6 12.4199V12.4199ZM65.28 17.1599C65.28 17.5799 65.22 18.0599 65.04 18.2399C64.98 18.2999 64.92 18.2999 64.8 18.2999C64.74 18.2999 64.62 18.2999 64.62 18.2399C64.44 18.0599 64.32 17.5199 64.32 17.0999V14.3999C64.32 13.9799 64.32 13.4399 64.5 13.1399C64.56 13.0199 64.68 12.9599 64.8 12.9599C64.92 12.9599 65.1 13.0799 65.16 13.1399C65.28 13.3799 65.28 13.9799 65.34 14.3999C65.34 15.3599 65.34 16.2599 65.28 17.1599V17.1599ZM72.3 11.6399C72.36 11.6399 72.42 11.6999 72.36 11.8199L71.04 15.0599V15.1799L72.54 19.4999C72.54 19.5599 72.54 19.6199 72.48 19.6199H70.98C70.86 19.5599 70.86 19.5599 70.86 19.4399L69.72 16.0799C69.66 15.9599 69.54 16.0199 69.54 16.1399L69.6 19.4399C69.6 19.4999 69.6 19.5599 69.48 19.5599H67.98C67.92 19.5599 67.86 19.4999 67.86 19.4399V11.6999C67.86 11.6399 67.86 11.5799 67.98 11.5799H69.42C69.48 11.5799 69.54 11.6399 69.54 11.6999C69.54 12.7799 69.48 13.1399 69.54 14.2199C69.54 14.3399 69.66 14.3399 69.72 14.2199L70.74 11.6999C70.74 11.6399 70.8 11.5799 70.92 11.6399C71.4 11.6999 71.82 11.6399 72.3 11.6399V11.6399ZM97.86 11.6999H99.42C99.48 11.6999 99.48 11.7599 99.48 11.7599V19.5599C99.48 19.6199 99.42 19.6799 99.36 19.6799H97.86C97.8 19.6799 97.74 19.6199 97.74 19.5599V15.9599C97.74 15.8999 97.68 15.8399 97.62 15.8399H96.78C96.72 15.8399 96.66 15.8999 96.66 15.9599V19.6199C96.66 19.6799 96.6 19.7399 96.54 19.7399H95.04C94.98 19.7399 94.92 19.6799 94.92 19.6199V11.8199C94.92 11.7599 94.98 11.7599 94.98 11.7599H96.54C96.6 11.7599 96.6 11.8199 96.6 11.8199V14.3399C96.6 14.3999 96.6 14.4599 96.72 14.4599H97.56C97.62 14.4599 97.68 14.3999 97.68 14.3399V11.8199C97.8 11.6999 97.86 11.6999 97.86 11.6999V11.6999ZM104.76 11.6399C104.82 11.6399 104.88 11.6999 104.82 11.8199L103.5 15.0599V15.1799L105 19.4999C105 19.5599 105 19.6199 104.94 19.6199H103.44C103.32 19.5599 103.32 19.5599 103.32 19.4399L102.18 16.0799C102.12 15.9599 102 16.0199 102 16.1399L102.06 19.4399C102.06 19.4999 102.06 19.5599 101.94 19.5599H100.44C100.38 19.5599 100.32 19.4999 100.32 19.4399V11.6999C100.32 11.6399 100.32 11.5799 100.44 11.5799H101.88C101.94 11.5799 102 11.6399 102 11.6999C102 12.7799 101.94 13.1399 102 14.2199C102 14.3399 102.12 14.3399 102.18 14.2199L103.2 11.6999C103.2 11.6399 103.26 11.5799 103.38 11.6399C103.86 11.6999 104.28 11.6399 104.76 11.6399V11.6399ZM94.2 18.2399C94.08 18.1799 94.02 18.0599 94.02 17.9999V14.8199C94.02 14.0999 94.14 13.3199 93.84 12.6599C93.3 11.5199 91.74 11.5199 90.66 11.8199C89.88 12.0599 89.58 12.8999 89.52 13.6199C89.52 13.7399 89.46 13.8599 89.46 13.9799C89.46 14.0399 89.46 14.0999 89.58 14.0999L90.96 14.3399C91.02 14.3399 91.08 14.3399 91.08 14.2199C91.08 13.8599 91.02 13.4399 91.32 13.1399C91.5 13.0199 91.8 12.9599 91.98 13.0799C92.22 13.1999 92.22 13.6199 92.22 13.9199C92.22 14.2199 91.92 14.4599 91.68 14.5799C90.9 14.8799 89.88 15.2399 89.64 16.2599C89.46 17.0999 89.4 18.1199 89.64 18.9599C89.76 19.3799 90.18 19.6799 90.54 19.7399C91.08 19.8599 91.56 19.7399 91.92 19.3799C92.04 19.2599 92.04 19.1999 92.16 19.1399C92.22 19.0799 92.28 19.1399 92.28 19.1399C92.34 19.2599 92.34 19.3799 92.46 19.4999C92.88 19.8599 93.6 19.6799 94.14 19.7399C94.2 19.7399 94.26 19.6799 94.26 19.6199L94.32 18.4199C94.38 18.2399 94.26 18.2399 94.2 18.2399V18.2399ZM92.28 17.5199C92.28 17.6399 92.22 17.8199 92.16 17.8799C92.1 17.9999 91.92 18.0599 91.8 18.1199C91.68 18.1199 91.56 18.0599 91.44 17.9999C91.32 17.8199 91.32 17.5799 91.32 17.3399C91.32 16.8599 91.32 16.4399 91.74 16.1399C91.86 16.0199 91.98 15.8999 92.16 15.8399C92.22 15.7799 92.28 15.8999 92.28 15.9599C92.22 16.4999 92.28 17.0399 92.28 17.5199ZM78.06 11.6999C78.6 11.6999 79.02 11.7599 79.74 11.6999C79.8 11.6999 79.86 11.7599 79.92 11.8199L80.76 15.4199C80.76 15.5399 80.94 15.5399 80.94 15.4199L81.78 11.8199C81.78 11.7599 81.84 11.6999 81.96 11.6999C82.56 11.7599 82.98 11.6999 83.64 11.6999C83.7 11.6999 83.76 11.7599 83.76 11.8199V19.5599C83.76 19.6199 83.7 19.6799 83.64 19.6799H82.2C82.14 19.6799 82.08 19.6199 82.08 19.5599V15.3599C82.08 15.2399 81.96 15.2399 81.9 15.3599L81.3 18.5999C81.3 18.6599 81.24 18.7199 81.12 18.7199H80.46C80.4 18.7199 80.34 18.6599 80.28 18.5999L79.68 15.3599C79.68 15.2399 79.5 15.2399 79.5 15.3599V19.5599C79.5 19.6199 79.44 19.6799 79.38 19.6799H78C77.94 19.6799 77.88 19.6199 77.88 19.5599V11.8199C77.88 11.6999 77.94 11.6999 78.06 11.6999V11.6999ZM76.98 15.4199C76.98 14.3999 77.04 13.2599 76.56 12.3599C76.44 12.1199 76.2 11.9399 75.96 11.8199C75.6 11.5799 75.24 11.5799 74.76 11.5799C74.28 11.5799 73.92 11.5799 73.56 11.8199C73.32 11.9399 73.08 12.1199 72.96 12.3599C72.48 13.2599 72.54 14.3399 72.54 15.4199C72.54 16.4399 72.54 17.5199 72.72 18.3599C72.84 18.8999 73.38 19.4399 73.86 19.6199C74.1 19.6799 74.4 19.7399 74.7 19.7399C75 19.7399 75.3 19.6799 75.54 19.6199C76.08 19.4399 76.56 18.9599 76.68 18.3599C76.98 17.5199 77.04 16.4399 76.98 15.4199V15.4199ZM75.24 14.3999V17.0999C75.24 17.5199 75.18 18.0599 75 18.2399C74.94 18.2999 74.88 18.2399 74.82 18.2399H74.64C74.46 18.0599 74.4 17.5199 74.4 17.0999V14.3999C74.4 13.9799 74.4 13.4999 74.58 13.1399C74.64 13.0199 74.7 13.0199 74.82 13.0199C74.94 13.0199 75.06 13.0799 75.06 13.1399C75.24 13.4999 75.24 13.9799 75.24 14.3999ZM57.3 18.0599V11.8199C57.3 11.7599 57.36 11.6999 57.36 11.6999H58.86C58.92 11.6999 58.98 11.6999 58.98 11.8199V17.9399C58.98 18.1199 59.16 18.4199 59.46 18.3599C59.76 18.2999 59.88 18.1799 59.88 17.8799V11.7599C59.88 11.6999 59.94 11.6399 60 11.6399H61.5C61.56 11.6399 61.62 11.6999 61.62 11.7599V19.4999C61.62 19.5599 61.56 19.6199 61.5 19.6199H60C59.94 19.6199 59.94 19.6199 59.88 19.4999V19.1999C59.88 19.1399 59.82 19.1399 59.76 19.1399C59.58 19.1999 59.46 19.3799 59.28 19.4999C58.86 19.7399 58.2 19.7399 57.78 19.4999C57.36 19.1999 57.3 18.5999 57.3 18.0599ZM56.34 12.4199C56.64 13.0199 56.52 13.4999 56.58 14.2199C56.58 14.3399 56.58 14.5199 56.52 14.5199L55.08 14.7599C55.02 14.7599 54.96 14.6999 54.96 14.6399C54.96 14.0999 55.02 13.9199 54.96 13.3799C54.9 13.1999 54.9 13.0199 54.66 12.9599C54.54 12.8999 54.36 12.9599 54.3 13.0199C54 13.2599 54.06 13.6799 54.06 14.0399V17.4599C54.06 17.6999 54.06 18.0599 54.36 18.1799C54.54 18.2399 54.66 18.2399 54.84 18.1199C54.96 17.9399 55.02 17.7599 55.02 17.5799C55.08 17.0399 55.02 16.3799 55.02 15.8399C55.02 15.7799 55.08 15.7199 55.14 15.7199L56.58 16.0199C56.64 16.0199 56.7 16.0799 56.7 16.1399V16.3799C56.64 17.5199 56.94 19.0799 55.68 19.5599C54.96 19.8599 54.06 19.7999 53.34 19.5599C52.8 19.3799 52.44 18.7799 52.38 18.1799C52.26 16.1999 52.38 15.8399 52.32 13.7399C52.32 12.9599 52.5 12.1799 53.22 11.7599C53.82 11.4599 54.6 11.4599 55.26 11.5799C55.62 11.6999 56.1 11.9399 56.34 12.4199V12.4199ZM51.42 19.5599C51.42 19.6199 51.36 19.6799 51.3 19.6799H49.8C49.74 19.6799 49.68 19.6799 49.68 19.5599V13.0199C49.68 12.9599 49.68 12.8999 49.56 12.8999H48.9C48.84 12.8999 48.78 12.8999 48.78 13.0199V19.4999C48.78 19.5599 48.78 19.6199 48.66 19.6199H47.16C47.1 19.6199 47.04 19.5599 47.04 19.4999V11.7599C47.04 11.6999 47.1 11.6399 47.16 11.6399C48.36 11.6399 49.8 11.6999 51.3 11.6399C51.36 11.6399 51.42 11.6999 51.42 11.7599V19.5599ZM36.18 9.2999C35.88 10.0199 35.94 10.7399 35.88 11.5799C35.88 11.6999 35.94 11.6999 36 11.6999L37.62 11.9999C37.68 11.9999 37.74 11.9399 37.74 11.8799C37.74 11.2799 37.68 10.9799 37.8 10.4399C37.86 10.2599 37.98 9.9599 38.22 9.9599C38.4 9.8999 38.52 9.9599 38.64 10.0199C39 10.3799 38.88 11.3399 38.88 11.8199C38.76 12.4199 38.22 12.8999 37.68 12.8999C37.56 12.8999 37.56 12.9599 37.56 13.0799C37.62 13.4999 37.56 13.9199 37.56 14.3399C37.56 14.3999 37.62 14.4599 37.68 14.4599C38.4 14.4599 38.88 14.6399 38.88 15.0599V17.0999C38.88 17.3999 38.88 17.7599 38.52 17.8799C38.34 17.9399 38.1 17.9399 37.92 17.7599C37.74 17.5799 37.74 17.3999 37.68 17.1599C37.62 16.5599 37.68 15.8999 37.68 15.2999C37.68 15.2399 37.62 15.1799 37.56 15.1799L35.94 15.5999C35.88 15.5999 35.82 15.5999 35.82 15.7799C35.88 17.0399 35.58 18.9599 36.96 19.4999C37.8 19.8599 38.82 19.7999 39.66 19.4999C40.26 19.2599 40.68 18.5999 40.74 17.9399C40.8 16.9799 40.8 16.1999 40.8 15.1799C40.8 14.5199 40.5 13.8599 40.02 13.6799C39.9 13.6799 39.96 13.4999 40.02 13.4399C40.44 13.1399 40.8 12.5399 40.8 11.8799V10.7999C40.8 9.8999 40.62 8.9999 39.78 8.5799C39.12 8.2199 38.16 8.2199 37.44 8.3399C36.96 8.5199 36.42 8.8199 36.18 9.2999ZM88.56 12.4199C88.2 11.8199 87.36 11.5199 86.7 11.6999L86.22 11.9399C86.16 11.9399 86.04 11.9999 86.04 11.8199C86.04 11.4599 86.4 11.0399 86.76 10.8599C87.24 10.6199 87.9 10.4399 88.38 10.1399C88.98 9.7199 89.22 9.3599 89.22 8.6999C89.22 8.6399 89.22 8.5799 89.16 8.5799L87.72 8.3399C87.66 8.3399 87.6 8.3399 87.6 8.3999C87.6 8.6999 87.42 9.0599 87.12 9.1799C86.4 9.5399 85.92 9.4799 85.32 10.0799C84.48 10.9799 84.54 12.7199 84.48 13.9199C84.48 14.6999 84.48 16.4399 84.54 16.7999C84.54 17.2799 84.6 17.8199 84.72 18.2399C85.02 19.1999 85.8 19.6199 86.7 19.6199C87.6 19.6199 88.44 19.2599 88.74 18.2399C88.92 17.5799 88.98 16.3199 88.92 15.2999C88.98 14.3999 89.04 13.2599 88.56 12.4199V12.4199ZM87.24 17.1599C87.24 17.5799 87.18 18.0599 87 18.2399C86.94 18.2999 86.88 18.2999 86.76 18.2999C86.7 18.2999 86.58 18.2999 86.58 18.2399C86.4 18.0599 86.28 17.5199 86.28 17.0999V14.3999C86.28 13.9799 86.28 13.4399 86.46 13.1399C86.52 13.0199 86.64 12.9599 86.76 12.9599C86.88 12.9599 87.06 13.0799 87.12 13.1399C87.24 13.3799 87.24 13.9799 87.3 14.3999C87.24 15.3599 87.24 16.2599 87.24 17.1599ZM24.3 5.3999C19.2 5.3999 15 9.5999 15 14.7599C15 19.8599 19.2 24.0599 24.3 24.0599C29.46 24.0599 33.66 19.8599 33.66 14.7599C33.66 9.5999 29.46 5.3999 24.3 5.3999ZM24.3 22.6199C20.94 22.6199 18.12 20.5199 16.92 17.5799L18.36 17.5199C19.44 19.7399 21.66 21.2399 24.24 21.2399C27 21.2399 29.46 19.4999 30.36 16.9799L27.42 14.6999L30.36 12.4199C29.46 9.9599 27 8.1599 24.3 8.1599C21.78 8.1599 19.62 9.5999 18.54 11.6399L17.1 11.5799C18.3 8.7599 21.12 6.8399 24.3 6.8399C27.96 6.8399 30.96 9.2999 31.92 12.6599L29.22 14.6999L31.98 16.7999H31.92C30.96 20.0999 27.9 22.6199 24.3 22.6199V22.6199ZM26.52 12.1199H28.26L25.32 14.6999L28.74 17.2799H26.82L23.88 15.1199V17.2799L22.62 17.2199V12.0599H23.88V14.3399L26.52 12.1199ZM26.64 11.8199C26.04 11.2799 25.2 10.9799 24.3 10.9799C23.22 10.9799 22.26 11.3999 21.54 12.1199C20.94 12.8399 20.52 13.7999 20.52 14.7599C20.52 16.6799 21.96 18.2999 23.88 18.4799C24.06 18.5399 24.18 18.5399 24.3 18.5399C25.2 18.5399 25.98 18.2399 26.64 17.7599H28.5C27.54 19.0799 26.04 19.9199 24.3 19.9199C21.48 19.9199 19.2 17.6399 19.2 14.8199C19.2 13.4999 19.68 12.3599 20.46 11.3999C21.3 10.4399 22.5 9.8399 23.88 9.6599H24.3C26.04 9.6599 27.54 10.4999 28.5 11.8799H26.64V11.8199Z" fill="#006D78"/>
</svg>
