<svg width="120" height="30" viewBox="0 0 120 30" fill="none" xmlns="http://www.w3.org/2000/svg">
<path d="M21 26.1768L32.2807 26.1615L32.273 14.9956C29.9219 19.4528 25.5184 22.3476 21 23.4581C21.0153 24.3005 21 26.1768 21 26.1768Z" fill="#008FB4"/>
<path d="M24.607 20.5555C28.865 18.4035 30.9175 14.4748 30.9175 14.4748C30.9175 14.4748 30.9022 13.1805 30.9022 13.1575C28.5587 12.3304 26.4297 11.1205 24.6147 9.31309C24.6223 12.3764 24.607 20.5555 24.607 20.5555V20.5555ZM25.2121 3.65356C25.2121 3.65356 25.2121 7.06915 25.2044 7.91923C26.3302 8.96077 26.8892 9.44323 28.0533 10.1861L28.0609 5.60643C26.7361 4.87889 26.2229 4.49598 25.2121 3.65356V3.65356Z" fill="#008FB4"/>
<path d="M41.9531 7.25314C41.8535 6.64048 41.5089 6.23458 40.9345 6.04312C40.6512 5.95121 40.3372 5.8976 39.9542 5.87463C39.7245 5.85931 39.4871 5.87463 39.265 5.8976H39.1731V4.56505L40.2606 4.57271L41.4629 4.7412L41.5089 3.65371H37.7946L37.9401 5.00923L37.9555 8.04196L37.787 9.48172H38.0014C38.0014 9.48172 38.5069 9.47404 38.7519 9.48172C38.8821 9.48172 39.0123 9.48934 39.1425 9.49702C39.3263 9.5047 39.5101 9.52 39.6939 9.52H39.8241C40.521 9.5047 41.057 9.32854 41.4553 8.99158C42.0603 8.46316 42.0297 7.7509 41.9531 7.25314V7.25314ZM40.7431 7.55182C40.7431 7.68202 40.7354 7.78918 40.7201 7.88878C40.6742 8.16448 40.5286 8.35594 40.2913 8.45548C39.9772 8.59336 39.6326 8.62396 39.1655 8.57038V6.83956C39.5867 6.78598 40.0002 6.77068 40.3831 6.96208C40.6282 7.09228 40.7431 7.28374 40.7431 7.55182ZM45.6367 4.31998L45.4606 3.6001L44.2352 3.61542L44.0974 4.25106L42.6193 8.08024L41.9761 9.45106L43.255 9.47404L43.4771 8.42482L43.7834 7.62838H45.6214L46.0426 8.64694L46.2647 9.46636H47.9189L47.3522 8.49376L45.6367 4.31998V4.31998ZM45.2768 6.74002C45.0853 6.74002 44.8862 6.7477 44.6871 6.75532C44.4956 6.763 44.2965 6.763 44.1127 6.77062C44.2276 6.49492 44.3425 6.2116 44.4574 5.93589C44.5492 5.72911 44.6335 5.52234 44.7177 5.31556L45.2768 6.74002V6.74002ZM57.4996 9.46636L59.1845 9.45106L56.504 6.41068L59.0237 3.63838L57.5456 3.64604L57.1014 4.26636C57.1014 4.26636 55.968 5.51467 55.3553 6.19624V4.68757L55.5314 3.6537H53.9845L54.0764 4.67226L54.0994 8.26402L53.9845 9.45868H55.5314L55.363 8.27164V6.84724L57.4996 9.46636V9.46636ZM52.9198 7.7203C52.9198 7.3297 52.9352 4.71057 52.9352 4.71057L53.073 3.66904H51.5413L51.6639 4.67994C51.6639 4.67994 51.6638 5.44577 51.6715 5.90527H49.5042C49.4889 5.24665 49.4966 4.57272 49.6651 3.9141L49.7263 3.67669H48.1334L48.1564 3.89113C48.164 3.96771 48.2559 4.77184 48.2713 5.1471C48.2942 5.92824 48.2866 6.73234 48.2789 7.49818V7.67434C48.2789 8.00368 48.2023 9.01456 48.164 9.19834L48.1181 9.42046H49.6574L49.6344 9.20602C49.6191 9.06814 49.6038 8.93794 49.5884 8.80012C49.5502 8.50144 49.5119 8.21044 49.4966 7.92706C49.4812 7.63606 49.4812 7.33738 49.4889 7.04638V6.83956H51.6945C51.6945 6.98512 51.6945 7.13062 51.7022 7.27612C51.7098 7.93474 51.7175 8.5627 51.549 9.18304L51.4877 9.42046H53.096L53.0423 9.19072C52.9352 8.65462 52.9198 8.11852 52.9198 7.7203V7.7203ZM72.219 12.3306L72.2646 12.1008H68.9796L69.0024 12.3153C69.117 13.3032 69.2016 14.2222 69.2628 15.1412C69.3012 15.7998 69.2934 16.4737 69.2856 17.1323C69.2856 17.3621 69.2778 17.5995 69.2778 17.8293H63.1362C63.1056 16.0295 63.0828 14.1686 63.5496 12.3459L63.6108 12.1085H60.2262L60.2568 12.3229C60.2568 12.3459 60.5094 14.5362 60.5478 15.5777C60.609 17.5842 60.5934 19.629 60.5706 21.6048V22.0719C60.5628 22.9374 60.3714 25.5642 60.2796 26.0313L60.2334 26.2611H63.4962L63.4728 26.0466C63.435 25.702 63.3888 25.365 63.3504 25.0281C63.2508 24.2775 63.159 23.5041 63.1134 22.7535C63.0672 21.9954 63.0828 21.2142 63.09 20.4637C63.09 20.188 63.0978 19.9123 63.0978 19.6366H69.3396C69.3396 20.1038 69.3396 20.5786 69.3468 21.0381C69.3702 22.7612 69.393 24.3848 68.949 26.0237L68.88 26.2687H72.2724L72.2268 26.039C71.9586 24.6452 71.9124 23.259 71.9046 22.2098C71.8974 21.1606 71.9046 16.5273 71.9508 15.2408C71.9892 14.0154 72.0732 13.0658 72.219 12.3306V12.3306ZM52.1846 24.5379V19.5141C53.7546 19.56 56.749 19.7975 56.7796 19.7975L56.9864 19.8128L56.9941 17.5153L52.1846 17.791V13.8316C53.6167 13.8163 56.3048 13.801 57.6986 14.2298L57.913 14.2988L57.9437 14.0767C58.0432 13.3491 57.9743 12.3306 57.9667 12.2923L57.9514 12.1161H49.2745L49.3127 12.3383C49.6037 14.1992 49.5884 16.0832 49.5655 17.9058C49.5578 18.327 49.5578 18.7482 49.5578 19.1771C49.5808 21.8729 49.2898 26.016 49.2821 26.0543L49.2668 26.2611L57.8977 26.2994L57.9054 26.1079C57.9207 25.6484 57.959 24.4154 57.982 24.2393L58.0126 23.9789L57.7522 24.0325C56.0368 24.3771 54.4132 24.5303 52.1846 24.5379V24.5379ZM44.8097 18.3347C44.848 18.3117 44.8862 18.2811 44.9245 18.2582C45.7057 17.7297 46.6017 16.9486 46.6553 15.616C46.7319 13.778 45.7286 12.4761 43.8983 12.0549C42.3207 11.6873 40.6972 11.7486 38.9357 12.231L38.9128 12.2387C38.0627 12.4761 37.9172 12.5527 37.9402 12.7518C37.9861 13.1271 38.0627 13.5406 38.1316 13.9465C38.1852 14.2452 38.2388 14.5439 38.2771 14.8349C38.2924 14.9421 38.369 15.0263 38.4686 15.0646C38.5681 15.0953 38.683 15.0646 38.752 14.988L38.8592 14.8731C39.6862 14.0001 40.7661 13.5942 42.1369 13.6172C43.01 13.6325 43.7375 14.1839 43.906 14.9574C44.1358 16.0219 43.7452 16.9486 42.9257 17.3162C42.5275 17.4923 42.068 17.6225 41.5166 17.7221C40.9805 17.814 39.9236 17.8905 39.9083 17.8905L39.7169 17.9058L39.7934 19.7132L39.9849 19.7055C39.9926 19.7055 40.9346 19.6749 41.7233 19.6749C42.0757 19.6749 43.2167 19.7515 43.7988 20.1038C44.3119 20.4101 44.6795 20.9156 44.7867 21.4517C44.9399 22.2558 45.0777 24.1704 42.987 24.6299C41.1796 25.0281 39.7016 24.6299 38.6064 23.4505C38.5145 23.3509 38.4149 23.2514 38.3078 23.1288L38.1929 23.0063C38.1239 22.9297 38.0244 22.9067 37.9249 22.9374C37.8329 22.968 37.764 23.0523 37.7487 23.1518L37.6951 23.596C37.6415 24.0325 37.5955 24.4384 37.5266 24.8366C37.473 25.1813 37.5878 25.411 37.9172 25.5872C39.1349 26.2535 40.4827 26.5904 41.9225 26.5904C42.1982 26.5904 42.4739 26.5751 42.7573 26.5521C43.9136 26.4525 44.9782 26.0313 45.8282 25.3268C47.0689 24.3082 47.6356 23.0752 47.4977 21.6584C47.3905 20.0272 46.4715 18.9091 44.8097 18.3347V18.3347ZM86.1726 20.0961V19.2001V18.3653C86.1648 16.3589 86.157 14.2835 86.517 12.3382L86.5554 12.1085H83.1702L83.2164 12.3382C83.331 12.9432 83.4306 13.5866 83.5074 14.2452C83.5302 14.4519 83.5074 14.5515 83.4 14.6664C82.3278 15.8151 81.2712 16.9868 80.2602 18.1203C79.3332 19.1541 78.3762 20.2187 77.3958 21.2755C77.4186 20.3871 77.4036 19.5064 77.3808 18.641C77.3346 16.4737 77.2962 14.4213 77.8326 12.3612L77.8938 12.1161H74.4246L74.5008 12.3612C74.8224 13.4181 74.8224 14.4519 74.8302 15.5471V16.6039C74.838 18.4496 74.8458 20.3565 74.8224 22.2251C74.8224 22.5085 74.8302 22.7918 74.838 23.0675C74.8536 23.5883 74.8686 24.1167 74.8152 24.6375C74.7846 24.9515 74.7078 25.2578 74.631 25.5795C74.5932 25.725 74.5626 25.8782 74.5314 26.0313L74.4858 26.2611H77.8248L77.7864 26.039C77.7174 25.5795 77.664 25.12 77.6178 24.6758C77.5872 24.4154 77.5644 24.1627 77.5338 23.9023C77.5182 23.7951 77.5722 23.6343 77.6334 23.5653C78.5832 22.5315 79.5252 21.4899 80.4288 20.479C81.4548 19.3303 82.5192 18.1509 83.607 16.9792V18.9244C83.5992 19.5524 83.607 20.188 83.6142 20.8007C83.622 21.7503 83.6376 22.7306 83.5914 23.6879C83.5686 24.2163 83.4768 24.7371 83.3844 25.2885C83.3388 25.5335 83.3004 25.7862 83.262 26.0313L83.2314 26.2534H86.5554L86.5092 26.0237C86.1648 24.1703 86.1726 22.1026 86.1726 20.0961V20.0961ZM94.719 13.9925C94.719 13.9618 94.719 13.9235 94.7268 13.8776L99 14.429L98.7246 12.0855H88.041L87.8034 14.429L92.3754 13.8776V22.8149L91.9314 26.2764H95.1708L94.7652 22.8761C94.7652 22.8072 94.7268 16.9179 94.719 13.9925Z" fill="#191646"/>
</svg>
