<svg width="120" height="30" viewBox="0 0 120 30" fill="none" xmlns="http://www.w3.org/2000/svg">
<path d="M105.24 10.7999L103.08 16.0799C103.08 16.1399 103.02 16.1999 103.02 16.3199L102.96 16.4399L102.9 16.3199C102.9 16.2599 102.84 16.1999 102.84 16.0799L100.68 10.7999H97.8L101.58 19.9199L100.02 23.3999H102.9L108 10.7999H105.24V10.7999ZM84.18 11.3399C83.64 10.9799 83.04 10.7399 82.32 10.6799C81.06 10.5599 79.86 10.9799 79.08 11.8799V10.7999H76.5V19.9199H79.08V15.1199C79.08 14.0399 79.32 13.7999 79.44 13.4999C79.74 12.9599 80.34 12.7199 81 12.7799C81.66 12.7799 82.38 13.0799 82.68 13.5599C82.92 13.9199 82.92 14.3399 82.92 14.6399V19.8599H85.5V14.3999C85.44 12.9599 85.02 11.9999 84.18 11.3399V11.3399ZM71.64 10.8599C70.38 10.4399 69 10.4999 67.74 11.0999C66.84 11.4599 66.18 12.1199 65.64 12.9599C65.16 13.6799 64.98 14.5199 64.98 15.4799C64.98 16.4399 65.22 17.2199 65.64 17.9999C66.12 18.7199 66.72 19.2599 67.44 19.6799C68.22 20.0399 69.12 20.2799 69.9 20.2799C70.38 20.2799 70.8 20.2199 71.28 20.1599C71.64 20.0999 72.06 19.9199 72.42 19.7399C73.2 19.3199 73.8 18.7799 74.22 18.1199C74.7 17.3999 74.88 16.5599 74.88 15.5999C74.82 13.3199 73.62 11.6399 71.64 10.8599V10.8599ZM72.3 15.4199C72.3 16.1999 72 16.8599 71.46 17.3399C71.1 17.6999 70.56 17.8799 69.78 17.8799C69.12 17.8799 68.58 17.6399 68.1 17.3399C67.56 16.9199 67.32 16.2599 67.26 15.4199C67.26 14.5199 67.56 13.7399 68.22 13.1999C68.58 12.8999 69.06 12.7799 69.66 12.7799C70.26 12.7799 70.74 12.8999 71.1 13.1999C72 13.7399 72.42 14.5799 72.3 15.4199ZM62.04 11.3399C61.56 10.9799 60.9 10.7399 60.18 10.6799H59.7C58.62 10.6799 57.84 11.0999 57.06 11.9999L56.88 12.1199H56.58C56.34 11.8199 56.1 11.5199 55.8 11.3999C55.32 10.9799 54.72 10.7399 54 10.6799C52.8 10.5599 51.84 10.9199 51 11.7599V10.7999H48.42V19.9199H51V15.0599C51 14.0399 51.18 13.7999 51.3 13.4999C51.6 12.9599 52.2 12.7199 52.8 12.7199C53.4 12.7199 54 13.0199 54.3 13.4999C54.54 13.8599 54.54 14.2799 54.54 14.7599V19.7999H57.18V14.9999C57.18 14.0999 57.36 13.7399 57.48 13.4399C57.78 12.8999 58.38 12.7199 58.98 12.7199C59.58 12.7199 60.12 13.0799 60.42 13.4999C60.6 13.7999 60.66 14.1599 60.66 14.4599V19.8599H63.24V14.3999C63.24 13.8599 63.18 13.4399 63.06 13.0199C62.94 12.2999 62.58 11.6999 62.04 11.3399V11.3399ZM95.16 17.1599C94.8 17.5199 93.9 18.1799 92.7 18.2399C91.74 18.2399 90.9 17.9999 90.36 17.4599C90.12 17.1599 89.88 16.8599 89.82 16.4999H96.96V16.4399C97.02 16.0799 97.02 15.7199 97.02 15.4199C97.02 15.1199 96.96 14.6999 96.78 14.0999C96.48 13.0799 95.88 12.2399 95.04 11.5799C94.14 10.9199 93.24 10.6799 93 10.6799C91.14 10.3799 89.04 11.2199 87.96 12.8999C87.18 14.0999 87.18 15.2399 87.3 15.5999C87.3 16.0199 87.36 17.4599 88.5 18.5999C89.76 19.9799 91.68 20.0399 92.28 20.1599C94.86 20.2199 96.54 18.7199 96.96 18.2999L95.16 17.1599ZM90.72 13.3199C91.08 13.0199 91.56 12.8999 92.16 12.8999C92.76 12.8999 93.24 13.0199 93.6 13.3199C93.96 13.6199 94.26 13.9799 94.44 14.5199H89.88C90.06 13.9799 90.36 13.6199 90.72 13.3199V13.3199Z" fill="black"/>
<path d="M30.78 4.86011C25.02 4.86011 20.4 9.42011 20.4 15.0001C20.4 20.5801 25.08 25.1401 30.78 25.1401C36.48 25.1401 41.16 20.5801 41.16 15.0001C41.22 9.42011 36.48 4.86011 30.78 4.86011V4.86011ZM30.78 18.7201C28.68 18.7201 26.88 17.0401 26.88 15.0001C26.88 12.9601 28.62 11.2801 30.78 11.2801C32.94 11.2801 34.68 12.9601 34.68 15.0001C34.62 17.0401 32.94 18.7201 30.78 18.7201ZM20.4 7.86011V22.6201H16.74L12 7.86011H20.4Z" fill="#8B3FFD"/>
</svg>
